<svg xmlns="http://www.w3.org/2000/svg" viewBox="0 0 560 1440" width="560" height="1440"><g xmlns="http://www.w3.org/2000/svg" transform="matrix(0 1 -1 0 560 -0)"><g mask="url(&quot;#SvgjsMask1216&quot;)" fill="none"><rect width="1440" height="560" x="0" y="0" fill="rgba(19, 20, 20, 1)"></rect><path d="M1238.1 180.37L1395.72 271.37L1395.72 453.37L1238.1 544.37L1080.48 453.37L1080.48 271.37z" stroke="rgba(93, 3, 3, 1)" stroke-width="2"></path><path d="M1219.9 180.37 a18.2 18.2 0 1 0 36.4 0 a18.2 18.2 0 1 0 -36.4 0zM1377.52 271.37 a18.2 18.2 0 1 0 36.4 0 a18.2 18.2 0 1 0 -36.4 0zM1377.52 453.37 a18.2 18.2 0 1 0 36.4 0 a18.2 18.2 0 1 0 -36.4 0zM1219.9 544.37 a18.2 18.2 0 1 0 36.4 0 a18.2 18.2 0 1 0 -36.4 0zM1062.28 453.37 a18.2 18.2 0 1 0 36.4 0 a18.2 18.2 0 1 0 -36.4 0zM1062.28 271.37 a18.2 18.2 0 1 0 36.4 0 a18.2 18.2 0 1 0 -36.4 0z" fill="rgba(93, 3, 3, 1)"></path><path d="M103.38 332.51L179.59 376.51L179.59 464.51L103.38 508.51L27.17 464.51L27.17 376.51zM27.17 464.51L103.38 508.51L103.38 596.51L27.17 640.51L-49.04 596.51L-49.04 508.51zM255.81 68.51L332.02 112.51L332.02 200.51L255.81 244.51L179.59 200.51L179.59 112.51zM332.02 -63.49L408.23 -19.49L408.23 68.51L332.02 112.51L255.81 68.51L255.81 -19.49zM332.02 464.51L408.23 508.51L408.23 596.51L332.02 640.51L255.81 596.51L255.81 508.51zM789.29 -63.49L865.51 -19.49L865.51 68.51L789.29 112.51L713.08 68.51L713.08 -19.49zM1017.93 68.51L1094.14 112.51L1094.14 200.51L1017.93 244.51L941.72 200.51L941.72 112.51zM1170.36 68.51L1246.57 112.51L1246.57 200.51L1170.36 244.51L1094.14 200.51L1094.14 112.51zM1170.36 332.51L1246.57 376.51L1246.57 464.51L1170.36 508.51L1094.14 464.51L1094.14 376.51zM1322.78 68.51L1398.99 112.51L1398.99 200.51L1322.78 244.51L1246.57 200.51L1246.57 112.51zM1398.99 200.51L1475.21 244.51L1475.21 332.51L1398.99 376.51L1322.78 332.51L1322.78 244.51z" stroke="rgba(156, 6, 6, 0.93)" stroke-width="2"></path></g><defs><mask id="SvgjsMask1216"><rect width="1440" height="560" fill="#ffffff"></rect></mask></defs></g></svg>