<?xml version="1.0" encoding="utf-8"?>
<!-- Generator: Adobe Illustrator 28.3.0, SVG Export Plug-In . SVG Version: 6.00 Build 0)  -->
<svg version="1.1" xmlns="http://www.w3.org/2000/svg" xmlns:xlink="http://www.w3.org/1999/xlink" x="0px" y="0px"
	 viewBox="0 0 844.98 844.98" style="enable-background:new 0 0 844.98 844.98;" xml:space="preserve">
<style type="text/css">
	.st0{fill:#FF0037;}
	.st1{fill:#FFFFFF;}
</style>
<g id="Calque_2">
	<g>
		<g>
			<path class="st0" d="M500.16,368.87c-2.28,9.09-4.47,17.83-6.71,26.76c-17.17,0.65-34.24,0.17-51.4,0.31
				c-3.44,0-3.55,0.13-3.82,3.6c-0.44,6.46,1.51,16.01,9.71,15.42c13.65,0.01,27.13,0.01,40.8,0.01c-2.31,9.24-4.53,18.12-6.8,27.21
				c-16.5,0.72-32.95,0.19-49.46,0.32c-35.79-2.69-27.3-50.36-18.53-73.62C442.67,368.87,471.28,368.87,500.16,368.87z"/>
			<path class="st0" d="M605.38,368.75c21.43-0.01,42.79,0.07,64.21-0.05c18.89,1.7,18.59,26.76,13.29,40.27
				c-5.73,16.43-19.05,33.8-38.04,33.59c-19.39-0.17-38.8-0.03-58.19-0.05c-0.25-2.29,5.17-23.98,6.82-27.55c15.67,0,31.4,0,47.08,0
				c2.61-0.32,6.11,0.92,7.86-1.58c2.72-3.13,8.08-17.17,1.21-17.39C627.49,395.98,601.98,400.29,605.38,368.75z"/>
			<path class="st0" d="M153.72,368.86c10.43,0,20.71,0,31.22,0c-1.81,14.59-11.55,29.82-6.13,44.38c2.92,4.63,9.78,1.88,14.37,2.53
				c2.5-0.04,4.35-1.42,5.98-3.15c10.64-11.91,10.12-29.36,15.62-43.73c10.39,0,20.67,0,31.15,0c-4.54,29.9-18.95,65.4-51.37,73.05
				c-7.82,0.96-15.83,0.42-23.69,0.25C137.04,436.85,144.8,392.06,153.72,368.86z"/>
			<path class="st0" d="M54.99,368.85c10.77,0,21.3,0,32.1,0c-15.81,57.33-7.43,44.72,42.68,46.09c-2.02,9.22-4.46,18.09-6.72,27.22
				c-16.63,0.75-33.24,0.25-49.88,0.32c-17.28,0.4-25.67-18.01-26.08-33.03C46.56,395.51,51.16,382.07,54.99,368.85z"/>
			<path class="st0" d="M262.5,354.99c1.86-8.03,3.8-15.73,6.12-23.57c37.15,0,74.29,0.04,111.44-0.04
				c12.32-0.21,22.37,12.05,22.97,23.48C356.22,355.55,309.32,355.31,262.5,354.99z"/>
			<path class="st0" d="M383.32,442.17c-10.82,0.61-21.49,0.25-32.13,0.3c-0.19-2.25,16.29-68.9,18.11-73.57
				c10.51,0,21.09,0,31.85,0C396.67,393.69,389.1,417.5,383.32,442.17z"/>
			<path class="st0" d="M240.37,442.45c6.21-24.91,12.28-49.22,18.36-73.59c10.95,0,21.63,0,32.61,0
				c-6.09,24.47-12.13,48.75-18.24,73.31C262.32,442.79,251.59,442.44,240.37,442.45z"/>
			<path class="st0" d="M314.21,368.83c10.82,0,21.43,0,32.39,0c-6.1,24.52-12.15,48.86-18.24,73.34
				c-10.85,0.62-21.53,0.24-32.55,0.32C301.66,417.81,307.55,393.31,314.21,368.83z"/>
			<path class="st0" d="M537.96,368.85c10.66,0,21.03,0,31.76,0c-6.14,24.49-12.23,48.82-18.3,73.04
				c-3.74,0.79-29.19,0.86-31.76,0.03C525.77,417.59,531.65,393.18,537.96,368.85z"/>
			<path class="st0" d="M607.92,355.02c6.32-10.95,16.01-22.36,29.25-23.62c22.01,0.04,43.93,0.02,65.94,0.03
				c-1.99,7.93-3.92,15.63-5.88,23.47C667.41,355.52,637.75,355.28,607.92,355.02z"/>
			<path class="st0" d="M522.64,331.51c27.13,0,54.3,0,81.83,0c-1.76,7.84-3.75,15.5-5.73,23.4c-27.34,0.62-54.67,0.35-82,0.16
				C516.57,352.87,520.98,335.41,522.64,331.51z"/>
			<path class="st0" d="M145.1,354.64c-3.58,0.7-82.46,0.8-85.28,0.12c7.78-11.9,20.73-23.1,35.72-23.39
				c18.52,0.14,36.92,0.04,55.46,0.05C148.98,339.36,147.03,347.05,145.1,354.64z"/>
			<path class="st0" d="M419.11,354.68c8-11.55,20.53-22.76,35.27-23.29c18.52,0.07,36.93,0.03,55.46,0.03
				c-2.01,7.94-3.95,15.64-5.87,23.23C499.69,355.44,421.53,355.45,419.11,354.68z"/>
			<path class="st0" d="M247.4,354.87c-29.48,0.66-58.94,0.42-88.42,0.15c7.68-12.23,21.75-23.24,36.89-23.64
				C218.46,332.04,241.49,325.73,247.4,354.87z"/>
			<path class="st0" d="M327.2,490.98c-3.1,0-5.95,0-9.05,0c0.17-0.81,0.28-1.49,0.47-2.14c1.35-4.59,2.74-9.18,4.08-13.78
				c0.25-0.84,0.47-1.71,0.52-2.57c0.1-2.03-0.78-2.94-2.81-3c-0.63-0.02-1.26,0.07-2.22,0.12c-2.19,7.03-4.39,14.1-6.63,21.32
				c-2.96,0-5.87,0-9.08,0c2.09-7.07,4.14-14.01,6.23-21.07c-2.08-0.64-3.95-0.37-6.01-0.26c-2.66,6.92-4.37,14.15-6.79,21.33
				c-2.91,0-5.83,0-9.12,0c2.87-9.38,5.68-18.58,8.51-27.83c0.96-0.05,1.67-0.12,2.37-0.12c8.79-0.01,17.57,0,26.36-0.01
				c2.12,0,4.17,0.23,5.82,1.73c2.19,1.99,2.72,4.61,2.61,7.42c-0.04,0.95-0.19,1.92-0.46,2.83
				C330.46,480.21,328.86,485.48,327.2,490.98z"/>
			<path class="st0" d="M626.32,494.9c-0.65,2.22-1.21,4.11-1.84,6.26c-2.13,0-4.21,0.2-6.24-0.05c-3.08-0.37-5.07-2.28-5.83-5.27
				c-0.37-1.45-0.38-2.98-0.57-4.6c-0.26-0.12-0.6-0.33-0.97-0.44c-4.25-1.28-5.85-5.09-5.5-8.55c0.61-6.13,2.81-11.59,7.7-15.72
				c4.58-3.86,9.86-4.26,15.37-3.16c3.17,0.63,5.45,3.82,5.35,7.67c-0.2,7.74-4.31,16.54-12.97,19.49
				c-0.97,0.33-1.83,0.58-1.73,1.87c0.1,1.18,0.71,1.96,1.82,2.25c0.68,0.18,1.41,0.21,2.13,0.23
				C624.05,494.93,625.06,494.9,626.32,494.9z M621.63,469.47c-2.19-0.38-3.68,1.02-4.46,2.93c-1.18,2.93-2.03,6-2.93,9.04
				c-0.19,0.65-0.15,1.49,0.12,2.1c0.25,0.56,0.89,1.17,1.47,1.3c3.02,0.68,5.08-0.17,6.23-3.02c1.18-2.93,2.08-6.01,2.72-9.11
				C625.31,470.15,624.49,469.47,621.63,469.47z"/>
			<path class="st0" d="M581.33,483.18c0.68,2.62,1.31,5.08,2.01,7.81c-2.73,0.06-5.26,0.11-7.79,0.18
				c-0.95,0.03-1.46-0.42-1.74-1.3c-0.53-1.67-1.11-3.33-1.68-4.99c-0.23-0.67-0.4-1.58-1.34-1.34c-0.46,0.12-0.92,0.79-1.11,1.31
				c-0.74,1.94-1.37,3.91-2.11,6.06c-2.83,0-5.67,0-8.7,0c0.1-0.63,0.13-1.24,0.3-1.81c2.45-8.02,4.9-16.03,7.39-24.04
				c0.66-2.13,0.71-2.12,3.02-2.13c4.95-0.01,9.9-0.01,14.86,0c4.45,0.02,6.54,2.02,6.43,6.44c-0.14,5.55-2.85,9.67-7.48,12.61
				c-0.33,0.21-0.72,0.35-1.07,0.54C582.04,482.69,581.79,482.88,581.33,483.18z M571.85,476.77c2.43,0,4.34,0.1,6.23-0.05
				c0.69-0.06,1.66-0.54,1.95-1.12c0.71-1.39,1.21-2.92,1.56-4.45c0.23-1-0.4-1.65-1.52-1.65c-1.9,0-3.8,0-5.81,0
				C573.45,471.93,572.71,474.17,571.85,476.77z"/>
			<path class="st0" d="M641.16,463.08c3.1,0,5.79,0,8.75,0c-0.18,0.86-0.27,1.54-0.46,2.2c-1.38,4.67-2.8,9.33-4.18,14
				c-1.25,4.22-0.03,5.71,4.33,5.36c2.22-0.18,2.23-0.18,2.92-2.4c1.81-5.79,3.61-11.59,5.42-17.38c0.19-0.6,0.44-1.18,0.7-1.85
				c2.84-0.08,5.59-0.09,8.79,0.02c-2.86,9.54-5.6,18.67-8.42,28.09c-1.77,0-3.43,0-5.09,0c-3.44,0-6.87,0.04-10.31,0.01
				c-4.57-0.04-7.49-2.82-7.73-7.39c-0.06-1.19-0.11-2.45,0.21-3.57C637.69,474.47,639.43,468.83,641.16,463.08z"/>
			<path class="st0" d="M400,491.11c-1.02,0-1.57,0-2.13,0c-5.35-0.04-8.87-3.51-8.39-8.82c0.57-6.31,2.91-11.9,8.04-16.02
				c4.58-3.68,9.82-3.96,15.22-2.83c3.12,0.65,5.41,3.99,5.15,7.79c-0.51,7.51-3.27,13.94-10.06,18.04
				C405.27,490.81,402.48,491.32,400,491.11z M401.68,484.89c2.17,0.33,3.69-0.99,4.43-2.95c1.12-2.96,1.94-6.04,2.8-9.09
				c0.18-0.65,0.12-1.47-0.12-2.1c-0.19-0.5-0.81-1.13-1.28-1.17c-3.41-0.27-4.56-0.52-6.13,2.72c-1.41,2.89-2.3,6.09-3,9.25
				C397.8,484.17,398.73,484.94,401.68,484.89z"/>
			<path class="st0" d="M344.73,491.11c-1.05,0-1.61,0.01-2.17,0c-5.21-0.06-8.69-3.48-8.25-8.71c0.53-6.41,2.91-12.06,8.15-16.21
				c4.53-3.59,9.7-3.85,15.01-2.77c3.14,0.63,5.52,3.96,5.27,7.71c-0.52,7.6-3.3,14.11-10.2,18.21
				C349.97,490.86,347.17,491.32,344.73,491.11z M350.49,469.47c-1.72-0.3-3,0.67-3.96,2.18c-0.47,0.73-0.92,1.5-1.2,2.32
				c-0.72,2.1-1.4,4.23-1.96,6.38c-0.24,0.9-0.23,1.89-0.18,2.83c0.06,0.96,0.61,1.56,1.65,1.73c3.11,0.48,5.04-0.28,6.2-3.16
				c1.15-2.86,2.03-5.86,2.67-8.88C354.27,470.19,353.45,469.46,350.49,469.47z"/>
			<path class="st0" d="M504.9,469.45c-3.71,0-7.22,0.06-10.72-0.02c-2.9-0.06-4.47,1.59-5.85,4.21c2.67,0.35,5.11,0.14,7.53,0.18
				c2.47,0.04,4.94,0.01,7.7,0.01c-0.62,2.14-1.17,4.03-1.8,6.21c-5.08,0.1-10.15,0.19-15.14,0.29c-0.63,3.25,0.18,4.33,3.11,4.39
				c2.64,0.05,5.27,0.02,7.91,0.04c0.78,0.01,1.56,0.07,2.59,0.11c-0.64,2.14-1.2,4.03-1.83,6.11c-2.62,0.04-5.16,0.1-7.7,0.13
				c-2,0.02-4,0.03-5.99,0c-4.28-0.06-7.16-2.57-7.59-6.77c-0.6-5.84,2.93-16.52,11.26-20.18c1.43-0.63,3.05-1.09,4.6-1.15
				c4.23-0.15,8.47-0.06,12.7-0.04c0.29,0,0.58,0.15,1.06,0.28C506.14,465.25,505.59,467.13,504.9,469.45z"/>
			<path class="st0" d="M455.4,473.74c-0.7,2.35-1.27,4.24-1.89,6.32c-2.78,0.05-5.49,0.11-8.19,0.15
				c-1.92,0.03-3.84-0.03-5.75,0.04c-1.37,0.05-1.7,0.5-1.54,1.8c0.22,1.78,1.1,2.61,3.07,2.66c2.72,0.07,5.44,0.04,8.15,0.04
				c0.79,0,1.58,0,2.52,0c-0.06,2.31-1.03,4.15-1.6,6.33c-5.01,0-9.95,0.13-14.89-0.05c-2.67-0.1-4.71-1.66-5.65-4.19
				c-0.54-1.46-0.96-3.14-0.8-4.66c0.54-5,2.09-9.68,5.48-13.56c3.27-3.74,7.24-5.9,12.38-5.69c3.27,0.14,6.55,0.02,9.83,0.03
				c0.54,0,1.09,0.09,1.76,0.16c-0.05,2.2-0.97,4.05-1.57,6.18c-3.54,0.05-6.97,0.23-10.39,0.11c-2.78-0.1-4.51,1.23-5.84,3.42
				c-0.08,0.13-0.11,0.3-0.13,0.45c-0.01,0.07,0.05,0.15,0.17,0.46C445.26,473.74,450.09,473.74,455.4,473.74z"/>
			<path class="st0" d="M696.13,462.94c-0.73,2.39-1.31,4.27-1.94,6.32c-2.73,0.07-5.35,0.13-7.97,0.19
				c-1.04,0.02-2.08-0.01-3.11,0.01c-2.57,0.07-4.21,1.35-5.29,4.28c4.91,0,9.73,0,14.72,0c-0.09,2.35-1.02,4.19-1.6,6.31
				c-3,0.06-5.94,0.12-8.88,0.16c-1.68,0.02-3.36-0.03-5.03,0.04c-1.36,0.06-1.68,0.51-1.51,1.81c0.23,1.78,1.1,2.6,3.08,2.64
				c2.95,0.07,5.91,0.04,8.86,0.06c0.55,0,1.1,0.06,2,0.12c-0.61,2.12-1.18,4.06-1.8,6.2c-4.97,0-9.84,0.1-14.7-0.04
				c-2.67-0.08-4.75-1.54-5.75-4.03c-0.58-1.44-1.04-3.13-0.89-4.63c0.58-5.59,2.37-10.75,6.48-14.83c3.08-3.06,6.69-4.8,11.14-4.64
				c3.11,0.11,6.23,0.02,9.34,0.03C694.06,462.94,694.84,462.94,696.13,462.94z"/>
			<path class="st0" d="M529.03,484.8c-0.67,2.25-1.21,4.07-1.82,6.12c-0.94,0.04-1.87,0.11-2.8,0.12
				c-3.59,0.04-7.19,0.09-10.78,0.07c-4.68-0.03-7.85-2.89-7.74-7.58c0.18-7.47,2.91-13.84,9.25-18.28c2.08-1.45,4.4-2.26,6.95-2.29
				c4.07-0.04,8.15-0.01,12.22,0c0.31,0,0.62,0.09,1.23,0.18c-0.57,2.04-1.12,3.98-1.7,6.06c-1.67,0.07-3.17,0.16-4.66,0.19
				c-1.92,0.04-3.83,0.03-5.75,0.05c-3.18,0.03-5.1,1.26-6.22,4.24c-0.81,2.16-1.5,4.38-2.08,6.62c-0.76,2.91,0.46,4.43,3.48,4.48
				c2.56,0.04,5.11,0.01,7.67,0.02C527.06,484.8,527.85,484.8,529.03,484.8z"/>
			<path class="st0" d="M376.17,490.98c-2.86,0-5.63,0-8.8,0c2.09-7.09,4.12-14.01,6.26-21.29c-2.38-0.14-4.46-0.27-6.69-0.4
				c0.1-0.59,0.11-0.98,0.23-1.34c0.51-1.59,1.04-3.17,1.65-4.99c7.61-0.01,15.14-0.01,23.02,0c-0.62,2.08-1.13,3.73-1.61,5.4
				c-0.26,0.9-0.96,0.96-1.7,0.96c-1.75,0-3.51,0-5.41,0C380.3,476.49,378.64,483.82,376.17,490.98z"/>
			<path class="st0" d="M544.76,469.42c-2.48,0-4.51,0-6.65,0c0.03-2.28,0.93-4,1.59-5.75c0.15-0.41,1.18-0.67,1.82-0.69
				c3.03-0.07,6.06-0.03,9.09-0.03c3.19,0,6.38,0,9.57,0c0.77,0,1.54,0,2.66,0c-0.68,2.34-1.25,4.29-1.84,6.29
				c-2.4,0.11-4.62,0.2-7.14,0.31c-2.19,7.07-4.38,14.13-6.62,21.36c-2.87,0-5.7,0-8.84,0C540.5,483.86,542.55,476.93,544.76,469.42
				z"/>
			<path class="st0" d="M465.27,484.82c2.82,0,5.09,0,7.72,0c-0.69,2.23-1.27,4.1-1.9,6.12c-5.55,0-11.02,0-16.86,0
				c2.87-9.39,5.68-18.59,8.51-27.82c3.07,0,5.89,0,9,0C469.59,470.32,467.51,477.3,465.27,484.82z"/>
			<path class="st0" d="M597.57,463.05c3.18,0,5.95,0,9.12,0c-2.82,9.4-5.57,18.59-8.36,27.89c-3.06,0-5.98,0-9.28,0
				C591.92,481.56,594.73,472.36,597.57,463.05z"/>
		</g>
	</g>
</g>
<g id="Calque_1">
	<g>
		<g>
			<g>
				<path class="st0" d="M747.68,364.52c-0.1,0.02-0.2,0.03-0.3,0.05c-1.4,0.22-2.3,2.05-1.89,3.32c1.91,5.8,3.82,11.6,5.73,17.4
					c3.03,9.2,6.06,18.4,9.08,27.61c0.7,2.12,1.4,4.24,2.09,6.37c1.08,3.28,6.28,1.89,5.21-1.44c-1.88-5.81-3.75-11.61-5.63-17.42
					c-2.97-9.21-5.95-18.42-8.92-27.63c-0.69-2.12-1.37-4.25-2.06-6.37c-1.06-3.29-6.28-1.88-5.21,1.44
					c1.88,5.81,3.75,11.61,5.63,17.42c2.97,9.21,5.95,18.42,8.92,27.63c0.69,2.12,1.37,4.25,2.06,6.37
					c1.74-0.48,3.47-0.96,5.21-1.44c-1.91-5.8-3.82-11.6-5.73-17.4c-3.03-9.2-6.06-18.4-9.08-27.61c-0.7-2.12-1.4-4.24-2.09-6.37
					c-0.63,1.11-1.26,2.21-1.89,3.32c0.1-0.02,0.2-0.03,0.3-0.05c1.44-0.23,2.24-2.03,1.89-3.32
					C750.58,364.87,749.13,364.29,747.68,364.52z"/>
			</g>
		</g>
		<g>
			<g>
				<path class="st0" d="M786.04,371.12c-4.52,1.21-9.7,2.4-13.33,5.55c-2.99,2.59-3.44,6.46-2.37,10.11
					c0.32,1.08,0.75,2.12,1.2,3.14c0.13,0.29,0.26,0.58,0.39,0.87c0.44,0.92-0.07-0.51,0.02,0.03c0.05,0.3,0.18,0.6,0.24,0.89
					c0.03,0.17,0.06,0.34,0.09,0.51c-0.13-0.79-0.02-0.15-0.01,0.02c0.02,0.34,0.04,0.67,0.05,1.01c0.02,0.92-0.02,1.84-0.09,2.76
					c-0.1,1.16-0.15,1.57-0.29,2.39c-0.18,1.11-0.4,2.22-0.65,3.31c-0.48,2.11-1.09,4.2-1.84,6.24c-0.68,1.86-1.47,3.67-2.73,5.59
					c-0.13,0.19-0.26,0.38-0.39,0.56c-0.13,0.19-0.41,0.51-0.11,0.15c-0.3,0.36-0.61,0.72-0.95,1.04c-0.11,0.11-0.24,0.21-0.35,0.31
					c-0.08,0.08,0.44-0.25-0.09,0.06c-0.14,0.08-0.31,0.16-0.43,0.25c-0.36,0.27,0.59-0.19-0.09,0.03
					c-1.33,0.44-2.36,1.88-1.89,3.32c0.4,1.22,0.81,2.45,1.21,3.67c0.47,1.42,0.84,2.53,0.23,3.85c-1.38,3.04-5.72,2.74-6.9-0.29
					c-1.09-2.81-1.9-5.78-2.84-8.64c-3.94-11.97-7.88-23.94-11.82-35.91c-1.07-3.26-2.14-6.51-3.21-9.77
					c-0.48-1.46-2.5-2.74-3.97-1.61c-5.53,4.27-11.02,8.6-16.42,13.04c-2.52,2.07-5.02,4.17-7.5,6.29
					c-1.19,1.02-2.37,2.04-3.55,3.08c-0.58,0.51-1.19,1-1.74,1.55c-0.68,0.68-1.07,1.47-1.49,2.32c-5.33,10.68-7.45,22.85-5.91,34.7
					c2.51,19.26,14.31,36.55,31.51,45.68c17.68,9.38,39.39,9.33,57.02-0.16c17.22-9.27,28.9-26.68,31.28-46.03
					c2.62-21.33-6.8-42.62-23.87-55.5c-2.01-1.52-4.12-2.9-6.31-4.15c-3.02-1.73-5.75,2.94-2.73,4.66
					c17.1,9.76,27.94,28.13,27.95,47.86c0.01,17.77-8.87,34.91-23.45,45.05c-14.97,10.41-34.28,12.75-51.33,6.26
					c-16.31-6.21-28.97-20.5-33.39-37.4c-2.64-10.11-2.32-20.95,0.93-30.98c0.85-2.63,1.9-5.18,3.16-7.65
					c0.61-1.2,1.68-1.96,2.69-2.84c1.13-0.99,2.26-1.96,3.4-2.94c4.93-4.21,9.95-8.31,15.02-12.34c2.47-1.97,4.96-3.92,7.46-5.85
					c-1.32-0.54-2.64-1.08-3.97-1.61c3.03,9.22,6.07,18.43,9.1,27.65c2.05,6.25,4.11,12.49,6.16,18.74
					c0.66,2.01,1.32,4.02,1.98,6.03c0.39,1.18,0.73,2.44,1.31,3.55c3.27,6.19,12.48,6.27,15.93,0.21c2.3-4.03,0.56-7.98-0.75-11.95
					c-0.63,1.11-1.26,2.21-1.89,3.32c3.58-1.17,5.8-4.71,7.33-7.95c1.89-4.02,3.2-8.32,3.96-12.69c0.61-3.46,1.26-7.55,0.18-11
					c-0.27-0.86-0.85-1.94-1.08-2.51c-0.39-0.97-0.61-1.96-0.9-2.96c-0.19-0.68,0.02,0.37-0.02-0.05c-0.02-0.17-0.03-0.35-0.04-0.52
					c-0.01-0.25,0.12-1.43-0.03-0.64c0.05-0.29,0.16-0.59,0.21-0.88c0.08-0.55-0.3,0.46-0.01-0.01c0.1-0.17,0.22-0.36,0.3-0.54
					c0.07-0.15,0.38-0.48-0.05,0.03c0.16-0.19,0.33-0.38,0.51-0.56c0.14-0.14,0.29-0.27,0.44-0.4c0.41-0.37-0.41,0.26,0.11-0.09
					c0.88-0.59,1.79-1.09,2.75-1.51c0.82-0.36-0.48,0.18,0.39-0.16c0.28-0.11,0.56-0.22,0.84-0.32c0.71-0.26,1.42-0.5,2.14-0.73
					c1.56-0.49,3.13-0.93,4.71-1.35C790.83,375.43,789.4,370.21,786.04,371.12z"/>
			</g>
		</g>
	</g>
	<g>
		<g>
			<path class="st0" d="M767.61,417.84c-1.97-6.08-3.93-12.17-5.9-18.25c-3.13-9.7-6.27-19.4-9.4-29.11
				c-0.72-2.23-1.44-4.46-2.16-6.69c-0.41,1.02-0.83,2.03-1.24,3.05c2.79-2.04,5.59-4.09,8.38-6.13c-0.45,0.12-0.91,0.25-1.36,0.37
				c6.82,0.01,13.6,0.67,20.18,2.57c7.17,2.06,13.77,5.51,19.9,9.73c0.22-1.64,0.43-3.29,0.65-4.93
				c-6.06,1.52-12.34,2.75-18.18,5.03c-3.56,1.39-7.53,3.46-8.48,7.53c-0.45,1.92-0.22,3.91,0.33,5.78
				c0.35,1.19,0.84,2.34,1.34,3.47c0.11,0.24,0.21,0.49,0.33,0.72c0.17,0.31-0.14-0.62-0.02-0.01c0.07,0.36,0.17,0.73,0.25,1.09
				c0.1,0.46-0.02-0.54,0,0.1c0.01,0.23,0.04,0.46,0.05,0.69c0.02,0.5,0.02,1.01,0.01,1.51c-0.03,1.15-0.13,2.3-0.28,3.44
				c0.06-0.44-0.03,0.21-0.05,0.34c-0.05,0.32-0.1,0.63-0.16,0.95c-0.11,0.65-0.24,1.29-0.38,1.93c-0.28,1.32-0.62,2.63-1,3.93
				c-0.42,1.42-0.89,2.82-1.44,4.19c-0.05,0.13-0.1,0.26-0.16,0.39c-0.1,0.25,0.08-0.17-0.1,0.24c-0.15,0.33-0.29,0.65-0.45,0.97
				c-0.28,0.57-0.57,1.14-0.89,1.7c-0.29,0.51-0.61,1.02-0.94,1.51c-0.1,0.14-0.61,0.78-0.24,0.33c-0.18,0.21-0.35,0.42-0.54,0.62
				c-0.18,0.19-0.37,0.37-0.55,0.55c-0.07,0.06-0.14,0.12-0.21,0.18c-0.24,0.22,0.54-0.31,0.05-0.04c-0.17,0.09-0.35,0.2-0.5,0.31
				c-0.47,0.33,0.5-0.14-0.16,0.07c-3.29,1.08-1.88,6.29,1.44,5.21c4.55-1.49,6.89-6.61,8.52-10.72c1.93-4.86,3.16-10.17,3.43-15.4
				c0.1-1.87,0.09-3.94-0.55-5.73c-0.21-0.58-0.49-1.12-0.74-1.68c-0.07-0.16-0.14-0.31-0.21-0.47c0.02,0.04,0.15,0.36,0.03,0.08
				c-0.12-0.29-0.23-0.58-0.34-0.87c-0.31-0.87-0.53-1.74-0.71-2.64c0.1,0.5,0.02,0.26,0.01-0.07c-0.01-0.19-0.02-0.39-0.02-0.58
				c0-0.15,0.04-0.33,0.02-0.48c-0.04-0.38-0.16,0.58,0.01-0.04c0.05-0.16,0.09-0.33,0.13-0.5c0.03-0.11,0.21-0.6,0.04-0.16
				c-0.18,0.46,0.05-0.1,0.11-0.2c0.1-0.16,0.22-0.33,0.31-0.5c0.19-0.37-0.37,0.36-0.05,0.07c0.13-0.12,0.24-0.27,0.37-0.4
				c0.13-0.13,0.28-0.26,0.41-0.38c0.06-0.06,0.13-0.1,0.19-0.16c0.25-0.23-0.43,0.3-0.14,0.11c0.77-0.49,1.52-0.96,2.35-1.35
				c0.14-0.07,0.82-0.36,0.59-0.27c-0.24,0.1,0.42-0.17,0.55-0.22c0.63-0.25,1.28-0.47,1.92-0.69c1.45-0.48,2.93-0.91,4.4-1.31
				c3.9-1.07,7.83-2,11.74-2.98c2.4-0.6,2.47-3.68,0.64-4.93c-7.98-5.49-16.85-9.64-26.38-11.53c-4.46-0.88-9.01-1.34-13.55-1.46
				c-1.55-0.04-3.28-0.32-4.6,0.6c-0.86,0.6-1.7,1.24-2.54,1.86c-1.82,1.33-3.65,2.67-5.47,4c-0.94,0.69-1.63,1.84-1.24,3.05
				c1.97,6.08,3.93,12.17,5.9,18.25c3.13,9.7,6.27,19.4,9.4,29.11c0.72,2.23,1.44,4.46,2.16,6.69
				C763.47,422.56,768.69,421.16,767.61,417.84z"/>
		</g>
	</g>
	<g>
		<g>
			<g>
				<path class="st0" d="M587.01,312c2.57-4.84,5-9.8,7.91-14.46c1.6-2.55,3.39-4.88,6.03-6.4c9.12-5.27,21.48-5.39,31.67-4.7
					c13.88,0.93,28.53,4.07,41.68,8.61c3.7,1.28,7.84,3.22,9.15,7.19c1.24,3.77,0.65,8.27,0.64,12.17c0,1.32,1.25,2.89,2.7,2.7
					c19.71-2.53,39.54-3.55,59.4-3.77c1.87-0.02,2.92-1.7,2.6-3.42c-1.49-8.09-2.96-16.35-5.74-24.12
					c-1.63-4.57-3.78-9.16-7.41-12.5c-3.2-2.95-7.19-4.68-11.3-5.98c-1.21-0.38-2.43-0.72-3.66-1.06c-0.65-0.17-1.34-0.45-2-0.53
					c-0.76-0.08-1.34-0.33-0.73,0.07c-1.69-1.11-3.13-3.42-4.51-4.92c0,1.27,0,2.55,0,3.82c3.25-3.72,6.49-7.45,9.74-11.17
					c-1.09,0.14-2.18,0.28-3.27,0.42c13.35,8.96,26.3,18.5,37.81,29.78c12.85,12.59,23.65,26.98,33.52,41.98
					c0.14-1.09,0.28-2.18,0.42-3.27c-4.16,4.76-10.04,9.43-4.6,15.77c0.4-1.5,0.79-3.01,1.19-4.51c-8.2,3.09-17.39,5.85-24.67,10.88
					c-3.9,2.69-6.4,6.16-6.48,11.01c0.45-0.78,0.89-1.55,1.34-2.33c-10.17,7.23-20.15,14.73-29.95,22.46
					c-5.37,4.24-10.68,8.55-15.9,12.98c-4.23,3.59-8.69,7.12-11.93,11.68c-3.91,5.51-4.48,11.7-4.48,18.2c0,6.9,0,13.8,0,20.71
					c0,5.31,0,10.62,0,15.93c0.9-0.9,1.8-1.8,2.7-2.7c-6.08-0.03-12.15-0.05-18.23-0.08c-16.37-0.07-32.74-0.14-49.11-0.21
					c-24.39-0.1-48.78-0.2-73.16-0.31c-29.65-0.12-59.29-0.25-88.94-0.37c-32.47-0.14-64.93-0.27-97.4-0.41
					c-32.77-0.14-65.54-0.27-98.31-0.41c-30.56-0.13-61.11-0.26-91.67-0.38c-25.83-0.11-51.65-0.22-77.48-0.32
					c-18.58-0.08-37.15-0.16-55.73-0.23c-8.8-0.04-17.63-0.27-26.43-0.11c-0.38,0.01-0.76,0-1.14,0c-3.48-0.01-3.48,5.39,0,5.4
					c6.08,0.03,12.15,0.05,18.23,0.08c16.37,0.07,32.74,0.14,49.11,0.21c24.39,0.1,48.78,0.2,73.16,0.31
					c29.65,0.12,59.29,0.25,88.94,0.37c32.47,0.14,64.93,0.27,97.4,0.41c32.77,0.14,65.54,0.27,98.31,0.41
					c30.56,0.13,61.11,0.26,91.67,0.38c25.83,0.11,51.65,0.22,77.48,0.32c18.58,0.08,37.15,0.16,55.73,0.23
					c8.8,0.04,17.63,0.27,26.43,0.11c0.38-0.01,0.76,0,1.14,0c1.46,0.01,2.7-1.24,2.7-2.7c0-13.34-0.2-26.7,0-40.04
					c0.09-6.18,2.36-11.11,6.7-15.46c5.61-5.63,12.07-10.57,18.24-15.56c6.57-5.3,13.24-10.47,19.99-15.53
					c3.15-2.36,6.32-4.7,9.52-7.02c2.3-1.67,5.75-3.14,6.47-6.01c0.37-1.47,0.23-2.64,1.19-3.97c1-1.38,2.54-2.38,3.98-3.26
					c6.78-4.14,14.64-6.67,22.02-9.46c1.97-0.74,2.58-2.89,1.19-4.51c-2.4-2.8,2.93-6.22,4.6-8.14c0.76-0.87,1.11-2.23,0.42-3.27
					c-10.12-15.37-21.2-30.17-34.37-43.07c-11.83-11.59-25.19-21.41-38.91-30.62c-0.93-0.62-2.53-0.43-3.27,0.42
					c-3.25,3.72-6.49,7.45-9.74,11.17c-0.99,1.14-1.04,2.68,0,3.82c1.4,1.53,2.71,3.3,4.27,4.66c1.75,1.53,4.1,1.75,6.32,2.37
					c3.86,1.08,7.92,2.29,11.07,4.89c3.47,2.87,5.39,7.16,6.82,11.33c2.59,7.58,4.03,15.55,5.49,23.41c0.87-1.14,1.74-2.28,2.6-3.42
					c-19.87,0.22-39.69,1.24-59.4,3.77c0.9,0.9,1.8,1.8,2.7,2.7c0.02-6.6,0.88-14.35-4.34-19.36c-2.96-2.84-7.02-4.46-10.87-5.63
					c-6.27-1.9-12.66-3.52-19.05-4.94c-11.49-2.55-23.38-4.32-35.17-3.46c-7.72,0.56-16.71,1.78-23.23,6.35
					c-7.04,4.94-10.61,14.61-14.48,21.9C580.72,312.35,585.38,315.08,587.01,312L587.01,312z"/>
			</g>
		</g>
		<g>
			<g>
				<path class="st0" d="M782.87,320.32c-3.67-1.22-7.33-2.47-11.03-3.57c-1.98-0.59-4.12-1.28-6.2-1.31
					c-1.07-0.01-2.15,0.27-2.94,1.03c-0.94,0.9-1.13,2.12-0.91,3.35c0.26,1.44,1.24,2.81,2.03,4.01c1.53,2.31,3.15,4.57,4.67,6.89
					c0.96,1.47,2.94,1.79,4.24,0.55c2.31-2.21,4.61-4.42,6.92-6.63c0.33-0.31,0.66-0.63,0.99-0.94c1.02-0.98,1.06-2.85,0-3.82
					c-1.1-1.01-2.73-1.04-3.82,0c-2.31,2.21-4.61,4.42-6.92,6.63c-0.33,0.31-0.66,0.63-0.99,0.94c1.41,0.18,2.83,0.36,4.24,0.55
					c-1.33-2.03-2.72-4.02-4.09-6.03c-0.48-0.71-0.96-1.42-1.41-2.15c-0.17-0.27-0.33-0.55-0.47-0.84
					c-0.06-0.12-0.12-0.24-0.17-0.36c-0.19-0.4,0.21,0.52,0.17,0.42c-0.02-0.06-0.05-0.11-0.07-0.17c-0.03-0.09-0.06-0.19-0.09-0.28
					c-0.16-0.51,0.06,0.74,0.05,0.41c-0.02-0.47-0.07,0.44-0.08,0.48c0.13-0.44-0.34,0.7-0.19,0.43c0.13-0.24-0.57,0.68-0.35,0.46
					c0.18-0.18,0.28-0.1-0.46,0.34c0.4-0.24-0.54,0.17-0.42,0.16c0.07-0.01,0.19-0.04,0.26-0.07c-0.27,0.09-0.89,0.08-0.36,0.06
					c0.28-0.01,0.56,0.03,0.84,0.05c-0.95-0.08-0.55-0.08-0.16-0.01c0.2,0.03,0.4,0.07,0.59,0.11c1.04,0.22,2.07,0.5,3.09,0.8
					c3.9,1.13,7.74,2.45,11.59,3.73c1.34,0.45,3.01-0.52,3.32-1.89C785.1,322.15,784.31,320.8,782.87,320.32L782.87,320.32z"/>
			</g>
		</g>
	</g>
</g>
<g id="Calque_3">
</g>
<g id="Calque_4">
</g>
<g id="Calque_5">
</g>
</svg>
