<?xml version="1.0" encoding="utf-8"?>
<!-- Generator: Adobe Illustrator 28.3.0, SVG Export Plug-In . SVG Version: 6.00 Build 0)  -->
<svg version="1.1" id="Calque_1" xmlns="http://www.w3.org/2000/svg" xmlns:xlink="http://www.w3.org/1999/xlink" x="0px" y="0px"
	 viewBox="0 0 288 288" style="enable-background:new 0 0 288 288;" xml:space="preserve">
<style type="text/css">
	.st0{fill:#D4D3D4;}
	.st1{fill:#239854;}
	.st2{fill:#EB6419;}
	.st3{fill:#F5F5F5;}
	.st4{fill:#F4F4F4;}
	.st5{fill:#FAFAFA;}
	.st6{fill:#F8F8F8;}
	.st7{fill:#EEEEEE;}
	.st8{fill:#EEEDED;}
	.st9{fill:#E9E9E9;}
	.st10{fill:#E8E8E8;}
</style>
<g>
	<path class="st0" d="M47.39,157.86c-8.12-4.12-16.23-8.25-24.36-12.35c-1.38-0.69-2.83-1.23-4.72-2.03
		c4.15-1.87,7.87-3.39,11.44-5.19c5.92-2.99,11.75-6.15,17.61-9.25c0.14,0.14,0.28,0.27,0.44,0.39c-0.62,2.47-1.23,4.95-1.92,7.69
		c15.44,0,30.4,0,45.52,0c0.4-3.07,0.8-6.08,1.21-9.19c3.5,0,6.74,0,10.18,0c-0.14,1.19-0.4,2.24-0.37,3.28
		c0.15,5.1,0.56,10.2,0.53,15.3c-0.03,3.97-0.57,7.94-0.91,12.22c-2.58,0-5.87,0-9.48,0c-0.37-2.88-0.74-5.82-1.13-8.95
		c-14.95,0-29.92,0-45.48,0c0.64,2.65,1.25,5.18,1.86,7.72C47.66,157.6,47.51,157.72,47.39,157.86z"/>
	<path class="st1" d="M104.67,171.51c-27.58,1.78-52.92,8.7-73.84,28.23c0.86-13.23,5.92-23.69,15.82-32.32c0,2.77,0,5.1,0,7.97
		c3.39-1.6,6.25-3.14,9.24-4.34c10.73-4.3,21.84-7.04,33.31-8.7c3.71-0.54,7.31-1.82,11.18-1.62c1.6,0.08,2.53,0.26,2.73,2.19
		C103.39,165.65,104.08,168.35,104.67,171.51z"/>
	<path class="st2" d="M102.77,126.01c-3.09,0-6.36,0.95-8.55-0.18c-6.97-3.6-14.89-2.64-21.95-5.38c-7.11-2.76-14.23-5.5-21.35-8.25
		c-0.43-0.17-0.87-0.34-1.59-0.63c0,2.52,0,4.74,0,7.68c-9.43-8.45-14.52-18.21-15.15-31c20.13,18.71,44.27,25.27,70.58,26.89
		C104.09,118.76,103.46,122.23,102.77,126.01z"/>
	<path class="st3" d="M111,146.54c0-2.21,0-4.08,0-6.21c8.35,0,16.68,0,25.22,0c0-2.18,0-4.11,0-6.45c-5.32,0-10.75,0-16.18,0
		c-7.26,0-9.16-1.9-9.16-9.19c0-1.29-0.08-2.6,0.03-3.88c0.31-3.54,2.73-6.03,6.18-6.06c8.46-0.09,16.91-0.03,25.59-0.03
		c0,2.05,0,3.98,0,6.31c-8.29,0-16.68,0-25.19,0c0,2.24,0,4.09,0,6.36c5.44,0,10.87,0,16.3,0c7.25,0,9.11,1.88,9.11,9.22
		c0,1.29,0.08,2.59-0.03,3.88c-0.28,3.49-2.74,6-6.2,6.03C128.23,146.6,119.77,146.54,111,146.54z"/>
	<path class="st4" d="M185.23,146.49c-2.13,0-4.02,0-6.14,0c0-4.08,0-8.12,0-12.38c-6.43,0-12.63,0-19.08,0c0,3.93,0,7.97,0,12.22
		c-2.25,0-4.26,0-6.44,0c0-10.41,0-20.81,0-31.42c1.97,0,3.9,0,6.19,0c0,3.96,0,8.07,0,12.32c6.47,0,12.6,0,19.07,0
		c0-4.04,0-8.15,0-12.38c2.29,0,4.25,0,6.39,0C185.23,125.31,185.23,135.79,185.23,146.49z"/>
	<path class="st5" d="M196.01,114.82c2.18,0,4.04,0,6.2,0c0,8.31,0,16.6,0,25.14c6.48,0,12.68,0,19.17,0c0-8.27,0-16.57,0-25.06
		c2.22,0,4.16,0,6.31,0c0.06,0.55,0.2,1.21,0.2,1.87c0.01,7.56,0.03,15.12,0,22.68c-0.02,4.64-2.37,7.06-6.92,7.09
		c-6.07,0.04-12.13,0.05-18.2,0c-4.23-0.04-6.69-2.41-6.73-6.66C195.96,131.62,196.01,123.37,196.01,114.82z"/>
	<path class="st6" d="M244.89,140.22c8.69,0,16.91,0,25.3,0c0,2.11,0,4.05,0,6.33c-5.59,0-11.22,0-16.84,0
		c-2.88,0-5.76,0.07-8.64-0.03c-3.26-0.11-6.02-2.33-6.08-5.4c-0.16-8.71-0.06-17.43-0.06-26.27c2.15,0,4.09,0,6.31,0
		C244.89,123.21,244.89,131.51,244.89,140.22z"/>
	<path class="st7" d="M125.06,170.83c-1.03,0-1.85,0-2.88,0c0-3.59,0-7.04,0-10.57c-1.82-0.51-2.73-0.31-2.64,1.76
		c0.13,2.86,0.03,5.73,0.03,8.78c-1.03,0-1.85,0-2.9,0c0-2.92-0.09-5.79,0.03-8.65c0.08-1.93-0.57-2.57-2.63-1.84
		c0,3.36,0,6.79,0,10.48c-1.02,0.07-1.83,0.13-2.87,0.2c0-3.79-0.01-7.34,0.01-10.9c0.01-1.94,1.05-2.93,2.97-2.95
		c2.58-0.03,5.17-0.02,7.75,0c2.07,0.01,3.11,1.12,3.12,3.15C125.08,163.75,125.06,167.22,125.06,170.83z"/>
	<path class="st8" d="M230.17,165.71c0,1.66,0,3.32,0,5.13c-1.02,0-1.85,0-2.79,0c0-4.55,0-8.97,0-13.69
		c3.75,0,7.39-0.05,11.03,0.02c1.97,0.04,2.78,1.31,2.75,3.16c-0.04,2.02,0.58,4.38-2.29,5.1c-0.75,0.19-1.57,0.12-2.68,0.79
		c1.45,0.82,2.9,1.64,4.86,2.75c0.01,0.11,0.05,0.94,0.09,1.77c-2.48,0.64-4.34,0.23-5.97-1.71c-1.24-1.47-2.86-2.63-4.31-3.92
		C230.63,165.31,230.4,165.51,230.17,165.71z M230.36,162.43c2.85,0,5.39,0,7.93,0c-0.05-2.82-0.46-2.93-7.93-2.23
		C230.36,160.91,230.36,161.63,230.36,162.43z"/>
	<path class="st9" d="M270.28,157.12c-0.06,1.1-0.11,1.86-0.17,2.9c-3.08,0-6.05,0.1-9-0.03c-2-0.09-2.07,0.88-1.69,2.62
		c2.49,0,4.95,0,7.42,0c3.02,0,3.48,1.89,3.47,4.38c-0.01,2.47-0.68,4.06-3.5,4.02c-3.37-0.05-6.74-0.01-10.27-0.01
		c0-0.96,0-1.79,0-2.83c3.57,0,7.01,0,10.64,0c0.05-0.91,0.09-1.63,0.14-2.39c-0.44-0.11-0.71-0.24-0.99-0.24
		c-1.69-0.02-3.38-0.02-5.07-0.02c-4.41-0.01-5.19-0.89-4.91-5.28c0.13-2.06,1.1-3.11,3.16-3.11c2.68-0.01,5.36,0,8.05-0.01
		C268.34,157.12,269.12,157.12,270.28,157.12z"/>
	<path class="st10" d="M147.01,171c-6.88,0-6.88,0-6.88-6.91c0-6.97,0-6.97,7.12-6.97c6.9,0,6.9,0,6.9,6.92
		C154.15,171,154.15,171,147.01,171z M143.18,167.9c2.75,0,5.34,0,7.87,0c0-2.74,0-5.24,0-7.72c-2.75,0-5.28,0-7.87,0
		C143.18,162.87,143.18,165.39,143.18,167.9z"/>
	<path class="st8" d="M205.32,157.13c6.91,0,6.91,0,6.91,6.88c0,6.99,0,6.99-7.1,6.99c-6.88,0-6.88,0-6.88-6.88
		C198.25,157.13,198.25,157.13,205.32,157.13z M201.16,168.02c2.78,0,5.33,0,7.94,0c0-2.72,0-5.32,0-7.84c-2.76,0-5.29,0-7.94,0
		C201.16,162.81,201.16,165.26,201.16,168.02z"/>
	<path class="st9" d="M177.72,170.86c-1.22,0-1.98,0-2.94,0c0-3.56,0-7,0-10.71c-1.81,0-3.43,0-5.27,0
		c-0.12-1.06-0.22-1.88-0.34-2.87c4.71,0,9.21,0,13.83,0c0,0.86,0,1.62,0,2.6c-1.7,0-3.35,0-5.28,0
		C177.72,163.62,177.72,167.14,177.72,170.86z"/>
	<path class="st0" d="M47.36,129.04c0.17-0.1,0.35-0.2,0.52-0.3c-0.03,0.23-0.05,0.45-0.08,0.68
		C47.64,129.31,47.49,129.18,47.36,129.04z"/>
	<path class="st0" d="M47.81,157.5c0.02,0.22,0.04,0.44,0.06,0.67c-0.16-0.1-0.32-0.2-0.48-0.31
		C47.51,157.72,47.66,157.6,47.81,157.5z"/>
</g>
</svg>
