<?xml version="1.0" encoding="utf-8"?>
<!-- Generator: Adobe Illustrator 28.3.0, SVG Export Plug-In . SVG Version: 6.00 Build 0)  -->
<svg version="1.1" id="Calque_1" xmlns="http://www.w3.org/2000/svg" xmlns:xlink="http://www.w3.org/1999/xlink" x="0px" y="0px"
	 viewBox="0 0 288 288" style="enable-background:new 0 0 288 288;" xml:space="preserve">
<style type="text/css">
	.st0{fill:#EA5F1E;}
	.st1{fill:#FFFFFF;}
</style>
<g>
	<path class="st0" d="M18.3,196.35c0-26.37,0-52.66,0-79.01c0.18-0.03,0.35-0.08,0.53-0.09c0.24-0.02,0.48,0,0.73,0
		c22.93,0,45.86,0,68.79,0.01c0.63,0,1.22-0.1,1.81-0.3c13.31-4.39,26.62-8.76,39.92-13.14c9.2-3.03,18.39-6.06,27.58-9.09
		c2.99-0.98,5.98-1.97,8.97-2.95c0.2-0.07,0.41-0.1,0.71-0.18c0,8.56,0,17.05,0,25.63c34.36,0,68.63,0,102.96,0
		c0,26.4,0,52.71,0,79.05c0,0-0.02,0.02-0.04,0.04c-0.02,0.02-0.04,0.05-0.06,0.05c-83.78,0.01-167.56,0.02-251.34,0.03
		C18.71,196.39,18.55,196.37,18.3,196.35z M146.04,161.29c2.14,0,4.21,0,6.28,0c2.07,0,4.14,0.01,6.22,0
		c2.06-0.01,4.12,0.03,6.17-0.03c0.16-1.19,0.11-8.69-0.07-9.32c-6.16,0-12.34,0-18.57,0c0-2.53,0-4.99,0-7.54c2.4,0,4.76,0,7.12,0
		c2.37,0,4.74,0.01,7.1,0c2.35-0.01,4.7,0.05,7.04-0.04c0-3.32,0-6.54,0-9.79c-11.15,0-22.24,0-33.33,0
		c-0.17,0.97-0.13,43.9,0.03,44.5c11.1,0,22.19,0,33.29,0c0-3.3,0-6.54,0-9.88c-7.12,0-14.18,0-21.28,0
		C146.04,166.54,146.04,163.99,146.04,161.29z M88.71,134.56c0,14.86,0,29.67,0,44.51c11.16,0,22.26,0,33.38,0c0-3.29,0-6.53,0-9.87
		c-7.12,0-14.18,0-21.23,0c-0.19-0.97-0.14-7.31,0.05-7.92c0.87,0,1.75,0,2.64,0c0.89,0,1.78,0,2.66,0s1.78,0,2.66,0s1.78,0,2.66,0
		c0.89,0,1.78,0,2.66,0c0.89,0,1.78,0.01,2.66,0c0.87-0.01,1.75,0.07,2.61-0.06c0.17-1.48,0.1-8.69-0.09-9.27c-2.06,0-4.13,0-6.2,0
		c-2.07,0-4.14,0.01-6.22,0c-2.06-0.01-4.11,0.04-6.18-0.03c0-2.56,0-4.99,0-7.52c7.11,0,14.18,0,21.29,0c0-3.33,0-6.56,0-9.84
		C110.96,134.56,99.86,134.56,88.71,134.56z M50.72,134.51c-5.07,14.85-10.12,29.67-15.2,44.57c3.95,0,7.78,0,11.64,0
		c0.13-0.36,0.25-0.69,0.36-1.02c0.7-2.12,1.4-4.24,2.1-6.36c0.25-0.75,0.25-0.76,1.06-0.76c4.76,0,9.52,0,14.29,0
		c0.24,0,0.47,0.02,0.76,0.04c0.91,2.72,1.81,5.41,2.7,8.1c3.99,0,7.91,0,11.9,0c-0.1-0.32-0.16-0.57-0.25-0.82
		c-2.97-8.71-5.94-17.41-8.91-26.12c-1.88-5.52-3.76-11.05-5.65-16.57c-0.4-1.17-0.14-1.05-1.43-1.05c-3.98,0-7.96,0-11.95,0
		C51.72,134.51,51.29,134.51,50.72,134.51z M249.38,137.89c-0.16-0.11-0.26-0.2-0.38-0.26c-4.43-2.12-9.03-3.62-14-3.74
		c-3.11-0.07-6.13,0.34-8.98,1.6c-5.25,2.32-8.35,6.22-8.6,12.09c-0.19,4.23,1.39,7.66,4.86,10.16c1.76,1.28,3.7,2.2,5.77,2.82
		c2.19,0.66,4.42,1.17,6.61,1.79c1.55,0.44,3.1,0.89,4.61,1.43c0.59,0.21,1.15,0.61,1.6,1.05c1.38,1.39,0.93,3.63-0.85,4.43
		c-0.32,0.14-0.66,0.25-0.99,0.33c-2.02,0.49-4.07,0.38-6.1,0.1c-4.27-0.58-8.23-2.06-11.95-4.2c-0.2-0.12-0.42-0.22-0.73-0.39
		c-1.35,3.02-2.68,6-4.02,8.98c0.28,0.19,0.48,0.33,0.68,0.45c6.57,3.91,13.61,5.81,21.28,5.05c2.67-0.27,5.25-0.92,7.63-2.18
		c3.13-1.66,5.36-4.1,6.4-7.54c0.65-2.15,0.72-4.34,0.42-6.55c-0.37-2.69-1.56-4.95-3.56-6.79c-1.18-1.09-2.51-1.93-3.95-2.63
		c-2.82-1.39-5.83-2.18-8.88-2.88c-1.49-0.34-2.99-0.68-4.45-1.14c-0.8-0.25-1.6-0.66-2.28-1.16c-1.34-1.01-1.3-2.9,0-3.98
		c0.62-0.51,1.34-0.78,2.11-0.94c1.22-0.26,2.46-0.25,3.69-0.12c3.49,0.38,6.78,1.41,9.91,2.98c0.18,0.09,0.38,0.15,0.63,0.24
		C247.07,143.86,248.22,140.88,249.38,137.89z M187.66,144.39c0,2.02,0,3.92,0,5.83c0,1.94,0,3.88,0,5.81c0,1.91,0,3.82,0,5.73
		c0,1.94,0,3.88,0,5.81c0,1.91-0.01,3.82,0,5.73c0.01,1.92-0.05,3.85,0.04,5.76c1.55,0.16,10.71,0.1,11.35-0.09
		c0-11.48,0-22.99,0-34.55c3.91-0.05,7.74,0.02,11.58-0.04c0-3.32,0-6.54,0-9.8c-11.53,0-23.03,0-34.51,0
		c-0.17,0.96-0.13,9.19,0.05,9.82C179.94,144.39,183.73,144.39,187.66,144.39z"/>
	<path class="st1" d="M146.04,161.29c0,2.7,0,5.25,0,7.9c7.09,0,14.15,0,21.28,0c0,3.34,0,6.58,0,9.88c-11.1,0-22.2,0-33.29,0
		c-0.16-0.6-0.2-43.53-0.03-44.5c11.08,0,22.18,0,33.33,0c0,3.25,0,6.47,0,9.79c-2.33,0.09-4.69,0.02-7.04,0.04
		c-2.37,0.01-4.74,0-7.1,0c-2.36,0-4.72,0-7.12,0c0,2.55,0,5.01,0,7.54c6.23,0,12.41,0,18.57,0c0.18,0.63,0.23,8.13,0.07,9.32
		c-2.05,0.06-4.11,0.02-6.17,0.03c-2.07,0.01-4.14,0-6.22,0C150.25,161.29,148.19,161.29,146.04,161.29z"/>
	<path class="st1" d="M88.71,134.56c11.14,0,22.24,0,33.39,0c0,3.28,0,6.52,0,9.84c-7.11,0-14.18,0-21.29,0c0,2.53,0,4.96,0,7.52
		c2.06,0.07,4.12,0.02,6.18,0.03c2.07,0.01,4.14,0,6.22,0c2.07,0,4.14,0,6.2,0c0.19,0.58,0.26,7.79,0.09,9.27
		c-0.85,0.12-1.73,0.04-2.61,0.06c-0.89,0.01-1.78,0-2.66,0c-0.89,0-1.78,0-2.66,0c-0.89,0-1.78,0-2.66,0s-1.78,0-2.66,0
		s-1.78,0-2.66,0c-0.89,0-1.77,0-2.64,0c-0.2,0.6-0.24,6.95-0.05,7.92c7.05,0,14.11,0,21.23,0c0,3.33,0,6.58,0,9.87
		c-11.13,0-22.23,0-33.38,0C88.71,164.24,88.71,149.43,88.71,134.56z"/>
	<path class="st1" d="M50.72,134.51c0.57,0,1,0,1.43,0c3.98,0,7.96,0,11.95,0c1.28,0,1.03-0.12,1.43,1.05
		c1.89,5.52,3.77,11.05,5.65,16.57c2.97,8.71,5.94,17.41,8.91,26.12c0.08,0.25,0.15,0.5,0.25,0.82c-3.99,0-7.91,0-11.9,0
		c-0.9-2.68-1.79-5.38-2.7-8.1c-0.28-0.01-0.52-0.04-0.76-0.04c-4.76,0-9.52,0-14.29,0c-0.81,0-0.81,0-1.06,0.76
		c-0.7,2.12-1.4,4.24-2.1,6.36c-0.11,0.33-0.23,0.66-0.36,1.02c-3.86,0-7.69,0-11.64,0C40.6,164.18,45.66,149.37,50.72,134.51z
		 M57.42,146.74c-1.43,4.75-2.85,9.42-4.3,14.23c0.89,0,1.65,0,2.42,0c0.78,0,1.56,0,2.34,0c0.78,0,1.56,0.01,2.34,0
		c0.76-0.01,1.53,0.06,2.36-0.06c-1.45-4.81-2.86-9.5-4.26-14.17C57.96,146.74,57.73,146.74,57.42,146.74z"/>
	<path class="st1" d="M249.38,137.89c-1.16,2.99-2.31,5.97-3.48,9c-0.25-0.09-0.45-0.15-0.63-0.24c-3.13-1.56-6.43-2.59-9.91-2.98
		c-1.24-0.14-2.47-0.15-3.69,0.12c-0.77,0.17-1.5,0.43-2.11,0.94c-1.3,1.08-1.35,2.97,0,3.98c0.67,0.51,1.47,0.91,2.28,1.16
		c1.46,0.46,2.96,0.8,4.45,1.14c3.05,0.7,6.06,1.49,8.88,2.88c1.43,0.7,2.77,1.55,3.95,2.63c2,1.84,3.19,4.11,3.56,6.79
		c0.3,2.21,0.23,4.4-0.42,6.55c-1.04,3.44-3.28,5.88-6.4,7.54c-2.39,1.27-4.96,1.92-7.63,2.18c-7.67,0.77-14.72-1.13-21.28-5.05
		c-0.21-0.12-0.4-0.26-0.68-0.45c1.34-2.99,2.67-5.96,4.02-8.98c0.32,0.17,0.53,0.27,0.73,0.39c3.72,2.14,7.68,3.62,11.95,4.2
		c2.03,0.28,4.07,0.38,6.1-0.1c0.34-0.08,0.68-0.18,0.99-0.33c1.78-0.8,2.23-3.04,0.85-4.43c-0.44-0.45-1.01-0.84-1.6-1.05
		c-1.51-0.54-3.06-1-4.61-1.43c-2.2-0.62-4.43-1.13-6.61-1.79c-2.07-0.62-4.01-1.55-5.77-2.82c-3.46-2.51-5.04-5.94-4.86-10.16
		c0.26-5.87,3.36-9.77,8.6-12.09c2.85-1.26,5.87-1.67,8.98-1.6c4.97,0.12,9.57,1.62,14,3.74
		C249.11,137.68,249.21,137.77,249.38,137.89z"/>
	<path class="st1" d="M187.66,144.39c-3.93,0-7.71,0-11.49,0c-0.18-0.63-0.22-8.86-0.05-9.82c11.49,0,22.98,0,34.51,0
		c0,3.27,0,6.49,0,9.8c-3.84,0.06-7.67-0.01-11.58,0.04c0,11.56,0,23.07,0,34.55c-0.64,0.19-9.8,0.26-11.35,0.09
		c-0.1-1.91-0.03-3.83-0.04-5.76c-0.01-1.91,0-3.82,0-5.73c0-1.94,0-3.88,0-5.81c0-1.91,0-3.82,0-5.73c0-1.94,0-3.88,0-5.81
		C187.66,148.31,187.66,146.41,187.66,144.39z"/>
	<path class="st0" d="M57.42,146.74c0.31,0,0.54,0,0.9,0c1.4,4.67,2.82,9.36,4.26,14.17c-0.83,0.12-1.6,0.05-2.36,0.06
		c-0.78,0.01-1.56,0-2.34,0c-0.78,0-1.56,0-2.34,0c-0.77,0-1.54,0-2.42,0C54.57,156.16,55.99,151.49,57.42,146.74z"/>
</g>
</svg>
