<?xml version="1.0" encoding="utf-8"?>
<!-- Generator: Adobe Illustrator 28.3.0, SVG Export Plug-In . SVG Version: 6.00 Build 0)  -->
<svg version="1.1" id="Calque_1" xmlns="http://www.w3.org/2000/svg" xmlns:xlink="http://www.w3.org/1999/xlink" x="0px" y="0px"
	 viewBox="0 0 288 288" style="enable-background:new 0 0 288 288;" xml:space="preserve">
<style type="text/css">
	.st0{fill:#2566AF;}
</style>
<g>
	<path class="st0" d="M221.7,134c1.7-1.72,3.42-3.24,5.55-4.25c4.41-2.09,8.98-2.29,13.63-0.96c2.36,0.67,3.75,2.36,4.51,4.63
		c0.08,0.25,0.15,0.5,0.24,0.75c0.01,0.03,0.04,0.04,0.11,0.11c1.28-1.48,2.7-2.81,4.41-3.78c4.77-2.72,9.82-3.24,15.03-1.69
		c3.97,1.18,5.46,3.97,4.8,8.52c-0.53,3.63-1.67,7.12-2.55,10.67c-1.24,5.02-2.71,9.99-3.83,15.04c-1.05,4.72-5.69,7.95-10.29,8.09
		c-2.18,0.07-4.37-0.01-6.55,0.03c-0.74,0.02-0.78-0.2-0.62-0.85c2.26-8.95,4.49-17.9,6.74-26.85c0.96-3.83-0.33-5.31-4.27-4.87
		c-2.23,0.24-3.59,1.54-4.4,3.51c-0.84,2.02-1.19,4.18-1.72,6.29c-1.84,7.25-3.65,14.51-5.43,21.78c-0.2,0.8-0.52,1.01-1.32,1
		c-4.5-0.04-9.01-0.02-13.51-0.02c-0.33,0-0.65,0-1.08,0c0.79-3.15,1.55-6.21,2.32-9.27c1.57-6.27,3.13-12.53,4.7-18.8
		c0.04-0.16,0.1-0.32,0.13-0.48c0.52-2.79-0.56-4.08-3.4-4.07c-2.78,0.01-4.57,1.2-5.47,3.99c-0.8,2.47-1.37,5.02-2,7.55
		c-1.69,6.71-3.36,13.43-5.02,20.15c-0.16,0.65-0.37,0.96-1.15,0.95c-4.6-0.05-9.2-0.04-13.81-0.01c-0.76,0.01-0.93-0.11-0.72-0.9
		c3.41-13.41,6.79-26.84,10.17-40.26c0.15-0.59,0.43-0.76,1.02-0.76c4.7,0.02,9.4,0.02,14.1,0c0.67,0,0.88,0.15,0.68,0.84
		C222.31,131.37,222.02,132.69,221.7,134z"/>
	<path class="st0" d="M18.13,170.88c1.91-3.55,3.76-7,5.62-10.45c5.96-11.07,11.87-22.16,17.9-33.19
		c4.16-7.61,10.69-11.45,19.4-11.57c2.45-0.03,4.9,0.02,7.35-0.02c0.64-0.01,0.85,0.17,0.87,0.81c0.15,4.45,0.33,8.91,0.5,13.36
		c0.45,11.88,0.89,23.75,1.34,35.63c0.06,1.58,0.05,3.17,0.18,4.75c0.07,0.79-0.32,0.76-0.86,0.76c-4.5-0.01-9.01-0.01-13.51-0.01
		c-0.96,0-1.92-0.04-2.88,0.01c-0.65,0.04-0.77-0.21-0.73-0.8c0.16-2.64,0.25-5.28,0.42-7.91c0.04-0.69-0.13-0.9-0.84-0.89
		c-3.91,0.03-7.81,0.03-11.72,0c-0.63,0-0.93,0.21-1.18,0.77c-1.17,2.66-2.38,5.29-3.56,7.94c-0.18,0.4-0.31,0.74-0.88,0.74
		c-5.69,0.02-11.39,0.08-17.08,0.12C18.38,170.96,18.31,170.93,18.13,170.88z M44.91,150.83c2.94,0,5.69-0.04,8.43,0.02
		c0.87,0.02,1.1-0.23,1.14-1.09c0.27-5.67,0.61-11.34,0.92-17.01c0.08-1.51,0.15-3.02,0.22-4.53c-0.05-0.01-0.1-0.01-0.15-0.02
		C51.98,135.69,48.48,143.18,44.91,150.83z"/>
	<path class="st0" d="M199.32,129.17c-1.08,4.31-2.15,8.6-3.23,12.87c-2.36,9.33-4.73,18.66-7.06,28c-0.18,0.7-0.42,0.95-1.16,0.94
		c-4.6-0.04-9.21-0.03-13.81,0c-0.75,0.01-0.9-0.2-0.71-0.9c0.37-1.31,0.67-2.64,0.92-4c-1.92,2.26-4.16,4-6.95,4.97
		c-3.7,1.28-7.47,1.43-11.23,0.42c-4.46-1.2-6.25-4.27-5.32-9.11c0.97-5.09,2.41-10.06,3.65-15.09c1.41-5.76,2.88-11.51,4.28-17.28
		c0.18-0.74,0.48-0.92,1.19-0.92c4.64,0.03,9.27,0.03,13.91,0c0.78-0.01,0.92,0.15,0.72,0.92c-2.24,8.85-4.45,17.71-6.68,26.56
		c-0.2,0.8-0.39,1.6-0.36,2.44c0.05,1.7,0.98,2.68,2.69,2.82c2.94,0.25,5.04-1.01,6.17-3.79c0.83-2.05,1.19-4.25,1.73-6.39
		c1.83-7.22,3.62-14.45,5.43-21.68c0.12-0.46,0.15-0.91,0.89-0.9c4.83,0.04,9.67,0.02,14.5,0.03
		C199.01,129.1,199.14,129.14,199.32,129.17z"/>
	<path class="st0" d="M112.07,171.49c-2.77-0.08-5.38-0.09-7.95-0.72c-3.61-0.89-5.03-2.9-4.46-6.59c0.53-3.39,1.55-6.68,2.37-10
		c3.06-12.28,6.18-24.55,9.24-36.83c0.2-0.81,0.5-1.09,1.37-1.08c4.54,0.05,9.07,0.04,13.61,0.01c0.78-0.01,0.94,0.15,0.73,0.92
		c-0.98,3.63-1.89,7.27-2.87,10.9c-0.21,0.78-0.12,1.05,0.76,1.02c1.62-0.06,3.24,0,4.87-0.03c0.61-0.01,0.74,0.19,0.59,0.75
		c-0.69,2.68-1.37,5.37-2.02,8.06c-0.13,0.52-0.39,0.65-0.9,0.64c-1.69-0.03-3.38,0.01-5.07-0.02c-0.57-0.01-0.88,0.1-1.03,0.74
		c-1.58,6.54-3.2,13.06-4.78,19.6c-0.42,1.72,0.43,2.76,2.21,2.81c0.89,0.03,1.79,0.03,2.68,0c0.62-0.02,0.9,0.04,0.68,0.8
		c-0.7,2.54-1.35,5.1-1.94,7.67c-0.17,0.74-0.55,0.94-1.21,0.97C116.61,171.22,114.26,171.37,112.07,171.49z"/>
	<path class="st0" d="M96.27,115.67c2.28,0,4.57,0.06,6.85-0.03c0.94-0.03,0.99,0.24,0.79,1.02c-2.26,8.91-4.49,17.83-6.74,26.74
		c-2.24,8.88-4.49,17.76-6.69,26.65c-0.18,0.72-0.44,0.93-1.17,0.93c-4.57-0.03-9.14-0.04-13.7,0c-0.84,0.01-0.97-0.19-0.76-1
		c4.49-17.79,8.96-35.6,13.41-53.4c0.16-0.66,0.39-0.97,1.16-0.94C91.7,115.71,93.98,115.67,96.27,115.67z"/>
	<path class="st0" d="M125.8,170.85c1.01-4.08,2.02-8.18,3.03-12.27c2.36-9.5,4.74-18.99,7.08-28.5c0.19-0.79,0.49-1.02,1.31-1.01
		c4.5,0.05,9,0.04,13.51,0c0.83-0.01,1.08,0.13,0.86,1.02c-3.33,13.3-6.64,26.6-9.93,39.91c-0.18,0.71-0.44,0.99-1.24,0.98
		c-4.54-0.05-9.07-0.02-13.61-0.03C126.5,170.96,126.16,171.04,125.8,170.85z"/>
</g>
</svg>
