<?xml version="1.0" encoding="utf-8"?>
<!-- Generator: Adobe Illustrator 28.3.0, SVG Export Plug-In . SVG Version: 6.00 Build 0)  -->
<svg version="1.1" id="Calque_1" xmlns="http://www.w3.org/2000/svg" xmlns:xlink="http://www.w3.org/1999/xlink" x="0px" y="0px"
	 viewBox="0 0 288 288" style="enable-background:new 0 0 288 288;" xml:space="preserve">
<style type="text/css">
	.st0{fill:#FFFFFF;}
</style>
<g>
	<path class="st0" d="M18.3,145.3c0.36-0.15,0.2-0.47,0.19-0.7c-0.13-2.79,0.1-5.57,0.24-8.34c0.12-2.35,0.39-4.7,0.65-7.05
		c0.31-2.8,0.77-5.56,1.26-8.32c0.5-2.85,1.2-5.67,1.89-8.49c0.86-3.51,1.89-6.98,3.16-10.36c1.49-3.97,3.03-7.91,4.84-11.75
		c2.93-6.21,6.34-12.14,10.24-17.77c2.28-3.29,4.68-6.5,7.31-9.54c2.75-3.18,5.49-6.36,8.54-9.24c2.84-2.68,5.76-5.28,8.82-7.74
		c3.57-2.87,7.28-5.52,11.1-8.02c2.78-1.82,5.67-3.45,8.59-5.05c3.38-1.85,6.9-3.41,10.41-4.98c2.59-1.15,5.27-2.1,7.96-3
		c3.97-1.33,7.96-2.61,12.05-3.53c2.75-0.62,5.51-1.14,8.3-1.59c2.53-0.41,5.06-0.76,7.6-1.02c2.12-0.22,4.26-0.34,6.39-0.48
		c3.16-0.21,6.31-0.18,9.46-0.14c2.86,0.04,5.71,0.28,8.57,0.53c2.39,0.21,4.77,0.46,7.14,0.8c2.25,0.33,4.5,0.76,6.74,1.19
		c4.92,0.94,9.72,2.3,14.45,3.89c4.36,1.46,8.63,3.15,12.82,5.07c5.88,2.7,11.48,5.89,16.88,9.44c3.54,2.33,6.94,4.83,10.19,7.56
		c2.12,1.78,4.23,3.56,6.25,5.46c1.59,1.49,3.22,2.95,4.68,4.56c1.94,2.13,3.9,4.24,5.75,6.46c2.91,3.48,5.64,7.08,8.18,10.83
		c2.26,3.33,4.25,6.83,6.22,10.35c1.83,3.28,3.29,6.73,4.86,10.13c1.54,3.35,2.76,6.81,3.9,10.3c0.61,1.85,1,3.78,1.65,5.61
		c1.07,3,1.61,6.12,2.28,9.21c0.53,2.47,0.79,4.99,1.15,7.5c0.37,2.58,0.58,5.17,0.79,7.77c0.12,1.52-0.07,3.07,0.31,4.57
		c0.03,0.12,0.03,0.23,0.19,0.24c0,0.18,0,0.36,0,0.55c-0.28,0.05-0.18,0.27-0.18,0.43c-0.01,4.26,0.03,8.52-0.34,12.77
		c-0.21,2.44-0.48,4.87-0.73,7.31c-0.31,2.87-0.79,5.72-1.37,8.53c-0.72,3.52-1.54,7.03-2.65,10.46c-1.6,4.95-3.19,9.89-5.33,14.64
		c-1.45,3.22-2.89,6.44-4.65,9.51c-0.7,1.23-1.22,2.56-2,3.72c-1.91,2.82-3.63,5.77-5.62,8.54c-1.59,2.22-3.21,4.41-4.9,6.55
		c-1.45,1.84-2.99,3.6-4.55,5.36c-2.08,2.34-4.22,4.62-6.48,6.78c-1.66,1.58-3.4,3.08-5.12,4.59c-1.29,1.14-2.54,2.33-3.94,3.33
		c-2.06,1.47-4.02,3.08-6.14,4.48c-1.85,1.22-3.64,2.52-5.55,3.66c-0.57,0.34-1.1,0.74-1.67,1.07c-2.32,1.32-4.63,2.64-7,3.86
		c-1.21,0.62-2.42,1.22-3.63,1.82c-2.6,1.29-5.27,2.42-7.98,3.47c-1.3,0.51-2.56,1.15-3.9,1.54c-2.79,0.81-5.5,1.85-8.31,2.59
		c-3.25,0.85-6.52,1.62-9.79,2.34c-2.05,0.45-4.17,0.74-6.27,1.03c-2.58,0.36-5.16,0.64-7.75,0.86c-1.71,0.15-3.43,0.34-5.16,0.21
		c-0.16-0.01-0.38-0.08-0.43,0.19c-2.98,0-5.96,0-8.93,0c-0.09-0.22-0.29-0.2-0.46-0.19c-2.11,0.04-4.2-0.18-6.3-0.35
		c-2.65-0.22-5.28-0.6-7.92-0.95c-4.12-0.54-8.14-1.55-12.18-2.42c-2.35-0.51-4.67-1.29-6.98-2.03c-2.89-0.92-5.69-2.08-8.52-3.15
		c-3.87-1.47-7.56-3.29-11.25-5.15c-3.96-1.99-7.73-4.3-11.42-6.73c-4.15-2.73-8.08-5.75-11.87-8.96c-2.84-2.4-5.56-4.93-8.18-7.56
		c-2.29-2.3-4.49-4.69-6.57-7.2c-2.42-2.92-4.72-5.93-6.96-8.99c-1.41-1.92-2.59-3.98-3.89-5.97c-2.09-3.19-3.85-6.56-5.58-9.96
		c-1.27-2.5-2.56-5-3.58-7.6c-2.16-5.51-4.27-11.04-5.64-16.83c-0.86-3.66-1.74-7.32-2.38-11.02c-0.44-2.55-0.8-5.13-1.03-7.72
		c-0.2-2.27-0.45-4.53-0.5-6.8c-0.03-1.51-0.34-3-0.21-4.52c0.01-0.13-0.05-0.23-0.19-0.25C18.3,145.42,18.3,145.36,18.3,145.3z
		 M150.48,262.23c31.62-1.44,60.44-14.75,83.14-40.52c19.03-21.6,28.87-47.14,29.14-75.91c0.34-36.58-13.45-67.26-40.97-91.38
		c-21.59-18.91-47.12-28.61-75.76-28.81c-36.93-0.26-67.86,13.81-91.97,41.83c-18.82,21.88-28.26,47.66-28.16,76.5
		c0.12,33.08,12.08,61.6,35.8,84.71C85.56,251.89,114.49,262.83,150.48,262.23z"/>
	<path class="st0" d="M234.95,140.38c-6.11,0-12.22,0.08-18.32-0.05c-1.69-0.04-3.39-0.14-5.07-0.08c-1.52,0.06-3.03-0.08-4.55-0.04
		c-0.51,0.01-0.69-0.06-0.73-0.66c-0.43-5.54-1.61-10.92-3.41-16.17c-1.97-5.76-4.87-11.04-8.39-15.97c-2.5-3.5-5.46-6.6-8.6-9.52
		c-1.18-1.1-2.59-1.97-3.74-3.07c-1.35-1.3-2.83-2.36-4.38-3.36c-2.04-1.33-4.09-2.84-6.41-3.45c-1.91-0.5-3.68-1.27-5.49-1.95
		c-3.61-1.35-7.32-2.28-11.1-2.96c-2.27-0.41-4.57-0.59-6.86-0.8c-2.64-0.23-5.28-0.22-7.9-0.1c-2.89,0.12-5.78,0.55-8.63,1.15
		c-3.64,0.77-7.22,1.81-10.64,3.28c-4.15,1.79-8.14,3.85-11.86,6.47c-2.93,2.06-5.7,4.32-8.24,6.82c-2.96,2.92-5.59,6.16-7.93,9.61
		c-1.99,2.94-3.53,6.11-5.06,9.31c-1.64,3.41-2.74,6.98-3.59,10.64c-0.66,2.84-1.18,5.71-1.27,8.65c-0.07,2.22-0.45,4.45-0.3,6.67
		c0.21,2.97,0.2,5.97,1.02,8.88c0.39,1.39,0.49,2.86,0.81,4.28c0.33,1.44,0.75,2.86,1.16,4.29c0.45,1.58,0.91,3.17,1.41,4.74
		c0.13,0.41,0.43,0.77,0.66,1.15c0.86,1.34,0.73,3,1.43,4.37c0.8,1.58,1.52,3.3,2.69,4.59c1.88,2.07,3.25,4.48,5.06,6.59
		c1.68,1.98,3.44,3.88,5.32,5.64c1.94,1.82,4,3.56,6.24,5.03c0.64,0.42,0.88,0.72,0.47,1.56c-1.46,2.96-2.76,5.99-4.06,9.02
		c-0.94,2.17-2.03,4.26-3.02,6.41c-1.18,2.57-2.22,5.21-3.49,7.73c-1.45,2.86-2.66,5.82-4.03,8.72c-1.69,3.57-3.29,7.17-4.92,10.76
		c-0.24,0.53-0.36,0.76-1.06,0.35c-4.42-2.57-8.55-5.53-12.58-8.67c-4.52-3.53-8.61-7.5-12.52-11.66c-3.68-3.92-7-8.16-10.01-12.64
		c-2.23-3.32-4.26-6.75-6.16-10.27c-3.24-6-5.85-12.26-7.86-18.77c-1.26-4.08-2.37-8.21-3.14-12.41c-0.51-2.77-0.95-5.57-1.19-8.4
		c-0.24-2.69-0.41-5.38-0.57-8.08c-0.11-1.88-0.18-3.75-0.11-5.62c0.14-3.48,0.19-6.96,0.69-10.42c0.15-1.03,0.21-2.07,0.37-3.1
		c0.07-0.47,0.24-0.52,0.62-0.51c0.91,0.02,1.82,0.03,2.73,0c5.88-0.18,11.69-0.86,17.24-2.93c1.81-0.67,3.55-1.55,4.76-3.22
		c1.29-1.77,1.39-3.61,0.62-5.57c-0.79-2-2.08-3.66-3.52-5.24c-3.41-3.73-7.42-6.7-11.57-9.51c-0.76-0.52-1.46-1.13-2.25-1.59
		c-0.44-0.26-0.42-0.44-0.26-0.84c1-2.56,2.22-5.01,3.53-7.42c1.59-2.92,3.24-5.82,5.11-8.57c2.36-3.49,4.83-6.89,7.54-10.13
		c2.05-2.46,4.29-4.73,6.38-7.14c0.57-0.66,1-0.58,1.59-0.12c2.36,1.85,4.87,3.47,7.45,5c3.13,1.86,6.34,3.53,9.85,4.52
		c1.79,0.5,3.63,0.62,5.51,0.31c2.6-0.42,3.89-2.66,4.33-4.68c0.73-3.4,0.23-6.78-0.43-10.12c-0.86-4.37-2.15-8.63-3.71-12.8
		c-0.18-0.47-0.11-0.67,0.38-0.91c1.94-0.95,3.85-1.97,5.77-2.96c3.2-1.64,6.58-2.87,9.92-4.17c4.33-1.69,8.8-2.89,13.32-3.91
		c2.98-0.67,6-1.25,9.05-1.6c0.47-0.06,0.59,0.12,0.67,0.42c0.64,2.38,1.54,4.67,2.38,6.98c1.45,3.97,3.24,7.78,5.72,11.23
		c0.97,1.35,2.15,2.51,3.58,3.41c2.13,1.33,4.67,1.11,6.64-0.45c3.14-2.48,4.89-5.89,6.54-9.39c1.79-3.79,3.19-7.72,4.41-11.73
		c0.11-0.37,0.33-0.51,0.8-0.46c2.12,0.21,4.21,0.6,6.28,1.03c4.81,0.98,9.58,2.14,14.2,3.82c3.08,1.12,6.15,2.29,9.15,3.62
		c2.86,1.27,5.61,2.75,8.38,4.19c0.46,0.24,0.54,0.44,0.35,0.96c-1.3,3.6-2.45,7.25-3.35,10.97c-0.62,2.55-1.08,5.12-1.07,7.77
		c0,1.54-0.07,3.07,0.39,4.56c0.77,2.49,2.41,4.3,5.4,4.39c3.45,0.11,6.55-1.01,9.56-2.48c4.42-2.17,8.6-4.71,12.48-7.74
		c0.3-0.24,0.5-0.21,0.78,0.03c1.55,1.32,2.79,2.94,4.16,4.43c0.99,1.08,1.97,2.17,2.89,3.32c1.63,2.01,3.24,4.04,4.74,6.15
		c3.73,5.27,7.07,10.78,9.81,16.64c0.46,0.98,0.92,1.95,1.41,2.91c0.26,0.51,0.11,0.82-0.3,1.07c-2.27,1.35-4.44,2.87-6.51,4.48
		c-3.68,2.85-7.31,5.79-9.83,9.81c-0.74,1.19-1.42,2.43-1.57,3.84c-0.16,1.45,0.36,2.72,1.32,3.84c1.36,1.58,3.09,2.56,5.01,3.23
		c3.21,1.12,6.52,1.8,9.9,2.22c3.18,0.39,6.35,0.62,9.55,0.54c0.51-0.01,0.73,0.22,0.78,0.62c0.16,1.18,0.3,2.37,0.4,3.56
		c0.2,2.42,0.36,4.84,0.56,7.26c0.04,0.49-0.15,0.63-0.62,0.62c-1.58-0.02-3.16-0.01-4.74-0.01
		C244.49,140.38,239.72,140.38,234.95,140.38z"/>
	<path class="st0" d="M160.7,168.89c2.09,1.18,2.9,3.1,2.35,5.54c-0.73,3.22-2.18,6.07-4.29,8.62c-2.07,2.5-4.84,3.64-7.87,4.34
		c-1.11,0.26-2.24,0.39-3.38,0.39c-8.57-0.01-17.14-0.02-25.71,0.01c-0.82,0-1-0.17-0.68-0.96c1.11-2.73,2.19-5.47,3.25-8.22
		c1.27-3.28,2.5-6.58,3.78-9.87c1.42-3.67,2.88-7.32,4.32-10.98c0.58-1.47,1.22-2.91,1.7-4.41c0.3-0.92,0.83-1.3,1.72-1.3
		c4.44,0,8.88-0.15,13.31,0.05c3.24,0.15,6.49-0.06,9.72,0.16c2.31,0.16,4.61,0.61,6.27,2.48c1.49,1.69,1.92,3.68,1.62,5.91
		c-0.19,1.34-0.42,2.65-0.91,3.9C164.96,166.92,163.07,168.19,160.7,168.89z M140.2,180.34c2.25,0,4.5-0.03,6.74,0.01
		c1.28,0.02,2.49-0.34,3.69-0.66c0.97-0.27,1.79-0.9,2.16-1.94c0.94-2.58,0.45-4.05-2.36-4.7c-1.1-0.25-2.25-0.37-3.37-0.39
		c-3.74-0.05-7.47-0.01-11.21-0.02c-0.5,0-0.71,0.18-0.89,0.68c-0.77,2.11-1.59,4.2-2.44,6.29c-0.27,0.67-0.03,0.75,0.57,0.74
		C135.46,180.32,137.83,180.34,140.2,180.34z M137.49,166.93c0.18,0.03,0.27,0.07,0.35,0.07c4.46,0,8.92,0.08,13.38-0.02
		c2.64-0.06,4.67-1.29,5.67-3.86c0.82-2.13,0.64-3.07-1.76-3.44c-1.69-0.26-3.4-0.37-5.11-0.39c-2.66-0.02-5.32,0.38-7.98,0.18
		c-1.26-0.1-1.97,0.17-2.36,1.54C139.11,163.01,138.24,164.94,137.49,166.93z"/>
	<path class="st0" d="M164.86,187.77c0.72-1.85,1.41-3.59,2.08-5.33c1.3-3.37,2.58-6.74,3.89-10.1c1.54-3.95,3.14-7.87,4.63-11.83
		c1-2.65,2.06-5.28,3.09-7.92c0.18-0.45,0.37-0.54,0.76-0.54c6.87,0,13.73-0.06,20.6,0.04c2.13,0.03,4.27,0.33,6.32,1.07
		c2,0.72,3.33,1.95,3.69,4.12c0.4,2.43,0.58,4.86-0.36,7.22c-1.26,3.15-3.16,5.82-6.25,7.41c-1.57,0.8-3.27,1.29-5.03,1.47
		c-0.56,0.06-0.72,0.16-0.5,0.76c0.98,2.6,1.83,5.25,2.9,7.82c0.71,1.7,1.28,3.45,2.01,5.13c0.23,0.53,0.13,0.7-0.45,0.7
		c-3.37-0.01-6.75-0.02-10.12,0.01c-0.48,0-0.63-0.23-0.75-0.58c-1.26-3.67-2.53-7.34-3.79-11.01c-0.08-0.23-0.22-0.44-0.25-0.67
		c-0.16-1.27-0.93-1.47-2.08-1.41c-1.88,0.1-3.77,0.04-5.65,0.02c-0.6-0.01-0.87,0.19-1.09,0.79c-1.51,4.02-3.08,8.02-4.62,12.03
		c-0.23,0.6-0.57,0.85-1.26,0.84C170.08,187.74,167.54,187.77,164.86,187.77z M188.64,166.81c2.28-0.14,5.02,0.35,7.67-0.38
		c2.31-0.63,4.17-1.88,4.94-4.32c0.4-1.26,0-2.15-1.2-2.55c-0.45-0.15-0.93-0.25-1.4-0.25c-4.55-0.02-9.1,0-13.66-0.02
		c-0.41,0-0.62,0.16-0.74,0.49c-0.74,2.13-1.52,4.24-2.41,6.3c-0.24,0.55-0.12,0.76,0.54,0.75
		C184.33,166.79,186.28,166.81,188.64,166.81z"/>
	<path class="st0" d="M233.74,152.05c3.46,0,6.93-0.01,10.39,0.01c1.85,0.01,3.68,0.21,5.48,0.73c2.56,0.73,3.88,2.66,4.27,5.11
		c0.37,2.31,0.26,4.61-0.38,6.85c-0.72,2.5-2.2,4.48-4.25,6.12c-1.81,1.45-3.8,2.38-6,2.98c-1.76,0.47-3.56,0.62-5.35,0.65
		c-4.62,0.09-9.23,0.06-13.85,0c-0.96-0.01-1.4,0.26-1.73,1.18c-1.4,3.84-2.92,7.64-4.34,11.47c-0.2,0.53-0.44,0.63-0.91,0.62
		c-2.83-0.01-5.65-0.02-8.48,0.01c-0.69,0.01-0.76-0.25-0.54-0.8c0.96-2.44,1.91-4.89,2.86-7.34c1.28-3.31,2.56-6.62,3.84-9.92
		c2.18-5.62,4.36-11.24,6.53-16.86c0.23-0.6,0.57-0.83,1.26-0.82C226.27,152.08,230.01,152.05,233.74,152.05z M233.34,167
		c2.08-0.14,4.66,0.26,7.21-0.19c1.69-0.3,3.07-1.06,3.73-2.82c0.86-2.29,0.04-3.69-2.42-3.73c-4.28-0.06-8.56-0.01-12.85-0.03
		c-0.45,0-0.72,0.11-0.89,0.55c-0.7,1.82-1.38,3.66-2.16,5.45c-0.34,0.8-0.02,0.79,0.61,0.78C228.67,166.98,230.76,167,233.34,167z"
		/>
</g>
</svg>
