<?xml version="1.0" encoding="utf-8"?>
<!-- Generator: Adobe Illustrator 28.3.0, SVG Export Plug-In . SVG Version: 6.00 Build 0)  -->
<svg version="1.1" id="Calque_1" xmlns="http://www.w3.org/2000/svg" xmlns:xlink="http://www.w3.org/1999/xlink" x="0px" y="0px"
	 viewBox="0 0 288 288" style="enable-background:new 0 0 288 288;" xml:space="preserve">
<style type="text/css">
	.st0{fill:#FFFFFF;}
	.st1{fill:#E42529;}
</style>
<g>
	<path class="st0" d="M145.61,157.04c0,4.03,0,7.86,0,11.69c0,5.65,0.01,11.3-0.01,16.95c-0.01,2.22-0.53,2.74-2.74,2.74
		c-11.84,0.01-23.68,0.01-35.52,0c-2.35,0-2.92-0.6-2.95-3.03c-0.02-1.86,0-3.73,0-5.57c-0.3-0.02-0.48-0.08-0.54-0.03
		c-6.28,6.19-14.16,8.48-22.62,8.56c-20.25,0.2-40.5,0.06-60.75,0.09c-1.85,0-2.68-0.64-2.68-2.59c0.03-27.85,0.02-55.71,0.03-83.56
		c0-2.18,0.54-2.69,2.8-2.69c18.43-0.01,36.87-0.15,55.3,0.08c7.92,0.1,15.7,1.52,22.3,6.41c2.13,1.58,3.94,3.59,6.16,5.64
		c0-2.29,0-4.52,0-6.75c0-5.38,0-5.38,5.3-5.38c17.36,0,34.72-0.04,52.07,0.02c5.95,0.02,11.78,0.89,17.27,3.42
		c5.16,2.37,9.21,5.98,12.16,10.83c0.34,0.55,0.67,1.1,0.81,1.33c2.52-2.78,4.74-5.87,7.56-8.23c6.09-5.08,13.58-6.91,21.24-7.9
		c15.24-1.97,30.14-0.19,44.71,4.55c3.04,0.99,3.21,1.52,2.13,4.58c-2.79,7.92-5.51,15.86-8.35,23.77
		c-0.32,0.89-1.13,2.11-1.86,2.22c-0.76,0.11-1.89-0.77-2.51-1.5c-3.34-3.96-6.95-7.63-11.99-9.22c-2.63-0.83-5.51-0.99-8.29-1.2
		c-1.52-0.12-3.02,0.48-3.44,2.21c-0.41,1.67,0.91,2.48,2.08,3.06c2.83,1.4,5.74,2.63,8.61,3.93c5.38,2.45,10.93,4.58,16.09,7.42
		c9.24,5.08,12.43,13.52,11.7,23.63c-1.11,15.52-11.74,22.18-22.94,25.14c-8.6,2.28-17.38,2.75-26.2,2.11
		c-6.08-0.44-12.12-1.45-18.19-2.02c-1.5-0.14-3.07,0.63-4.61,0.64c-11.24,0.06-22.47,0.03-33.71,0.03c-0.67,0-1.35,0-2.02,0
		c-2.67-0.01-3.2-0.6-3.48-3.28c-0.42-4.01-0.67-8.06-1.53-11.98c-0.78-3.57-2.02-7.1-3.51-10.45
		C152.11,159.59,149.5,157.58,145.61,157.04z M19.72,186.44c0.74,0.04,1.27,0.08,1.81,0.08c19.24,0,38.49,0.08,57.73-0.06
		c3.73-0.03,7.53-0.51,11.16-1.38c12.73-3.05,19.79-13.91,17.4-26.35c-1.23-6.42-5.53-10.41-10.78-13.65
		c-0.68-0.42-1.37-0.85-2.22-1.38c1.13-0.77,1.92-1.28,2.68-1.82c5.46-3.93,8.25-9.31,8.4-15.98c0.24-10.4-5.46-18.26-15.57-21.81
		c-5.66-1.99-11.54-2.54-17.47-2.56c-16.89-0.05-33.78-0.02-50.66-0.02c-0.79,0-1.57,0-2.47,0
		C19.72,129.93,19.72,158.08,19.72,186.44z M106.29,186.37c12.65,0,24.99,0,37.57,0c0-10.47,0-20.79,0-31.25
		c3.82-0.04,6.97,1.08,9.17,3.85c1.6,2.01,2.92,4.37,3.85,6.78c2.32,5.94,3.01,12.26,3.48,18.57c0.13,1.72,0.55,2.28,2.33,2.26
		c10.36-0.08,20.72-0.04,31.09-0.04c0.51,0,1.03-0.05,2.11-0.12c-2.74-0.92-4.96-1.62-7.15-2.4c-2.68-0.95-2.95-1.53-2.1-4.18
		c1.41-4.42,2.82-8.84,4.27-13.25c2.02-6.19,2.1-6.23-1.39-11.86c-1.9-3.06-4.09-5.96-5.91-8.59c2.21-2.7,4.41-5.29,6.46-7.99
		c0.44-0.58,0.56-1.68,0.38-2.42c-1.3-5.37-0.95-10.66,0.32-15.98c0.24-1.01,0.16-2.31-0.28-3.23c-2.48-5.24-6.52-9-11.68-11.55
		c-5.37-2.66-11.14-3.43-17.05-3.43c-17.63-0.01-35.26-0.01-52.89,0c-0.78,0-1.57,0.07-2.58,0.12c0,3.18-0.12,6.2,0.04,9.2
		c0.15,2.79,0.4,5.61,0.97,8.35c0.97,4.66,0.89,9.2-0.53,13.75c-0.28,0.88-0.44,1.84-0.45,2.76c-0.05,4.37-0.04,8.75,0,13.12
		c0.01,0.71,0.09,1.52,0.44,2.11c4.99,8.37,4.53,16.74,0.1,25.14c-0.24,0.46-0.51,0.99-0.52,1.49
		C106.26,180.43,106.29,183.32,106.29,186.37z M188.17,181.46c0.42,0.27,0.58,0.41,0.76,0.48c0.69,0.27,1.38,0.54,2.08,0.77
		c15.99,5.18,32.37,6.43,48.99,4.39c6.79-0.83,13.15-3.06,18.84-7.15c11.82-8.51,13.33-32.37-2.84-40.02
		c-5.47-2.58-11.05-4.91-16.57-7.39c-2.51-1.13-5.05-2.22-7.46-3.54c-1.47-0.8-2.74-1.94-2.69-3.95c0.08-2.88,2.12-4.64,5.59-4.81
		c6.4-0.31,11.83,1.99,16.61,6.08c2.04,1.74,4.09,3.47,6.01,5.11c2.79-7.99,5.82-16.64,8.88-25.41c-0.83-0.31-1.44-0.55-2.07-0.76
		c-12.81-4.26-25.99-5.58-39.39-4.66c-6.93,0.48-13.73,1.78-19.98,5.1c-9.21,4.89-13.25,12.81-13.3,22.97
		c-0.05,9.73,4.81,16.4,13.28,20.64c3.3,1.65,6.75,3.02,10.1,4.58c2.49,1.16,5.03,2.29,7.38,3.7c2.24,1.35,3.12,3.6,2.57,5.44
		c-0.6,2.01-2.82,3.77-5.26,3.72c-2.26-0.05-4.6-0.21-6.74-0.88c-5.97-1.86-10.64-5.63-14.41-10.57c-0.37-0.49-0.77-0.96-1.32-1.65
		C194.15,163.12,191.18,172.24,188.17,181.46z M191.93,139.35c-2.15,2.48-4.06,4.68-5.89,6.8c2.51,3.87,5.05,7.77,7.75,11.92
		c0.54-1.68,0.91-3.17,1.51-4.56c0.31-0.71,0.99-1.68,1.58-1.74c0.73-0.07,1.7,0.53,2.27,1.13c1.67,1.74,3.03,3.79,4.8,5.42
		c4.14,3.82,8.88,6.54,14.71,6.68c2.25,0.05,4.16-1.06,4.4-2.5c0.34-2.06-1.09-3.1-2.61-3.87c-2.7-1.36-5.45-2.61-8.23-3.79
		C204.19,151.4,196.15,148.02,191.93,139.35z M104.2,147.93c0-3.36,0-6.49,0-8.98c-1.55,1.55-3.33,3.32-5.09,5.07
		C100.5,145.08,102.24,146.42,104.2,147.93z"/>
	<path class="st1" d="M19.72,186.44c0-28.35,0-56.51,0-84.92c0.89,0,1.68,0,2.47,0c16.89,0,33.78-0.03,50.66,0.02
		c5.93,0.02,11.81,0.57,17.47,2.56c10.12,3.55,15.81,11.41,15.57,21.81c-0.15,6.67-2.95,12.05-8.4,15.98
		c-0.76,0.55-1.55,1.06-2.68,1.82c0.85,0.53,1.54,0.95,2.22,1.38c5.25,3.24,9.55,7.23,10.78,13.65c2.39,12.43-4.68,23.3-17.4,26.35
		c-3.63,0.87-7.43,1.35-11.16,1.38c-19.24,0.13-38.48,0.06-57.73,0.06C20.99,186.52,20.46,186.47,19.72,186.44z M57.29,149.69
		c0,6.34,0,12.41,0,18.67c4.49-0.1,9.21,0.6,11.99-3.7c2.26-3.5,2.03-7.59-0.14-11.1C66.43,149.16,61.86,149.49,57.29,149.69z
		 M57.25,118.56c0,5.71,0,11.13,0,16.8c4.08,0.02,8.12,0.37,11.02-3.12c1.95-2.35,2.01-7.5,0.21-10.15
		C65.74,118.04,61.55,118.38,57.25,118.56z"/>
	<path class="st1" d="M106.29,186.37c0-3.06-0.03-5.94,0.02-8.82c0.01-0.5,0.27-1.03,0.52-1.49c4.44-8.4,4.89-16.77-0.1-25.14
		c-0.35-0.59-0.43-1.4-0.44-2.11c-0.04-4.37-0.04-8.75,0-13.12c0.01-0.92,0.17-1.88,0.45-2.76c1.42-4.54,1.5-9.09,0.53-13.75
		c-0.57-2.73-0.82-5.55-0.97-8.35c-0.16-3-0.04-6.02-0.04-9.2c1.01-0.05,1.8-0.12,2.58-0.12c17.63-0.01,35.26-0.01,52.89,0
		c5.91,0,11.68,0.77,17.05,3.43c5.16,2.56,9.2,6.31,11.68,11.55c0.44,0.92,0.52,2.22,0.28,3.23c-1.27,5.32-1.63,10.61-0.32,15.98
		c0.18,0.75,0.06,1.84-0.38,2.42c-2.04,2.71-4.25,5.3-6.46,7.99c1.83,2.63,4.01,5.52,5.91,8.59c3.5,5.63,3.42,5.67,1.39,11.86
		c-1.44,4.41-2.86,8.83-4.27,13.25c-0.85,2.66-0.57,3.23,2.1,4.18c2.19,0.78,4.41,1.48,7.15,2.4c-1.08,0.06-1.6,0.12-2.11,0.12
		c-10.36,0-20.73-0.04-31.09,0.04c-1.79,0.01-2.2-0.55-2.33-2.26c-0.47-6.31-1.15-12.63-3.48-18.57c-0.94-2.4-2.25-4.76-3.85-6.78
		c-2.2-2.76-5.35-3.89-9.17-3.85c0,10.46,0,20.78,0,31.25C131.27,186.37,118.94,186.37,106.29,186.37z M143.92,135.12
		c4.23,0.78,8.51-0.67,10.18-3.38c1.69-2.74,1.42-6.88-0.65-9.7c-1.85-2.52-5.73-3.63-9.54-2.68
		C143.92,124.61,143.92,129.88,143.92,135.12z"/>
	<path class="st1" d="M188.17,181.46c3-9.22,5.98-18.35,9.06-27.79c0.55,0.69,0.95,1.16,1.32,1.65c3.77,4.94,8.44,8.71,14.41,10.57
		c2.13,0.67,4.48,0.83,6.74,0.88c2.44,0.05,4.66-1.71,5.26-3.72c0.55-1.85-0.33-4.1-2.57-5.44c-2.35-1.41-4.88-2.54-7.38-3.7
		c-3.35-1.56-6.8-2.93-10.1-4.58c-8.47-4.24-13.33-10.91-13.28-20.64c0.06-10.17,4.09-18.08,13.3-22.97
		c6.25-3.32,13.04-4.62,19.98-5.1c13.4-0.93,26.58,0.4,39.39,4.66c0.63,0.21,1.24,0.46,2.07,0.76c-3.06,8.76-6.09,17.42-8.88,25.41
		c-1.93-1.64-3.98-3.36-6.01-5.11c-4.78-4.09-10.21-6.39-16.61-6.08c-3.47,0.17-5.51,1.92-5.59,4.81c-0.06,2.01,1.22,3.14,2.69,3.95
		c2.41,1.32,4.95,2.41,7.46,3.54c5.52,2.48,11.1,4.81,16.57,7.39c16.18,7.65,14.66,31.51,2.84,40.02
		c-5.69,4.09-12.05,6.32-18.84,7.15c-16.61,2.04-32.99,0.79-48.99-4.39c-0.7-0.23-1.39-0.5-2.08-0.77
		C188.75,181.87,188.6,181.73,188.17,181.46z"/>
	<path class="st0" d="M57.29,149.69c4.57-0.2,9.14-0.53,11.86,3.86c2.17,3.52,2.4,7.61,0.14,11.1c-2.78,4.31-7.51,3.6-11.99,3.7
		C57.29,162.1,57.29,156.03,57.29,149.69z M59.27,151.62c0,5,0,9.88,0,14.75c6.67,0.33,9.65-1.99,9.47-7.26
		C68.56,153.67,65.12,150.89,59.27,151.62z"/>
	<path class="st0" d="M57.25,118.56c4.3-0.18,8.49-0.52,11.23,3.52c1.81,2.66,1.74,7.81-0.21,10.15c-2.9,3.49-6.95,3.15-11.02,3.12
		C57.25,129.69,57.25,124.27,57.25,118.56z M59.23,133.59c3.09-0.48,6.45,0.07,7.88-3.29c1.1-2.59,1.23-5.45-0.77-7.77
		c-1.86-2.16-4.46-2.3-7.11-2.15C59.23,124.86,59.23,129.07,59.23,133.59z"/>
	<path class="st0" d="M143.92,135.12c0-5.25,0-10.51,0-15.76c3.81-0.95,7.69,0.16,9.54,2.68c2.06,2.82,2.34,6.95,0.65,9.7
		C152.43,134.46,148.16,135.9,143.92,135.12z M145.71,133.55c2.79-0.1,5.49-0.33,6.9-2.97c1.33-2.47,1.06-5.08-0.62-7.39
		c-1.56-2.15-3.78-2.46-6.29-2.1C145.71,125.28,145.71,129.34,145.71,133.55z"/>
</g>
</svg>
