<?xml version="1.0" encoding="utf-8"?>
<!-- Generator: Adobe Illustrator 28.3.0, SVG Export Plug-In . SVG Version: 6.00 Build 0)  -->
<svg version="1.1" id="Calque_1" xmlns="http://www.w3.org/2000/svg" xmlns:xlink="http://www.w3.org/1999/xlink" x="0px" y="0px"
	 viewBox="0 0 288 288" style="enable-background:new 0 0 288 288;" xml:space="preserve">
<style type="text/css">
	.st0{fill:#FFFFFF;}
</style>
<g>
	<path class="st0" d="M270.38,90.34c-0.98,0-1.65,0-2.31,0c-44.41,0-88.83,0-133.24,0c-2.86,0-5.7,0.18-8.49,0.9
		c-4.04,1.05-7.01,3.51-9.24,6.94c-3.32,5.13-4.9,10.82-5.37,16.87c-0.38,4.83-0.42,9.65,0.04,14.46
		c0.57,5.92,2.22,11.51,5.52,16.52c2.67,4.05,6.4,6.47,11.23,7.03c2.32,0.27,4.66,0.43,6.99,0.43c44.15,0.02,88.31,0.02,132.46,0.02
		c0.71,0,1.42,0,2.3,0c-0.11,0.56-0.12,0.91-0.25,1.22c-3.61,8.98-8.55,17.17-14.61,24.71c-7.11,8.85-15.46,16.37-24.83,22.75
		c-13.66,9.3-28.59,15.79-44.59,19.87c-7.06,1.8-14.21,3.07-21.43,3.89c-4.12,0.47-8.26,0.88-12.43,0.74
		c-3.22-0.11-6.45-0.09-9.67-0.01c-4.85,0.12-9.64-0.47-14.43-1.04c-5.31-0.63-10.58-1.57-15.79-2.78c-12.1-2.8-23.68-7-34.69-12.75
		c-6.41-3.35-12.5-7.2-18.27-11.58c-10.83-8.22-19.97-17.98-27.15-29.54c-6.43-10.36-10.72-21.53-12.62-33.59
		c-0.93-5.91-1.36-11.86-0.99-17.84c0.74-11.94,3.65-23.32,8.88-34.11c3.93-8.1,8.9-15.5,14.81-22.24
		c8.35-9.52,18.09-17.4,28.99-23.87c10.01-5.94,20.6-10.54,31.74-13.86c7.28-2.17,14.66-3.9,22.2-4.81
		c5.09-0.61,10.21-1.17,15.33-1.47c7.83-0.45,15.64-0.11,23.45,0.72c5.9,0.62,11.73,1.55,17.51,2.82
		c9.11,1.99,17.93,4.86,26.49,8.54C218.86,34,229.03,40,238.3,47.47c10.29,8.29,19.03,17.96,25.66,29.43
		c2.17,3.77,3.91,7.79,5.83,11.7C270.01,89.05,270.11,89.55,270.38,90.34z M145.96,40.1c-4.35-0.07-9.78,0.32-15.19,1.08
		c-10.59,1.49-20.84,4.22-30.64,8.57C86.51,55.8,74.51,64.07,64.74,75.42c-6.52,7.57-11.5,16.02-14.53,25.55
		c-2.58,8.13-3.68,16.46-3.15,25.01c0.53,8.55,2.52,16.71,6.05,24.49c4.87,10.73,12.06,19.72,20.93,27.38
		c10.63,9.19,22.77,15.74,36.09,20.14c11.93,3.94,24.21,5.75,36.74,5.89c3.68,0.04,7.36-0.29,11.03-0.55
		c6.23-0.44,12.35-1.55,18.41-3.04c9.43-2.33,18.42-5.79,26.91-10.5c4.68-2.6,9.17-5.49,13.34-8.87c0.6-0.49,1.18-1.03,1.68-1.62
		c0.48-0.57,0.4-1.07-0.27-1.39c-0.79-0.37-1.64-0.74-2.49-0.79c-3.47-0.21-6.95-0.4-10.42-0.41c-25.22-0.03-50.44-0.03-75.66-0.01
		c-5.3,0-10.58-0.15-15.85-0.79c-3.52-0.42-6.99-1.02-10.39-1.96c-10.93-3.04-20.35-8.62-27.81-17.2
		c-9.5-10.92-13.79-23.71-12.96-38.18c0.46-8.01,2.72-15.5,6.63-22.5c4.87-8.69,11.81-15.33,20.36-20.35
		c8.13-4.77,17.01-7.17,26.3-7.99c5.42-0.48,10.88-0.65,16.33-0.67c23.82-0.07,47.63-0.03,71.45-0.02c1.19,0,2.38,0.14,3.57,0.12
		c2.49-0.04,4.97-0.12,7.45-0.23c0.77-0.03,1.56-0.13,2.3-0.37c0.65-0.21,1.64-0.34,1.64-1.18c0-0.55-0.52-1.23-0.99-1.64
		c-1.42-1.21-2.89-2.37-4.42-3.45c-9.25-6.5-19.26-11.44-30.06-14.79C171.27,41.9,159.31,40.05,145.96,40.1z"/>
	<path class="st0" d="M111.32,242.88c1.52-1.16,2.63-2.63,3.45-4.33c0.87-1.8,0.25-3.01-1.75-3.08c-1.48-0.05-3.01,0.18-4.47,0.49
		c-4.87,1.03-9.46,2.88-13.77,5.28c-3.85,2.15-7.55,4.56-11.24,6.99c-2.17,1.43-4.15,3.12-5.82,5.14c-0.26,0.32-0.51,0.66-0.71,1.02
		c-1.26,2.15-0.71,4.21,1.5,5.39c0.72,0.39,1.53,0.69,2.33,0.85c4.01,0.83,8.04,0.55,12.15,0.06c-1.51-1.46-1.37-1.23-0.46-2.93
		c0.52-0.97,1.4-1.81,2.27-2.53c5.43-4.49,11.47-7.85,18.32-9.65c2.15-0.57,4.29-0.76,6.39,0.26c0.52,0.25,1.15,0.27,1.76,0.4
		c-0.17,1-0.88,1.3-1.45,1.71c-1.89,1.37-3.83,2.68-5.67,4.11c-1.53,1.19-2.7,2.73-3.64,4.43c-0.21,0.37-0.3,0.81-0.56,1.56
		c0.92-0.25,1.56-0.29,2.06-0.57c2.3-1.3,4.63-2.57,6.83-4.03c2.29-1.52,4.44-3.26,6.67-4.86c0.63-0.45,1.33-0.81,2.03-1.13
		c0.58-0.27,1.23-0.15,1.49,0.42c0.14,0.31-0.05,0.89-0.27,1.24c-0.3,0.47-0.77,0.83-1.18,1.22c-0.78,0.74-1.57,1.48-2.36,2.21
		c0.06,0.09,0.13,0.18,0.19,0.27c0.71-0.46,1.42-0.92,2.13-1.38c1.67-1.07,3.41-1.98,5.37-2.42c0.7-0.16,1.52-0.45,2.01,0.28
		c0.53,0.78-0.07,1.49-0.5,2.12c-0.31,0.47-0.71,0.87-0.95,1.51c0.34-0.14,0.69-0.26,1.01-0.43c1.59-0.87,3.17-1.78,4.78-2.62
		c0.5-0.26,1.07-0.39,1.62-0.55c0.6-0.17,1.13-0.04,1.55,0.44c0.44,0.5,0.15,0.97-0.09,1.44c-0.14,0.27-0.3,0.53-0.59,1.02
		c1.88-0.52,3.36-2.28,5.35-0.97c1.23-0.61,2.45-1.29,3.72-1.85c1.93-0.83,3.92-1.39,6.06-1.01c1.71,0.3,1.96,0.51,2.63,2.16
		c3.51-2.24,7.43-2.4,11.51-2.48c-0.13,1.05-0.64,1.64-1.23,2.12c-1.77,1.44-3.57,2.84-5.36,4.25c-0.43,0.34-1.13,0.54-0.84,1.28
		c0.26,0.67,0.91,0.82,1.55,0.81c0.76,0,1.32-0.32,1.82-0.98c3.92-5.2,9.14-7.99,15.68-8.25c0.46-0.02,0.91-0.19,1.37-0.2
		c0.54-0.02,1.29-0.14,1.58,0.14c0.55,0.55-0.01,1.2-0.4,1.63c-0.9,1-1.88,1.93-2.86,2.85c-0.41,0.39-0.92,0.68-1.36,1.04
		c-0.71,0.57-0.7,0.58-0.67,1.96c1.52-0.54,3.03-1.04,4.51-1.63c0.36-0.14,0.61-0.55,0.92-0.83c1.15-1.03,2.18-2.26,4.02-1.93
		c0.32,0.06,0.72-0.36,1.1-0.51c1.72-0.71,3.43-1.47,5.19-2.07c0.71-0.24,1.55-0.24,2.3-0.15c1.15,0.14,1.47,0.77,0.82,1.72
		c-0.73,1.06-1.63,2.01-2.5,2.97c-0.9,0.98-1.85,1.92-3.03,3.12c1.57,0.12,2.46-0.49,3.34-1.17c1.18-0.92,2.3-1.97,3.59-2.72
		c3.64-2.11,7.5-3.56,11.81-3.44c1.14,0.03,2.23,0.26,3.47,1c-1.46,0.14-2.65,0.25-4.07,0.38c0.81,0.76,0.88,1.41,0.31,2.22
		c-0.23,0.33-0.19,1.01-0.04,1.44c0.72,1.93,2.31,2.89,4.18,3.4c2.17,0.6,4.4,0.71,6.64,0.55c0.54-0.04,1.08-0.06,1.77-0.1
		c-3.78,2.88-11.27,1.63-15.08-2.45c-0.36,0.22-0.74,0.46-1.13,0.7c-2.97,1.79-6.18,2.71-9.66,2.36c-1.04-0.1-2.04-0.59-3.36-1
		c-1.37,0.27-3.04,1.91-4.97,0.22c1.29-3.13,4.18-4.85,5.9-7.48c-0.46-0.75-1.05-0.46-1.51-0.22c-1.33,0.69-2.7,1.36-3.92,2.22
		c-1.82,1.28-3.53,2.74-5.3,4.1c-0.91,0.69-1.81,1.4-2.79,1.98c-0.74,0.44-1.58,0.79-2.64,0.18c0.3-0.51,0.57-0.96,0.91-1.52
		c-0.94,0.07-1.38,0.46-1.6,1.34c-0.65,2.58-1.59,5.04-3.2,7.21c-2.24,3.02-5.13,5.18-8.75,6.17c-1.31,0.36-2.78,0.32-4.17,0.25
		c-1.31-0.07-1.89-1.09-1.4-2.35c0.31-0.81,0.78-1.59,1.32-2.27c1.9-2.39,4.34-4.18,6.85-5.84c2.16-1.43,4.44-2.69,6.67-4.02
		c0.48-0.29,1.02-0.51,1.02-1.39c-0.41,0.16-0.72,0.27-1.01,0.41c-1.86,0.92-3.7,1.87-5.58,2.76c-0.65,0.31-1.37,0.48-2.08,0.65
		c-1.36,0.32-2.64,0.38-3.19-1.32c-1.67,0.1-3.2-0.05-4.3-1.48c-0.85,0.37-1.58,0.78-2.36,1.01c-1.63,0.49-3.29,0.9-4.94,1.32
		c-0.25,0.06-0.52,0.06-0.78,0.05c-0.78-0.05-1.64-0.05-2.05-0.86c-0.38-0.74,0.27-1.24,0.62-1.8c0.1-0.16,0.19-0.34,0.41-0.73
		c-1.96,0.7-3.7,1.32-5.44,1.93c-0.59,0.21-1.17,0.47-1.78,0.56c-2.36,0.35-3.95,1.75-5.49,3.47c-2.61,2.91-5.58,5.44-9.07,7.28
		c-0.82,0.44-1.69,0.79-2.56,1.13c-0.36,0.14-0.78,0.16-1.25,0.25c-0.11-0.88,0.46-1.23,0.88-1.62c2.06-1.9,4.13-3.8,6.21-5.67
		c3.2-2.89,6.43-5.75,9.63-8.64c0.32-0.29,0.57-0.65,0.86-0.97c-0.06-0.08-0.12-0.16-0.19-0.25c-0.39,0.19-0.78,0.4-1.18,0.56
		c-1.25,0.48-2.5,0.98-3.78,1.37c-0.41,0.12-0.92-0.1-1.67-0.2c0.63-1.03,1.1-1.8,1.73-2.82c-0.58,0.22-0.92,0.3-1.2,0.47
		c-1.68,1.04-3.32,2.13-5.01,3.15c-0.93,0.56-1.93,1-2.91,1.48c-0.28,0.13-0.58,0.24-0.88,0.27c-1.01,0.11-1.4-0.37-1-1.28
		c0.23-0.51,0.57-0.99,0.93-1.43c0.84-1.03,1.73-2.02,2.45-3.23c-0.34,0.16-0.71,0.29-1.03,0.5c-2.31,1.5-4.58,3.05-6.91,4.52
		c-0.96,0.61-2,1.08-3.02,1.59c-0.27,0.14-0.59,0.21-0.9,0.25c-1.26,0.16-1.64-0.34-1.14-1.5c0.08-0.19,0.2-0.36,0.46-0.79
		c-0.52,0.21-0.83,0.3-1.09,0.45c-2.06,1.23-4.15,2.38-6.49,2.97c-0.74,0.19-1.55,0.33-2.3,0.26c-1.35-0.13-1.88-1.02-1.49-2.32
		c0.18-0.58,0.48-1.12,0.83-1.92c-0.48,0.18-0.75,0.25-0.99,0.38c-3.54,1.89-7.17,3.55-11.01,4.71c-0.35,0.1-0.71,0.2-1.02,0.37
		c-5.13,2.71-10.65,3.39-16.33,3c-1.58-0.11-3.19-0.54-4.67-1.12c-2.91-1.12-3.68-3.3-2.39-6.15c0.94-2.08,2.47-3.7,4.09-5.26
		c3.47-3.34,7.53-5.88,11.67-8.28c5.69-3.3,11.71-5.85,18.13-7.33c1.96-0.45,4-0.54,6.01-0.77c0.36-0.04,0.73,0.02,1.09,0.06
		c1.41,0.17,2.7,0.64,3.25,2.06c0.55,1.42-0.14,2.66-1.02,3.73C114.47,241.71,113.09,242.6,111.32,242.88z M117.67,246.75
		c-1.41-0.55-2.79-0.26-4.11,0.1c-7.02,1.92-12.94,5.75-18.24,10.63c-0.36,0.33-0.6,0.78-0.94,1.23
		C97.8,259.35,114.5,250.7,117.67,246.75z M177.06,258.04c-3.16,1.35-8.6,5.1-10.8,7.44c-0.7,0.75-1.41,1.54-1.91,2.43
		c-0.71,1.26-0.18,2.18,1.28,2.16c0.95-0.02,2.01-0.2,2.81-0.67c1.51-0.88,2.99-1.89,4.25-3.08
		C175.01,264.14,176.28,261.33,177.06,258.04z M168.11,257.41c0.6,0.66,1.28,0.27,1.83,0c2.56-1.25,5.08-2.57,7.61-3.87
		c0.59-0.3,0.83-0.82,1.1-1.41c0.44-0.97,1.08-1.85,1.65-2.76c0.15-0.23,0.34-0.44,0.58-0.73
		C175.98,248.92,168.82,253.71,168.11,257.41z M144.81,256.41c0.41-0.1,0.77-0.14,1.08-0.28c2.19-0.94,4.41-1.83,6.54-2.89
		c1.29-0.64,2.45-1.55,3.64-2.38c0.29-0.2,0.45-0.57,0.74-0.95C152.86,249.29,146.28,252.88,144.81,256.41z M209.25,250
		c-3.92,1.37-7.66,2.79-10.53,5.91c0.23,0.19,0.31,0.3,0.38,0.3c3.51,0.05,6.58-1.12,9.24-3.38c0.24-0.21,0.39-0.58,0.48-0.91
		C209,251.36,209.09,250.77,209.25,250z M165.9,249.86c-3.02,0.07-11.15,4.8-11.82,7.27c0.1,0.02,0.21,0.09,0.29,0.07
		c3.31-0.78,6.47-1.81,8.7-4.66C163.86,251.54,164.93,250.77,165.9,249.86z M181.76,250.05c0.11,0.12,0.21,0.24,0.32,0.35
		c0.56-0.51,1.12-1.03,1.68-1.54c-0.08-0.1-0.16-0.19-0.25-0.29C182.93,249.07,182.35,249.56,181.76,250.05z"/>
</g>
</svg>
