<?xml version="1.0" encoding="utf-8"?>
<!-- Generator: Adobe Illustrator 28.3.0, SVG Export Plug-In . SVG Version: 6.00 Build 0)  -->
<svg version="1.1" id="Calque_1" xmlns="http://www.w3.org/2000/svg" xmlns:xlink="http://www.w3.org/1999/xlink" x="0px" y="0px"
	 viewBox="0 0 288 288" style="enable-background:new 0 0 288 288;" xml:space="preserve">
<style type="text/css">
	.st0{fill:#EA5F1E;}
	.st1{fill:#FFFFFF;}
</style>
<g>
	<path class="st0" d="M18.69,194.06c0-4.18,0-8.05,0-12.19c0.94,0,1.71,0,2.48,0c81.78,0,163.57,0,245.35,0.01
		c0.65,0,1.4-0.19,1.93,0.07c0.62,0.3,1.47,0.96,1.5,1.5c0.14,3.03,0.14,6.07-0.01,9.1c-0.03,0.52-0.92,1.16-1.54,1.45
		c-0.54,0.24-1.28,0.06-1.93,0.06c-81.71,0-163.42,0-245.13,0C20.54,194.06,19.76,194.06,18.69,194.06z"/>
	<path class="st1" d="M79.71,95.1c7.46,0,14.76-0.23,22.03,0.09c4.09,0.18,6.51,2.84,7.31,6.86c0.28,1.41,0.43,2.87,0.44,4.3
		c0.05,5.64,0.03,11.28,0.01,16.92c0,1.08-0.11,2.17-0.21,3.24c-0.37,3.75-1.92,6.65-6.29,7.97c6.54,2.28,6.47,7.49,6.5,12.61
		c0.05,7.08,0.01,14.16,0.01,21.64c-3.12,0-6.11,0-9.11,0c-3.79,0-3.79,0-3.79-3.76c0-7.38,0.01-14.75-0.01-22.13
		c-0.01-2.97-0.77-3.58-4.08-3.22c0,9.56,0,19.15,0,28.92c-4.35,0-8.5,0-12.83,0C79.71,144.07,79.71,119.61,79.71,95.1z
		 M92.56,129.6c3.31,0.49,4.05-0.1,4.05-3.26c0.02-6.21,0.02-12.43-0.01-18.64c-0.01-3.13-0.9-3.8-4.05-3.11
		C92.56,112.92,92.56,121.27,92.56,129.6z"/>
	<path class="st1" d="M184.75,131.34c0-8.61-0.01-17.21,0-25.82c0.01-9.01,2.69-11.72,11.61-11.69c3.54,0.02,7.1-0.07,10.6,0.36
		c4.36,0.53,6.63,2.99,7.37,7.33c0.23,1.35,0.34,2.73,0.34,4.1c0.02,17.36,0.03,34.71,0,52.07c0,1.65-0.13,3.34-0.45,4.96
		c-0.79,4.06-2.88,6.3-6.97,6.57c-4.89,0.32-9.83,0.31-14.72-0.04c-4.16-0.3-6.45-2.72-7.33-6.85c-0.33-1.54-0.43-3.15-0.44-4.73
		C184.73,148.84,184.76,140.09,184.75,131.34z M197.62,131.44c0,7.23,0,14.45,0,21.68c0,1.52-0.22,3.08,0.1,4.53
		c0.18,0.84,1.23,1.49,1.89,2.22c0.74-0.73,1.56-1.4,2.17-2.23c0.25-0.33,0.06-0.98,0.06-1.49c0-16.33,0-32.67,0-49
		c0-0.72,0.18-1.59-0.14-2.13c-0.43-0.7-1.28-1.59-1.95-1.58c-0.69,0.01-1.52,0.88-2,1.58c-0.31,0.45-0.13,1.26-0.13,1.91
		C197.62,115.1,197.62,123.27,197.62,131.44z"/>
	<path class="st1" d="M149.4,94.96c4.29,0,8.37,0,12.59,0c0,9.73,0,19.33,0,28.93c0.16,0.02,0.31,0.05,0.47,0.07
		c0.54-2.99,1.11-5.98,1.63-8.98c1.06-6.12,2.12-12.24,3.13-18.37c0.21-1.27,0.65-1.86,2.08-1.82c3.51,0.11,7.03,0.04,10.81,0.04
		c-0.9,4.99-1.72,9.66-2.57,14.32c-1.22,6.68-2.48,13.34-3.63,20.03c-0.19,1.09-0.02,2.3,0.25,3.39c2.96,11.91,5.98,23.8,9.1,36.15
		c-1.74,0-3.35,0-4.96,0c-2.17,0-4.34-0.09-6.5,0.03c-1.45,0.08-2.01-0.49-2.31-1.86c-2.16-9.8-4.38-19.59-6.59-29.37
		c-0.13-0.59-0.34-1.17-0.88-1.69c0,10.88,0,21.76,0,32.76c-4.25,0-8.34,0-12.59,0C149.4,144.07,149.4,119.61,149.4,94.96z"/>
	<path class="st1" d="M146.12,168.62c-4.18,0-8.13,0-12.27,0c-0.48-6.11-0.96-12.13-1.45-18.34c-1.93,0-3.84,0-6.04,0
		c-0.26,2.99-0.55,6.05-0.79,9.11c-0.19,2.45-0.38,4.9-0.47,7.35c-0.05,1.4-0.47,2.07-2.04,2.02c-3.38-0.11-6.77-0.03-10.49-0.03
		c0.36-4,0.68-7.78,1.04-11.55c1.23-12.95,2.48-25.89,3.72-38.84c0.7-7.33,1.37-14.67,2.16-22c0.06-0.55,0.99-1.44,1.52-1.45
		c5.56-0.11,11.13-0.03,16.7-0.09c1.92-0.02,1.55,1.37,1.65,2.4c1.1,11.29,2.16,22.58,3.25,33.87c1.17,12.15,2.35,24.3,3.52,36.46
		C146.14,167.81,146.12,168.09,146.12,168.62z M129.57,112.45c-0.15-0.01-0.3-0.03-0.45-0.04c-0.68,9.17-1.35,18.34-2.03,27.56
		c1.72,0,3.05,0,4.55,0C130.94,130.68,130.25,121.56,129.57,112.45z"/>
	<path class="st1" d="M47.5,118.8c-3.58,0-7.32,0.05-11.06-0.07c-0.38-0.01-1.02-1.05-1.03-1.63c-0.1-3.61-0.06-7.23-0.04-10.84
		c0.01-1.5-0.23-2.95-2.08-2.88c-1.74,0.07-2.09,1.46-2.09,2.98c0.01,16.84,0,33.68,0,50.52c0,0.22-0.08,0.51,0.03,0.64
		c0.66,0.81,1.26,2.11,2.06,2.25c1.45,0.27,2.08-0.96,2.08-2.38c0-4.26,0-8.53,0-12.79c0-0.79,0-1.57,0-2.54c4.16,0,8.16,0,12.36,0
		c0.04,0.57,0.12,1.19,0.12,1.81c0.01,4.63,0.05,9.25-0.02,13.88c-0.03,1.73-0.16,3.48-0.51,5.16c-0.78,3.82-2.87,6.02-6.73,6.28
		c-4.74,0.32-9.55,0.42-14.28,0c-5.39-0.48-7.94-4.13-7.97-10.54c-0.05-10.34-0.02-20.67-0.02-31.01c0-7.23,0-14.46,0-21.68
		c0-0.79-0.02-1.59,0.03-2.38c0.43-7,3.27-9.73,10.28-9.73c3.82,0,7.68-0.08,11.46,0.35c4.38,0.49,6.99,2.9,7.3,7.29
		C47.81,107.13,47.5,112.84,47.5,118.8z"/>
	<path class="st1" d="M52.53,94.95c7.51,0,14.85,0,22.32,0c0,3.27,0,6.4,0,9.78c-3.16,0-6.23,0-9.46,0c0,7.2,0,14.17,0,21.39
		c2.78,0,5.56,0,8.53,0c0,3.37,0,6.5,0,9.88c-2.8,0-5.59,0-8.53,0c0,7.64,0,15.03,0,22.65c3.15,0,6.23,0,9.45,0
		c0,3.37,0,6.52,0,9.87c-7.36,0-14.75,0-22.32,0C52.53,144.08,52.53,119.63,52.53,94.95z"/>
	<path class="st1" d="M247.98,94.97c7.54,0,14.88,0,22.33,0c0,3.28,0,6.42,0,9.82c-3.2,0-6.27,0-9.45,0c0,7.18,0,14.09,0,21.3
		c2.82,0,5.59,0,8.51,0c0,3.42,0,6.56,0,9.98c-2.85,0-5.63,0-8.52,0c0,7.63,0,14.98,0,22.57c3.15,0,6.22,0,9.44,0
		c0,3.38,0,6.53,0,9.89c-7.36,0-14.75,0-22.32,0C247.98,144.07,247.98,119.6,247.98,94.97z"/>
	<path class="st1" d="M224.84,168.73c0-21.44,0-42.53,0-63.87c-2.36,0-4.56,0-6.94,0c0-3.38,0-6.51,0-9.84c8.87,0,17.77,0,26.79,0
		c0,3.19,0,6.27,0,9.65c-2.19,0-4.38,0-6.8,0c-0.06,1.11-0.15,1.94-0.15,2.77c-0.01,19.66-0.03,39.32,0.03,58.98
		c0.01,1.74-0.36,2.43-2.25,2.35C232.07,168.62,228.61,168.73,224.84,168.73z"/>
</g>
</svg>
