<?xml version="1.0" encoding="utf-8"?>
<!-- Generator: Adobe Illustrator 28.3.0, SVG Export Plug-In . SVG Version: 6.00 Build 0)  -->
<svg version="1.1" id="Calque_1" xmlns="http://www.w3.org/2000/svg" xmlns:xlink="http://www.w3.org/1999/xlink" x="0px" y="0px"
	 viewBox="0 0 288 288" style="enable-background:new 0 0 288 288;" xml:space="preserve">
<style type="text/css">
	.st0{fill:#FFFFFF;}
</style>
<g>
	<path class="st0" d="M18.3,116.78c0.05,0,0.1,0.06,0.13-0.02c0.07-0.15,0.05-0.32,0.06-0.48c0.08-1.4,0.32-2.78,0.73-4.13
		c1.16-3.81,3.56-6.58,7.08-8.41c1.73-0.9,3.58-1.48,5.49-1.84c1.35-0.25,2.7-0.35,4.07-0.35c16.54,0.01,33.09,0,49.63,0.01
		c0.75,0,0.66-0.09,0.66,0.66c0,6.48,0,12.97,0,19.45c0,0.8,0.08,0.7-0.68,0.7c-12.41,0-24.83,0-37.24,0c-0.77,0-1.54,0.04-2.3,0.21
		c-3.03,0.69-5.41,3.08-6.1,6.1c-0.98,4.28,1.62,8.6,5.94,9.7c0.58,0.15,1.16,0.22,1.76,0.24c0.29,0.01,0.57,0.01,0.86,0.01
		c10.06,0,20.12,0,30.18,0c0.83,0,0.71-0.11,0.71,0.71c0,5.93,0,11.85-0.01,17.78c0,1.04,0,2.08-0.01,3.13c0,0.09,0,0.18,0,0.27
		c0,0.12-0.06,0.21-0.19,0.21c-0.14,0-0.29,0-0.43,0c-1.01,0-2.01,0-3.02,0c-9.14,0-18.29,0-27.43,0c-0.77,0-1.54,0.04-2.3,0.21
		c-3.27,0.76-5.73,3.52-6.19,6.77c-0.55,3.87,1.78,7.73,5.69,8.92c0.71,0.22,1.43,0.32,2.17,0.35c0.25,0.01,0.5,0.01,0.75,0.01
		c13.96,0,27.92,0,41.87,0c0.25,0,0.55,0.1,0.73-0.05c0.21-0.18,0.08-0.51,0.08-0.77c0-21.46,0-42.93,0.01-64.39
		c0-0.74,0-1.47,0.1-2.2c0.34-2.4,1.32-4.5,2.98-6.27c1.87-2,4.18-3.21,6.9-3.54c3.67-0.45,6.84,0.66,9.49,3.23
		c0.62,0.6,1.17,1.27,1.66,1.98c4.96,7.16,9.92,14.32,14.88,21.48c5.94,8.58,11.88,17.15,17.82,25.73c0.25,0.36,0.52,0.69,0.87,0.94
		c0.21,0.15,0.42,0.27,0.67,0.33c0.43,0.11,0.78-0.01,1.04-0.37c0.24-0.33,0.34-0.71,0.4-1.1c0.07-0.43,0.09-0.86,0.09-1.29
		c0-16.06,0-32.12,0-48.17c0-0.18,0-0.36,0-0.54c0-0.13,0.07-0.19,0.2-0.19c0.13,0,0.25,0,0.38,0c7.15,0,14.3,0,21.45,0
		c0.68,0,0.61-0.07,0.61,0.6c0,28.61,0,57.23,0,85.84c0,1.52-0.16,3.02-0.73,4.44c-1.55,3.86-4.38,6.21-8.45,7.07
		c-0.25,0.05-0.5,0.08-0.74,0.12c-0.07,0.01-0.08,0.06-0.08,0.11c-0.79,0-1.58,0-2.37,0c-0.01-0.03-0.01-0.09-0.02-0.09
		c-0.19-0.04-0.39-0.08-0.58-0.11c-0.98-0.13-1.94-0.38-2.84-0.79c-1.57-0.71-2.92-1.71-3.92-3.11
		c-8.81-12.37-17.61-24.75-26.42-37.13c-2.39-3.37-4.79-6.73-7.18-10.1c-0.27-0.38-0.57-0.74-0.92-1.05
		c-0.23-0.2-0.48-0.37-0.78-0.47c-0.46-0.16-0.9-0.06-1.22,0.31c-0.24,0.28-0.4,0.6-0.43,0.97c-0.02,0.27-0.02,0.54-0.02,0.81
		c0,16.29,0,32.58,0,48.87c0,0.18,0,0.36,0,0.54c-0.01,0.2-0.04,0.24-0.27,0.25c-0.18,0.01-0.36,0-0.54,0c-25.81,0-51.62,0-77.43,0
		c-0.84,0-1.69-0.01-2.53-0.06c-1.39-0.08-2.75-0.29-4.08-0.67c-2.27-0.64-4.28-1.74-5.97-3.4c-1.49-1.47-2.57-3.22-3.32-5.17
		c-0.68-1.75-1.08-3.57-1.23-5.44c-0.01-0.14,0.01-0.29-0.07-0.42c-0.04-0.08-0.09-0.01-0.13-0.01
		C18.3,161.4,18.3,139.09,18.3,116.78z"/>
	<path class="st0" d="M270.3,199.12c-3.86,0-7.72,0-11.58,0c-4.44,0-8.87,0-13.31,0c-0.64,0-0.49,0.1-0.84-0.47
		c-7.43-11.81-14.9-23.58-22.44-35.32c-4.59-7.14-9.2-14.27-13.93-21.32c-1.68-2.5-3.37-5-5.16-7.43c-0.47-0.64-0.93-1.28-1.47-1.86
		c-0.47-0.52-0.44-0.55-1.26-0.53c-0.8,0.01-1.38,0.56-1.47,1.37c-0.03,0.23-0.02,0.47-0.02,0.7c0,14.31,0,28.63,0,42.94
		c0,7.04,0,14.08,0,21.12c0,0.71,0.11,0.65-0.67,0.65c-6.74,0-13.47,0-20.21,0c-0.21,0-0.43,0.03-0.67-0.06c0-0.18,0-0.36,0-0.54
		c0-26.49,0-52.98,0-79.47c0-2.06,0.23-4.08,0.85-6.05c1.96-6.34,7.2-11.19,13.67-12.62c2.14-0.47,4.3-0.58,6.48-0.27
		c5.48,0.79,9.76,3.49,12.92,8.02c1.32,1.9,2.55,3.87,3.81,5.81c7.09,10.92,14.17,21.83,21.25,32.75
		c5.37,8.28,10.75,16.56,16.12,24.85c5.81,8.96,11.63,17.92,17.44,26.88c0.16,0.25,0.32,0.51,0.49,0.76
		C270.3,199.05,270.3,199.08,270.3,199.12z"/>
	<path class="st0" d="M84.91,88.01c-0.03,0.11-0.13,0.1-0.21,0.12c-2.16,0.6-4.32,1.21-6.48,1.8c-6.55,1.82-13.1,3.63-19.64,5.45
		c-2.64,0.73-5.29,1.47-7.93,2.21c-0.3,0.08-0.59,0.12-0.9,0.12c-5.69,0-11.39,0-17.08,0c-0.6,0-0.55,0.05-0.55-0.55
		c0-2.86,0.01-5.71,0.01-8.57c0-0.2-0.02-0.39-0.03-0.59C49.7,88.01,67.31,88.01,84.91,88.01z"/>
</g>
</svg>
