<?xml version="1.0" encoding="utf-8"?>
<!-- Generator: Adobe Illustrator 28.3.0, SVG Export Plug-In . SVG Version: 6.00 Build 0)  -->
<svg version="1.1" id="Calque_1" xmlns="http://www.w3.org/2000/svg" xmlns:xlink="http://www.w3.org/1999/xlink" x="0px" y="0px"
	 viewBox="0 0 288 288" style="enable-background:new 0 0 288 288;" xml:space="preserve">
<style type="text/css">
	.st0{fill:#E42529;}
	.st1{fill:#FFFFFF;}
</style>
<g>
	<path class="st0" d="M18.04,107.69c0.53,0,1.07,0,1.6,0c20.91,0,41.83,0.01,62.74-0.02c1.01,0,1.44,0.15,1.62,1.3
		c0.36,2.26,1.89,3.88,3.61,5.28c3.64,2.96,7.91,4.73,12.27,6.27c6.87,2.43,13.95,4.03,21.11,5.33c0.65,0.12,0.91,0.02,0.94-0.72
		c0.26-6.32,3.74-10.55,8.98-13.57c5.01-2.89,10.54-4.25,16.19-5.08c6.75-0.98,13.55-1.43,20.37-0.85
		c11.08,0.94,21.33,4.31,30.61,10.5c1.73,1.15,3.5,2.16,5.68,2.11c0.7-0.02,1.33-0.17,1.97-0.66c-3.31-3.07-6.58-6.08-9.84-9.1
		c-1.82-1.69-3.62-3.4-5.48-5.05c-0.6-0.53-0.51-0.79,0.09-1.22c6.44-4.69,12.86-9.39,19.27-14.12c0.69-0.51,1.07-0.12,1.56,0.22
		c8.12,5.57,16.09,11.34,23.93,17.3c7.67,5.83,15.26,11.76,22.43,18.2c2.39,2.15,4.71,4.37,6.53,7.05c2.21,3.25,1.99,5.16-1.08,7.62
		c-4.98,4-10.61,7.06-15.9,10.62c-2.73,1.84-5.51,2.43-8.75,2.42c-28.2-0.1-56.4-0.07-84.6-0.08c-1.92,0-2.01,0.06-2.56,1.95
		c-0.35,1.19-0.69,2.38-1.03,3.57c-0.54,1.86-0.53,1.89,1.37,1.89c4.03,0,8.06-0.01,12.09-0.01c3.17,0,6.34-0.01,9.51,0
		c2.09,0.01,4.08,0.43,5.88,1.55c3.09,1.92,4.45,5.34,3.58,9.01c-0.28,1.2-0.66,2.39-0.96,3.59c-0.15,0.61-0.48,0.78-1.09,0.78
		c-4.54-0.02-9.09-0.03-13.63,0c-0.83,0.01-0.86-0.22-0.68-0.94c0.7-2.71,0.67-2.72-2.12-2.72c-6.47,0-12.94,0-19.41,0.02
		c-1.46,0-2.9-0.08-4.33-0.46c-4.79-1.27-7.38-5.39-6.2-10.19c0.8-3.28,1.65-6.56,2.81-9.72c2.01-5.51,5.81-9.2,11.75-10.3
		c1.04-0.19,2.13-0.16,3.2-0.16c30.26-0.01,60.51-0.02,90.77,0.02c1.25,0,2.07-0.37,2.81-1.33c2.28-2.94,2.49-5.76,0.46-8.88
		c-2.31-3.55-5.37-6.43-8.48-9.25c-8.54-7.75-17.71-14.72-26.98-21.56c-0.65-0.48-1.08-0.41-1.68,0.04
		c-1.78,1.33-3.58,2.65-5.43,3.89c-0.77,0.52-0.84,0.78-0.11,1.44c3.26,2.97,6.65,5.81,9.68,9.01c1.83,1.93,3.54,3.96,4.68,6.4
		c1.87,4.02,0.14,7.17-4.28,7.33c-5.69,0.21-11.4,0.07-17.1,0.09c-0.37,0-0.63-0.14-0.91-0.38c-5.25-4.57-11.56-6.87-18.22-8.38
		c-6.43-1.46-12.97-1.95-19.53-1.51c-11.15,0.75-20.52,5.01-27.02,14.51c-0.24,0.35-0.55,0.7-0.66,1.09
		c-0.64,2.25-2.22,2.49-4.29,2.44c-6.47-0.15-12.94-0.03-19.41-0.14c-3.42-0.06-6.83-0.45-10.17-1.24
		c-3.54-0.84-6.65-2.51-9.25-5.03c-6.44-6.22-14.3-9.54-22.89-11.4c-3.23-0.7-6.51-1.17-9.82-1.03c-8.2,0.35-16.09-1.33-23.91-3.49
		c-3.88-1.07-7.7-2.3-11.47-3.69c-0.3-0.11-0.6-0.23-0.9-0.35C18.01,107.83,18.03,107.76,18.04,107.69z"/>
	<path class="st1" d="M108.06,189.68c1.07-3.73,2.08-7.38,3.2-11c0.33-1.07,0.03-1.19-0.94-1.18c-6.56,0.05-13.11,0.07-19.67,0.04
		c-0.88,0-1.15,0.34-1.36,1.09c-0.93,3.37-1.9,6.73-2.9,10.08c-0.12,0.42-0.07,1.01-0.88,1.01c-4.88-0.04-9.76-0.02-14.76-0.02
		c1.25-4.36,2.47-8.61,3.7-12.87c2.31-7.99,4.6-15.99,6.95-23.97c0.29-0.98,0.28-1.31-0.9-1.3c-9.43,0.06-18.86,0.06-28.29,0.05
		c-1.01,0-1.57,0.31-1.83,1.34c-0.45,1.82-0.96,3.63-1.58,5.4c-0.35,0.99,0.01,1.03,0.82,1.02c7.84-0.03,15.69,0,23.53-0.05
		c1.1-0.01,1.38,0.14,1,1.31c-0.86,2.59-1.62,5.22-2.28,7.87c-0.25,0.98-0.69,1.14-1.58,1.14c-7.84-0.03-15.69,0-23.53-0.04
		c-0.93,0-1.29,0.26-1.55,1.18c-1.65,5.92-3.41,11.81-5.08,17.72c-0.26,0.93-0.65,1.25-1.66,1.23c-4.28-0.07-8.57-0.07-12.86,0
		c-1.13,0.02-1.21-0.26-0.91-1.28c3.15-10.73,6.2-21.48,9.38-32.2c0.54-1.84,1.07-3.68,1.62-5.51c2.12-7.12,7.83-11.39,15.24-11.39
		c24.13-0.02,48.26-0.04,72.39-0.06c1.97,0,3.93-0.11,5.85,0.52c4.4,1.43,6.83,5.49,5.7,9.96c-1.11,4.38-2.46,8.71-3.68,13.07
		c-0.16,0.57-0.46,0.72-1.01,0.71c-4.54-0.02-9.09-0.03-13.63,0.01c-0.82,0.01-0.91-0.24-0.7-0.96c0.89-2.98,1.74-5.98,2.59-8.97
		c0.47-1.67,0.13-2.15-1.57-2.15c-5.83-0.01-11.66,0-17.49,0c-1.25,0-2.31,0.35-2.7,1.69c-1.37,4.66-2.72,9.32-4.12,14.14
		c0.59,0,1.05,0,1.5,0c11.49-0.01,22.97-0.01,34.46-0.05c1.13,0,1.36,0.2,1,1.32c-0.83,2.56-1.45,5.18-2.28,7.73
		c-0.38,1.15-0.03,1.25,0.98,1.25c16.8-0.05,33.6-0.06,50.4-0.09c0.3,0,0.6,0.03,0.9-0.01c0.86-0.1,0.88,0.29,0.69,0.98
		c-1.97,6.96-7.63,11.28-14.86,11.28c-18.69,0-37.37-0.01-56.06-0.01C108.94,189.68,108.56,189.68,108.06,189.68z"/>
	<path class="st1" d="M22.12,105.96c3.93-0.17,7.86-0.35,11.79-0.51c17.6-0.69,35.19-1.36,52.79-2.08c1.13-0.05,1.71,0.16,1.47,1.4
		c-0.01,0.04,0.01,0.09,0,0.13c-0.72,3.66,1.33,5.75,4.16,7.45c5.07,3.05,10.65,4.81,16.29,6.36c2.8,0.77,5.65,1.37,8.48,2.01
		c0.48,0.11,1.02,0.4,1.29-0.5c2.05-6.83,6.98-10.97,13.2-13.84c5.65-2.61,11.67-3.85,17.81-4.55c5.75-0.65,11.52-0.95,17.31-0.57
		c6.14,0.4,12.11,1.57,17.94,3.53c0.24,0.08,0.48,0.13,0.87-0.01c-0.56-0.52-1.07-1.1-1.68-1.55c-0.8-0.59-0.79-0.94,0.06-1.54
		c3.83-2.73,7.61-5.54,11.41-8.32c4.7-3.44,9.41-6.86,14.08-10.33c0.63-0.47,1.06-0.58,1.77-0.09
		c16.42,11.28,32.47,23.03,47.59,36.03c3.22,2.76,6.34,5.64,8.82,9.12c1.6,2.24,2.74,4.65,2.34,7.52c-0.44,3.15-2.41,5.29-4.93,6.87
		c-3.66,2.29-7.71,3.79-11.75,5.27c-0.24,0.09-0.54,0.01-0.95,0.01c3.88-2.43,7.62-4.81,11.15-7.51c0.61-0.47,1.19-0.98,1.74-1.52
		c2.29-2.24,2.66-4.47,1.17-7.32c-1.35-2.58-3.33-4.66-5.41-6.64c-7.71-7.33-16.14-13.8-24.58-20.25
		c-8.16-6.24-16.52-12.21-24.97-18.06c-0.73-0.5-1.21-0.56-1.97,0c-7.02,5.19-14.06,10.35-21.14,15.48
		c-0.85,0.62-0.78,0.89-0.07,1.55c3.67,3.35,7.28,6.77,10.92,10.15c0.27,0.25,0.62,0.43,1.05,0.73c-0.87,0.41-1.21-0.02-1.59-0.21
		c-5.93-3.04-11.86-6.07-18.35-7.82c-7.56-2.04-15.21-2.75-23.02-2.34c-6.82,0.36-13.56,1.12-20.09,3.21
		c-4.44,1.43-8.58,3.42-11.92,6.79c-2.44,2.47-4.05,5.39-4.56,8.84c-0.16,1.04-0.41,1.34-1.59,1.11
		c-8.23-1.63-16.36-3.58-24.04-7.03c-2.7-1.21-5.29-2.63-7.42-4.74c-1.42-1.41-2.45-3-2.19-5.11c0.13-1.06-0.53-0.93-1.18-0.93
		c-10.59,0-21.17,0-31.76,0c-9.43,0-18.86,0-28.29,0c-0.68,0-1.36,0-2.05,0C22.14,106.09,22.13,106.03,22.12,105.96z"/>
	<path class="st1" d="M198.65,190.29c-2.23,0-4.46-0.02-6.68,0.01c-0.74,0.01-0.99-0.09-0.69-0.92
		c4.07-11.14,8.11-22.29,12.13-33.45c0.22-0.62,0.54-0.75,1.12-0.74c4.58,0.02,9.17,0.02,13.75,0c0.78,0,0.93,0.14,0.64,0.91
		c-4.18,11.14-8.33,22.29-12.47,33.45c-0.22,0.59-0.53,0.76-1.12,0.75C203.11,190.27,200.88,190.29,198.65,190.29z"/>
	<path class="st1" d="M34.42,116.64c2.49-0.45,4.96-0.03,7.42,0.09c4.28,0.21,8.57,0.16,12.85,0.24c9.22,0.16,17.78,2.68,25.65,7.49
		c2.06,1.26,3.85,2.86,5.59,4.51c4.13,3.92,9.18,5.6,14.7,6.25c6.45,0.77,12.92,0.44,19.38,0.52c0.76,0.01,1.53,0,2.5,0
		c-0.59,0.9-1.11,1.66-1.6,2.44c-0.26,0.41-0.63,0.37-1.01,0.37c-6.47-0.04-12.94,0.19-19.39-0.52c-6.42-0.71-12.18-2.84-16.95-7.39
		c-6.81-6.51-15.25-9.61-24.39-10.52c-7.98-0.79-15.85-2.07-23.75-3.34C35.09,116.72,34.75,116.68,34.42,116.64z"/>
	<path class="st1" d="M20.64,205.25c0.95-2.71,1.86-5.27,2.74-7.84c0.14-0.41,0.34-0.51,0.73-0.51c1.41,0.02,2.82,0.01,4.24,0.01
		c-0.31,1.71-0.31,1.71,1.4,1.71c1.16,0,2.32-0.09,3.47,0.02c1.17,0.11,1.65-0.36,1.96-1.44c0.25-0.88-0.05-0.91-0.75-0.91
		c-3.81,0.02-7.63-0.02-11.44,0.03c-1.01,0.01-1.18-0.13-0.89-1.18c0.39-1.43,1.05-1.89,2.56-1.84c4.07,0.13,8.14,0.04,12.21,0.05
		c0.59,0,1.2,0.06,1.78,0.19c1.7,0.39,2.26,1.39,1.67,3.02c-0.48,1.3-0.68,2.75-1.91,3.69c-1.06,0.81-2.29,1.08-3.9,1.1
		c1.16,1.37,2.14,2.52,3.3,3.9c-1.93,0-3.62,0-5.3,0c-0.46,0-0.64-0.37-0.86-0.67c-0.64-0.86-1.29-1.71-1.9-2.58
		c-0.29-0.42-0.62-0.59-1.15-0.65c-1.19-0.13-1.81,0.2-2.18,1.45c-0.72,2.48-0.81,2.45-3.46,2.45
		C22.26,205.25,21.58,205.25,20.64,205.25z"/>
	<path class="st1" d="M103.37,202.32c-0.63,2.06-1.78,2.89-4.06,2.92c-2.74,0.03-5.48,0.01-8.23,0.01c-1.16,0-2.32,0.05-3.47-0.03
		c-1.46-0.1-1.86-0.75-1.39-2.12c0.72-2.09,1.54-4.16,2.17-6.28c0.69-2.33,2.34-3.38,4.56-3.43c4.41-0.11,8.82-0.03,13.28-0.03
		c-0.05,0.93-0.51,1.68-0.73,2.48c-0.19,0.68-0.75,0.46-1.17,0.46c-3.21,0.02-6.43,0.04-9.64-0.01c-0.86-0.01-1.31,0.2-1.55,1.07
		c-0.38,1.35-0.84,2.69-1.37,3.99c-0.35,0.85-0.13,1.01,0.71,1C96.07,202.3,99.67,202.32,103.37,202.32z"/>
	<path class="st1" d="M75.36,198.39c-0.71,1.09-0.52,2.85-1.49,3.18c-1.38,0.46-3.03,0.12-4.73,0.12c0.89-2.53,1.74-4.97,2.62-7.4
		c0.21-0.57,0.74-0.87,1.3-0.9c1.15-0.06,2.31-0.02,3.47-0.04c0.55-0.01,0.7,0.42,0.93,0.76c1.35,2.01,2.7,4.02,4.2,6.26
		c0.75-2.14,1.45-4.03,2.06-5.95c0.26-0.81,0.63-1.11,1.53-1.1c3.26,0.04,3.63,0.53,2.55,3.6c-0.47,1.33-0.94,2.65-1.36,3.99
		c-0.2,0.63-0.53,0.84-1.19,0.83c-2.18-0.04-4.37-0.05-6.55,0c-0.74,0.02-1.17-0.22-1.55-0.84
		C76.61,200.04,75.98,199.24,75.36,198.39z"/>
	<path class="st1" d="M152.16,201.72c-2.53,0-5.06-0.03-7.58,0.02c-0.76,0.01-0.99-0.14-0.71-0.9c0.82-2.24,1.62-4.49,2.37-6.76
		c0.21-0.62,0.54-0.79,1.12-0.74c0.34,0.03,0.69-0.02,1.03,0.01c0.96,0.08,2.32-0.45,2.77,0.23c0.44,0.67-0.43,1.8-0.74,2.72
		c-0.86,2.54-0.89,2.53,1.76,2.53c1.2,0,2.4-0.03,3.6,0.02c0.72,0.03,1.05-0.23,1.26-0.94c0.39-1.31,0.93-2.57,1.36-3.86
		c0.15-0.47,0.34-0.73,0.88-0.71c1.2,0.03,2.4,0.03,3.6,0c0.6-0.02,0.64,0.25,0.49,0.7c-0.84,2.37-1.7,4.74-2.49,7.13
		c-0.22,0.66-0.65,0.56-1.1,0.56C157.21,201.72,154.69,201.72,152.16,201.72z"/>
	<path class="st1" d="M173.45,201.72c0.57-1.66,1.03-3.12,1.58-4.55c0.27-0.71,0.12-0.9-0.61-0.88c-1.75,0.03-3.51,0.03-5.27,0
		c-0.64-0.01-1.01,0.15-1.2,0.83c-0.33,1.14-0.88,2.23-1.16,3.39c-0.25,1.05-0.79,1.34-1.79,1.23c-0.85-0.09-1.71-0.07-2.57-0.01
		c-0.93,0.07-0.97-0.26-0.67-1.02c0.49-1.23,0.97-2.47,1.3-3.74c0.69-2.69,2.73-3.57,4.82-3.61c3.12-0.06,6.25-0.02,9.38-0.01
		c0.73,0,1.45,0.14,2.1,0.5c0.9,0.49,1.31,1.23,0.97,2.25c-0.57,1.7-1.19,3.37-1.74,5.08c-0.16,0.48-0.42,0.56-0.85,0.56
		C176.36,201.71,175,201.72,173.45,201.72z"/>
	<path class="st1" d="M192.97,196.3c-2.25,0-4.37,0.01-6.5-0.01c-0.57-0.01-0.69,0.36-0.83,0.78c-0.44,1.29-0.9,2.57-1.35,3.86
		c-0.14,0.4-0.21,0.81-0.81,0.79c-1.4-0.04-2.8-0.01-4.39-0.01c0.77-2.14,1.37-4.19,2.24-6.12c0.72-1.59,2.29-2.18,3.93-2.22
		c3.29-0.08,6.59-0.04,9.89-0.02c0.64,0,1.27,0.16,1.85,0.46c0.98,0.51,1.35,1.3,1,2.34c-0.55,1.66-1.15,3.3-1.71,4.95
		c-0.15,0.43-0.37,0.61-0.83,0.6c-1.4-0.02-2.8-0.01-4.33-0.01C191.74,199.89,192.33,198.17,192.97,196.3z"/>
	<path class="st1" d="M115.3,197.96c2.36,0,4.7,0.01,7.05,0c0.87,0,1.71,0.11,2.48,0.53c0.86,0.47,1.16,1.2,0.93,2.16
		c-0.18,0.74-0.5,1.18-1.39,1.09c-0.89-0.09-1.8,0.02-2.69-0.04c-0.44-0.03-1.3,0.45-1.05-0.76c0.1-0.45-0.52-0.28-0.82-0.29
		c-2.05-0.02-4.11,0-6.16-0.02c-0.59-0.01-1.21-0.05-1.78-0.2c-1.47-0.4-1.96-1.36-1.51-2.81c1.05-3.35,2.34-4.29,5.87-4.28
		c2.57,0,5.14-0.01,7.71,0c0.99,0,1.96,0.13,2.8,0.75c0.62,0.46,0.83,1.1,0.62,1.82c-0.22,0.72-0.87,0.37-1.32,0.37
		c-3,0.03-6,0.08-8.99-0.01C115.79,196.23,115.34,196.72,115.3,197.96z"/>
	<path class="st1" d="M126.02,201.72c0.71-2.04,1.32-3.9,2.01-5.73c0.72-1.89,2.3-2.6,4.17-2.63c3.72-0.06,7.45-0.04,11.18,0
		c1.82,0.02,2.15,0.69,1.73,2.44c-0.37,1.52-1.09,2.14-2.63,1.87c-0.58-0.1-1.2-0.01-1.8-0.02c-0.6-0.01-1.4,0.23-0.92-0.92
		c0.2-0.48-0.28-0.42-0.54-0.42c-1.93-0.01-3.85,0.01-5.78-0.02c-0.58-0.01-0.72,0.37-0.86,0.77c-0.45,1.25-0.91,2.49-1.29,3.75
		c-0.2,0.68-0.49,0.97-1.24,0.93C128.75,201.67,127.46,201.72,126.02,201.72z"/>
	<path class="st1" d="M58.1,201.78c0.5-1.5,0.89-2.92,1.47-4.27c0.45-1.06,0.1-1.17-0.86-1.15c-3.59,0.05-7.19-0.01-10.78,0.04
		c-0.9,0.01-0.97-0.24-0.7-1.01c0.66-1.88,0.62-1.89,2.6-1.89c3.94,0,7.87,0,11.81,0c0.68,0,1.36,0,2.01,0.28
		c1.26,0.54,1.66,1.33,1.23,2.64c-0.51,1.54-1.06,3.06-1.57,4.6c-0.16,0.48-0.33,0.81-0.96,0.78
		C60.99,201.75,59.63,201.78,58.1,201.78z"/>
	<path class="st1" d="M45.81,205.34c0.92-2.66,1.8-5.19,2.67-7.72c0.15-0.44,0.35-0.7,0.9-0.67c1.15,0.05,2.31,0.04,3.47,0.01
		c0.72-0.02,0.77,0.22,0.53,0.83c-0.48,1.23-0.86,2.5-1.33,3.73c-0.27,0.72-0.11,0.96,0.69,0.95c3.29-0.03,6.58-0.01,9.89-0.01
		c-0.47,1.74-2.04,2.85-4.19,2.87C54.3,205.37,50.15,205.34,45.81,205.34z"/>
	<path class="st1" d="M142.63,202.32c-0.36,2-1.16,2.86-3.03,2.89c-3.73,0.07-7.45,0.04-11.18-0.01c-1.09-0.01-2.16-0.32-2.67-1.45
		c-0.31-0.69-0.36-1.43,0.7-1.43c5.1-0.02,10.2-0.01,15.29-0.01C142.04,202.32,142.33,202.32,142.63,202.32z"/>
	<path class="st1" d="M169.67,202.32c2.49,0,4.97,0,7.46,0.01c0.28,0,0.65-0.16,0.83,0.12c0.23,0.36-0.11,0.65-0.3,0.91
		c-0.71,0.98-1.68,1.66-2.88,1.74c-3.85,0.27-7.7,0.22-11.55,0.03c-0.76-0.04-1.39-0.4-1.88-0.99c-0.36-0.43-0.41-0.96-0.25-1.46
		c0.18-0.56,0.72-0.35,1.11-0.36C164.69,202.31,167.18,202.32,169.67,202.32z"/>
	<path class="st1" d="M187.26,202.32c2.52,0,5.05,0,7.57,0.01c0.28,0,0.66-0.16,0.82,0.12c0.2,0.35-0.13,0.64-0.32,0.9
		c-0.71,0.97-1.67,1.66-2.87,1.75c-3.84,0.28-7.68,0.21-11.53,0.04c-0.71-0.03-1.3-0.36-1.81-0.86c-0.49-0.49-0.51-1.1-0.31-1.67
		c0.19-0.54,0.75-0.26,1.13-0.27C182.39,202.31,184.83,202.32,187.26,202.32C187.26,202.32,187.26,202.32,187.26,202.32z"/>
	<path class="st1" d="M116.95,202.32c2.44,0,4.87,0.03,7.3-0.01c0.92-0.01,0.93,0.31,0.5,0.94c-0.74,1.07-1.74,1.8-3.05,1.88
		c-3.58,0.22-7.17,0.17-10.75,0.03c-0.88-0.03-1.68-0.37-2.18-1.15c-0.59-0.93-0.21-1.65,0.87-1.65c2.43-0.01,4.87,0,7.3,0
		C116.95,202.34,116.95,202.33,116.95,202.32z"/>
	<path class="st1" d="M199.22,201.72c-2.49,0-2.49,0-1.69-2.32c0.6-1.73,1.24-3.45,1.79-5.19c0.22-0.7,0.55-0.93,1.27-0.88
		c0.94,0.07,1.88,0.07,2.82,0c0.91-0.06,1.21,0.11,0.83,1.09c-0.77,1.98-1.47,4-2.11,6.03c-0.3,0.95-0.69,1.5-1.77,1.28
		C200,201.66,199.6,201.72,199.22,201.72z"/>
	<path class="st1" d="M39.58,201.72c0.94-2.71,1.84-5.31,2.73-7.92c0.16-0.48,0.53-0.46,0.92-0.46c1.32,0.01,2.65,0,4.17,0
		c-0.62,1.8-1.21,3.5-1.81,5.19c-0.25,0.72-0.57,1.43-0.74,2.17c-0.19,0.81-0.6,1.08-1.42,1.03
		C42.21,201.67,40.97,201.72,39.58,201.72z"/>
	<path class="st1" d="M68.97,193.34c2.5,0,2.5,0,1.67,2.38c-0.59,1.69-1.19,3.37-1.75,5.07c-0.21,0.64-0.48,1-1.25,0.94
		c-1.06-0.08-2.14-0.04-3.21-0.02c-0.54,0.01-0.82-0.08-0.59-0.7c0.84-2.37,1.68-4.74,2.49-7.11c0.15-0.45,0.41-0.59,0.85-0.57
		C67.77,193.36,68.37,193.34,68.97,193.34z"/>
	<path class="st1" d="M209.73,202.32c-0.02,0.89-0.49,1.59-0.66,2.37c-0.12,0.52-0.51,0.57-0.98,0.56
		c-3.37-0.02-6.75,0.01-10.12-0.02c-1.5-0.02-2.15-0.95-1.7-2.24c0.16-0.47,0.37-0.68,0.9-0.68
		C201.34,202.33,205.52,202.32,209.73,202.32z"/>
	<path class="st1" d="M104.88,197.9c0.03,0.16,0.05,0.21,0.04,0.25c-1.18,3.86-1.46,4.02-6.07,3.45c0.6-1.19,0.06-1.49-1.05-1.32
		c-0.13,0.02-0.26,0-0.39,0c-2,0-2.03-0.07-1.19-1.9c0.22-0.48,0.51-0.49,0.9-0.49C99.69,197.9,102.26,197.9,104.88,197.9z"/>
	<path class="st1" d="M78.35,202.35c2.52,0,4.95,0,7.43,0c-0.04,0.89-0.49,1.62-0.71,2.42c-0.1,0.38-0.36,0.52-0.77,0.48
		c-0.51-0.04-1.04-0.09-1.53,0.01C80.37,205.76,79.22,204.37,78.35,202.35z"/>
	<path class="st1" d="M68.32,202.32c-0.3,0.88-0.6,1.62-0.82,2.39c-0.14,0.49-0.44,0.55-0.86,0.54c-1.16-0.01-2.31-0.02-3.47,0.01
		c-0.6,0.02-0.8-0.18-0.56-0.75c0.02-0.04,0.04-0.08,0.05-0.12c0.61-2.08,0.61-2.08,2.83-2.07
		C66.38,202.32,67.27,202.32,68.32,202.32z"/>
	<path class="st1" d="M145.79,202.32c0.09,0,0.17,0,0.26,0c2.38,0,2.37,0,1.49,2.23c-0.17,0.44-0.33,0.72-0.88,0.71
		c-1.19-0.04-2.39-0.03-3.59,0c-0.55,0.01-0.69-0.2-0.49-0.69c0.02-0.04,0.03-0.08,0.05-0.12
		C143.23,202.32,143.23,202.32,145.79,202.32z"/>
	<path class="st1" d="M44.12,202.32c0.04,0.15,0.06,0.2,0.05,0.23c-0.71,2.69-0.71,2.69-3.5,2.7c-0.72,0-1.44,0-2.14,0
		c-0.04-0.14-0.1-0.23-0.08-0.3c0.82-2.63,0.82-2.63,3.57-2.63C42.7,202.32,43.38,202.32,44.12,202.32z"/>
	<path class="st1" d="M73.78,202.32c-0.79,2.93-0.79,2.93-3.61,2.93c-0.71,0-1.42,0-2.26,0c0.3-0.9,0.58-1.64,0.81-2.41
		c0.14-0.48,0.47-0.56,0.88-0.52c0.13,0.01,0.26,0,0.38,0C71.23,202.32,72.46,202.32,73.78,202.32z"/>
	<path class="st1" d="M157.05,205.25c-0.13,0-0.26,0.01-0.38,0c-0.67-0.07-1.72,0.32-1.93-0.16c-0.33-0.73,0.4-1.57,0.61-2.38
		c0.13-0.49,0.5-0.38,0.82-0.39c1.16-0.01,2.31,0.02,3.47-0.01c0.61-0.02,0.78,0.19,0.56,0.74c-0.02,0.04-0.05,0.07-0.06,0.11
		C159.53,205.25,159.53,205.25,157.05,205.25z"/>
</g>
</svg>
