<?xml version="1.0" encoding="UTF-8" standalone="no"?>
<!-- Generator: Adobe Illustrator 28.3.0, SVG Export Plug-In . SVG Version: 6.00 Build 0)  -->

<svg
   version="1.1"
   id="Calque_1"
   x="0px"
   y="0px"
   viewBox="0 0 289.11197 357.31271"
   xml:space="preserve"
   sodipodi:docname="ForaXperts.svg"
   width="289.11197"
   height="357.31271"
   inkscape:version="1.3.2 (091e20e, 2023-11-25, custom)"
   xmlns:inkscape="http://www.inkscape.org/namespaces/inkscape"
   xmlns:sodipodi="http://sodipodi.sourceforge.net/DTD/sodipodi-0.dtd"
   xmlns="http://www.w3.org/2000/svg"
   xmlns:svg="http://www.w3.org/2000/svg"><defs
   id="defs2" /><sodipodi:namedview
   id="namedview2"
   pagecolor="#ffffff"
   bordercolor="#000000"
   borderopacity="0.25"
   inkscape:showpageshadow="2"
   inkscape:pageopacity="0.0"
   inkscape:pagecheckerboard="0"
   inkscape:deskcolor="#d1d1d1"
   inkscape:zoom="1.3489583"
   inkscape:cx="28.911197"
   inkscape:cy="187.55212"
   inkscape:window-width="1920"
   inkscape:window-height="991"
   inkscape:window-x="-9"
   inkscape:window-y="-9"
   inkscape:window-maximized="1"
   inkscape:current-layer="Calque_1" />
<style
   type="text/css"
   id="style1">
	.st0{fill:#E42529;}
	.st1{fill:#FAFAFA;}
</style>
<g
   id="g2"
   transform="translate(0,34.100386)">
	<path
   class="st0"
   d="m 18.55,144.82 c 0,-30.13 -0.02,-60.27 0.01,-90.4 0.02,-21.09 15.35,-36.44 36.43,-36.45 59.69,-0.02 119.38,-0.02 179.07,0 20.76,0.01 36.24,15.39 36.25,36.05 0.04,60.08 0.05,120.15 0.03,180.23 -0.01,19.85 -15.71,35.52 -35.62,35.54 -32.94,0.05 -65.88,0.01 -98.82,0.01 -27.17,0 -54.34,-0.41 -81.5,0.14 -17.99,0.37 -36.47,-16.44 -36.05,-35.88 0.64,-29.74 0.17,-59.5 0.17,-89.25 0.01,0.01 0.02,0.01 0.03,0.01 z M 144.43,29.44 c -29.75,0 -59.5,-0.05 -89.26,0.02 -14.67,0.04 -25.1,10.19 -25.11,24.66 -0.07,59.32 -0.1,118.64 0.13,177.96 0.03,7.38 1.44,14.79 7.89,20.07 5.46,4.48 11.64,6.16 18.55,6.15 58.55,-0.04 117.1,-0.02 175.65,-0.05 16.73,-0.01 26.56,-9.9 26.56,-26.74 0.02,-58.37 0.02,-116.74 0.01,-175.1 0,-17.22 -9.71,-26.95 -26.87,-26.96 -29.19,-0.03 -58.37,-0.02 -87.55,-0.01 z"
   id="path1" />
	<path
   class="st1"
   d="m 118.87,103.77 c 2.09,9.56 1.85,18.75 0.03,28.44 15.16,0 30.71,0 46.26,0 8.01,0 16.03,0.25 24.02,-0.1 4.03,-0.18 4.66,1.38 4.54,4.86 -0.24,6.67 -0.31,13.36 0.03,20.02 0.2,3.86 -1.1,4.75 -4.77,4.72 -21.74,-0.16 -43.48,-0.08 -65.22,-0.08 -1.69,0 -3.37,0 -6.08,0 2.87,2.89 2.5,5.72 2.5,8.48 0,12.97 -0.11,25.94 0.07,38.91 0.05,3.43 -0.8,4.69 -4.44,4.58 -8.57,-0.26 -17.16,-0.22 -25.74,-0.01 -3.15,0.08 -3.75,-1.08 -3.75,-3.95 0.09,-43.68 0.11,-87.35 0,-131.03 -0.01,-3.57 1.09,-4.47 4.55,-4.46 35.66,0.11 71.32,0.14 106.99,-0.02 3.94,-0.02 4.83,1.31 4.69,4.91 -0.25,6.48 -0.34,12.98 0.03,19.45 0.24,4.25 -0.96,5.44 -5.32,5.4 -24.41,-0.23 -48.82,-0.11 -73.23,-0.11 -1.86,-0.01 -3.71,-0.01 -5.16,-0.01 z"
   id="path2" />
</g>
</svg>
