<?xml version="1.0" encoding="utf-8"?>
<!-- Generator: Adobe Illustrator 28.3.0, SVG Export Plug-In . SVG Version: 6.00 Build 0)  -->
<svg version="1.1" id="Calque_1" xmlns="http://www.w3.org/2000/svg" xmlns:xlink="http://www.w3.org/1999/xlink" x="0px" y="0px"
	 viewBox="0 0 288 288" style="enable-background:new 0 0 288 288;" xml:space="preserve">
<style type="text/css">
	.st0{fill:#4E4E4E;}
	.st1{fill:#484848;}
	.st2{fill:#646464;}
	.st3{fill:#767676;}
	.st4{fill:#9F9F9F;}
	.st5{fill:#CACACA;}
	.st6{fill:#989898;}
	.st7{fill:#929292;}
	.st8{fill:#888888;}
	.st9{fill:#515151;}
	.st10{fill:#575757;}
	.st11{fill:#AAAAAA;}
	.st12{fill:#818181;}
	.st13{fill:#4C4C4C;}
	.st14{fill:#727272;}
	.st15{fill:#8D8D8D;}
	.st16{fill:#5E5E5E;}
	.st17{fill:#616161;}
	.st18{fill:#696969;}
	.st19{fill:#595959;}
	.st20{fill:#6C6C6C;}
	.st21{fill:#9B9B9B;}
	.st22{fill:#CDCDCD;}
	.st23{fill:#B8B8B8;}
	.st24{fill:#ADADAD;}
	.st25{fill:#A5A5A5;}
	.st26{fill:#BEBEBE;}
	.st27{fill:#D9D9D9;}
</style>
<g>
	<path class="st0" d="M202.03,165.4c1.66-6.14,3.15-11.76,4.71-17.37c2.05-7.36,4.23-14.68,6.19-22.06c0.56-2.12,1.5-2.86,3.7-2.77
		c4.59,0.18,9.2,0.05,14.3,0.05c-1.78,5.17-3.46,10.02-5.13,14.88c0.25,0.15,0.5,0.31,0.75,0.46c3.54-2.85,7.44-5.35,10.53-8.61
		c5.19-5.47,11.11-7.87,18.6-6.79c2.61,0.38,5.33,0.06,8.94,0.06c-2.86,2.95-5.12,5.33-7.44,7.66c-3.72,3.75-7.42,7.52-11.24,11.16
		c-1.36,1.29-1.47,2.42-0.88,4.14c1.82,5.31,3.44,10.69,5.12,16.05c0.26,0.83,0.39,1.69,0.68,3.02c-5.67,0-11.02,0.08-16.37-0.09
		c-0.76-0.03-1.78-1.18-2.15-2.04c-2.16-4.94-4.15-9.95-6.21-14.93c-0.46-1.1-0.95-2.19-1.84-4.26c-1.69,6.47-3.32,11.9-4.47,17.44
		c-0.63,3.05-1.67,4.4-5.04,4.08C210.78,165.12,206.72,165.4,202.03,165.4z"/>
	<path class="st1" d="M202.77,105.95c1.11-0.08,2.22-0.22,3.33-0.22c19.98-0.01,39.97-0.01,59.95-0.01c1.22,0,2.45,0,4.25,0
		c-1.42,4.24-2.72,8.11-4.03,11.97c-20.96-0.04-41.91-0.07-62.87-0.11C203.19,113.7,202.98,109.82,202.77,105.95z"/>
	<path class="st2" d="M171.71,165.21c-0.22,0.06-0.43,0.17-0.65,0.18c-7.06,0.38-7.03,0.37-9.6-6.13c-0.83-2.08-1.9-4.06-3.31-7.01
		c-1.26,5-2.25,8.92-3.26,12.89c-3.05,0-5.93,0-8.81,0c0.06-1.09-0.13-2.27,0.22-3.26c0.81-2.29-0.18-3.29-2.24-3.78
		c0.52-2.51,1.03-5.02,1.55-7.54c0.55-0.24,1.1-0.47,1.65-0.71c-0.41-0.4-0.82-0.8-1.22-1.2c0.01-1.25,0.03-2.5,0.04-3.75
		c0.42-5.38,0.87-10.76,1.26-16.14c0.1-1.45,0.02-2.92,0.03-4.38c0.91,0.43,1.83,0.86,2.74,1.29c0.14,0.12,0.28,0.25,0.42,0.37
		c0.07-0.35,0.14-0.71,0.21-1.06c0.61-0.56,1.19-1.57,1.83-1.6c2.32-0.14,4.65,0.05,6.98,0.12c-0.15,0.74-0.06,1.88-0.5,2.15
		c-2.86,1.73-2.41,4.65-2.87,7.26c-1.33,0.11-2.66,0.21-4.23,0.34c-0.1,0.98-0.19,1.93-0.32,3.23c3.05,0.19,5.9,0.36,9.13,0.56
		c-0.94,4.61-1.84,9.06-2.75,13.5c0.38,0.09,0.76,0.19,1.14,0.28c0.89-3.05,1.86-6.08,2.64-9.16c1.29-5.13,1.24-5.15,6.56-4.57
		c0.12,1.44,0.3,2.88,0.36,4.32c0.23,5.56,0.73,11.13,0.5,16.67C169.09,161.02,168.51,163.64,171.71,165.21z"/>
	<path class="st1" d="M196.69,170.07c7.27-0.08,14.53-0.21,21.8-0.24c10.16-0.04,20.33-0.01,31.16-0.01
		c-1.27,3.76-2.4,7.08-3.53,10.41c-0.19,0.56-0.38,1.12-0.58,1.69c0,0-0.07,0.11-0.07,0.11c-15.14-0.1-30.29-0.2-45.43-0.3
		c-0.9-1.37-2.23-2.63-2.6-4.13C196.86,175.17,196.91,172.59,196.69,170.07z"/>
	<path class="st3" d="M121.68,148.42c-0.88,3.9-1.76,7.81-2.64,11.71c-0.63-0.42-1.79-0.82-1.81-1.28
		c-0.19-3.75-0.13-7.51-0.23-11.27c-0.03-1.09,0.07-2.69-0.57-3.18c-3.17-2.47-1.56-4.75-0.08-7.13c6.3,0,12.6,0,18.9,0
		c-0.22,1.18-0.24,2.45-0.7,3.53c-1.05,2.49-0.78,4.48,1.61,5.97c-0.01,0.83-0.02,1.66-0.03,2.48c-1.6,0.63-2.72,1.33-1.66,3.42
		c0.47,0.94,0.08,2.27,0.22,3.41c0.37,3.03,0.82,6.05,1.24,9.08c-3.04,0.91-4.92-0.07-6.23-3.09c-1.98-4.58-4.37-8.99-6.58-13.48
		c-0.26-0.36-0.52-0.72-0.78-1.07C122.12,147.82,121.9,148.12,121.68,148.42z"/>
	<path class="st4" d="M71.8,137.12c5.25,0,10.5,0,16.28,0c-1.64,5.79-3.21,11.33-4.78,16.86c-0.4,1.22-1.12,2.43-1.14,3.66
		c-0.05,2.52,0.28,5.05,0.45,7.57c-2.25,0-4.49,0.01-6.74,0.01c-3.22-2.1-4.28-5.17-4-8.85C72.38,149.95,74.54,143.53,71.8,137.12z"
		/>
	<path class="st5" d="M54.97,181.78c-1.65,0.14-3.3,0.39-4.95,0.39c-9.19,0.03-18.39,0-27.58-0.02c-1.19,0-2.39,0-4.12,0
		c1.22-4.06,2.2-7.58,3.4-11.02c0.21-0.62,1.3-1.34,1.98-1.34c6.6-0.03,13.21,0.08,19.81,0.16c-0.24,1.4-0.63,2.79-0.68,4.2
		c-0.23,6.9-0.19,6.9,6.72,6.89C51.35,181.3,53.16,181.54,54.97,181.78z"/>
	<path class="st6" d="M99.46,117.75c-7.87-0.05-15.73-0.09-23.6-0.14c-0.88-3.88-1.76-7.76-2.64-11.64c2.22,0,4.45-0.01,6.67-0.01
		c0.37,3.48,0.73,6.96,1.1,10.44c0.37-0.03,0.73-0.07,1.1-0.1c0-1.93,0.1-3.86-0.03-5.78c-0.11-1.53-0.5-3.04-0.77-4.56
		c6.3,0,12.6-0.01,18.9-0.01C99.94,109.88,99.7,113.81,99.46,117.75z"/>
	<path class="st5" d="M45.04,147.45c-1.22,4.5-2.66,8.95-3.6,13.5c-0.74,3.59-2.41,5.24-6.11,4.52c-0.87-0.17-1.76-0.17-2.64-0.25
		c0.44-3.59,0.94-7.18,1.31-10.78c0.21-2.11,0.57-4.29,0.22-6.33c-0.44-2.59-1.53-5.07-2.34-7.6c0.03-2.93,1.43-4.2,4.4-3.86
		c2.17,0.25,4.36,0.29,6.54,0.43c-0.18,0.63-0.39,1.25-0.52,1.89C41.67,142.02,43.14,146.51,45.04,147.45z"/>
	<path class="st7" d="M108.95,181.89c-6.98-0.04-13.96-0.08-20.95-0.12c0.24-3.91,0.47-7.81,0.71-11.72
		c6.75-0.01,13.49-0.03,20.24-0.04C108.96,173.97,108.96,177.93,108.95,181.89z"/>
	<path class="st8" d="M109.55,145.93c-1.73,5.7-3.66,11.36-5.13,17.13c-0.97,3.8-3.51,2.03-5.59,2.14c0-6.42-0.01-12.83-0.01-19.25
		c0-2.94-0.01-5.89-0.01-8.83c4.32,0.02,8.65,0.03,12.97,0.05C111.03,140.08,110.29,143,109.55,145.93z"/>
	<path class="st9" d="M181.14,155.35c7.01,0,14.03,0,21.01,0c0.11,0.35,0.25,0.57,0.22,0.76c-1.7,9.31-1.71,9.33-11.15,9.28
		c-3.58-0.02-7.15-0.14-10.73-0.22c-0.01-0.22,0.06-0.52-0.06-0.65c-2.69-3.06-3.33-5.94,0.61-8.52
		C181.16,155.92,181.11,155.57,181.14,155.35z"/>
	<path class="st10" d="M181.14,155.35c-0.03,0.22,0.02,0.56-0.1,0.64c-3.94,2.58-3.3,5.47-0.61,8.52c0.12,0.13,0.04,0.43,0.06,0.65
		c-2.93,0.01-5.85,0.02-8.78,0.04c-3.2-1.57-2.62-4.19-2.49-7.12c0.23-5.54-0.27-11.11-0.5-16.67c-0.06-1.44-0.24-2.88-0.36-4.32
		c3.77,0,7.54,0,11.73,0c-0.73,0.85-1.18,1.41-1.67,1.94c-1.74,1.88-4.87,3.71-4.93,5.62c-0.08,3.02,1.61,6.27,3.17,9.06
		C177.25,154.78,179.6,154.84,181.14,155.35z"/>
	<path class="st0" d="M196.69,170.07c0.22,2.52,0.17,5.1,0.75,7.52c0.36,1.5,1.7,2.76,2.6,4.13c-1.12,0.18-2.24,0.37-3.36,0.55
		c-5.85-0.07-11.7-0.13-17.54-0.2c0.67-2.03,1.49-4.02,1.96-6.1c0.44-1.93,0.51-3.94,0.75-5.91
		C186.8,170.07,191.75,170.07,196.69,170.07z"/>
	<path class="st11" d="M71.8,137.12c2.73,6.41,0.57,12.83,0.08,19.25c-0.28,3.68,0.78,6.75,4,8.85c-3.79,0-7.58,0-11.92,0
		c1.68-5.79,3.31-11.41,5.06-17.42c-1.65-0.15-3.14-0.29-4.63-0.42c-1.09-3.36-1.68-6.76-0.67-10.25
		C66.41,137.12,69.11,137.12,71.8,137.12z"/>
	<path class="st12" d="M116.36,137.27c-1.49,2.38-3.09,4.66,0.08,7.13c0.64,0.5,0.54,2.09,0.57,3.18c0.1,3.76,0.04,7.52,0.23,11.27
		c0.02,0.45,1.18,0.85,1.81,1.28c-0.47,5.3-0.47,5.3-5.68,5.29c-2.12,0-4.24,0-6.9,0c1.52-6.5,2.97-12.65,4.41-18.8
		c0.67-2.7,1.35-5.4,2.02-8.1C114.05,138.1,115.21,137.68,116.36,137.27z"/>
	<path class="st13" d="M210.88,125.07c-0.44,2.17-0.73,4.39-1.39,6.49c-0.21,0.66-1.38,1.45-2.12,1.46
		c-5.59,0.06-11.18-0.06-16.77-0.12c0.55-3.13,2.17-6.25,0.01-9.38c6.69-0.07,13.37-0.15,20.06-0.22
		C210.74,123.89,210.81,124.48,210.88,125.07z"/>
	<path class="st14" d="M141.34,181.94c-5.39-0.02-10.79-0.05-16.18-0.07c0.66-3.93,1.32-7.86,1.99-11.78
		c4.96,0,9.92-0.01,14.87-0.01C141.38,174,140.45,177.92,141.34,181.94z"/>
	<path class="st9" d="M177.13,105.95c4.71,0,9.43,0,14.14,0c-0.67,4.01-1.35,8.01-2.02,12.02c-4.49,0-8.99,0.01-13.48,0.01
		C176.22,113.97,176.67,109.96,177.13,105.95z"/>
	<path class="st15" d="M98.81,137.12c0,2.94,0.01,5.89,0.01,8.83c0,6.42,0.01,12.83,0.01,19.25c-2.92,0-5.84,0-8.76,0
		c0.45-3.64,0.89-7.27,1.34-10.91c1.48-5.04,3.02-10.07,4.39-15.14C96.27,137.42,96.94,136.52,98.81,137.12z"/>
	<path class="st10" d="M181.85,170.07c-0.23,1.97-0.31,3.98-0.75,5.91c-0.47,2.07-1.29,4.07-1.96,6.1c-4.05,0-8.1,0.01-12.15,0.01
		c0-4.01,0.01-8.02,0.01-12.02C171.95,170.07,176.9,170.07,181.85,170.07z"/>
	<path class="st16" d="M167,170.07c0,4.01-0.01,8.02-0.01,12.02c-4.5-0.05-8.99-0.09-13.49-0.14c-0.22-3.96-0.45-7.92-0.67-11.88
		C157.55,170.07,162.28,170.07,167,170.07z"/>
	<path class="st17" d="M151.48,105.94c4.49,0,8.98,0.01,13.47,0.01c-0.9,3.96-1.8,7.92-2.7,11.87c-4.26,0-8.53,0-12.79,0
		c-0.79-3.03-0.31-5.92,0.88-8.76C150.77,108.05,151.1,106.98,151.48,105.94z"/>
	<path class="st18" d="M151.48,105.94c-0.38,1.04-0.71,2.11-1.14,3.13c-1.19,2.83-1.68,5.73-0.88,8.76c-4.27,0-8.55,0-12.82,0
		c0.23-3.96,0.45-7.91,0.68-11.87C142.03,105.95,146.76,105.94,151.48,105.94z"/>
	<path class="st19" d="M162.25,117.83c0.9-3.96,1.8-7.92,2.7-11.87c4.06,0,8.12,0,12.18,0c-0.45,4.01-0.91,8.02-1.36,12.03
		C171.26,117.93,166.75,117.88,162.25,117.83z"/>
	<path class="st13" d="M189.25,117.96c0.67-4.01,1.35-8.01,2.02-12.02c3.83,0,7.67,0,11.5,0c0.21,3.88,0.43,7.75,0.64,11.63
		c-0.06,0.2-0.06,0.39,0.01,0.59C198.69,118.1,193.97,118.03,189.25,117.96z"/>
	<path class="st2" d="M152.83,170.07c0.22,3.96,0.45,7.92,0.67,11.88c-4.05,0-8.11-0.01-12.16-0.01c-0.89-4.02,0.04-7.93,0.68-11.87
		C145.62,170.07,149.22,170.07,152.83,170.07z"/>
	<path class="st15" d="M115.14,123.27c-0.83,3.13-1.45,5.83-2.31,8.44c-0.2,0.61-1.22,1.32-1.88,1.34
		c-4.22,0.12-8.45,0.06-13.18,0.06c0.81-3.14,1.47-5.91,2.28-8.64c0.15-0.49,0.88-1.14,1.36-1.15
		C105.83,123.23,110.25,123.27,115.14,123.27z"/>
	<path class="st20" d="M136.17,146.76c-2.39-1.49-2.66-3.48-1.61-5.97c0.46-1.08,0.48-2.35,0.7-3.53c0.55-0.04,1.19,0.09,1.63-0.15
		c0.95-0.51,1.81-1.21,2.7-1.83c-0.91-0.73-1.71-1.74-2.75-2.12c-1.09-0.4-2.4-0.2-3.61-0.27c0.01-3.12,0.01-6.25,0.02-9.37
		c2.24,0,4.47,0,6.71-0.01c0.68,2.21,2.19,4.54,1.87,6.59c-0.84,5.36,1.84,11.32-2.51,16.11c-0.06,0.06-0.01,0.22-0.02,0.33
		C138.26,146.62,137.21,146.69,136.17,146.76z"/>
	<path class="st21" d="M75.91,123.5c5.1,0,10.21,0,15.88,0c-0.84,2.9-1.43,5.5-2.38,7.95c-0.29,0.75-1.57,1.55-2.42,1.58
		c-3.69,0.12-7.4-0.05-11.09-0.11C75.89,129.78,75.9,126.64,75.91,123.5z"/>
	<path class="st14" d="M137.31,105.96c-0.23,3.96-0.45,7.91-0.68,11.87c-3.61-0.04-7.22-0.08-10.84-0.12
		c-0.21-3.91-0.43-7.82-0.64-11.74C129.21,105.96,133.26,105.96,137.31,105.96z"/>
	<path class="st9" d="M190.62,123.52c2.16,3.13,0.53,6.25-0.01,9.38c-4.27,0-8.55,0.01-12.82,0.01c0.23-3.13,0.46-6.27,0.69-9.4
		C182.52,123.51,186.57,123.52,190.62,123.52z"/>
	<path class="st18" d="M139.3,146.56c0-0.11-0.04-0.27,0.02-0.33c4.35-4.79,1.67-10.74,2.51-16.11c0.32-2.05-1.19-4.39-1.87-6.59
		c2.46,0.29,4.93,0.57,7.39,0.86c0,1.46,0.08,2.93-0.03,4.38c-0.39,5.38-0.83,10.76-1.26,16.14
		C143.82,145.45,141.56,146,139.3,146.56z"/>
	<path class="st19" d="M178.47,123.51c-0.23,3.13-0.46,6.27-0.69,9.4c-4.33,0-8.65,0.01-12.98,0.01c0.51-3.14,1.02-6.28,1.53-9.42
		C170.38,123.51,174.43,123.51,178.47,123.51z"/>
	<path class="st22" d="M31.88,140.52c0.81,2.53,1.9,5.01,2.34,7.6c0.35,2.04-0.01,4.23-0.22,6.33c-0.37,3.6-0.87,7.19-1.31,10.78
		c-1.34,0.01-2.68,0.02-4.02,0.03c-0.02-1.89,0.19-3.81-0.13-5.65c-0.19-1.03-1.25-1.91-1.92-2.86
		C28.37,151.34,30.13,145.93,31.88,140.52z"/>
	<path class="st3" d="M125.16,105.97c0.21,3.91,0.43,7.82,0.64,11.74c-3.38,0-6.75,0.01-10.13,0.01c0.02-3.92,0.04-7.85,0.05-11.77
		C118.87,105.95,122.01,105.96,125.16,105.97z"/>
	<path class="st12" d="M108.95,181.89c0-3.96,0-7.92,0-11.88c3.13,0.02,6.27,0.05,9.4,0.07c1.15,4.1-0.08,7.93-1.32,11.77
		C114.34,181.86,111.65,181.87,108.95,181.89z"/>
	<path class="st5" d="M46.88,132.96c-4.13,0-8.27,0-12.96,0c1.07-3.15,1.95-6,3.04-8.76c0.21-0.52,1.23-1.01,1.88-1.01
		c2.91-0.02,5.82,0.14,8.73,0.23C47.34,126.6,47.11,129.78,46.88,132.96z"/>
	<path class="st23" d="M48.27,105.87c3.13,0.03,6.26,0.05,9.39,0.07c-1.08,3.82-1.87,7.66-0.69,11.62
		c-0.67,0.02-1.35,0.05-2.02,0.07c-1.37-0.23-2.74-0.64-4.12-0.66c-4.68-0.1-6.1-2.52-4.01-6.82
		C47.48,108.81,47.79,107.3,48.27,105.87z"/>
	<path class="st18" d="M135.94,165.16c-0.42-3.03-0.87-6.05-1.24-9.08c-0.14-1.14,0.25-2.48-0.22-3.41c-1.06-2.1,0.05-2.8,1.66-3.42
		c2.17,3.92,4.35,7.83,6.68,12.04c0.53-1.36,0.88-2.27,1.24-3.18c2.05,0.48,3.05,1.49,2.24,3.78c-0.35,0.99-0.16,2.17-0.22,3.26
		C142.69,165.15,139.32,165.16,135.94,165.16z"/>
	<path class="st24" d="M67.1,132.93c-3.6,0-7.19-0.01-10.79-0.01c0.23-3.14,0.47-6.29,0.7-9.43c3.81,0,7.62,0,11.43-0.01
		C68,126.63,67.55,129.78,67.1,132.93z"/>
	<path class="st24" d="M56.97,117.57c-1.18-3.96-0.39-7.8,0.69-11.62c2.92,0,5.84-0.01,8.76-0.01c0,1.44,0.07,2.89-0.03,4.33
		c-0.16,2.46-0.43,4.91-0.66,7.37C62.82,117.61,59.89,117.59,56.97,117.57z"/>
	<path class="st24" d="M59.04,170.02c2.91,0,5.82,0,8.73-0.01c-0.44,1.98-1.21,3.95-1.21,5.93c0,1.94,0.77,3.89,1.2,5.83
		c-3.15,0-6.3-0.01-9.45-0.01C58.55,177.84,58.8,173.93,59.04,170.02z"/>
	<path class="st25" d="M65.74,117.63c0.22-2.46,0.49-4.91,0.66-7.37c0.1-1.44,0.02-2.88,0.03-4.33c2.27,0.01,4.53,0.02,6.8,0.03
		c0.88,3.88,1.76,7.76,2.64,11.64C72.49,117.61,69.11,117.62,65.74,117.63z"/>
	<path class="st23" d="M59.04,170.02c-0.24,3.91-0.48,7.83-0.73,11.74c-1.12,0.01-2.23,0.02-3.35,0.03
		c-1.81-0.24-3.62-0.49-5.42-0.73c0.01-3.68,0.02-7.37,0.03-11.05C52.73,170,55.88,170.01,59.04,170.02z"/>
	<path class="st3" d="M117.04,181.84c1.24-3.83,2.47-7.67,1.32-11.77c2.93,0,5.85,0,8.78,0c-0.66,3.93-1.32,7.86-1.99,11.78
		C122.45,181.86,119.75,181.85,117.04,181.84z"/>
	<path class="st14" d="M133.26,123.53c-0.01,3.12-0.01,6.25-0.02,9.37c-3.37,0.01-6.73,0.03-10.1,0.04
		c0.46-3.16,0.92-6.32,1.38-9.49C127.43,123.48,130.35,123.51,133.26,123.53z"/>
	<path class="st23" d="M57.02,123.49c-0.23,3.14-0.47,6.29-0.7,9.43c-3.15,0.01-6.29,0.03-9.44,0.04c0.23-3.18,0.46-6.36,0.69-9.54
		C50.72,123.45,53.87,123.47,57.02,123.49z"/>
	<path class="st12" d="M115.72,105.95c-0.02,3.92-0.04,7.85-0.05,11.77c-2.7,0-5.4,0-8.09,0c0.24-3.93,0.48-7.86,0.71-11.79
		C110.77,105.94,113.24,105.94,115.72,105.95z"/>
	<path class="st6" d="M91.41,154.28c-0.45,3.64-0.89,7.27-1.34,10.91c-2.48,0.01-4.97,0.01-7.45,0.02c-0.17-2.52-0.5-5.05-0.45-7.57
		c0.02-1.23,0.74-2.44,1.14-3.66C86.01,154.08,88.71,154.18,91.41,154.28z"/>
	<path class="st25" d="M67.76,181.77c-0.43-1.94-1.21-3.89-1.2-5.83c0-1.98,0.78-3.96,1.21-5.93c2.25,0.01,4.5,0.02,6.74,0.02
		c0,3.91,0,7.82,0,11.74C72.26,181.77,70.01,181.77,67.76,181.77z"/>
	<path class="st8" d="M108.29,105.93c-0.24,3.93-0.48,7.86-0.71,11.79c-2.71,0.01-5.41,0.02-8.12,0.03
		c0.24-3.94,0.48-7.87,0.72-11.81C102.88,105.94,105.59,105.93,108.29,105.93z"/>
	<path class="st5" d="M48.27,105.87c-0.47,1.43-0.79,2.94-1.45,4.29c-2.09,4.3-0.67,6.72,4.01,6.82c1.38,0.03,2.75,0.43,4.12,0.66
		c-5.07,0-10.13,0-15.98,0c1.35-4.04,2.2-7.74,3.92-10.97C43.4,105.72,46.41,106.1,48.27,105.87z"/>
	<path class="st25" d="M67.1,132.93c0.45-3.15,0.9-6.3,1.35-9.45c2.49,0.01,4.98,0.01,7.46,0.01c-0.01,3.14-0.02,6.28-0.03,9.42
		C72.96,132.92,70.03,132.93,67.1,132.93z"/>
	<path class="st26" d="M45.04,147.45c-1.91-0.94-3.37-5.43-2.75-8.47c0.13-0.64,0.35-1.26,0.52-1.89c2.69,0.01,5.38,0.02,8.07,0.02
		c0,3.42,0,6.85,0,10.27C48.94,147.41,46.99,147.43,45.04,147.45z"/>
	<path class="st4" d="M74.51,181.77c0-3.91,0-7.82,0-11.74c2.25,0,4.5,0,6.75-0.01c1.4,4,0.47,7.86-0.68,11.71
		C78.56,181.75,76.54,181.76,74.51,181.77z"/>
	<path class="st26" d="M49.58,170c-0.01,3.68-0.02,7.37-0.03,11.05c-6.92,0.01-6.95,0.01-6.72-6.89c0.05-1.41,0.44-2.8,0.68-4.2
		C45.52,169.97,47.55,169.98,49.58,170z"/>
	<path class="st6" d="M80.59,181.74c1.15-3.85,2.08-7.71,0.68-11.71c2.48,0.01,4.97,0.01,7.45,0.02c-0.24,3.91-0.47,7.81-0.71,11.72
		C85.53,181.76,83.06,181.75,80.59,181.74z"/>
	<path class="st15" d="M124.52,123.46c-0.46,3.16-0.92,6.32-1.38,9.49c-2.56,0-5.12,0-8.22,0c0.82-3.02,1.5-5.9,2.44-8.68
		c0.18-0.54,1.39-0.99,2.15-1.02C121.17,123.16,122.85,123.37,124.52,123.46z"/>
	<path class="st23" d="M50.88,147.38c0-3.42,0-6.84,0-10.27c2.47,0,4.95,0,7.42,0.01c0,3.42,0,6.84,0,10.26
		C55.83,147.38,53.36,147.38,50.88,147.38z"/>
	<path class="st16" d="M156.18,132.92c0.46-2.61,0.01-5.53,2.87-7.26c0.44-0.27,0.35-1.41,0.5-2.15c1.57,0,3.14-0.01,4.7-0.01
		c-0.44,3.14-0.89,6.28-1.33,9.42C160.67,132.92,158.42,132.92,156.18,132.92z"/>
	<path class="st24" d="M58.3,147.38c0-3.42,0-6.84,0-10.26c1.8,0,3.6,0,5.4,0c-1.01,3.5-0.42,6.89,0.67,10.25
		C62.36,147.38,60.33,147.38,58.3,147.38z"/>
	<path class="st27" d="M26.61,156.76c0.67,0.95,1.74,1.82,1.92,2.86c0.33,1.83,0.12,3.76,0.13,5.65c-1.43,0.07-2.86,0.14-5.29,0.26
		C24.6,162.21,25.6,159.49,26.61,156.76z"/>
	<path class="st2" d="M162.92,132.92c0.44-3.14,0.89-6.28,1.33-9.42c0.69,0,1.39,0.01,2.08,0.01c-0.51,3.14-1.02,6.28-1.53,9.42
		C164.18,132.92,163.55,132.92,162.92,132.92z"/>
	<path class="st21" d="M81.28,105.95c0.27,1.52,0.66,3.03,0.77,4.56c0.13,1.92,0.03,3.86,0.03,5.78c-0.37,0.03-0.73,0.07-1.1,0.1
		c-0.37-3.48-0.73-6.96-1.1-10.44C80.35,105.96,80.82,105.95,81.28,105.95z"/>
	<path class="st12" d="M121.68,148.42c0.22-0.3,0.44-0.6,0.66-0.89c0.26,0.36,0.52,0.72,0.78,1.07
		C122.65,148.54,122.16,148.48,121.68,148.42z"/>
	<path class="st18" d="M145.6,150.57c0.14-0.64,0.28-1.27,0.42-1.91c0.41,0.4,0.82,0.8,1.22,1.2
		C146.7,150.1,146.15,150.33,145.6,150.57z"/>
</g>
</svg>
