<?xml version="1.0" encoding="UTF-8" standalone="no"?>
<!-- Generator: Adobe Illustrator 28.3.0, SVG Export Plug-In . SVG Version: 6.00 Build 0)  -->

<svg
   version="1.1"
   id="Calque_1"
   x="0px"
   y="0px"
   viewBox="0 0 288 180.13901"
   xml:space="preserve"
   sodipodi:docname="G360.svg"
   width="288"
   height="180.13901"
   inkscape:version="1.3.2 (091e20e, 2023-11-25, custom)"
   xmlns:inkscape="http://www.inkscape.org/namespaces/inkscape"
   xmlns:sodipodi="http://sodipodi.sourceforge.net/DTD/sodipodi-0.dtd"
   xmlns="http://www.w3.org/2000/svg"
   xmlns:svg="http://www.w3.org/2000/svg"><defs
   id="defs18" /><sodipodi:namedview
   id="namedview18"
   pagecolor="#ffffff"
   bordercolor="#000000"
   borderopacity="0.25"
   inkscape:showpageshadow="2"
   inkscape:pageopacity="0.0"
   inkscape:pagecheckerboard="0"
   inkscape:deskcolor="#d1d1d1"
   inkscape:zoom="2.6979167"
   inkscape:cx="143.81467"
   inkscape:cy="43.366795"
   inkscape:window-width="1920"
   inkscape:window-height="991"
   inkscape:window-x="-9"
   inkscape:window-y="-9"
   inkscape:window-maximized="1"
   inkscape:current-layer="Calque_1" />
<style
   type="text/css"
   id="style1">
	.st0{fill:#E6411E;}
	.st1{fill:#E8501C;}
	.st2{fill:#FFFFFF;}
	.st3{fill:#E63C1E;}
	.st4{fill:#ED751B;}
	.st5{fill:#EF8118;}
	.st6{fill:#EA611C;}
	.st7{fill:#EC6D1C;}
	.st8{fill:#F2911A;}
	.st9{fill:#F5A216;}
</style>
<g
   id="g18"
   transform="translate(0,-52.262548)">
	<path
   class="st0"
   d="m 46.78,160.52 c -1.39,0.87 -2.9,1.49 -4.49,1.87 -1.03,0.25 -2.09,0.39 -3.14,0.59 -0.05,0.01 -0.1,0.06 -0.14,0.09 -1.04,0 -2.09,0 -3.13,0 -0.1,-0.03 -0.2,-0.07 -0.3,-0.08 -1.48,-0.14 -2.92,-0.44 -4.34,-0.91 -2.35,-0.78 -4.45,-1.99 -6.32,-3.59 -0.59,-0.51 -1.11,-1.1 -1.66,-1.65 0.15,-0.16 0.29,-0.33 0.46,-0.47 0.58,-0.5 1.17,-0.99 1.74,-1.5 0.91,-0.83 1.81,-1.68 2.71,-2.53 0.52,-0.49 1.04,-1 1.55,-1.5 0.56,0.48 1.08,1.01 1.67,1.44 1.63,1.2 3.47,1.81 5.49,1.9 1.98,0.09 3.8,-0.42 5.53,-1.33 0.05,0.19 0.06,0.41 0.16,0.58 0.32,0.57 0.68,1.12 1.02,1.68 0.62,1.03 1.23,2.06 1.84,3.1 0.46,0.76 0.9,1.53 1.35,2.31 z"
   id="path1" />
	<path
   class="st1"
   d="m 29.73,150.83 c -0.52,0.5 -1.03,1.01 -1.55,1.5 -0.9,0.85 -1.8,1.69 -2.71,2.53 -0.57,0.52 -1.16,1 -1.74,1.5 -0.16,0.14 -0.3,0.31 -0.46,0.47 -0.11,-0.11 -0.24,-0.2 -0.34,-0.32 -2.48,-2.89 -4,-6.22 -4.49,-10 -0.07,-0.54 -0.13,-1.07 -0.19,-1.61 0,-0.57 0,-1.14 0,-1.7 0.09,-0.67 0.17,-1.35 0.27,-2.02 0.29,-2.09 0.96,-4.06 1.94,-5.92 0.84,0.42 1.68,0.83 2.51,1.27 1.5,0.78 2.98,1.58 4.48,2.37 0.28,0.15 0.58,0.29 0.86,0.43 -0.04,0.12 -0.08,0.24 -0.13,0.35 -1.21,2.58 -1.33,5.2 -0.38,7.88 0.43,1.23 1.15,2.26 1.93,3.27 z"
   id="path2" />
	<path
   class="st2"
   d="m 196.88,146.47 c 1.01,-2.69 2,-5.32 2.99,-7.96 0.6,-1.6 1.21,-3.21 1.8,-4.81 0.08,-0.22 0.16,-0.36 0.45,-0.35 2.16,0.02 4.33,0.01 6.53,0.01 0,6.78 0,13.55 0,20.34 -1.57,0 -3.14,0 -4.76,0 0,-4.66 0,-9.31 0,-13.97 -0.03,-0.01 -0.07,-0.01 -0.1,-0.02 -0.32,0.87 -0.65,1.75 -0.97,2.62 -1.11,3.02 -2.22,6.05 -3.32,9.07 -0.11,0.3 -0.24,0.41 -0.57,0.4 -1.5,-0.02 -3,-0.01 -4.53,-0.01 -1.49,-4.05 -2.98,-8.08 -4.47,-12.12 -0.03,0 -0.05,0.01 -0.08,0.01 0,4.66 0,9.32 0,14 -1.61,0 -3.16,0 -4.75,0 0,-6.76 0,-13.53 0,-20.34 1.06,0 2.12,0 3.17,0 1.09,0 2.18,0.01 3.27,-0.01 0.31,-0.01 0.43,0.1 0.54,0.38 1.52,4.08 3.05,8.15 4.58,12.23 0.06,0.16 0.13,0.32 0.22,0.53 z"
   id="path3" />
	<path
   class="st2"
   d="m 122.24,153.7 c -1.64,0 -3.23,0 -4.85,0 0,-6.78 0,-13.54 0,-20.35 1.49,0 2.97,-0.01 4.46,0.01 0.15,0 0.32,0.17 0.43,0.31 3.11,3.89 6.22,7.78 9.33,11.67 0.08,0.09 0.15,0.19 0.29,0.36 0,-4.16 0,-8.23 0,-12.32 1.63,0 3.22,0 4.83,0 0,6.76 0,13.53 0,20.34 -1.48,0 -2.96,0.01 -4.44,-0.01 -0.12,0 -0.26,-0.15 -0.35,-0.26 -3.12,-3.9 -6.24,-7.81 -9.35,-11.72 -0.08,-0.11 -0.18,-0.21 -0.33,-0.39 -0.02,4.18 -0.02,8.26 -0.02,12.36 z"
   id="path4" />
	<path
   class="st2"
   d="m 75.73,142.27 c 3.3,0 6.57,0 9.87,0 0.23,1.67 0.11,3.3 -0.38,4.89 -1.31,4.33 -5.28,7.1 -9.99,6.91 -3.56,-0.14 -6.57,-1.46 -8.67,-4.44 -3.7,-5.25 -2.09,-14.89 6.92,-16.45 2.95,-0.51 5.79,-0.16 8.36,1.49 0.56,0.36 1.07,0.82 1.56,1.19 -1.15,1.21 -2.25,2.36 -3.37,3.54 -0.91,-0.9 -1.91,-1.46 -3.08,-1.72 -3.65,-0.82 -6.8,1.42 -7.16,5.14 -0.2,2.02 0.25,3.86 1.75,5.32 2.03,1.96 5.86,2.05 7.9,0.2 0.64,-0.57 1.16,-1.53 1.26,-2.31 -1.66,0 -3.31,0 -4.98,0 0.01,-1.27 0.01,-2.49 0.01,-3.76 z"
   id="path5" />
	<path
   class="st2"
   d="m 93.2,153.7 c 0,-6.8 0,-13.56 0,-20.33 5.34,0 10.66,0 16,0 0,1.41 0,2.8 0,4.24 -3.7,0 -7.4,0 -11.12,0 0,1.24 0,2.43 0,3.68 3.48,0 6.98,0 10.49,0 0,1.45 0,2.84 0,4.27 -3.49,0 -6.97,0 -10.48,0 0,1.3 0,2.57 0,3.87 3.72,0 7.44,0 11.19,0 0,1.44 0,2.85 0,4.27 -5.37,0 -10.71,0 -16.08,0 z"
   id="path6" />
	<path
   class="st2"
   d="m 158.62,133.37 c 1.63,0 3.22,0 4.87,0 0,0.17 0,0.34 0,0.51 0,3.73 -0.01,7.47 0.01,11.2 0,0.56 0.07,1.14 0.21,1.68 0.45,1.68 1.77,2.6 3.78,2.68 2.02,0.08 3.52,-0.77 4.06,-2.42 0.2,-0.61 0.29,-1.29 0.29,-1.94 0.03,-3.72 0.01,-7.44 0.01,-11.16 0,-0.17 0,-0.34 0,-0.54 1.64,0 3.24,0 4.85,0 0.01,0.04 0.03,0.09 0.03,0.13 0,4.16 0.06,8.32 -0.03,12.48 -0.07,3.09 -1.29,5.63 -4.19,7.1 -1.63,0.83 -3.39,1.05 -5.19,1.01 -1.64,-0.04 -3.23,-0.33 -4.69,-1.11 -2.34,-1.26 -3.52,-3.3 -3.89,-5.86 -0.1,-0.67 -0.12,-1.35 -0.12,-2.02 -0.01,-3.9 0,-7.8 0,-11.74 z"
   id="path7" />
	<path
   class="st2"
   d="m 253.41,143.04 c 0.01,-1.59 0.44,-3.82 1.71,-5.83 3.15,-4.98 10.18,-5.01 13.37,-0.05 1.14,1.77 1.64,3.73 1.73,5.81 0.11,2.36 -0.18,4.66 -1.35,6.76 -1.61,2.91 -4.08,4.49 -7.45,4.33 -3.32,-0.15 -5.56,-1.97 -6.95,-4.91 -0.79,-1.69 -1.07,-3.5 -1.06,-6.11 z m 13.58,0.75 c 0,-0.09 0,-0.19 0,-0.28 -0.05,-1.87 -0.37,-3.66 -1.53,-5.21 -1.31,-1.75 -3.61,-2.34 -5.53,-1.42 -1.31,0.63 -2.12,1.71 -2.61,3.04 -0.77,2.06 -0.82,4.18 -0.41,6.32 0.26,1.37 0.78,2.63 1.81,3.61 2.2,2.09 5.55,1.54 7.13,-1.15 0.89,-1.53 1.13,-3.19 1.14,-4.91 z"
   id="path8" />
	<path
   class="st3"
   d="m 46.78,160.52 c -0.45,-0.77 -0.9,-1.54 -1.35,-2.31 -0.61,-1.03 -1.22,-2.07 -1.84,-3.1 -0.34,-0.56 -0.7,-1.11 -1.02,-1.68 -0.1,-0.17 -0.11,-0.38 -0.16,-0.58 0.14,-0.1 0.28,-0.2 0.42,-0.29 1.92,-1.26 3.32,-2.95 4.02,-5.14 0.33,-1.05 0.42,-2.17 0.62,-3.27 2.95,0 5.91,0 8.86,0 0,2.85 -0.62,5.57 -1.87,8.14 -1.67,3.44 -4.15,6.14 -7.43,8.11 -0.07,0.05 -0.16,0.08 -0.25,0.12 z"
   id="path9" />
	<path
   class="st2"
   d="m 240.97,141 c 1.41,-0.28 2.66,-0.19 3.87,0.26 2.8,1.05 4.47,3.63 4.31,6.65 -0.15,2.77 -2.14,5.16 -5.01,5.88 -2.69,0.68 -5.22,0.31 -7.37,-1.56 -2.14,-1.86 -2.74,-4.87 -1.49,-7.65 0.49,-1.08 1.16,-2.09 1.81,-3.09 1.6,-2.45 3.24,-4.88 4.86,-7.32 0.16,-0.25 0.33,-0.36 0.64,-0.35 1.1,0.02 2.21,0.01 3.41,0.01 -1.68,2.39 -3.32,4.73 -5.03,7.17 z m 4.96,6.45 c 0,-2.16 -1.69,-3.72 -4.03,-3.72 -2.32,0 -4.03,1.58 -4.03,3.73 0,2.17 1.68,3.74 4.01,3.74 2.37,0 4.05,-1.56 4.05,-3.75 z"
   id="path10" />
	<path
   class="st2"
   d="m 216.76,151.27 c 0.7,-0.73 1.34,-1.4 1.91,-2 0.86,0.5 1.66,1.08 2.54,1.45 1.39,0.58 2.85,0.66 4.3,0.15 1.25,-0.43 1.92,-1.34 1.98,-2.6 0.05,-1.13 -0.59,-2.09 -1.73,-2.63 -0.86,-0.4 -1.78,-0.51 -2.72,-0.53 -0.74,-0.01 -1.48,0 -2.25,0 0,-0.95 0,-1.87 0,-2.84 0.76,0 1.5,0.04 2.23,-0.01 0.67,-0.04 1.36,-0.11 2,-0.3 1.29,-0.38 2.01,-1.37 2.03,-2.59 0.01,-1.21 -0.71,-2.22 -1.94,-2.69 -1.95,-0.74 -4.1,-0.19 -5.5,1.41 -0.11,0.13 -0.22,0.26 -0.35,0.41 -0.74,-0.63 -1.47,-1.25 -2.23,-1.89 0.62,-0.98 1.43,-1.74 2.46,-2.23 2.62,-1.24 5.29,-1.32 7.89,-0.04 3.12,1.54 3.93,5.69 1.62,8.11 -0.46,0.48 -1.04,0.84 -1.48,1.18 0.66,0.51 1.46,0.96 2.05,1.6 2.09,2.28 1.38,6.02 -1.4,7.69 -1.69,1.01 -3.54,1.26 -5.47,1.11 -1.66,-0.13 -3.22,-0.59 -4.58,-1.59 -0.48,-0.34 -0.9,-0.77 -1.36,-1.17 z"
   id="path11" />
	<path
   class="st4"
   d="m 31.61,125.96 c 1.44,-0.48 2.92,-0.74 4.43,-0.83 3.2,-0.19 6.27,0.31 9.19,1.65 0.6,0.27 1.16,0.62 1.74,0.93 -0.03,0.1 -0.04,0.22 -0.09,0.31 -0.43,0.71 -0.89,1.4 -1.31,2.12 -0.76,1.29 -1.48,2.59 -2.24,3.87 -0.27,0.45 -0.61,0.84 -0.92,1.26 -1.41,-0.75 -2.9,-1.2 -4.49,-1.31 -1.28,-0.09 -2.51,0.15 -3.73,0.45 -0.02,-0.14 -0.02,-0.28 -0.07,-0.41 -0.62,-1.97 -1.25,-3.94 -1.87,-5.92 -0.23,-0.71 -0.43,-1.41 -0.64,-2.12 z"
   id="path12" />
	<path
   class="st2"
   d="m 145.4,133.37 c 1.62,0 3.21,0 4.84,0 0,6.77 0,13.53 0,20.32 -1.61,0 -3.21,0 -4.84,0 0,-6.76 0,-13.51 0,-20.32 z"
   id="path13" />
	<path
   class="st5"
   d="m 42.4,135.27 c 0.31,-0.42 0.66,-0.82 0.92,-1.26 0.76,-1.28 1.48,-2.59 2.24,-3.87 0.42,-0.72 0.88,-1.41 1.31,-2.12 0.05,-0.09 0.06,-0.2 0.09,-0.31 2.55,1.49 4.63,3.47 6.24,5.94 0.02,0.02 0.01,0.06 0.02,0.09 -1.52,0.97 -3.04,1.93 -4.56,2.9 -0.96,0.61 -1.92,1.23 -2.88,1.85 -0.88,-1.33 -2.05,-2.35 -3.38,-3.22 z"
   id="path14" />
	<path
   class="st6"
   d="m 28.31,139.33 c -0.29,-0.14 -0.58,-0.28 -0.86,-0.43 -1.49,-0.79 -2.98,-1.59 -4.48,-2.37 -0.83,-0.43 -1.67,-0.85 -2.51,-1.27 1.29,-2.42 2.96,-4.51 5.18,-6.15 0.54,0.66 1.09,1.32 1.62,2 0.85,1.08 1.71,2.16 2.54,3.25 0.43,0.57 0.83,1.16 1.25,1.74 -1.14,0.89 -1.99,2.02 -2.74,3.23 z"
   id="path15" />
	<path
   class="st7"
   d="m 31.04,136.1 c -0.41,-0.58 -0.81,-1.18 -1.25,-1.74 -0.84,-1.09 -1.69,-2.17 -2.54,-3.25 -0.53,-0.67 -1.08,-1.33 -1.62,-2 1.13,-0.72 2.24,-1.49 3.41,-2.13 0.8,-0.44 1.7,-0.69 2.55,-1.02 0.21,0.7 0.41,1.41 0.63,2.11 0.62,1.97 1.25,3.95 1.87,5.92 0.04,0.13 0.04,0.28 0.07,0.41 -1.14,0.37 -2.15,1 -3.12,1.7 z"
   id="path16" />
	<path
   class="st8"
   d="m 45.8,138.49 c 0.96,-0.62 1.92,-1.24 2.88,-1.85 1.52,-0.97 3.04,-1.93 4.56,-2.9 0.52,0.93 1.09,1.83 1.53,2.79 0.38,0.83 0.61,1.73 0.91,2.6 -1.69,0.45 -3.39,0.9 -5.08,1.35 -0.47,0.12 -0.94,0.24 -1.41,0.35 -0.7,0.17 -1.4,0.33 -2.1,0.49 -0.42,-0.93 -0.86,-1.88 -1.29,-2.83 z"
   id="path17" />
	<path
   class="st9"
   d="m 47.1,141.33 c 0.7,-0.16 1.4,-0.33 2.1,-0.49 0.47,-0.11 0.94,-0.23 1.41,-0.35 1.69,-0.45 3.39,-0.9 5.08,-1.35 0.47,1.64 0.71,3.31 0.66,5.02 -2.95,0 -5.91,0 -8.86,0 -0.14,-0.95 -0.26,-1.89 -0.39,-2.83 z"
   id="path18" />
</g>
</svg>
