<?xml version="1.0" encoding="utf-8"?>
<!-- Generator: Adobe Illustrator 28.3.0, SVG Export Plug-In . SVG Version: 6.00 Build 0)  -->
<svg version="1.1" id="Calque_1" xmlns="http://www.w3.org/2000/svg" xmlns:xlink="http://www.w3.org/1999/xlink" x="0px" y="0px"
	 viewBox="0 0 288 288" style="enable-background:new 0 0 288 288;" xml:space="preserve">
<style type="text/css">
	.st0{fill:#F2F2F2;}
	.st1{fill:#FAD000;}
	.st2{fill:#050505;}
</style>
<g>
	<path class="st0" d="M144.36,111.26c30.83,0,61.66,0,92.49,0c16.21,0,29,10.17,32.68,25.96c4.02,17.25-7.79,35.35-25.24,38.76
		c-2.74,0.53-5.48,0.76-8.27,0.76c-61.46-0.01-122.92-0.01-184.38-0.01c-16.15,0-29.46-10.5-32.65-26.27
		c-3.99-19.76,10.19-36.94,27.94-38.87c1.78-0.19,3.55-0.32,5.34-0.32C82.96,111.26,113.66,111.26,144.36,111.26z M144.42,115.15
		c-30.83,0-61.66,0-92.5-0.01c-2.45,0-4.89,0.05-7.29,0.59c-14.61,3.32-23.96,16.89-22.22,32.21c1.57,13.84,14.23,24.83,28.63,24.83
		c62.26,0,124.52,0,186.78,0c15.01,0,27.61-12.15,28.51-27.11c1.03-17.11-13.15-30.75-29.22-30.6
		C206.22,115.37,175.32,115.16,144.42,115.15z"/>
	<path class="st1" d="M144.16,168.28c-30.89,0-61.78,0.01-92.67-0.01c-14.58-0.01-25.52-11.52-24.59-26.08
		c0.42-6.51,3.27-11.88,8.28-16.29c5.15-4.54,11.07-6.14,17.68-6.14c61.19,0.01,122.38,0.01,183.56,0.01c4.3,0,8.27,0.94,12.19,2.94
		c4.65,2.37,8.24,5.66,10.43,10.24c3.41,7.12,3.94,14.52,0.21,21.68c-2.42,4.65-5.72,8.54-10.82,10.84c-3.9,1.76-7.79,2.8-12,2.8
		C205.68,168.29,174.92,168.28,144.16,168.28z M70.96,148.19c-1.77,2.37-6.38,3.98-8.74,3.1c-2.88-1.08-5.01-3-5.49-6.19
		c-0.49-3.22,0.58-5.91,3.37-7.69c2.87-1.83,6.01-2.03,8.75-0.05c1.78,1.29,3.5,1.57,5.51,1.48c1.12-0.05,2.25,0,3.37-0.01
		c2.14-0.02,2.19-0.09,1.13-2.05c-3.32-6.1-10.11-9.66-17.55-8.13c-8.99,1.86-14.04,10.23-12.34,18.64
		c1.73,8.58,11.64,15.26,21.68,11.26c6.48-2.58,10.38-8.9,9.96-15.3c-0.09-1.3-0.45-1.8-1.84-1.76c-3.3,0.11-6.61,0.03-9.92,0.03
		c-5.27,0-5.27,0-4.99,5.25c0,0.07,0.01,0.13,0,0.2c-0.1,0.97,0.39,1.25,1.3,1.23C67,148.15,68.85,148.19,70.96,148.19z
		 M115.49,144.67c2.9,3.73,5.73,6.87,7.95,10.4c2.02,3.21,4.47,4.39,8.14,3.92c1.31-0.17,1.61-0.5,1.61-1.73
		c-0.05-7.53-0.03-15.07-0.02-22.6c0-5.03,0.01-5.03-5.01-5.04c-2.8,0-2.8,0-2.8,2.72c0,3.65,0,7.3,0,10.95
		c-2.97-3.23-5.73-6.42-7.96-9.94c-1.93-3.04-4.28-4.4-7.8-3.73c-0.19,0.04-0.4,0.03-0.59,0.01c-1.07-0.11-1.34,0.44-1.34,1.42
		c0.02,8.79,0.02,17.58,0,26.37c0,1.05,0.42,1.39,1.41,1.36c1.52-0.05,3.05-0.1,4.56,0.01c1.5,0.11,1.92-0.46,1.89-1.92
		C115.43,152.99,115.49,149.1,115.49,144.67z M170.89,151.37c0.16-0.05,0.32-0.1,0.48-0.15c0.44,1.73,1.7,2.94,2.43,4.52
		c0.59,1.28,1.11,3,2.79,3.12c2.8,0.2,5.63,0.05,8.9,0.05c-1.59-2.54-2.87-4.83-4.39-6.93c-1.07-1.49-0.92-2.28,0.55-3.43
		c3.57-2.81,4.74-7.41,3.26-11.59c-1.49-4.2-5.45-7.05-9.96-7.09c-3.64-0.04-7.27,0.02-10.91-0.03c-1.08-0.02-1.5,0.26-1.49,1.43
		c0.04,8.79,0.04,17.57,0,26.36c0,1.08,0.38,1.35,1.39,1.31c1.78-0.07,3.57-0.11,5.35,0c1.39,0.08,1.69-0.5,1.63-1.74
		C170.83,155.26,170.89,153.31,170.89,151.37z M137.18,144.15c0,4.16,0.11,8.33-0.05,12.48c-0.08,1.99,0.59,2.4,2.44,2.34
		c4.56-0.14,9.12-0.04,13.68-0.04c5.08,0,5.02,0,5-5.03c0-1.47-0.55-1.74-1.85-1.71c-3.44,0.07-6.87-0.01-10.31,0.04
		c-0.99,0.01-1.5-0.22-1.37-1.31c0.07-0.59,0.08-1.2,0-1.78c-0.15-1.18,0.39-1.43,1.46-1.39c2.31,0.07,4.63,0.02,6.94,0.02
		c5.14,0,5.1,0,5.07-5.2c-0.01-1.29-0.35-1.73-1.67-1.69c-3.5,0.08-7.01-0.09-10.51,0.06c-2.04,0.09-1.56-1.17-1.65-2.29
		c-0.1-1.28,0-2.13,1.71-2.02c2.3,0.15,4.62,0.04,6.94,0.04c5.27,0,5.22,0,5.23-5.22c0-1.33-0.29-1.85-1.73-1.83
		c-5.88,0.07-11.77,0.08-17.65,0c-1.49-0.02-1.73,0.58-1.71,1.87C137.22,135.69,137.18,139.92,137.18,144.15z M83.06,143.85
		c0,4.3,0.08,8.6-0.04,12.89c-0.05,1.7,0.54,2.09,2.14,2.06c4.69-0.1,9.39-0.04,14.09-0.03c5.02,0,4.98,0.01,4.87-5.08
		c-0.03-1.22-0.41-1.59-1.6-1.58c-3.31,0.03-6.62-0.2-9.92-0.02c-2.08,0.12-2.1-0.83-2.21-2.42c-0.13-1.92,0.7-2.19,2.3-2.1
		c2.11,0.11,4.23,0.01,6.35,0.02c5.09,0.03,5.05,0.04,4.99-5.14c-0.01-1.36-0.38-1.85-1.79-1.81c-3.44,0.09-6.88-0.08-10.32,0.08
		c-1.77,0.08-1.73-0.83-1.67-2.03c0.05-1.06-0.37-2.25,1.56-2.12c2.37,0.16,4.76-0.02,7.14-0.03c5.34-0.01,5.3,0,5.16-5.42
		c-0.03-1.16-0.32-1.63-1.57-1.62c-6.02,0.05-12.04,0.05-18.06,0c-1.14-0.01-1.46,0.37-1.45,1.47
		C83.09,135.26,83.06,139.56,83.06,143.85z M186.73,158.93c2.49,0,4.67-0.14,6.83,0.04c1.65,0.14,2.48-0.48,2.81-1.97
		c0.27-1.23,0.93-1.7,2.23-1.63c2.04,0.11,4.09,0.04,6.14,0.03c0.68,0,1.44-0.06,1.58,0.8c0.48,2.8,2.41,2.98,4.69,2.75
		c1.18-0.12,2.38-0.11,3.56,0c1.83,0.18,1.92-0.44,1.3-1.98c-3.53-8.63-6.96-17.3-10.44-25.96c-0.19-0.47-0.29-1.22-0.85-1.25
		c-1.97-0.11-4-0.34-5.91,0c-1.19,0.21-1.35,1.87-1.79,2.97c-2.39,6.04-4.75,12.09-7.1,18.14
		C188.8,153.43,187.84,156.01,186.73,158.93z M218.13,144.21c0,4.36,0.04,8.71-0.03,13.07c-0.02,1.3,0.36,1.71,1.68,1.68
		c3.37-0.09,6.74-0.03,10.11-0.03c5.09,0,5.04,0,4.96-5.11c-0.02-1.34-0.46-1.7-1.74-1.63c-1.84,0.1-3.7-0.06-5.55,0.05
		c-1.25,0.07-1.56-0.37-1.54-1.56c0.06-5.02,0.06-10.03,0.01-15.05c-0.02-1.9,0.83-4.39-0.33-5.54c-1.34-1.32-3.89-0.27-5.9-0.47
		c-1.32-0.13-1.7,0.44-1.69,1.72C218.17,135.62,218.13,139.91,218.13,144.21z M233.76,127.23c-2.67,0.03-5.11,2.62-5.03,5.34
		c0.08,2.84,2.6,5.2,5.46,5.12c2.87-0.07,5.25-2.51,5.21-5.34C239.36,129.53,236.79,127.19,233.76,127.23z"/>
	<path class="st2" d="M70.96,148.19c-2.11,0-3.96-0.03-5.81,0.01c-0.91,0.02-1.39-0.26-1.3-1.23c0.01-0.07,0-0.13,0-0.2
		c-0.28-5.25-0.28-5.25,4.99-5.25c3.31,0,6.61,0.07,9.92-0.03c1.4-0.04,1.76,0.46,1.84,1.76c0.42,6.4-3.48,12.72-9.96,15.3
		c-10.04,4-19.95-2.68-21.68-11.26c-1.7-8.41,3.35-16.79,12.34-18.64c7.44-1.54,14.23,2.02,17.55,8.13
		c1.06,1.96,1.02,2.03-1.13,2.05c-1.12,0.01-2.25-0.04-3.37,0.01c-2,0.1-3.72-0.19-5.51-1.48c-2.74-1.98-5.89-1.78-8.75,0.05
		c-2.79,1.78-3.86,4.47-3.37,7.69c0.49,3.19,2.61,5.11,5.49,6.19C64.58,152.17,69.19,150.55,70.96,148.19z"/>
	<path class="st2" d="M115.49,144.67c0,4.42-0.06,8.31,0.03,12.2c0.03,1.46-0.39,2.03-1.89,1.92c-1.51-0.11-3.04-0.06-4.56-0.01
		c-0.99,0.03-1.42-0.31-1.41-1.36c0.03-8.79,0.02-17.58,0-26.37c0-0.97,0.26-1.53,1.34-1.42c0.2,0.02,0.4,0.03,0.59-0.01
		c3.52-0.67,5.86,0.69,7.8,3.73c2.23,3.52,4.99,6.72,7.96,9.94c0-3.65,0-7.3,0-10.95c0-2.72,0-2.72,2.8-2.72
		c5.02,0.01,5.01,0.01,5.01,5.04c0,7.53-0.02,15.07,0.02,22.6c0.01,1.23-0.29,1.56-1.61,1.73c-3.66,0.47-6.12-0.71-8.14-3.92
		C121.22,151.55,118.38,148.41,115.49,144.67z"/>
	<path class="st2" d="M170.89,151.37c0,1.94-0.06,3.89,0.02,5.83c0.05,1.24-0.25,1.82-1.63,1.74c-1.78-0.11-3.57-0.06-5.35,0
		c-1,0.04-1.39-0.23-1.39-1.31c0.04-8.79,0.05-17.57,0-26.36c-0.01-1.17,0.41-1.45,1.49-1.43c3.63,0.05,7.27-0.01,10.91,0.03
		c4.51,0.05,8.47,2.9,9.96,7.09c1.48,4.18,0.31,8.78-3.26,11.59c-1.47,1.16-1.62,1.94-0.55,3.43c1.52,2.11,2.8,4.39,4.39,6.93
		c-3.27,0-6.1,0.14-8.9-0.05c-1.68-0.12-2.2-1.85-2.79-3.12c-0.73-1.58-1.99-2.79-2.43-4.52
		C171.21,151.27,171.05,151.32,170.89,151.37z M170.28,140.59c0.01,4.27,0.01,4.27,3.56,4.06c2.21-0.13,3.95-1.99,3.85-4.17
		c-0.09-2.01-1.53-4.09-5.62-4c-3.08,0.07-1.33,2.28-1.78,3.52C170.22,140.18,170.28,140.4,170.28,140.59z"/>
	<path class="st2" d="M137.18,144.15c0-4.23,0.04-8.46-0.02-12.68c-0.02-1.29,0.22-1.89,1.71-1.87c5.88,0.08,11.77,0.08,17.65,0
		c1.45-0.02,1.73,0.5,1.73,1.83c-0.01,5.22,0.04,5.22-5.23,5.22c-2.31,0-4.63,0.12-6.94-0.04c-1.71-0.11-1.81,0.75-1.71,2.02
		c0.09,1.12-0.39,2.38,1.65,2.29c3.5-0.15,7.01,0.02,10.51-0.06c1.32-0.03,1.67,0.4,1.67,1.69c0.03,5.2,0.07,5.2-5.07,5.2
		c-2.31,0-4.63,0.05-6.94-0.02c-1.07-0.03-1.62,0.21-1.46,1.39c0.08,0.58,0.07,1.19,0,1.78c-0.13,1.09,0.38,1.32,1.37,1.31
		c3.44-0.05,6.88,0.03,10.31-0.04c1.31-0.03,1.85,0.25,1.85,1.71c0.01,5.04,0.07,5.03-5,5.03c-4.56,0-9.13-0.09-13.68,0.04
		c-1.86,0.06-2.52-0.35-2.44-2.34C137.3,152.47,137.18,148.31,137.18,144.15z"/>
	<path class="st2" d="M83.06,143.85c0-4.3,0.03-8.59-0.02-12.89c-0.01-1.1,0.31-1.48,1.45-1.47c6.02,0.05,12.04,0.05,18.06,0
		c1.25-0.01,1.54,0.46,1.57,1.62c0.15,5.42,0.18,5.41-5.16,5.42c-2.38,0-4.77,0.19-7.14,0.03c-1.92-0.13-1.51,1.05-1.56,2.12
		c-0.06,1.2-0.1,2.12,1.67,2.03c3.43-0.16,6.88,0.01,10.32-0.08c1.41-0.04,1.78,0.45,1.79,1.81c0.05,5.18,0.1,5.17-4.99,5.14
		c-2.12-0.01-4.24,0.09-6.35-0.02c-1.6-0.08-2.43,0.18-2.3,2.1c0.1,1.59,0.13,2.54,2.21,2.42c3.29-0.19,6.61,0.05,9.92,0.02
		c1.19-0.01,1.58,0.36,1.6,1.58c0.11,5.09,0.15,5.08-4.87,5.08c-4.7,0-9.4-0.07-14.09,0.03c-1.6,0.03-2.19-0.36-2.14-2.06
		C83.13,152.45,83.06,148.15,83.06,143.85z"/>
	<path class="st2" d="M186.73,158.93c1.11-2.92,2.07-5.49,3.07-8.06c2.35-6.05,4.71-12.1,7.1-18.14c0.43-1.1,0.59-2.76,1.79-2.97
		c1.91-0.34,3.94-0.11,5.91,0c0.55,0.03,0.66,0.77,0.85,1.25c3.48,8.65,6.91,17.32,10.44,25.96c0.63,1.54,0.53,2.16-1.3,1.98
		c-1.18-0.11-2.39-0.12-3.56,0c-2.27,0.23-4.2,0.06-4.69-2.75c-0.15-0.85-0.9-0.8-1.58-0.8c-2.05,0.01-4.1,0.09-6.14-0.03
		c-1.3-0.07-1.96,0.39-2.23,1.63c-0.33,1.49-1.16,2.11-2.81,1.97C191.41,158.79,189.22,158.93,186.73,158.93z M201.51,140.57
		c-0.98,2.72-1.75,4.94-2.59,7.12c-0.42,1.09,0.09,1.25,0.98,1.23c1.18-0.02,2.37-0.06,3.55,0c1.15,0.06,1.14-0.36,0.77-1.27
		C203.33,145.48,202.54,143.27,201.51,140.57z"/>
	<path class="st2" d="M218.13,144.21c0-4.29,0.04-8.58-0.02-12.87c-0.02-1.28,0.37-1.85,1.69-1.72c2.01,0.2,4.57-0.85,5.9,0.47
		c1.17,1.15,0.32,3.64,0.33,5.54c0.05,5.02,0.05,10.03-0.01,15.05c-0.01,1.19,0.29,1.63,1.54,1.56c1.84-0.11,3.7,0.05,5.55-0.05
		c1.27-0.07,1.72,0.29,1.74,1.63c0.08,5.11,0.13,5.11-4.96,5.11c-3.37,0-6.74-0.06-10.11,0.03c-1.32,0.03-1.7-0.38-1.68-1.68
		C218.17,152.92,218.13,148.56,218.13,144.21z"/>
	<path class="st2" d="M233.76,127.23c3.03-0.04,5.6,2.3,5.64,5.13c0.04,2.83-2.34,5.26-5.21,5.34c-2.87,0.07-5.38-2.29-5.46-5.12
		C228.65,129.86,231.09,127.27,233.76,127.23z M235.97,135.4c-1.25,0.4-1.3-0.73-1.62-1.37c-0.32-0.64-0.81-0.53-1.3-0.54
		c-0.73-0.02-0.56,0.56-0.57,0.97c-0.02,0.57,0.14,1.23-0.81,1.09c0.02-1.45,0.04-2.9,0.07-4.35c0.01-0.49-0.11-1.05-0.59-1.08
		c-0.38-0.03-0.82,0.33-1.06,0.77c-0.82,1.55-0.06,3.74,1.61,4.63c1.09,1.24,3.13,1.55,4.27,0.64c0.29-0.24,0.33-0.54-0.02-0.79
		c0.12,0.12,0.27,0.37,0.35,0.35c1.57-0.42,1.8-1.85,1.97-3.07c0.14-0.95,0.08-2.23-1.56-2.58
		C237.37,132.04,234.92,133.41,235.97,135.4z M234.25,132.09c0.52-0.09,1.48,0.21,1.47-0.89c-0.01-0.84-0.76-0.97-1.45-0.88
		c-0.61,0.07-1.54-0.37-1.51,0.89C232.79,132.27,233.51,132.06,234.25,132.09z M235.99,128.85c-1.71-0.79-2.8-0.7-4.3,0.36
		C233.29,129.2,234.38,129.32,235.99,128.85z"/>
	<path class="st1" d="M170.28,140.59c0-0.2-0.06-0.42,0.01-0.59c0.45-1.23-1.3-3.45,1.78-3.52c4.09-0.09,5.53,1.99,5.62,4
		c0.1,2.17-1.64,4.04-3.85,4.17C170.29,144.86,170.29,144.86,170.28,140.59z"/>
	<path class="st1" d="M201.51,140.57c1.02,2.7,1.82,4.91,2.71,7.08c0.37,0.91,0.39,1.33-0.77,1.27c-1.18-0.06-2.37-0.02-3.55,0
		c-0.89,0.02-1.41-0.14-0.98-1.23C199.77,145.51,200.53,143.29,201.51,140.57z"/>
	<path class="st1" d="M231.67,135.53c0.95,0.14,0.79-0.52,0.81-1.09c0.01-0.41-0.16-0.99,0.57-0.97c0.49,0.01,0.98-0.1,1.3,0.54
		c0.32,0.64,0.37,1.77,1.62,1.37l-0.02-0.05c0.35,0.26,0.32,0.56,0.02,0.79c-1.13,0.92-3.18,0.6-4.27-0.64L231.67,135.53z"/>
	<path class="st1" d="M235.97,135.4c-1.05-1.98,1.4-3.36,0.75-5.35c1.64,0.36,1.69,1.63,1.56,2.58c-0.17,1.22-0.41,2.65-1.97,3.07
		c-0.08,0.02-0.23-0.23-0.35-0.35C235.94,135.35,235.97,135.4,235.97,135.4z"/>
	<path class="st1" d="M231.7,135.5c-1.67-0.88-2.43-3.08-1.61-4.63c0.24-0.44,0.67-0.8,1.06-0.77c0.48,0.03,0.6,0.59,0.59,1.08
		c-0.03,1.45-0.05,2.9-0.07,4.35C231.67,135.53,231.7,135.5,231.7,135.5z"/>
	<path class="st1" d="M234.25,132.09c-0.75-0.03-1.46,0.18-1.49-0.87c-0.03-1.27,0.9-0.82,1.51-0.89c0.68-0.08,1.43,0.04,1.45,0.88
		C235.74,132.3,234.78,132,234.25,132.09z"/>
	<path class="st1" d="M235.99,128.85c-1.61,0.47-2.71,0.35-4.3,0.36C233.19,128.15,234.28,128.06,235.99,128.85z"/>
</g>
</svg>
