<?xml version="1.0" encoding="utf-8"?>
<!-- Generator: Adobe Illustrator 28.3.0, SVG Export Plug-In . SVG Version: 6.00 Build 0)  -->
<svg version="1.1" id="Calque_1" xmlns="http://www.w3.org/2000/svg" xmlns:xlink="http://www.w3.org/1999/xlink" x="0px" y="0px"
	 viewBox="0 0 288 288" style="enable-background:new 0 0 288 288;" xml:space="preserve">
<style type="text/css">
	.st0{fill:#1A4E9D;}
	.st1{fill:#FDFFFF;}
</style>
<g>
	<path class="st0" d="M78.74,219.16c-0.29-0.59-0.67-1.16-0.87-1.78c-6.41-19.6-12.81-39.21-19.2-58.81
		c-3.71-11.39-7.43-22.77-11.14-34.16c-3.14-9.62-6.27-19.25-9.47-29.08c0.58-0.51,1.18-1.11,1.86-1.6
		c19.35-14.05,38.7-28.08,58.05-42.12c14.9-10.82,29.78-21.65,44.67-32.47c0.54-0.39,1.1-0.76,1.73-1.19
		c0.81,0.58,1.55,1.12,2.3,1.66c12.46,9.02,24.92,18.04,37.38,27.07c15.41,11.16,30.81,22.33,46.22,33.5
		c6.2,4.49,12.41,8.98,18.62,13.46c0.15,0.11,0.31,0.21,0.45,0.32c1.28,0.96,1.29,0.97,0.81,2.44c-1.33,4.11-2.67,8.22-4,12.33
		c-4.23,12.97-8.46,25.94-12.68,38.92c-5.8,17.85-11.59,35.7-17.38,53.55c-1.75,5.4-3.48,10.82-5.27,16.21
		c-0.21,0.63-0.08,1.58-1.09,1.74c-0.82-1.36-1.77-2.65-2.43-4.08c-1.52-3.28-2.98-6.59-4.33-9.94c-2.69-6.68-4.28-13.67-5.05-20.8
		c-0.75-7-0.73-14.05,0.28-21.05c0.66-4.55,1.57-9.04,2.89-13.45c1.9-6.37,4.53-12.4,7.78-18.19c3.21-5.71,7.06-10.94,11.47-15.76
		c4.8-5.24,10.23-9.76,16.22-13.58c3.44-2.19,6.94-4.32,10.79-5.78c0.4-0.15,0.76-0.4,1.13-0.62c0.29-0.17,0.57-0.36,1.06-0.67
		c-25.44,5.01-48.75,0.62-69.65-14.45c-20.86-15.04-32.56-35.63-35.57-61.2c-3.23,25.42-14.69,46.09-35.4,61.19
		C88.2,95.88,65.02,100.6,39.81,95.59c0.39,0.33,0.78,0.58,1.2,0.78c10.5,4.88,19.68,11.56,27.52,20.09
		c20.75,22.58,28,54.94,18.81,84.13C85.29,207.15,82.44,213.35,78.74,219.16z"/>
	<path class="st1" d="M78.74,219.16c3.7-5.81,6.54-12.01,8.61-18.57c9.19-29.19,1.93-61.55-18.81-84.13
		c-7.84-8.53-17.02-15.21-27.52-20.09c-0.42-0.2-0.82-0.45-1.2-0.78c25.21,5.01,48.38,0.29,69.12-14.84
		c20.7-15.11,32.17-35.77,35.4-61.19c3.02,25.57,14.71,46.17,35.57,61.2c20.9,15.06,44.21,19.46,69.65,14.45
		c-0.49,0.31-0.77,0.5-1.06,0.67c-0.37,0.22-0.73,0.47-1.13,0.62c-3.85,1.46-7.35,3.59-10.79,5.78
		c-5.99,3.81-11.42,8.34-16.22,13.58c-4.41,4.82-8.26,10.05-11.47,15.76c-3.26,5.79-5.88,11.82-7.78,18.19
		c-1.32,4.41-2.23,8.9-2.89,13.45c-1.01,7.01-1.04,14.05-0.28,21.05c0.77,7.13,2.36,14.12,5.05,20.8c1.35,3.35,2.8,6.66,4.33,9.94
		c0.66,1.43,1.61,2.72,2.43,4.08c-0.06,0.09-0.12,0.18-0.19,0.26c-0.06-0.17-0.08-0.38-0.19-0.5c-3.58-3.83-7.21-7.61-11.37-10.85
		c-18.25-14.23-38.98-20.01-61.93-17.99c-13.59,1.2-26.14,5.57-37.7,12.8c-5.63,3.52-10.75,7.66-15.44,12.36
		c-1.29,1.3-2.76,2.45-3.57,4.16C79.15,219.3,78.95,219.23,78.74,219.16z M184.26,129.42c-0.01-22.16-17.83-40.01-39.95-40.01
		c-22.24,0-40.2,17.89-40.17,40.02c0.03,22.07,17.97,39.93,40.09,39.93C166.37,169.36,184.27,151.5,184.26,129.42z"/>
	<path class="st0" d="M79.36,219.37c0.81-1.71,2.27-2.86,3.57-4.16c4.69-4.69,9.81-8.84,15.44-12.36
		c11.56-7.24,24.11-11.61,37.7-12.8c22.95-2.02,43.67,3.76,61.93,17.99c4.15,3.24,7.78,7.02,11.37,10.85
		c0.11,0.12,0.13,0.33,0.19,0.5c-0.59,0.1-1.18,0.3-1.77,0.3c-42.16,0.02-84.33,0.03-126.49,0.02
		C80.64,219.71,80,219.49,79.36,219.37z"/>
	<path class="st1" d="M219.64,269.91c-2.97,0-5.94-0.1-8.9,0.02c-5.58,0.24-10.44-4.55-10.32-10.22c0.1-4.82,0.08-9.64,0-14.46
		c-0.08-4.9,3.28-8.69,7.03-9.74c1.11-0.31,2.29-0.46,3.45-0.47c5.87-0.05,11.74,0,17.61-0.03c5.42-0.03,8.83,3.22,9.92,7.02
		c0.37,1.29,0.6,2.66,0.62,3.99c0.08,4.32,0.1,8.65,0.01,12.98c-0.08,3.98-1.45,7.35-5.06,9.49c-1.57,0.93-3.27,1.41-5.1,1.41
		C225.82,269.91,222.73,269.91,219.64,269.91z M226.86,252.53c0-1.23-0.04-2.47,0.01-3.7c0.13-3.28-1.67-4.12-3.71-4.35
		c-2.25-0.25-4.57-0.27-6.82-0.02c-2.23,0.25-3.94,0.97-3.7,4.42c0.17,2.45,0.07,4.93,0.02,7.39c-0.05,2.68,1.08,4.06,3.72,4.18
		c2.21,0.1,4.44,0.1,6.65,0c2.49-0.12,3.78-1.56,3.82-4.04C226.87,255.11,226.86,253.82,226.86,252.53z"/>
	<path class="st1" d="M95.16,269.6c-3.81,0-7.54,0-11.5,0c0-2.19,0-4.39,0-6.59c0-2.29,0.02-4.57,0-6.86
		c-0.02-2.18,0.09-4.38-0.28-6.6c-1.67,2.31-2.26,5.1-3.65,7.66c-3.32,0-6.7,0-10.18,0c0,4.2,0,8.26,0,12.44c-3.86,0-7.6,0-11.46,0
		c0-11.31,0-22.65,0-34.04c3.78,0,7.51,0,11.41,0c0,4.11,0,8.09,0,12.03c1.51,0.45,12.23,0.48,14.15,0.03c0-3.97,0-8,0-12.22
		c3.98,0,7.71,0,11.53,0C95.16,246.75,95.16,258.09,95.16,269.6z"/>
	<path class="st1" d="M180.6,269.7c-0.83,0.04-1.23,0.08-1.64,0.08c-3.96,0-7.91-0.03-11.87,0.02c-1.03,0.01-1.68-0.3-2.32-1.13
		c-3.87-5.03-7.8-10.02-11.71-15.02c-0.22-0.28-0.47-0.54-0.94-1.07c-0.36,1.64-0.17,3.03-0.2,4.39c-0.03,1.42-0.01,2.84-0.01,4.27
		c0,1.36,0,2.72,0,4.08c0,1.41,0,2.81,0,4.32c-3.85,0-7.53,0-11.33,0c0-11.34,0-22.62,0-33.98c3.73,0,7.41,0,11.3,0
		c0,4.84,0,9.67,0,14.91c0.63-0.62,1-0.91,1.28-1.27c3.16-4.1,6.33-8.2,9.45-12.33c0.76-1.01,1.51-1.47,2.91-1.42
		c4.32,0.16,8.64,0.06,13.21,0.06c-1.2,2-2.84,3.55-4.24,5.26c-1.4,1.72-2.87,3.38-4.3,5.08c-1.47,1.74-2.93,3.5-4.54,5.42
		C170.55,257.38,175.46,263.4,180.6,269.7z"/>
	<path class="st1" d="M95.94,269.69c4.93-11.5,9.82-22.78,14.74-34.13c4.59,0,9.09,0.02,13.58-0.02c0.84-0.01,1.01,0.5,1.26,1.08
		c1.06,2.49,2.14,4.98,3.21,7.47c3.4,7.92,6.81,15.85,10.21,23.77c0.24,0.55,0.41,1.13,0.7,1.92c-1.3,0-2.4,0-3.49,0
		c-2.6,0-5.19,0.01-7.79,0c-1.91,0-1.68,0.26-2.4-1.58c-2.38-6.01-4.71-12.04-7.07-18.07c-0.2-0.5-0.41-1-0.78-1.9
		c-2.13,4.14-3.79,8.1-5.7,12.25c1.82,0.21,3.45,0.08,5.08,0.1c1.65,0.02,3.31,0.01,5.2,0.01c-1.25,3.15-2.43,6.1-3.62,9.1
		C111.42,269.69,103.84,269.69,95.94,269.69z"/>
	<path class="st0" d="M199.76,236.19c-4.29,5.25-8.33,10.19-12.51,15.3c4.68,5.75,9.33,11.45,14.18,17.4
		c-0.69,0.08-1.03,0.15-1.37,0.15c-3.83,0.01-7.66-0.01-11.49,0.02c-0.79,0-1.4-0.18-1.93-0.83c-4.39-5.34-8.81-10.66-13.22-15.98
		c-0.2-0.24-0.38-0.48-0.68-0.86c0.58-0.76,1.14-1.55,1.76-2.28c3.4-4,6.81-7.99,10.25-11.95c0.37-0.42,0.96-0.92,1.46-0.92
		C190.56,236.16,194.93,236.19,199.76,236.19z"/>
	<path class="st1" d="M221.8,32.88c0-7.1,5.58-12.68,12.69-12.68c7.05,0,12.68,5.67,12.66,12.74c-0.02,7.07-5.67,12.69-12.73,12.68
		C227.32,45.6,221.8,40.03,221.8,32.88z M237.73,33.42c0.54-0.26,0.85-0.42,1.17-0.56c1.46-0.66,2.1-1.81,2.11-3.39
		c0.02-2.59-1.23-4.21-3.96-4.43c-2.74-0.22-5.52-0.05-8.36-0.05c0,5.23,0,10.5,0,15.75c0.9,0,1.68,0,2.66,0c0-2.1,0-4.1,0-6.17
		c1.25,0,2.3-0.05,3.33,0.01c2.54,0.16,3.48,1.13,3.63,3.72c0.04,0.78,0.01,1.57,0.01,2.42c1.01,0,1.77,0,2.53,0
		C240.76,37.85,241.27,34.87,237.73,33.42z"/>
	<path class="st0" d="M184.26,129.42c0.01,22.09-17.89,39.94-40.03,39.94c-22.12,0-40.06-17.87-40.09-39.93
		c-0.03-22.13,17.93-40.02,40.17-40.02C166.43,89.41,184.26,107.26,184.26,129.42z"/>
	<path class="st1" d="M231.4,26.55c1.74,0.12,3.28,0.14,4.79,0.37c1.47,0.22,2.11,1.11,2.15,2.57c0.04,1.42-0.59,2.42-1.94,2.79
		c-1.61,0.45-3.26,0.41-5,0.16C231.4,30.54,231.4,28.72,231.4,26.55z"/>
</g>
</svg>
