<?xml version="1.0" encoding="utf-8"?>
<!-- Generator: Adobe Illustrator 28.3.0, SVG Export Plug-In . SVG Version: 6.00 Build 0)  -->
<svg version="1.1" id="Calque_1" xmlns="http://www.w3.org/2000/svg" xmlns:xlink="http://www.w3.org/1999/xlink" x="0px" y="0px"
	 viewBox="0 0 288 288" style="enable-background:new 0 0 288 288;" xml:space="preserve">
<style type="text/css">
	.st0{fill:#FFFFFF;}
	.st1{fill:#6C57A0;}
</style>
<g>
	<path class="st0" d="M18.27,147.49c1.87-1.83,3.79-3.62,5.61-5.51c2.13-2.22,3.74-4.74,4.7-7.73c2.15-6.73,4.48-13.4,6.71-20.1
		c0.67-2,0.48-3.87-1-5.5c-0.64-0.71-1.21-1.47-1.88-2.28c31.04,0,62,0,93.01,0c-0.72,1.74-1.41,3.49-2.17,5.21
		c-0.27,0.6-0.29,1.09,0.04,1.68c0.47,0.85,0.83,1.76,1.18,2.52c1.35-1.29,2.69-2.56,4.02-3.82c0.98-0.93,1.1-2.23,1.48-3.41
		c0.23-0.72,0.21-1.74,0.69-2.09c0.52-0.38,1.49-0.15,2.27-0.15c38.76,0,77.52-0.01,116.27,0.02c0.98,0,1.95,0.39,2.93,0.57
		c0.31,0.06,0.65,0.06,0.96,0c0.88-0.17,1.74-0.54,2.62-0.57c2.47-0.08,4.95,0.04,7.43-0.04c2.78-0.09,4.58,1.35,5.83,3.6
		c1.2,2.16,1.4,4.59,1.19,6.99c-0.56,6.43-1.23,12.84-1.91,19.26c-0.25,2.34-0.89,4.6-1.91,6.72c-1.44,2.98-3.75,4.59-7.19,4.58
		c-10.08-0.05-20.16-0.02-30.24-0.02c-0.3,0-0.59,0-0.95,0c0.57-3.89,1.12-7.7,1.68-11.54c-1.05,0-2.05,0-3.13,0
		c-0.58,3.84-1.15,7.66-1.73,11.51c-20.17,0-40.27,0-60.46,0c0.11-0.21,0.19-0.4,0.3-0.57c1.24-1.9,2.43-3.83,3.73-5.69
		c1.14-1.63,1.55-3.46,1.85-5.33c-4.25,0-8.49,0-12.62,0c-1.84,4.29,0.01,7.91,1.77,11.61c-9.2,0-18.32,0-27.52,0
		c0.13-0.21,0.25-0.42,0.37-0.62c1.43-2.26,2.83-4.56,3.37-7.21c0.74-3.6,1.35-7.23,2.01-10.84c0.4-2.15,0.8-4.3,1.23-6.62
		c-0.25,0.22-0.41,0.35-0.55,0.49c-3.31,3.33-6.63,6.65-9.92,10c-0.23,0.23-0.41,0.58-0.48,0.9c-0.6,2.73-1.19,5.47-1.75,8.2
		c-0.35,1.69-0.02,3.36,0.31,5.02c0.05,0.24,0.11,0.49,0.18,0.77c-9.54,0-19.05,0-28.53,0c0.98-1.48,1.97-2.96,2.94-4.44
		c1.65-2.5,2.19-5.38,2.87-8.22c0.22-0.9,0.38-1.83,0.66-2.71c0.23-0.7,0.12-1.28-0.19-1.93c-1.81-3.73-3.58-7.48-5.43-11.37
		c-0.25,0.82-0.47,1.52-0.68,2.23c-1.95,6.45-3.88,12.91-5.87,19.35c-0.57,1.86-0.09,3.58,0.41,5.33c0.16,0.55,0.36,1.09,0.57,1.71
		c-0.29,0.02-0.53,0.04-0.76,0.04c-5.28,0.01-10.56,0.02-15.84,0.03c-18.75,0.01-37.49,0.02-56.24,0.03c-0.75,0-1.5,0.08-2.26,0.12
		C18.27,147.59,18.27,147.54,18.27,147.49z M70.32,129.07c-0.94,2.92-1.83,5.72-2.73,8.51c-0.67,2.08-1.81,3.81-3.65,5.04
		c-0.07,0.04-0.11,0.12-0.22,0.24c8.18,0,16.26,0,24.41,0c-1.25-1.66-1.09-3.42-0.51-5.17c2.22-6.6,4.51-13.18,6.72-19.79
		c0.89-2.67,1.7-5.37,4.24-7.12c-8.11,0-16.17,0-24.35,0c1.16,1.55,1.05,3.16,0.54,4.8c-0.78,2.55-1.57,5.1-2.32,7.66
		c-0.15,0.51-0.35,0.66-0.88,0.66c-4.6-0.02-9.2-0.01-13.79-0.02c-0.19,0-0.38-0.03-0.63-0.04c0.79-2.53,1.55-5,2.32-7.47
		c0.69-2.2,1.86-4.06,3.82-5.36c0.07-0.04,0.11-0.12,0.19-0.22c-8.15,0-16.21,0-24.39,0c1.27,1.75,0.95,3.52,0.34,5.31
		c-2.26,6.67-4.55,13.33-6.75,20.02c-0.84,2.55-1.68,5.03-4.07,6.59c-0.02,0.01,0,0.09,0,0.16c8.08,0,16.17,0,24.36,0
		c-1.23-1.58-1.09-3.27-0.58-4.94c0.84-2.79,1.79-5.56,2.65-8.34c0.13-0.43,0.33-0.53,0.75-0.52c2.4,0.02,4.8,0.01,7.2,0.01
		C65.41,129.07,67.81,129.07,70.32,129.07z M122.25,142.85c-0.76-1.3-0.76-2.65-0.44-3.99c0.62-2.65,1.29-5.28,1.95-7.92
		c0.05-0.21,0.17-0.42,0.32-0.57c5.97-6.02,11.94-12.05,17.93-18.05c0.59-0.59,1.27-1.09,1.94-1.65c0.8,1.22,0.58,2.38,0.38,3.52
		c-1.23,6.99-2.48,13.98-3.72,20.97c-0.47,2.68-0.91,5.37-2.7,7.59c-0.02,0.02,0.02,0.09,0.03,0.11c4.79,0,9.56,0,14.34,0
		c-0.17-0.58-0.36-1.1-0.47-1.63c-0.32-1.59-0.11-3.15,0.26-4.71c0.41-1.73,0.74-3.47,1.11-5.21c4.8,0,9.5-0.06,14.19,0.02
		c3.97,0.07,6.55-2.39,7.47-5.53c0.37-1.27,0.59-2.6,0.83-3.91c0.35-1.91,0.76-3.81,0.95-5.73c0.26-2.55-1.01-4.44-3.26-4.93
		c-1.22-0.27-2.49-0.45-3.74-0.45c-11.62-0.03-23.24-0.02-34.86-0.02c-0.25,0-0.5,0-0.77,0c-0.24,2.01-1.32,3.5-2.66,4.85
		c-2.37,2.38-4.74,4.76-7.1,7.14c-0.35,0.35-0.67,0.72-1.07,1.15c-0.15-0.31-0.24-0.49-0.32-0.67c-1.19-2.58-2.36-5.17-3.58-7.74
		c-0.72-1.5-1.39-2.97-0.65-4.69c-6.33,0-12.56,0-18.81,0c0.68,1.19,1.41,2.3,1.99,3.49c2.54,5.25,5.05,10.53,7.54,15.8
		c0.15,0.33,0.16,0.78,0.09,1.15c-0.23,1.16-0.53,2.3-0.81,3.45c-0.72,2.93-1.25,5.94-3.75,8.18
		C110.72,142.85,116.44,142.85,122.25,142.85z M196.87,110.75c0.52,1.76,0.34,3.46,0.06,5.15c-1.03,6.21-2.04,12.42-3.1,18.62
		c-0.38,2.23-0.86,4.44-1.35,6.65c-0.12,0.57-0.42,1.1-0.65,1.67c2.93,0,5.79,0,8.61,0c-0.46-4.65,1.09-9.01,1.5-13.49
		c0.79,0,1.48,0,2.17,0c0.34,4.54,0.68,9.02,1.02,13.51c2.8,0,5.52,0,8.18,0c-0.54-4.51-1.08-9-1.62-13.56
		c0.89,0.08,1.58-0.21,2.02-0.88c0.41-0.62,0.86-1.29,1.01-2c0.53-2.46,1-4.93,1.36-7.42c0.23-1.63,0.36-3.3,0.3-4.95
		c-0.07-1.98-1.1-2.95-3.04-3.23c-0.37-0.05-0.75-0.08-1.13-0.08c-4.82-0.01-9.65,0-14.47,0
		C197.46,110.75,197.19,110.75,196.87,110.75z M183.99,123.87c0.49-2.62,0.97-5.16,1.45-7.71c2.15,0,4.22-0.03,6.29,0.01
		c1.3,0.03,2.66-0.32,3.86,0.62c0.14-2.06,0.27-4.01,0.41-5.99c-6.19,0-12.29,0-18.22,0c-0.09,1.58-0.05,3.12-0.28,4.62
		c-0.49,3.23-1.13,6.45-1.7,9.67c-0.77,4.34-1.48,8.69-2.34,13.01c-0.32,1.63-0.99,3.18-1.51,4.82c0.17,0,0.44,0,0.7,0
		c5.53,0,11.06,0,16.59,0c1.4,0,1.4,0,1.79-1.33c0.49-1.69,0.97-3.37,1.48-5.12c-1.62,0.87-2.03,1-3.19,1c-2.4,0-4.8,0-7.2,0
		c-0.19,0-0.37-0.03-0.6-0.05c0.53-2.8,1.06-5.54,1.59-8.34c1.99,0,3.96,0.01,5.93-0.01c1.15-0.01,2.27,0.01,3.21,0.87
		c0.44-2.32,0.86-4.56,1.27-6.72c-0.78,0.23-1.51,0.6-2.26,0.62C188.86,123.92,186.47,123.87,183.99,123.87z M236.82,110.75
		c0,1.71,0.15,3.36-0.03,4.98c-0.45,4.18-1.03,8.35-1.58,12.52c-0.49,3.8-0.97,7.6-1.52,11.39c-0.16,1.1-0.52,2.16-0.78,3.21
		c2.17,0,4.36,0,6.49,0c-0.37-4.62,0.94-9.03,1.22-13.51c0.6,0,1.07,0,1.58,0c0.29,4.52,0.58,9.01,0.87,13.51c2.17,0,4.28,0,6.32,0
		c-0.45-4.52-0.89-9-1.33-13.48c1.21-0.15,2.04-0.93,2.26-2.31c0.46-2.83,0.89-5.67,1.21-8.52c0.19-1.69,0.24-3.41,0.14-5.11
		c-0.1-1.66-1.13-2.63-2.75-2.66C244.95,110.71,240.96,110.75,236.82,110.75z M222.99,131.35c0.17-0.04,0.19-0.05,0.22-0.05
		c2.42,0,4.85-0.01,7.27,0c0.91,0,1.76-0.22,2.26-0.99c0.64-0.98,1.36-2,1.64-3.1c0.52-2.02,0.79-4.1,1.06-6.17
		c0.29-2.19,0.58-4.4,0.63-6.61c0.06-2.53-1.22-3.67-3.74-3.68c-4.19,0-8.38,0-12.58,0c-0.25,0-0.5,0-0.62,0
		c-0.08,1.59-0.05,3.12-0.25,4.63c-0.68,5.17-1.38,10.33-2.2,15.48c-0.65,4.02-0.65,8.18-2.33,11.99c2.53,0,5.06,0,7.58,0
		C221.43,138.89,222.62,135.16,222.99,131.35z M256.62,142.9c0.76,0,1.52-0.05,2.27,0.01c1.61,0.14,2.62-0.63,3.3-2.01
		c1.05-2.14,1.4-4.45,1.65-6.78c0.4-3.63,0.8-7.26,1.14-10.9c0.23-2.46,0.45-4.92,0.5-7.38c0.02-1.08-0.27-2.2-0.62-3.23
		c-0.43-1.27-1.45-1.87-2.82-1.86c-1.69,0.02-3.39,0.09-5.08-0.02c-1.78-0.12-2.88,0.72-3.44,2.24c-0.56,1.53-1.1,3.11-1.3,4.71
		c-0.72,5.9-1.3,11.82-1.9,17.74c-0.19,1.84-0.09,3.68,0.67,5.41c0.6,1.37,1.62,2.15,3.19,2.08
		C255,142.88,255.81,142.9,256.62,142.9z M58.66,133.62c-0.56,1.75-1.11,3.45-1.66,5.15c-0.41,1.27-0.34,1.46,0.78,2.28
		c0.85-0.52,1.67-1.14,2.58-1.55c2.55-1.15,3.13-3.48,3.75-5.88C62.27,133.62,60.49,133.62,58.66,133.62z M63.52,119.31
		c1.7,0,3.34,0.02,4.98-0.02c0.2,0,0.51-0.27,0.58-0.47c0.44-1.34,0.77-2.71,1.27-4.03c0.37-0.98,0.21-1.68-0.68-2.26
		c-0.83,0.5-1.66,1.1-2.56,1.53C64.89,115.1,63.96,116.98,63.52,119.31z"/>
	<path class="st1" d="M18.27,152.64c0.3-0.01,0.61-0.02,0.91-0.02c39.11,0,78.22,0,117.33,0c44.24,0,88.48,0.02,132.72,0.02
		c0.3,0,0.6,0,0.94,0c0,1.24,0,2.41,0,3.68c-0.26,0.01-0.52,0.04-0.79,0.04c-63.69,0-127.39,0.01-191.08,0
		c-19.68,0-39.36-0.04-59.04-0.06c-0.33,0-0.66-0.02-0.98-0.02C18.27,155.06,18.27,153.85,18.27,152.64z"/>
	<path class="st0" d="M242.48,181.86c0.17-0.81,0.34-1.62,0.53-2.55c0.25,0,0.52,0,0.79,0c1.92,0,3.84-0.01,5.76,0
		c0.78,0.01,1.3-0.28,1.48-1.09c0.69-3.19,1.39-6.39,2.1-9.64c-1.52,0-3-0.04-4.47,0.03c-0.3,0.02-0.76,0.41-0.84,0.71
		c-0.35,1.28-0.61,2.6-0.85,3.91c-0.1,0.55,0.28,0.76,0.79,0.76c1.03,0,2.06,0,3.16,0c-0.18,0.9-0.35,1.71-0.5,2.46
		c-1.86,0-3.67,0.07-5.47-0.03c-1.01-0.06-1.49-0.68-1.31-1.65c0.43-2.35,0.94-4.68,1.49-7c0.24-0.99,1.01-1.54,2.03-1.66
		c0.62-0.07,1.25-0.14,1.88-0.14c2.55-0.02,5.1-0.01,7.69-0.01c-0.98,4.53-1.94,9.01-2.9,13.48c-0.29,1.34-1.07,2.15-2.42,2.42
		C248.44,181.86,245.46,181.86,242.48,181.86z"/>
	<path class="st0" d="M255.97,181.86c0.15-0.64,0.35-1.27,0.43-1.91c0.07-0.51,0.26-0.66,0.77-0.65c1.84,0.03,3.69,0.01,5.53,0.01
		c1.52,0,1.69-0.14,2.02-1.64c0.08-0.34,0.13-0.69,0.2-1.11c-1.86,0-3.68,0-5.49,0c-0.23,0-0.46-0.01-0.68-0.05
		c-1.32-0.21-1.76-0.66-1.55-1.99c0.34-2.13,0.84-4.24,1.27-6.36c0.15-0.71,0.31-1.42,0.47-2.16c1.03,0,2.02,0,3.06,0
		c-0.47,2.21-0.93,4.39-1.4,6.58c-0.26,1.2-0.11,1.42,1.08,1.43c1.24,0.01,2.47,0,3.78,0c0.58-2.68,1.15-5.35,1.73-8.03
		c1.01,0,1.99,0,3.06,0c-0.32,1.48-0.63,2.92-0.94,4.36c-0.61,2.85-1.22,5.71-1.83,8.56c-0.04,0.17-0.1,0.34-0.13,0.51
		c-0.25,1.39-1.08,2.18-2.45,2.45C261.94,181.86,258.96,181.86,255.97,181.86z"/>
	<path class="st0" d="M18.39,176.49c0.17-0.8,0.35-1.61,0.54-2.48c0.79,0,1.56,0,2.34,0c1.72-0.01,3.43-0.03,5.15-0.01
		c0.8,0.01,1.22-0.38,1.39-1.1c0.53-2.18,0.39-2.14-1.56-2.13c-1.39,0.01-2.78,0.04-4.16-0.11c-1.59-0.18-2.2-1.15-1.87-2.72
		c0.24-1.16,0.49-2.31,0.78-3.46c0.33-1.28,1.21-1.98,2.51-2c3.15-0.04,6.3-0.01,9.54-0.01c-0.14,0.74-0.26,1.5-0.47,2.23
		c-0.04,0.14-0.44,0.26-0.67,0.26c-2.1,0.02-4.19,0.01-6.29,0.01c-1.55,0-2.48,1.11-2.21,2.63c0.1,0.56,0.57,0.58,1,0.59
		c1.44,0.01,2.88,0,4.32,0.01c2.06,0,2.89,1.02,2.45,3.05c-0.22,1.03-0.43,2.07-0.69,3.09c-0.32,1.24-1.06,2.11-2.41,2.13
		C24.88,176.52,21.65,176.49,18.39,176.49z"/>
	<path class="st0" d="M60.38,180.05c-1.04,0-2,0-3.06,0c1-4.7,1.99-9.36,3-14.08c2.3,0,4.59,0,6.89,0c0.71,0,1.42-0.02,2.12,0.06
		c1.65,0.2,2.09,0.81,1.77,2.44c-0.29,1.46-0.61,2.91-0.91,4.36c-0.1,0.47-0.2,0.94-0.33,1.39c-0.48,1.65-1.07,2.21-2.76,2.3
		c-1.61,0.09-3.22,0.02-4.92,0.02c0.18-0.84,0.35-1.67,0.54-2.55c1.03,0,2.04-0.01,3.05,0c0.74,0.01,1.19-0.34,1.34-1.06
		c0.24-1.16,0.5-2.31,0.73-3.47c0.14-0.69-0.28-0.91-0.87-0.92c-1.34-0.01-2.68,0-4.1,0C62.02,172.36,61.21,176.19,60.38,180.05z"/>
	<path class="st0" d="M76.08,172.51c0.19-0.88,0.36-1.68,0.54-2.51c1.35,0,2.66,0,3.95,0c0.49-0.97,0.25-1.42-0.76-1.45
		c-0.96-0.03-1.92,0-2.88,0c-0.79-0.01-1.3,0.36-1.47,1.13c-0.24,1.11-0.49,2.21-0.69,3.33c-0.13,0.74,0.07,0.98,0.83,0.99
		c1.94,0.03,3.89,0.02,5.83,0.02c0.27,0,0.54,0,0.89,0c-0.18,0.89-0.34,1.69-0.52,2.57c-0.67,0-1.32,0-1.97,0
		c-2.07-0.01-4.14-0.01-6.21-0.03c-0.25,0-0.51-0.02-0.75-0.07c-1.19-0.21-1.62-0.74-1.46-1.94c0.13-0.97,0.35-1.93,0.55-2.89
		c0.19-0.91,0.39-1.82,0.59-2.73c0.41-1.82,1.25-2.76,3.11-2.87c2.31-0.14,4.64-0.06,6.95,0.05c1.15,0.05,1.57,0.61,1.42,1.78
		c-0.21,1.54-0.56,3.06-0.86,4.62C80.81,172.51,78.5,172.51,76.08,172.51z"/>
	<path class="st0" d="M170.02,172.53c-2.39,0-4.68,0-7.08,0c0.18-0.86,0.36-1.68,0.54-2.55c1.37,0,2.7,0,4,0
		c0.38-1.06,0.16-1.42-0.88-1.44c-0.93-0.02-1.87,0.01-2.8,0c-0.79,0-1.3,0.35-1.47,1.13c-0.25,1.15-0.5,2.31-0.72,3.47
		c-0.13,0.66,0.29,0.85,0.84,0.85c1.97,0.01,3.94,0.01,5.91,0.02c0.25,0,0.5,0,0.83,0c-0.18,0.88-0.34,1.69-0.52,2.57
		c-0.59,0-1.16,0-1.73,0c-2.15-0.01-4.29-0.01-6.44-0.03c-0.3,0-0.6-0.04-0.9-0.1c-1.02-0.2-1.43-0.63-1.31-1.67
		c0.16-1.32,0.46-2.62,0.71-3.93c0.13-0.67,0.28-1.33,0.43-1.99c0.39-1.72,1.19-2.65,2.94-2.77c2.36-0.15,4.74-0.09,7.1,0.02
		c1.16,0.05,1.59,0.61,1.43,1.77C170.7,169.44,170.32,170.98,170.02,172.53z"/>
	<path class="st0" d="M97.12,176.59c0.2-0.91,0.38-1.72,0.57-2.57c2.48,0,4.93,0,7.37-0.01c0.35,0,0.74,0.01,1.03-0.15
		c0.26-0.14,0.38-0.51,0.57-0.78c-0.25-0.16-0.5-0.44-0.76-0.45c-1.51-0.04-3.03-0.02-4.55-0.03c-0.4,0-0.81-0.04-1.2-0.13
		c-1.28-0.29-1.89-1.25-1.6-2.54c0.16-0.71,0.32-1.43,0.55-2.12c0.32-1,1.03-1.6,2.09-1.7c0.7-0.07,1.41-0.13,2.11-0.14
		c2.57-0.02,5.15-0.01,7.79-0.01c-0.19,0.89-0.37,1.71-0.56,2.57c-2.48,0-4.93-0.01-7.38,0.01c-0.4,0-0.84,0.14-1.2,0.34
		c-0.18,0.1-0.31,0.48-0.27,0.69c0.03,0.17,0.35,0.37,0.56,0.4c0.5,0.06,1.01,0.04,1.51,0.04c1.24,0,2.48-0.02,3.71,0.01
		c1.54,0.04,2.24,0.82,2.19,2.36c-0.01,0.2-0.03,0.4-0.06,0.6c-0.55,2.97-1.27,3.58-4.29,3.59
		C102.61,176.6,99.91,176.59,97.12,176.59z"/>
	<path class="st0" d="M59.17,165.96c-0.19,0.88-0.37,1.71-0.56,2.57c-2.48,0-4.93-0.02-7.37,0.02c-0.43,0.01-0.91,0.13-1.26,0.36
		c-0.5,0.34-0.34,0.89,0.26,1.05c0.21,0.06,0.45,0.05,0.67,0.05c1.41,0,2.83,0,4.24,0c2.08,0.01,2.89,0.98,2.52,3.03
		c-0.01,0.07-0.04,0.14-0.06,0.22c-0.67,2.82-1.23,3.29-4.14,3.31c-2.72,0.02-5.44,0-8.27,0c0.19-0.89,0.37-1.71,0.56-2.57
		c2.52,0,5.02,0.01,7.51-0.01c0.34,0,0.73-0.03,1.01-0.2c0.22-0.14,0.42-0.51,0.4-0.77c-0.01-0.15-0.44-0.4-0.68-0.41
		c-1.41-0.04-2.83-0.02-4.24-0.03c-0.28,0-0.56,0.01-0.83-0.01c-1.92-0.18-2.66-1.21-2.21-3.08c0.15-0.61,0.31-1.22,0.51-1.81
		c0.32-0.96,1.02-1.5,2.01-1.59c1.03-0.09,2.06-0.13,3.09-0.14C54.59,165.95,56.85,165.96,59.17,165.96z"/>
	<path class="st0" d="M235.32,176.66c-1.36-0.08-2.72-0.09-4.07-0.25c-0.97-0.11-1.42-0.68-1.24-1.64c0.42-2.32,0.91-4.64,1.47-6.94
		c0.24-1.01,1-1.69,2.07-1.71c2.67-0.06,5.34-0.09,8.01,0c1.17,0.04,1.61,0.68,1.4,1.85c-0.38,2.13-0.79,4.26-1.3,6.35
		c-0.4,1.6-1.24,2.16-2.99,2.22c-1.11,0.04-2.22,0.01-3.33,0.01C235.32,176.59,235.32,176.63,235.32,176.66z M236,173.98
		C236,173.99,236,173.99,236,173.98c0.53,0.01,1.06-0.01,1.59,0.01c0.79,0.03,1.22-0.36,1.38-1.1c0.24-1.11,0.45-2.21,0.69-3.32
		c0.14-0.64-0.14-1-0.76-1.01c-1.23-0.03-2.47-0.01-3.7,0c-0.57,0.01-0.95,0.32-1.07,0.88c-0.27,1.22-0.54,2.45-0.78,3.68
		c-0.1,0.53,0.18,0.83,0.7,0.85C234.69,174,235.35,173.98,236,173.98z"/>
	<path class="st0" d="M216.41,176.66c-1.36-0.07-2.72-0.09-4.07-0.24c-0.98-0.11-1.38-0.57-1.24-1.54c0.25-1.79,0.63-3.56,0.98-5.34
		c0.12-0.61,0.31-1.22,0.5-1.81c0.3-0.93,0.97-1.56,1.92-1.58c2.72-0.07,5.44-0.09,8.16-0.01c1.1,0.03,1.57,0.66,1.38,1.74
		c-0.41,2.28-0.89,4.54-1.44,6.79c-0.35,1.44-1.53,1.84-2.85,1.89c-1.11,0.04-2.22,0.01-3.33,0.01
		C216.42,176.59,216.42,176.62,216.41,176.66z M217.04,173.98c0,0,0,0.01,0,0.01c0.5,0,1.01,0.02,1.51,0
		c1.03-0.04,1.26-0.22,1.5-1.23c0.25-1.05,0.43-2.12,0.67-3.17c0.15-0.65-0.12-1.01-0.74-1.02c-1.26-0.03-2.52-0.06-3.77,0.03
		c-0.35,0.03-0.87,0.43-0.96,0.76c-0.36,1.25-0.59,2.54-0.84,3.82c-0.1,0.5,0.18,0.77,0.67,0.79
		C215.73,174,216.39,173.98,217.04,173.98z"/>
	<path class="st0" d="M120.9,176.66c-1.36-0.07-2.72-0.09-4.07-0.24c-0.98-0.11-1.37-0.57-1.23-1.55c0.25-1.79,0.6-3.57,0.98-5.34
		c0.68-3.14,1.24-3.58,4.46-3.56c2.02,0.01,4.04,0.01,6.05,0.14c1.21,0.08,1.65,0.71,1.43,1.91c-0.38,2.13-0.81,4.25-1.33,6.35
		c-0.39,1.55-1.22,2.11-2.95,2.17c-1.11,0.04-2.22,0.01-3.33,0.01C120.9,176.59,120.9,176.62,120.9,176.66z M121.52,173.99
		c0,0,0,0.01,0,0.01c0.5,0,1.01,0.02,1.51,0c1.04-0.04,1.28-0.23,1.51-1.22c0.24-1.05,0.46-2.11,0.66-3.17
		c0.13-0.7-0.09-1.02-0.8-1.04c-1.21-0.04-2.42-0.01-3.63,0c-0.53,0.01-0.95,0.26-1.07,0.78c-0.3,1.27-0.56,2.55-0.81,3.83
		c-0.11,0.55,0.22,0.8,0.73,0.81C120.26,174,120.89,173.99,121.52,173.99z"/>
	<path class="st0" d="M194.46,176.56c-1.01,0-1.96,0-3.01,0c0.36-1.71,0.71-3.37,1.05-5.03c0.14-0.69,0.28-1.38,0.41-2.07
		c0.11-0.58-0.19-0.88-0.73-0.89c-1.24-0.02-2.47-0.02-3.71,0.01c-0.8,0.01-1.04,0.6-1.18,1.25c-0.4,1.84-0.8,3.69-1.2,5.53
		c-0.27,1.24-0.26,1.24-1.56,1.24c-0.58,0-1.15,0-1.78,0c1.02-4.75,2.02-9.41,3.02-14.1c1.01,0,1.98,0,3.05,0
		c-0.31,1.41-0.6,2.79-0.91,4.2c0.07,0.01,0.17,0.05,0.21,0.03c0.92-0.8,2.02-0.79,3.14-0.74c1.18,0.05,2.37,0.03,3.55,0.15
		c1.11,0.12,1.55,0.61,1.39,1.73c-0.23,1.67-0.61,3.31-0.94,4.96C195.02,174.06,194.74,175.3,194.46,176.56z"/>
	<path class="st0" d="M34,165.98c1.05,0,2,0,3.02,0c-0.46,2.19-0.91,4.34-1.37,6.5c-0.28,1.32-0.13,1.52,1.21,1.53
		c0.96,0,1.92-0.03,2.88-0.01c0.82,0.02,1.26-0.37,1.42-1.15c0.45-2.12,0.91-4.23,1.36-6.34c0.04-0.17,0.09-0.33,0.14-0.52
		c1,0,1.98,0,3.04,0c-0.75,3.53-1.49,7.03-2.25,10.56c-1.03,0-2.02,0-3.05,0c0.05-0.3,0.1-0.56,0.19-1.06
		c-1.17,1.42-2.63,1.08-4,1.09c-1.03,0.01-2.07-0.02-3.09-0.16c-1.01-0.13-1.4-0.6-1.27-1.6c0.17-1.34,0.47-2.67,0.74-4
		C33.3,169.22,33.65,167.62,34,165.98z"/>
	<path class="st0" d="M196.68,176.55c0.75-3.54,1.5-7.05,2.25-10.56c1.04,0,2.02,0,3.04,0c-0.04,0.31-0.08,0.59-0.16,1.11
		c0.88-1.15,1.96-1.18,3.06-1.14c1.28,0.05,2.57,0.02,3.85,0.14c1.14,0.11,1.64,0.74,1.43,1.87c-0.53,2.87-1.16,5.71-1.75,8.58
		c-1.03,0-2.01,0-3.03,0c0.47-2.25,0.94-4.46,1.4-6.67c0.23-1.1,0.03-1.34-1.12-1.35c-0.88-0.01-1.77-0.01-2.65,0
		c-1.32,0.01-1.57,0.19-1.85,1.48c-0.43,1.96-0.84,3.93-1.25,5.9c-0.04,0.2-0.09,0.39-0.15,0.62
		C198.73,176.55,197.73,176.55,196.68,176.55z"/>
	<path class="st0" d="M86.05,165.99c1.04,0,2.02,0,3.04,0c-0.04,0.25-0.08,0.46-0.12,0.67c0.04,0.02,0.1,0.06,0.12,0.05
		c2.26-1.36,4.69-0.69,7.07-0.56c0.74,0.04,1.17,0.63,1.1,1.39c-0.1,0.97-0.28,1.94-0.47,2.9c-0.41,2.02-0.85,4.03-1.28,6.09
		c-0.98,0-1.96,0-3.02,0c0.3-1.44,0.6-2.86,0.9-4.27c0.19-0.91,0.37-1.82,0.55-2.74c0.13-0.65-0.19-0.96-0.81-0.97
		c-1.16-0.02-2.32,0-3.48-0.01c-0.86-0.01-1.18,0.55-1.33,1.27c-0.41,1.89-0.81,3.79-1.22,5.68c-0.07,0.34-0.15,0.68-0.23,1.05
		c-1.03,0-2.03,0-3.06,0C84.55,173.01,85.3,169.52,86.05,165.99z"/>
	<path class="st0" d="M130.63,165.98c1.02,0,1.98,0,3.02,0c-0.03,0.24-0.07,0.47-0.1,0.71c0.06,0.01,0.16,0.05,0.19,0.02
		c0.92-0.8,2.02-0.79,3.14-0.75c1.18,0.05,2.37,0.03,3.55,0.15c1.13,0.12,1.55,0.58,1.39,1.72c-0.23,1.72-0.62,3.41-0.97,5.11
		c-0.24,1.18-0.5,2.36-0.77,3.59c-0.96,0-1.93,0-3.01,0c0.29-1.38,0.57-2.74,0.85-4.11c0.2-0.96,0.39-1.92,0.59-2.88
		c0.14-0.66-0.17-0.98-0.78-0.99c-1.21-0.02-2.42-0.01-3.64,0.01c-0.85,0.01-1.07,0.64-1.22,1.3c-0.41,1.89-0.81,3.79-1.22,5.68
		c-0.07,0.32-0.14,0.64-0.21,0.99c-1,0-2,0-3.06,0C129.14,173.01,129.88,169.52,130.63,165.98z"/>
	<path class="st0" d="M183.03,165.99c-0.19,0.86-0.36,1.67-0.56,2.55c-1.68,0-3.34,0-4.99,0c-1.64,0-1.83,0.16-2.15,1.77
		c-0.17,0.86-0.36,1.72-0.52,2.59c-0.15,0.81,0.04,1.08,0.87,1.09c1.74,0.03,3.48,0.02,5.23,0.03c0.1,0,0.2,0.02,0.39,0.03
		c-0.17,0.85-0.34,1.67-0.5,2.49c-2.55,0-5.05,0.06-7.54-0.02c-1.57-0.05-2.03-0.73-1.75-2.3c0.34-1.88,0.73-3.75,1.17-5.61
		c0.46-1.94,1.15-2.54,3.15-2.6C178.2,165.93,180.57,165.99,183.03,165.99z"/>
	<path class="st0" d="M162.05,162.44c-0.18,0.87-0.35,1.7-0.53,2.55c-1.32,0-2.58,0-3.9,0c-0.83,3.87-1.65,7.72-2.47,11.57
		c-1.04,0-2.02,0-3.06,0c0.82-3.85,1.62-7.65,2.45-11.56c-1.19,0-2.33,0-3.56,0c0.19-0.91,0.35-1.72,0.52-2.55
		C155.02,162.44,158.49,162.44,162.05,162.44z"/>
	<path class="st0" d="M227.45,176.55c-1.05,0-2.02,0-3.05,0c1-4.69,1.99-9.34,2.99-14.04c0.97,0,1.94,0,3.02,0
		C229.43,167.19,228.44,171.85,227.45,176.55z"/>
	<path class="st0" d="M115.74,165.99c-0.76,3.56-1.51,7.06-2.25,10.57c-1.04,0-2.02,0-3.07,0c0.76-3.54,1.51-7.04,2.27-10.57
		C113.7,165.99,114.68,165.99,115.74,165.99z"/>
	<path class="st0" d="M115.99,164.88c-1.05,0-2.02,0-3.05,0c0.16-0.8,0.31-1.55,0.47-2.36c1,0,2,0,3.06,0
		C116.31,163.29,116.15,164.06,115.99,164.88z"/>
	<path class="st0" d="M154.2,126c0.62-3.25,1.24-6.53,1.87-9.83c2.39,0,4.76-0.05,7.13,0.02c1.15,0.03,1.55,0.52,1.36,1.68
		c-0.36,2.18-0.82,4.35-1.3,6.5c-0.22,0.99-0.96,1.58-1.96,1.61C158.96,126.03,156.62,126,154.2,126z"/>
	<path class="st0" d="M202.67,123.67c0.44-2.61,0.87-5.13,1.3-7.7c1.31,0,2.59-0.04,3.87,0.02c0.85,0.04,1.33,0.71,1.19,1.58
		c-0.25,1.51-0.5,3.03-0.81,4.53c-0.25,1.25-0.71,1.57-2,1.57C205.09,123.68,203.95,123.67,202.67,123.67z"/>
	<path class="st0" d="M242.05,115.95c0.9,0,1.73,0,2.56,0c0.86,0.01,1.4,0.51,1.3,1.37c-0.2,1.72-0.43,3.44-0.72,5.15
		c-0.16,0.93-0.51,1.15-1.47,1.15c-0.85,0-1.7,0-2.66,0C241.39,121.05,241.71,118.54,242.05,115.95z"/>
	<path class="st0" d="M223.6,126.1c0.48-3.37,0.94-6.64,1.41-9.94c1.1,0,2.13-0.02,3.16,0.01c0.78,0.02,1.34,0.7,1.23,1.49
		c-0.32,2.29-0.64,4.58-1.01,6.86c-0.21,1.29-0.62,1.59-1.93,1.59C225.56,126.1,224.65,126.1,223.6,126.1z"/>
	<path class="st0" d="M260.77,118.28c-0.46,4.39-0.9,8.82-1.39,13.25c-0.17,1.57-0.44,3.13-0.67,4.7c-0.11,0.79-0.58,1.13-1.37,1.08
		c-0.33-0.02-0.66,0-0.98,0c-1.07,0-1.5-0.44-1.4-1.53c0.28-2.9,0.59-5.81,0.9-8.71c0.28-2.68,0.55-5.36,0.86-8.03
		c0.09-0.79,0.3-1.57,0.51-2.35c0.06-0.21,0.29-0.53,0.45-0.54c0.87-0.05,1.75-0.06,2.61,0.03c0.18,0.02,0.4,0.49,0.46,0.78
		C260.83,117.37,260.77,117.81,260.77,118.28z"/>
</g>
</svg>
