<?xml version="1.0" encoding="utf-8"?>
<!-- Generator: Adobe Illustrator 28.3.0, SVG Export Plug-In . SVG Version: 6.00 Build 0)  -->
<svg version="1.1" id="Calque_1" xmlns="http://www.w3.org/2000/svg" xmlns:xlink="http://www.w3.org/1999/xlink" x="0px" y="0px"
	 viewBox="0 0 288 288" style="enable-background:new 0 0 288 288;" xml:space="preserve">
<style type="text/css">
	.st0{fill:#E42529;}
</style>
<g>
	<path class="st0" d="M147.12,124.98c-1.59,6.27-3.18,12.55-4.78,18.82c-0.76,2.97-0.76,2.97-3.81,2.97c-3.08,0-6.16-0.04-9.23,0.02
		c-0.98,0.02-1.07-0.3-0.85-1.12c0.68-2.52,1.31-5.05,1.96-7.57c0.11-0.42,0.28-0.83,0.1-1.54c-1.18,2.1-2.26,4-3.32,5.9
		c-0.68,1.21-1.37,2.41-2.01,3.64c-0.26,0.49-0.58,0.68-1.15,0.68c-5.99-0.02-11.98-0.02-17.97,0c-0.68,0-0.92-0.18-0.94-0.88
		c-0.11-3.22-0.27-6.44-0.42-9.79c-0.46,0.64-0.5,1.32-0.66,1.92c-0.69,2.6-1.36,5.2-2,7.81c-0.16,0.64-0.36,0.95-1.12,0.94
		c-3.86-0.04-7.71-0.04-11.57,0c-0.83,0.01-0.93-0.19-0.73-0.97c1.75-6.7,3.45-13.41,5.17-20.12c0.06-0.23,0.07-0.48,0.1-0.72
		c6.82,0,13.64,0,20.45,0c0.27,6.89,0.54,13.79,0.83,21.02c2.66-4.82,5.17-9.3,7.63-13.81c1.31-2.39,2.75-4.71,3.86-7.21
		C133.48,124.98,140.3,124.98,147.12,124.98z"/>
	<path class="st0" d="M68.75,124.98c-2.02,2.36-4.37,4.39-6.58,6.57c-3.64,3.6-7.31,7.16-11.01,10.7c-0.6,0.57-0.79,1-0.28,1.74
		c0.55,0.79,0.94,1.7,1.39,2.53c-0.32,0.39-0.67,0.24-0.96,0.24c-9.2,0.01-18.4-0.01-27.59,0.03c-1.04,0-1.22-0.26-0.96-1.22
		c1.8-6.86,3.56-13.73,5.33-20.59c5.09,0,10.19,0,15.28,0c-1.17,4.59-2.34,9.18-3.52,13.76c1.89-1.68,3.58-3.44,5.24-5.24
		c2.63-2.84,5.42-5.54,7.89-8.52C58.24,124.98,63.49,124.98,68.75,124.98z"/>
	<path class="st0" d="M176.2,124.98c0.34,0.45,0.89,0.32,1.33,0.43c4.05,0.99,6.83,3.31,7.78,7.44c1,4.33-0.6,7.77-4.04,10.42
		c-3.1,2.38-6.75,3.38-10.58,3.44c-7.71,0.13-15.43,0.05-23.15,0.06c-0.12,0-0.23-0.05-0.43-0.1c0.85-3.37,1.7-6.72,2.54-10.07
		c0.97-3.87,1.93-7.74,2.9-11.61C160.43,124.98,168.31,124.98,176.2,124.98z M166.47,140.21c3.05,0,4.49-0.28,5.76-1.06
		c1.44-0.9,2.19-2.47,1.93-4.06c-0.27-1.7-1.45-2.88-3.22-3.26c-1.38-0.3-2.78-0.11-4.16-0.19c-0.74-0.05-1.09,0.17-1.25,0.94
		c-0.32,1.59-0.77,3.16-1.15,4.74c-0.22,0.91-0.87,2.14-0.51,2.65C164.37,140.66,165.69,140.09,166.47,140.21z"/>
	<path class="st0" d="M223.76,124.98c-0.3,2.47-1.17,4.82-1.72,7.23c-0.16,0.72-0.74,0.52-1.19,0.52c-4.97,0.01-9.93,0.04-14.9-0.02
		c-1.07-0.01-1.5,0.31-1.69,1.34c-0.25,1.36-0.61,2.71-1.04,4.02c-0.28,0.86,0.02,0.94,0.76,0.94c4.64-0.02,9.27,0.03,13.91-0.02
		c1.08-0.01,1.34,0.19,1.01,1.28c-0.54,1.83-0.92,3.72-1.35,5.59c-0.14,0.61-0.33,0.95-1.11,0.95c-9.77-0.03-19.54-0.03-29.31,0
		c-1,0-0.9-0.37-0.71-1.09c1.75-6.7,3.47-13.41,5.2-20.12c0.05-0.2,0.06-0.4,0.09-0.6C202.41,124.98,213.08,124.98,223.76,124.98z"
		/>
	<path class="st0" d="M270.34,124.98c-2.38,2.86-5.08,5.43-7.62,8.14c-2.8,2.99-5.63,5.94-8.5,8.87c-0.55,0.56-0.64,1.01-0.29,1.69
		c0.33,0.65,0.52,1.37,0.83,2.04c0.38,0.8,0.3,1.09-0.71,1.08c-5.42-0.05-10.84-0.02-16.26-0.02c-1.72,0-3.45,0-5.4,0
		c0.8-1.24,1.77-2.15,2.67-3.09c0.65-0.68,0.75-1.22,0.34-2.11c-2.33-5.13-4.56-10.29-6.83-15.45c-0.16-0.37-0.43-0.7-0.38-1.14
		c5.42,0,10.84,0,16.27,0c0.68,3.53,1.35,7.07,2.08,10.88c2.6-3.75,5.06-7.31,7.53-10.88C259.5,124.98,264.92,124.98,270.34,124.98z
		"/>
	<path class="st0" d="M88.22,124.98c-0.45,2.9-1.36,5.69-2.06,8.52c-1,4.07-2.09,8.12-3.11,12.19c-0.19,0.76-0.43,1.12-1.36,1.11
		c-4.18-0.07-8.37-0.07-12.55-0.01c-1.1,0.02-1.14-0.3-0.9-1.22c1.7-6.5,3.36-13.01,5.02-19.52c0.09-0.35,0.12-0.72,0.17-1.07
		C78.36,124.98,83.29,124.98,88.22,124.98z"/>
	<path class="st0" d="M261.52,162.97c-5.24,0-10.29-0.01-15.33,0.02c-0.71,0-0.88-0.32-1.03-0.9c-0.78-3.08-1.61-6.15-2.43-9.22
		c-0.05-0.19-0.12-0.37-0.26-0.79c-0.51,0.65-0.93,1.16-1.33,1.68c-2.19,2.85-4.39,5.7-6.57,8.56c-0.31,0.41-0.61,0.67-1.2,0.67
		c-5.04-0.03-10.09-0.02-15.16-0.02c-0.02-0.52,0.38-0.73,0.62-1.01c3.37-3.85,6.76-7.68,10.12-11.53c0.38-0.44,0.78-0.62,1.36-0.62
		c8.37,0.02,16.75,0.01,25.12,0.01c0.5,0,0.93-0.04,1.18,0.59C258.21,154.54,259.84,158.67,261.52,162.97z"/>
	<path class="st0" d="M198.14,162.97c-4.84,0-9.69,0-14.53,0c-1.62,0-1.63,0-1.25-1.51c0.91-3.55,1.85-7.1,2.73-10.66
		c0.19-0.76,0.53-1.02,1.34-1.01c4.23,0.04,8.46,0.04,12.68,0c0.96-0.01,1.11,0.27,0.83,1.13c-0.34,1.05-0.52,2.14-0.83,3.19
		c-0.24,0.83-0.07,1.12,0.87,1.11c4.84-0.04,9.69-0.02,14.53-0.02c1.83,0,1.82,0,1.35,1.8c-0.43,1.66-0.88,3.31-1.27,4.98
		c-0.17,0.76-0.5,1.01-1.32,1C208.23,162.94,203.18,162.97,198.14,162.97z"/>
	<path class="st0" d="M36.72,149.95c0.38-0.24,0.8-0.13,1.2-0.13c5-0.01,10,0.02,15.01-0.03c0.86-0.01,1.31,0.28,1.71,1.02
		c1.97,3.71,3.99,7.38,5.99,11.07c0.17,0.31,0.44,0.59,0.4,1.08c-3.19,0-6.38,0-9.56,0c-2.13,0-4.26-0.03-6.4,0.02
		c-0.76,0.02-1.16-0.23-1.52-0.9c-1.99-3.7-4.02-7.37-6.06-11.04c-0.18-0.32-0.17-0.85-0.77-0.78
		C36.73,150.16,36.72,150.05,36.72,149.95z"/>
	<path class="st0" d="M36.72,149.95c0,0.1,0,0.2,0.01,0.31c-1.02,4.06-2.05,8.11-3.06,12.17c-0.11,0.44-0.37,0.54-0.8,0.54
		c-4.63-0.01-9.26-0.02-13.89,0c-0.62,0-0.74-0.13-0.57-0.76c1.08-4,2.11-8.02,3.16-12.03c0.12-0.09,0.24-0.19,0.37-0.28
		C26.87,149.82,31.8,149.68,36.72,149.95z"/>
	<path class="st0" d="M71.22,162.97c-2.17,0-4.35-0.01-6.52,0.01c-0.65,0.01-0.95-0.02-0.72-0.85c1.02-3.77,1.98-7.56,2.91-11.36
		c0.18-0.74,0.49-0.97,1.24-0.96c4.27,0.03,8.54,0.03,12.8,0c0.77,0,1.01,0.15,0.79,0.97c-1,3.74-1.94,7.49-2.88,11.25
		c-0.17,0.67-0.42,0.99-1.22,0.97C75.49,162.92,73.35,162.97,71.22,162.97z"/>
	<path class="st0" d="M150.32,162.97c-2.21,0-4.43-0.01-6.64,0.01c-0.59,0.01-0.76-0.08-0.58-0.74c1.04-3.89,2.04-7.8,3-11.71
		c0.14-0.57,0.39-0.71,0.92-0.71c4.39,0.01,8.78,0.02,13.16,0c0.71,0,0.8,0.23,0.64,0.88c-0.99,3.82-1.95,7.65-2.89,11.49
		c-0.15,0.62-0.44,0.83-1.09,0.81C154.67,162.94,152.49,162.97,150.32,162.97z"/>
	<path class="st0" d="M114.22,149.81c2.59,0,5.17,0.02,7.76-0.01c0.81-0.01,1.15,0.03,0.62,0.96c-2.17,3.79-4.29,7.61-6.39,11.44
		c-0.32,0.59-0.67,0.79-1.34,0.78c-2.67-0.04-5.34-0.05-8.01,0c-0.78,0.01-0.94-0.24-0.97-0.96c-0.17-3.75-0.38-7.5-0.62-11.25
		c-0.05-0.76,0.16-0.99,0.93-0.98C108.88,149.84,111.55,149.81,114.22,149.81z"/>
	<path class="st0" d="M84.2,162.97c0.98-3.83,1.93-7.53,2.88-11.24c0.49-1.92,0.49-1.92,2.43-1.92c3.45,0,6.9,0.03,10.35-0.02
		c0.94-0.01,1.1,0.26,0.87,1.12c-0.99,3.7-1.93,7.41-2.89,11.12c-0.12,0.46-0.12,0.95-0.85,0.94
		C92.77,162.95,88.55,162.97,84.2,162.97z"/>
	<path class="st0" d="M130.65,162.97c-1.93,0-3.86-0.03-5.79,0.01c-0.72,0.02-0.82-0.23-0.65-0.85c1.01-3.86,2-7.73,2.98-11.6
		c0.13-0.51,0.37-0.73,0.94-0.73c3.94,0.02,7.88,0.02,11.82,0c0.71,0,0.8,0.2,0.62,0.86c-1.01,3.82-2,7.65-2.94,11.49
		c-0.16,0.64-0.41,0.84-1.06,0.83C134.59,162.94,132.62,162.97,130.65,162.97z"/>
	<path class="st0" d="M21.94,149.91c-0.12,0.09-0.24,0.19-0.37,0.28C21.62,150,21.72,149.88,21.94,149.91z"/>
</g>
</svg>
