<?xml version="1.0" encoding="utf-8"?>
<!-- Generator: Adobe Illustrator 28.3.0, SVG Export Plug-In . SVG Version: 6.00 Build 0)  -->
<svg version="1.1" id="Calque_1" xmlns="http://www.w3.org/2000/svg" xmlns:xlink="http://www.w3.org/1999/xlink" x="0px" y="0px"
	 viewBox="0 0 288 288" style="enable-background:new 0 0 288 288;" xml:space="preserve">
<style type="text/css">
	.st0{fill:#1A4E9D;}
	.st1{fill:#E42529;}
</style>
<g>
	<path class="st0" d="M185.43,168.58c-0.21,0-0.43,0-0.64,0c-55.22,0-110.44,0-165.66,0c-0.88,0-0.87,0-0.72-0.84
		c1.25-7.13,2.5-14.27,3.76-21.4c1.5-8.5,3.02-17,4.51-25.51c0.07-0.4,0.22-0.47,0.57-0.46c2.83,0.01,5.67,0.01,8.5,0
		c0.35,0,0.52,0,0.43,0.47c-1.06,5.85-2.1,11.71-3.11,17.57c-1.11,6.43-2.33,12.84-3.32,19.3c-0.05,0.36,0.01,0.45,0.35,0.47
		c1.21,0.07,2.43,0.14,3.64,0.24c0.44,0.04,0.67-0.08,0.83-0.52c4.63-12.26,9.28-24.52,13.91-36.78c0.21-0.55,0.44-0.78,1.08-0.77
		c3.73,0.04,7.47,0.03,11.2,0.01c0.46,0,0.62,0.11,0.63,0.59c0.08,4.3,0.19,8.61,0.3,12.91c0.07,3.01,0.16,6.02,0.24,9.02
		c0.12,4.62,0.24,9.24,0.36,13.86c0.02,0.66,0.03,1.31,0.08,1.97c0.02,0.35-0.11,0.43-0.44,0.43c-2.79-0.01-5.59-0.01-8.38,0
		c-0.32,0-0.4-0.1-0.39-0.41c0.08-2.57,0.13-5.14,0.24-7.71c0.02-0.58-0.1-0.74-0.69-0.73c-1.98,0.04-3.95,0.02-5.93,0.01
		c-0.38,0-0.57,0.09-0.69,0.47c-0.84,2.59-1.7,5.18-2.57,7.76c-0.13,0.38-0.11,0.52,0.34,0.54c2.09,0.12,4.18,0.28,6.26,0.42
		c3.4,0.23,6.8,0.46,10.2,0.68c2.73,0.18,5.45,0.35,8.18,0.53c3.28,0.22,6.56,0.45,9.84,0.67c2.65,0.18,5.29,0.34,7.94,0.52
		c3.38,0.22,6.76,0.45,10.14,0.68c2.61,0.17,5.21,0.34,7.82,0.52c3.4,0.23,6.8,0.46,10.2,0.68c2.63,0.17,5.25,0.34,7.88,0.52
		c3.38,0.22,6.76,0.45,10.14,0.68c2.63,0.17,5.25,0.35,7.88,0.52c3.38,0.22,6.76,0.45,10.14,0.68c2.65,0.18,5.29,0.35,7.94,0.52
		c3.38,0.22,6.76,0.45,10.14,0.68c2.67,0.18,5.33,0.34,8,0.52c2.88,0.19,5.77,0.4,8.65,0.6c0.07,0.01,0.15,0.02,0.22,0.04
		C185.43,168.54,185.43,168.56,185.43,168.58z M53.96,127.09c-0.29,0.86-0.52,1.57-0.76,2.28c-1.52,4.6-3.04,9.21-4.56,13.81
		c-0.14,0.41-0.14,0.58,0.39,0.57c1.38-0.04,2.75-0.01,4.13-0.01c0.27,0,0.49,0.03,0.49-0.38c0.02-1.55,0.07-3.1,0.11-4.66
		c0.07-2.51,0.15-5.01,0.2-7.52C53.98,129.87,53.96,128.57,53.96,127.09z"/>
	<path class="st1" d="M177.41,131.85c-0.41,1.05-0.83,2.1-1.24,3.15c-3.08,7.88-6.16,15.75-9.23,23.63
		c-0.14,0.36-0.29,0.52-0.72,0.52c-2.43-0.03-4.87-0.02-7.31-0.01c-0.34,0-0.48-0.05-0.49-0.44c-0.18-5.31-0.38-10.63-0.58-15.94
		c-0.14-3.76-0.27-7.52-0.42-11.41c-0.31,0.7-0.31,1.36-0.41,1.98c-0.88,5.49-1.91,10.95-2.86,16.42c-0.52,2.98-1.06,5.96-1.57,8.94
		c-0.06,0.35-0.16,0.46-0.52,0.46c-2.46-0.02-4.91-0.01-7.37,0c-0.35,0-0.43-0.09-0.36-0.44c1.74-9.78,3.47-19.56,5.2-29.35
		c0.5-2.8,0.99-5.61,1.46-8.42c0.07-0.44,0.22-0.58,0.68-0.58c3.81,0.02,7.62,0.02,11.44,0c0.43,0,0.57,0.08,0.58,0.55
		c0.11,4.16,0.24,8.32,0.39,12.48c0.2,5.34,0.26,10.68,0.23,16.03c0.17-0.05,0.18-0.2,0.21-0.31c1.31-4.73,3.23-9.24,4.95-13.82
		c1.8-4.79,3.65-9.55,5.45-14.34c0.17-0.44,0.36-0.6,0.85-0.59c3.83,0.02,7.66,0.02,11.5,0c0.53,0,0.61,0.12,0.51,0.63
		c-1.2,6.7-2.38,13.41-3.56,20.12c-1.02,5.76-2.04,11.53-3.03,17.3c-0.1,0.59-0.29,0.76-0.89,0.75c-2.37-0.04-4.75-0.02-7.13-0.01
		c-0.41,0-0.54-0.05-0.45-0.52c1.4-7.84,2.78-15.69,4.16-23.53c0.19-1.07,0.4-2.14,0.61-3.21
		C177.48,131.87,177.45,131.86,177.41,131.85z"/>
	<path class="st1" d="M253.13,159.64c-2.88-0.01-5-0.16-7.02-0.95c-2.94-1.16-4.58-3.58-4.66-6.73c-0.05-1.93,0.3-3.81,0.63-5.69
		c0.9-5.14,1.81-10.27,2.73-15.4c0.29-1.59,0.77-3.13,1.5-4.58c1.51-3,3.9-4.96,7.12-5.86c3.61-1.01,7.29-1.12,10.94-0.28
		c3.86,0.89,5.94,3.61,5.95,7.58c0.01,2.25-0.51,4.43-0.88,6.62c-0.77,4.45-1.57,8.9-2.36,13.35c-0.31,1.75-0.74,3.46-1.49,5.08
		c-1.71,3.7-4.7,5.7-8.62,6.48C255.46,159.54,253.93,159.65,253.13,159.64z M253.51,152.82c2.4,0.01,3.42-0.84,3.85-3.19
		c0.01-0.08,0.02-0.16,0.03-0.24c0.98-5.54,1.97-11.09,2.93-16.63c0.25-1.43,0.64-2.84,0.64-4.3c0-0.95-0.48-1.54-1.4-1.75
		c-0.82-0.19-1.66-0.18-2.5-0.08c-1.26,0.16-2.01,0.88-2.34,2.07c-0.09,0.33-0.17,0.65-0.23,0.99c-0.83,4.64-1.65,9.29-2.47,13.93
		c-0.4,2.29-0.81,4.58-1.17,6.88c-0.21,1.31,0.33,2,1.64,2.22C252.84,152.79,253.18,152.79,253.51,152.82z"/>
	<path class="st1" d="M197.95,159.64c-2.05,0.03-4.07-0.14-6.03-0.84c-2.72-0.98-4.33-2.87-4.83-5.72
		c-0.24-1.39-0.15-2.78,0.09-4.16c0.42-2.44,0.81-4.88,1.24-7.32c0.38-2.19,0.79-4.37,1.18-6.55c0.32-1.76,0.54-3.53,0.98-5.26
		c0.89-3.56,2.59-6.58,5.98-8.39c1.82-0.97,3.79-1.43,5.82-1.64c1.81-0.19,3.62-0.21,5.42,0c2.32,0.28,4.54,0.84,6.21,2.67
		c0.95,1.04,1.49,2.26,1.7,3.63c0.3,1.88,0.05,3.75-0.27,5.61c-0.33,1.94-0.71,3.86-1.06,5.8c-0.52,2.92-1.07,5.83-1.55,8.75
		c-0.29,1.75-0.61,3.49-1.18,5.17c-1.41,4.22-4.32,6.74-8.63,7.73C201.36,159.52,199.67,159.66,197.95,159.64z M199.01,152.77
		c0,0.01,0,0.02,0,0.02c0.24,0,0.48,0.01,0.72,0c1.62-0.1,2.62-0.82,2.97-2.29c0.33-1.4,0.54-2.82,0.8-4.23
		c0.32-1.76,0.62-3.52,0.93-5.27c0.29-1.63,0.58-3.26,0.87-4.89c0.27-1.53,0.58-3.05,0.8-4.59c0.14-1.01,0.44-1.99,0.41-3.03
		c-0.02-0.86-0.35-1.45-1.18-1.68c-0.87-0.24-1.76-0.25-2.68-0.15c-1.28,0.14-1.95,0.85-2.32,1.97c-0.08,0.23-0.14,0.46-0.19,0.69
		c-0.33,1.82-0.65,3.64-0.97,5.46c-0.42,2.36-0.86,4.72-1.28,7.07c-0.48,2.67-0.93,5.34-1.44,8c-0.32,1.67,0.13,2.6,1.56,2.9
		C198.32,152.82,198.67,152.77,199.01,152.77z"/>
	<path class="st0" d="M109.4,159.13c-1.36,0-2.71-0.02-4.07,0.01c-0.4,0.01-0.54-0.07-0.53-0.51c0.09-2.55,0.14-5.1,0.24-7.64
		c0.02-0.55-0.14-0.7-0.69-0.69c-1.96,0.03-3.91,0.02-5.87,0c-0.42,0-0.63,0.09-0.77,0.53c-0.84,2.61-1.72,5.21-2.56,7.82
		c-0.13,0.4-0.32,0.5-0.72,0.49c-2.65-0.02-5.31-0.01-7.96-0.01c-0.74,0-0.74,0-0.47-0.69c3.36-8.85,6.71-17.7,10.07-26.55
		c1.39-3.66,2.78-7.33,4.16-10.99c0.15-0.39,0.32-0.54,0.76-0.54c3.81,0.02,7.62,0.02,11.44,0c0.44,0,0.6,0.08,0.61,0.58
		c0.11,5.42,0.25,10.83,0.39,16.25c0.08,3.05,0.16,6.09,0.24,9.14c0.11,4.04,0.21,8.08,0.33,12.13c0.02,0.52-0.08,0.72-0.66,0.7
		C112.04,159.1,110.72,159.13,109.4,159.13z M105.71,126.98c-0.02,0-0.04-0.01-0.06-0.01c-0.4,1.2-0.79,2.4-1.19,3.6
		c-1.37,4.15-2.74,8.31-4.11,12.46c-0.23,0.69-0.23,0.69,0.52,0.69c1.32,0,2.63-0.01,3.95,0.01c0.33,0,0.44-0.08,0.45-0.43
		c0.06-2.85,0.15-5.69,0.23-8.54C105.58,132.17,105.64,129.58,105.71,126.98z"/>
	<path class="st0" d="M74.1,159.13c-2.08,0-4.15-0.01-6.23,0.01c-0.38,0-0.5-0.09-0.5-0.49c-0.02-3.83-0.07-7.65-0.11-11.48
		c-0.04-3.81-0.08-7.61-0.12-11.42c-0.04-3.65-0.08-7.29-0.12-10.94c-0.02-1.31-0.04-2.63-0.08-3.94c-0.01-0.39,0.11-0.51,0.5-0.5
		c2.85,0.02,5.71,0.02,8.56,0c0.45,0,0.53,0.16,0.51,0.55c-0.2,4.6-0.38,9.19-0.56,13.79c-0.11,2.67-0.2,5.33-0.3,8
		c-0.09,2.39-0.2,4.77-0.28,7.16c-0.01,0.17-0.22,0.47,0.15,0.52c0.32,0.04,0.3-0.28,0.35-0.46c1.46-4.69,2.91-9.38,4.37-14.07
		c1.55-4.99,3.11-9.99,4.64-14.98c0.13-0.41,0.3-0.51,0.7-0.51c2.77,0.02,5.55,0.02,8.32,0c0.52,0,0.64,0.07,0.45,0.6
		c-3.37,9.44-6.72,18.88-10.07,28.33c-1.1,3.11-2.22,6.22-3.31,9.33c-0.14,0.41-0.33,0.53-0.76,0.52
		C78.17,159.12,76.13,159.13,74.1,159.13z"/>
	<path class="st1" d="M220.73,159.08c0.46-2.61,0.92-5.22,1.38-7.83c1.1-6.22,2.2-12.43,3.3-18.65c0.29-1.65,0.55-3.3,0.88-4.94
		c0.09-0.48-0.06-0.5-0.45-0.5c-2.18,0.02-4.35,0-6.53,0.02c-0.47,0-0.65-0.03-0.53-0.6c0.38-1.89,0.69-3.8,1.01-5.7
		c0.06-0.38,0.19-0.52,0.6-0.52c7.98,0.01,15.97,0.01,23.95,0c0.47,0,0.51,0.14,0.43,0.55c-0.36,1.92-0.71,3.84-1.02,5.76
		c-0.07,0.42-0.22,0.51-0.61,0.51c-2.2-0.02-4.39,0.01-6.59-0.02c-0.48-0.01-0.67,0.09-0.76,0.61c-1.44,8.26-2.91,16.51-4.37,24.77
		c-0.36,2.06-0.73,4.12-1.08,6.18c-0.05,0.28-0.11,0.41-0.43,0.41c-2.99-0.01-5.99-0.01-8.98-0.01
		C220.87,159.13,220.81,159.1,220.73,159.08z"/>
	<path class="st0" d="M126.4,159.13c-2.99,0-5.99,0-8.98,0.01c-0.38,0-0.55,0-0.46-0.5c1.46-8.14,2.9-16.29,4.33-24.44
		c0.78-4.41,1.55-8.82,2.31-13.23c0.08-0.44,0.21-0.62,0.71-0.62c2.77,0.03,5.55,0.03,8.32,0c0.52-0.01,0.58,0.17,0.5,0.61
		c-1.48,8.34-2.95,16.69-4.42,25.03c-0.33,1.88-0.65,3.76-1.02,5.64c-0.1,0.51,0.05,0.6,0.52,0.59c2.81-0.02,5.63,0,8.44-0.02
		c0.53,0,0.61,0.12,0.51,0.64c-0.37,1.87-0.69,3.76-0.99,5.64c-0.08,0.46-0.19,0.66-0.73,0.65
		C132.43,159.12,129.41,159.13,126.4,159.13z"/>
</g>
</svg>
