<?xml version="1.0" encoding="UTF-8" standalone="no"?>
<!-- Generator: Adobe Illustrator 28.3.0, SVG Export Plug-In . SVG Version: 6.00 Build 0)  -->

<svg
   version="1.1"
   id="Calque_1"
   x="0px"
   y="0px"
   viewBox="0 0 288.5242 366.10391"
   xml:space="preserve"
   sodipodi:docname="LL Industries.svg"
   width="288.5242"
   height="366.10391"
   inkscape:version="1.3.2 (091e20e, 2023-11-25, custom)"
   xmlns:inkscape="http://www.inkscape.org/namespaces/inkscape"
   xmlns:sodipodi="http://sodipodi.sourceforge.net/DTD/sodipodi-0.dtd"
   xmlns="http://www.w3.org/2000/svg"
   xmlns:svg="http://www.w3.org/2000/svg"><defs
   id="defs155" /><sodipodi:namedview
   id="namedview155"
   pagecolor="#ffffff"
   bordercolor="#000000"
   borderopacity="0.25"
   inkscape:showpageshadow="2"
   inkscape:pageopacity="0.0"
   inkscape:pagecheckerboard="0"
   inkscape:deskcolor="#d1d1d1"
   inkscape:zoom="1.9077152"
   inkscape:cx="170.88505"
   inkscape:cy="181.36879"
   inkscape:window-width="1920"
   inkscape:window-height="991"
   inkscape:window-x="-9"
   inkscape:window-y="-9"
   inkscape:window-maximized="1"
   inkscape:current-layer="Calque_1" />
<style
   type="text/css"
   id="style1">
	.st0{fill:#B5CABD;}
	.st1{fill:#ADC5B6;}
	.st2{fill:#BCD0C4;}
	.st3{fill:#96B6A5;}
	.st4{fill:#D0DDD6;}
	.st5{fill:#DEE8E2;}
	.st6{fill:#D7E3DB;}
	.st7{fill:#9EBCAC;}
	.st8{fill:#C8D8CF;}
	.st9{fill:#E6ECE9;}
	.st10{fill:#A4C0B1;}
	.st11{fill:#ECF1ED;}
	.st12{fill:#C1D4C9;}
	.st13{fill:#C9D9D0;}
	.st14{fill:#F5F6F5;}
	.st15{fill:#759F87;}
	.st16{fill:#86AD99;}
	.st17{fill:#7CA590;}
	.st18{fill:#B0C7B9;}
	.st19{fill:#A0BEAF;}
	.st20{fill:#8CB19D;}
	.st21{fill:#B7CDBF;}
	.st22{fill:#CBDBD3;}
	.st23{fill:#64947B;}
	.st24{fill:#80A893;}
	.st25{fill:#4D866D;}
	.st26{fill:#6D9A80;}
	.st27{fill:#337858;}
	.st28{fill:#7BA38D;}
</style>
<g
   id="g155"
   transform="translate(0,42.459168)">
	<path
   class="st0"
   d="m 110.64,154.81 c 0,5.79 0,11.58 0,17.38 -0.9,0 -1.8,0 -2.43,0 -2.97,2.49 -5.64,5.06 -8.62,7.18 -8.71,6.21 -16.99,12.96 -25.24,19.75 -2,1.65 -3.95,4.02 -7.15,3.47 0,-4.71 0,-9.41 0,-14.12 0,-1.09 0,-2.17 0,-3.26 0.9,0 1.8,0 2.77,0 1.1,-1.11 2.09,-2.47 3.39,-3.37 3.26,-2.26 6.41,-4.61 9.5,-7.1 1.89,-1.52 3.41,-3.88 5.57,-4.58 3.8,-1.23 5.88,-4.23 8.59,-6.61 2.36,-2.06 4.56,-4.45 7.24,-5.97 1.95,-1.11 3.8,-2.94 6.38,-2.77 z"
   id="path1" />
	<path
   class="st1"
   d="m 67.2,202.59 c 3.2,0.55 5.15,-1.82 7.15,-3.47 8.25,-6.8 16.53,-13.54 25.24,-19.75 2.98,-2.13 5.65,-4.69 8.62,-7.18 0.63,0 1.53,0 2.43,0 0,5.43 0,10.86 0,16.29 -1.47,-0.38 -2.25,0.62 -3.15,1.5 -2.13,2.05 -3.93,4.47 -6.76,5.75 -1.22,0.55 -2.39,1.34 -3.35,2.26 -3.77,3.6 -8.24,6.3 -12.18,9.73 -4.91,4.28 -10.6,7.67 -15.41,12.25 -0.8,0 -1.7,0 -2.59,0 0,-1.09 0,-2.17 0,-3.26 0,-4.71 0,-9.41 0,-14.12 z"
   id="path2" />
	<path
   class="st2"
   d="m 110.64,154.81 c -2.58,-0.16 -4.42,1.66 -6.38,2.77 -2.68,1.53 -4.88,3.91 -7.24,5.97 -2.72,2.38 -4.8,5.38 -8.59,6.61 -2.15,0.7 -3.68,3.06 -5.57,4.58 -3.09,2.49 -6.25,4.84 -9.5,7.1 -1.3,0.9 -2.29,2.26 -3.39,3.37 -0.97,0 -1.87,0 -2.77,0 0,-2.44 0,-4.88 0,-7.59 -1.97,-0.39 -4.08,-1.52 -5.43,-0.93 -2.22,0.98 -4.32,0.81 -6.51,0.91 0,-3.26 0,-6.52 0,-9.77 3.98,0 7.96,0 11.95,0 0,0.67 0,1.34 0,2.06 1.59,0 2.81,0 3.67,0 12.67,-9.93 25.08,-19.65 37.28,-29.21 1.04,0 1.76,0 2.48,0 0,4.71 0,9.42 0,14.13 z"
   id="path3" />
	<path
   class="st3"
   d="m 110.64,218.88 c 0,1.02 -0.11,2.06 0.05,3.06 0.08,0.47 0.67,0.86 1.04,1.28 0.45,0.36 0.88,1.02 1.34,1.04 2.81,0.1 5.62,0.05 8.43,0.05 0.17,1.15 -0.19,2 -1.12,2.79 -5.21,4.41 -9.93,9.6 -15.67,13.15 -6.23,3.86 -10.68,9.82 -17.16,13.23 -0.53,0.28 -0.54,1.52 -0.79,2.32 -6.52,0 -13.03,0 -19.55,0 0,-1.81 0,-3.62 0,-5.43 3.67,-0.67 6.4,-2.94 9.13,-5.27 1.42,-1.22 2.73,-2.52 4.37,-3.61 5.29,-3.49 10.17,-7.63 15.12,-11.63 4.46,-3.59 8.79,-7.34 13.23,-10.96 0.31,-0.25 1.04,-0.02 1.58,-0.02 z"
   id="path4" />
	<path
   class="st4"
   d="m 110.64,95.08 c 0,5.43 0,10.86 0,16.29 -0.67,0.12 -1.51,0.03 -1.97,0.41 -2.83,2.34 -5.31,5.2 -8.39,7.09 -5.86,3.6 -10.86,8.28 -16.4,12.28 -4.06,2.93 -7.81,6.28 -11.7,9.45 -2.13,-0.27 -2.63,3.03 -4.98,2.26 0,-3.98 0,-7.96 0,-11.95 0,-1.45 0,-2.9 0,-4.34 2.01,-0.57 8.18,-4.55 10.26,-6.43 2.45,-2.22 4.82,-4.62 7.57,-6.41 5.22,-3.4 9.93,-7.38 14.64,-11.42 2.18,-1.87 4.65,-3.42 7.04,-5.05 1.23,-0.84 1.91,-2.74 3.93,-2.18 z"
   id="path5" />
	<path
   class="st5"
   d="m 110.64,63.58 c 0,5.43 0,10.86 0,16.29 -0.9,0 -1.8,0 -2.71,0 -1.39,1.39 -2.63,3.01 -4.22,4.14 -4.34,3.08 -9.29,5.33 -12.75,9.57 -2.05,-0.3 -1.71,2.43 -3.66,2.75 -1.5,0.25 -2.78,1.88 -4.16,2.9 -1.38,1.02 -2.9,1.89 -4.1,3.08 -2.36,2.32 -4.78,4.47 -7.86,5.82 -1.37,0.6 -1.94,2.71 -3.97,2.15 0,-2.53 0,-5.07 0,-7.6 0,-2.9 0,-5.79 0,-8.69 0.36,0 0.83,0.15 1.06,-0.02 3.12,-2.38 7.13,-3.52 9.61,-6.82 0.53,-0.7 1.21,-1.32 1.93,-1.83 1.92,-1.35 4.43,-2.24 5.72,-4.03 1.58,-2.2 4.07,-2.73 5.78,-4.4 4.47,-4.38 9.65,-7.82 14.73,-11.39 1.36,-0.96 2.75,-2.04 4.6,-1.92 z"
   id="path6" />
	<path
   class="st6"
   d="m 67.2,110.28 c 2.03,0.56 2.6,-1.55 3.97,-2.15 3.08,-1.35 5.5,-3.5 7.86,-5.82 1.21,-1.19 2.73,-2.06 4.1,-3.08 1.38,-1.02 2.66,-2.65 4.16,-2.9 1.95,-0.32 1.61,-3.05 3.66,-2.75 3.47,-4.24 8.42,-6.49 12.75,-9.57 1.59,-1.13 2.83,-2.75 4.22,-4.14 0.92,0 1.82,0 2.71,0 0,5.07 0,10.14 0,15.2 -2.02,-0.55 -2.69,1.34 -3.93,2.19 -2.39,1.63 -4.86,3.18 -7.04,5.05 -4.7,4.04 -9.42,8.02 -14.64,11.42 -2.75,1.79 -5.12,4.19 -7.57,6.41 -2.08,1.88 -8.25,5.86 -10.26,6.43 0,-2.9 0,-5.79 0,-8.69 0.01,-2.53 0.01,-5.07 0.01,-7.6 z"
   id="path7" />
	<path
   class="st7"
   d="m 110.64,218.88 c -0.54,0 -1.26,-0.23 -1.59,0.03 -4.44,3.62 -8.78,7.36 -13.23,10.96 -4.95,3.99 -9.83,8.13 -15.12,11.63 -1.64,1.08 -2.95,2.39 -4.37,3.61 -2.73,2.33 -5.45,4.6 -9.13,5.27 0,-1.81 0,-3.62 0,-5.43 0,-3.62 0,-7.24 0,-10.86 1.37,-0.06 2.56,-0.07 3.92,-1.02 2.62,-1.83 4.52,-4.58 7.17,-6.08 6.02,-3.43 10.79,-8.43 16.39,-12.36 4.79,-3.37 9.12,-7.4 13.41,-10.94 1.12,0 1.84,0 2.56,0 -0.01,5.05 -0.01,10.12 -0.01,15.19 z"
   id="path8" />
	<path
   class="st8"
   d="m 67.2,142.86 c 2.35,0.77 2.85,-2.54 4.98,-2.26 3.89,-3.17 7.64,-6.52 11.7,-9.45 5.54,-4 10.54,-8.68 16.4,-12.28 3.08,-1.9 5.56,-4.76 8.39,-7.09 0.46,-0.38 1.3,-0.28 1.97,-0.41 0,5.07 0,10.14 0,15.2 -2.04,-0.08 -3.53,1.11 -4.96,2.28 -2.7,2.21 -5.04,4.97 -8,6.73 -5.25,3.11 -9.44,7.46 -14.21,11.1 -1.36,1.03 -2.8,1.96 -4.11,3.05 -2.68,2.23 -5.2,4.67 -7.98,6.77 -1.14,0.86 -2.77,1.06 -4.17,1.56 C 67.2,153 67.2,147.93 67.2,142.86 Z"
   id="path9" />
	<path
   class="st9"
   d="m 110.64,63.58 c -1.85,-0.12 -3.23,0.95 -4.6,1.91 -5.08,3.57 -10.26,7.01 -14.73,11.39 -1.71,1.68 -4.2,2.21 -5.78,4.4 -1.29,1.79 -3.8,2.67 -5.72,4.03 -0.72,0.51 -1.41,1.13 -1.93,1.83 -2.48,3.3 -6.49,4.43 -9.61,6.82 -0.23,0.17 -0.7,0.02 -1.06,0.02 0,-2.53 0,-5.07 0,-7.6 0,-2.17 0,-4.34 0,-6.52 0.67,-0.12 1.5,-0.03 1.97,-0.4 5.18,-4 10.29,-8.08 15.44,-12.11 1.2,-0.94 2.54,-1.71 3.72,-2.68 1.23,-1.01 2.25,-2.28 3.51,-3.25 4.06,-3.13 8.19,-6.19 12.29,-9.26 2.02,-1.51 3.78,-3.48 6.5,-3.79 0,5.08 0,10.14 0,15.21 z"
   id="path10" />
	<path
   class="st10"
   d="m 110.64,203.68 c -0.72,0 -1.44,0 -2.56,0 -4.29,3.54 -8.61,7.58 -13.41,10.94 -5.6,3.94 -10.37,8.93 -16.39,12.36 -2.64,1.51 -4.55,4.25 -7.17,6.08 -1.36,0.95 -2.55,0.96 -3.92,1.02 0,-1.45 0,-2.9 0,-4.34 0,-3.26 0,-6.52 0,-9.77 0.9,0 1.79,0 2.59,0 4.81,-4.58 10.5,-7.97 15.41,-12.25 3.93,-3.43 8.4,-6.13 12.18,-9.73 0.97,-0.92 2.14,-1.72 3.35,-2.26 2.83,-1.28 4.63,-3.7 6.76,-5.75 0.91,-0.88 1.68,-1.87 3.15,-1.5 0.01,5.06 0.01,10.13 0.01,15.2 z"
   id="path11" />
	<path
   class="st11"
   d="m 110.64,48.38 c -2.72,0.31 -4.48,2.27 -6.5,3.79 -4.11,3.08 -8.23,6.13 -12.29,9.26 -1.26,0.97 -2.28,2.23 -3.51,3.25 -1.18,0.97 -2.52,1.74 -3.72,2.68 -5.15,4.03 -10.26,8.11 -15.44,12.11 -0.48,0.37 -1.31,0.28 -1.97,0.4 0,-2.9 0,-5.79 0,-8.69 0,-2.17 0,-4.34 0,-6.52 0.36,0 0.82,0.15 1.06,-0.02 3.45,-2.49 7.02,-4.84 10.26,-7.59 2.76,-2.34 5.65,-4.44 8.56,-6.56 3.04,-2.2 5.76,-4.83 8.36,-7.05 0,-1.24 0,-1.95 0,-2.67 0.36,0 0.72,0 1.09,0 3.26,0 6.52,0 9.77,0 1.45,0 2.9,0 4.34,0 -0.01,2.54 -0.01,5.07 -0.01,7.61 z"
   id="path12" />
	<path
   class="st12"
   d="m 67.2,158.06 c 1.41,-0.5 3.04,-0.7 4.17,-1.56 2.78,-2.1 5.3,-4.53 7.98,-6.77 1.31,-1.09 2.75,-2.02 4.11,-3.05 4.78,-3.64 8.97,-7.99 14.21,-11.1 2.95,-1.75 5.3,-4.51 8,-6.73 1.43,-1.17 2.92,-2.36 4.96,-2.28 0,4.71 0,9.41 0,14.12 -0.72,0 -1.45,0 -2.48,0 -12.21,9.57 -24.61,19.29 -37.28,29.21 -0.87,0 -2.08,0 -3.67,0 0,-0.72 0,-1.39 0,-2.06 0,-3.26 0,-6.52 0,-9.78 z"
   id="path13" />
	<path
   class="st5"
   d="m 163.85,52.72 c 0,3.26 0,6.52 0,9.77 -3.06,0 -6.12,0 -9.17,0 -2.18,-2.54 -4.34,-0.67 -5.87,0.52 -6.31,4.9 -12.3,10.22 -18.61,15.12 -2.89,2.24 -5.53,5.3 -9.78,5 0,-3.26 0,-6.52 0,-9.77 0,-1.09 0,-2.17 0,-3.26 2.62,0.27 4.6,-0.94 6.47,-2.63 2.72,-2.45 5.26,-5.36 8.44,-6.97 2.91,-1.48 5.08,-3.51 7.38,-5.59 2.06,-1.87 4.1,-3.85 6.47,-5.24 1.25,-0.73 2.81,-2.35 4.8,-0.88 0.09,1.62 0.18,3.33 0.29,5.36 3.26,-2.08 6.47,-1.27 9.58,-1.43 z"
   id="path14" />
	<path
   class="st6"
   d="m 120.41,83.13 c 4.26,0.31 6.9,-2.76 9.78,-5 6.31,-4.9 12.3,-10.22 18.61,-15.12 1.53,-1.19 3.69,-3.06 5.87,-0.52 3.06,0 6.12,0 9.17,0 0,2.9 0,5.79 0,8.69 -2.84,0 -5.67,0 -8.51,0 -0.13,1.19 -0.22,2.05 -0.3,2.87 -3.23,1.49 -6.79,2.15 -9.45,4.71 -1.89,1.82 -3.74,3.84 -5.97,5.14 -5.75,3.36 -10.12,8.38 -15.83,12.25 -0.85,0 -2.11,0 -3.37,0 0,-2.53 0,-5.07 0,-7.6 0,-1.8 0,-3.61 0,-5.42 z"
   id="path15" />
	<path
   class="st4"
   d="m 120.41,96.16 c 1.26,0 2.52,0 3.37,0 5.72,-3.87 10.08,-8.9 15.83,-12.25 2.23,-1.3 4.08,-3.32 5.97,-5.14 2.66,-2.57 6.22,-3.22 9.45,-4.71 0.09,-0.82 0.18,-1.68 0.3,-2.87 2.84,0 5.68,0 8.51,0 0,2.9 0,5.79 0,8.69 -2.84,0 -5.67,0 -8.56,0 -0.11,2.41 -0.21,4.48 -0.31,6.52 -1.45,0 -2.53,0 -3.45,0 -2.5,1.57 -4.04,3.93 -6.46,5.57 -5.85,3.98 -11.3,8.57 -16.7,13.17 -2.4,2.05 -4.8,3.36 -7.97,2.98 0,-2.53 0,-5.07 0,-7.6 0.02,-1.46 0.02,-2.91 0.02,-4.36 z"
   id="path16" />
	<path
   class="st12"
   d="m 163.85,87.47 c 0,3.98 0,7.96 0,11.95 -2.81,0 -5.62,0 -8.69,0 0,3.44 0,6.61 0,9.77 -2.04,-0.08 -3.38,1.35 -4.99,2.23 -3.35,1.84 -6.04,4.61 -8.85,7.02 -5.66,4.84 -11.85,8.98 -17.47,13.86 -0.58,0.5 -1.56,0.53 -2.35,0.78 0,-2.9 0,-5.79 0,-8.69 0,-1.03 0,-2.06 0,-2.66 10.17,-8.08 20.72,-14.77 30.27,-23.53 0.75,0 1.96,0 3.34,0 0,-3.2 0,-6.21 0,-8.97 0.7,-0.75 1.19,-1.27 1.65,-1.76 2.4,0 4.75,0 7.09,0 z"
   id="path17" />
	<path
   class="st9"
   d="m 163.85,52.72 c -3.1,0.16 -6.32,-0.66 -9.59,1.42 -0.11,-2.03 -0.2,-3.73 -0.29,-5.36 -1.99,-1.46 -3.56,0.15 -4.8,0.88 -2.37,1.39 -4.41,3.37 -6.47,5.24 -2.3,2.08 -4.47,4.11 -7.38,5.59 -3.18,1.61 -5.72,4.52 -8.44,6.97 -1.87,1.69 -3.85,2.9 -6.47,2.63 0,-3.98 0,-7.96 0,-11.95 0,-4.71 0,-9.41 0,-14.12 0,-2.9 0,-5.79 0,-8.69 0.36,0.45 1.02,0.89 1.04,1.35 0.09,3.17 0.05,6.34 0.05,9.51 0,3.93 0,7.85 0,11.86 1.06,0.05 1.76,0.08 3.19,0.14 0.73,-0.86 1.6,-2.89 2.84,-3.15 2.92,-0.61 3.58,-3.7 6.24,-4.67 2.32,-0.85 4.16,-3.06 6.17,-4.71 4.19,-3.43 8.33,-6.91 12.55,-10.3 0.33,-0.26 1.06,-0.03 1.6,-0.03 0,0.36 0,0.72 0,1.09 0,2.81 0,5.62 0,8.69 3.44,0 6.61,0 9.77,0 -0.01,2.54 -0.01,5.08 -0.01,7.61 z"
   id="path18" />
	<path
   class="st13"
   d="m 163.85,87.47 c -2.34,0 -4.68,0 -7.09,0 -0.46,0.49 -0.95,1.02 -1.65,1.76 0,2.76 0,5.78 0,8.97 -1.39,0 -2.6,0 -3.34,0 -9.54,8.76 -20.1,15.44 -30.27,23.53 0,0.6 0,1.63 0,2.66 -0.36,0 -0.72,0 -1.09,0 0,-2.53 0,-5.07 0,-7.6 0,-2.9 0,-5.79 0,-8.69 3.18,0.39 5.57,-0.93 7.97,-2.98 5.39,-4.6 10.85,-9.19 16.7,-13.17 2.42,-1.64 3.96,-4 6.46,-5.57 0.92,0 1.99,0 3.45,0 0.1,-2.04 0.19,-4.1 0.31,-6.52 2.88,0 5.72,0 8.56,0 -0.01,2.55 -0.01,5.08 -0.01,7.61 z"
   id="path19" />
	<path
   class="st14"
   d="m 67.2,244.94 c 0,1.81 0,3.62 0,5.43 0,1.81 0,3.62 0,5.43 0,0.36 0,0.72 0,1.09 -0.53,0 -1.07,0 -1.34,0 -3.58,4.09 -6,8.96 -10.6,11.95 0,-7.96 0,-15.93 0,-23.89 3.97,-0.01 7.95,-0.01 11.94,-0.01 z"
   id="path20" />
	<path
   class="st15"
   d="m 55.25,268.83 c 4.6,-2.98 7.02,-7.85 10.6,-11.95 0.28,0 0.81,0 1.34,0 2.9,0 5.79,0 8.69,0 0,4.34 0,8.69 0,13.03 -6.24,0 -12.48,0.01 -18.73,-0.01 -0.77,0 -1.89,0.4 -1.9,-1.07 z"
   id="path21" />
	<path
   class="st16"
   d="m 67.2,86.39 c 0,2.53 0,5.07 0,7.6 0,2.9 0,5.79 0,8.69 -3.98,0 -7.96,0 -11.95,0 0,-5.43 0,-10.86 0,-16.29 3.98,0 7.96,0 11.95,0 z"
   id="path22" />
	<path
   class="st17"
   d="m 67.2,86.39 c -3.98,0 -7.96,0 -11.95,0 0,-5.07 0,-10.14 0,-15.2 3.98,0 7.96,0 11.95,0 0,2.9 0,5.79 0,8.69 0,2.16 0,4.34 0,6.51 z"
   id="path23" />
	<path
   class="st18"
   d="m 67.2,142.86 c 0,5.07 0,10.14 0,15.2 -3.98,0 -7.96,0 -11.95,0 0,-5.07 0,-10.14 0,-15.2 3.98,0 7.96,0 11.95,0 z"
   id="path24" />
	<path
   class="st19"
   d="m 126.93,269.92 c -4.34,0 -8.69,0 -13.03,0 0,-4.34 0,-8.69 0,-13.03 3.62,0 7.24,0 10.86,0 1.03,0 2.06,0 3.36,0 -0.47,1.68 -1.52,3.32 -1.06,4.12 1.76,3.11 0.69,5.96 -0.13,8.91 z"
   id="path25" />
	<path
   class="st1"
   d="m 126.93,269.92 c 0.83,-2.95 1.89,-5.8 0.12,-8.91 -0.45,-0.8 0.59,-2.44 1.06,-4.12 -1.3,0 -2.33,0 -3.36,0 0,-0.36 0,-0.72 0,-1.09 0.72,0 1.45,0 2.17,0 4.34,0 8.69,0 13.03,0 -0.27,1.66 0.72,3.56 -1.05,4.96 -0.26,0.21 -0.26,1.19 0,1.54 1.73,2.38 0.83,5.07 1.05,7.62 -4.34,0 -8.68,0 -13.02,0 z"
   id="path26" />
	<path
   class="st11"
   d="m 67.2,244.94 c -3.98,0 -7.96,0 -11.95,0 0,-4.71 0,-9.41 0,-14.12 1.98,-0.28 3.97,-0.56 6.16,-0.87 0.28,0.22 0.79,0.63 0.88,0.7 1.99,-0.37 3.45,-0.64 4.91,-0.92 0,1.45 0,2.9 0,4.34 0,3.63 0,7.25 0,10.87 z"
   id="path27" />
	<path
   class="st20"
   d="m 55.25,102.68 c 3.98,0 7.96,0 11.95,0 0,2.53 0,5.07 0,7.6 0,2.53 0,5.07 0,7.6 -1.83,-0.36 -3.64,-0.89 -5.48,-1.04 -2.14,-0.18 -4.31,-0.04 -6.46,-0.04 -0.01,-4.71 -0.01,-9.42 -0.01,-14.12 z"
   id="path28" />
	<path
   class="st21"
   d="m 139.96,269.92 c -0.22,-2.55 0.68,-5.25 -1.05,-7.62 -0.26,-0.35 -0.26,-1.33 0,-1.54 1.77,-1.4 0.78,-3.3 1.05,-4.96 1.81,0 3.62,0 5.43,0 2.17,0 4.34,0 6.52,0 0,4.71 0,9.41 0,14.12 -3.99,0 -7.97,0 -11.95,0 z"
   id="path29" />
	<path
   class="st6"
   d="m 67.2,202.59 c 0,4.71 0,9.41 0,14.12 -1.98,0 -3.97,-0.14 -5.92,0.04 -2.02,0.19 -4.02,0.68 -6.02,1.05 0,-5.07 0,-10.14 0,-15.2 3.97,-0.01 7.95,-0.01 11.94,-0.01 z"
   id="path30" />
	<path
   class="st16"
   d="m 101.95,269.92 c -4.34,0 -8.69,0 -13.03,0 0,-4.34 0,-8.69 0,-13.03 4.34,0 8.69,0 13.03,0 0,4.34 0,8.69 0,13.03 z"
   id="path31" />
	<path
   class="st17"
   d="m 88.92,256.89 c 0,4.34 0,8.69 0,13.03 -4.34,0 -8.69,0 -13.03,0 0,-4.34 0,-8.69 0,-13.03 4.34,0 8.68,0 13.03,0 z"
   id="path32" />
	<path
   class="st22"
   d="m 67.2,202.59 c -3.98,0 -7.96,0 -11.95,0 0,-4.71 0,-9.41 0,-14.12 2.55,0.23 5.26,-0.73 7.3,0.86 1.71,-0.32 3.18,-0.59 4.65,-0.86 0,4.71 0,9.41 0,14.12 z"
   id="path33" />
	<path
   class="st6"
   d="m 184.48,269.92 c -3.62,0 -7.24,0 -10.86,0 0,-2.34 -0.14,-4.69 0.04,-7.01 0.18,-2.38 0.68,-4.74 1.05,-7.11 3.26,0 6.52,0 9.77,0 3.89,0 7.79,-0.04 11.68,0.05 0.46,0.01 0.9,0.68 1.36,1.04 -0.72,0 -1.45,0 -2.17,0 -3.54,0 -7.07,0 -10.86,0 -0.01,4.53 -0.01,8.78 -0.01,13.03 z"
   id="path34" />
	<path
   class="st14"
   d="m 223.58,268.83 c -0.01,1.46 -1.12,1.07 -1.9,1.07 -5.52,0.03 -11.04,0.01 -16.56,0.01 0,-4.34 0,-8.69 0,-13.03 2.17,0 4.34,0 6.52,0 1.45,1.45 2.9,2.9 4.34,4.34 2.53,2.55 5.07,5.08 7.6,7.61 z"
   id="path35" />
	<path
   class="st15"
   d="m 121.5,224.31 c -2.81,0 -5.62,0.05 -8.43,-0.05 -0.46,-0.02 -0.9,-0.68 -1.34,-1.04 0,-0.36 0,-0.72 0,-1.09 1.44,-1.26 2.89,-2.51 4.32,-3.78 1.83,-1.63 3.64,-3.27 5.46,-4.91 3.26,0 6.52,0 9.77,0 0,3.26 0,6.52 0,9.77 -2.15,0 -4.31,-0.12 -6.45,0.05 -1.14,0.1 -2.23,0.69 -3.33,1.05 z"
   id="path36" />
	<path
   class="st18"
   d="m 120.41,116.8 c 0,2.53 0,5.07 0,7.6 0,3.62 0,7.24 0,10.86 -2.9,0 -5.79,0 -8.69,0 0,-6.15 0,-12.31 0,-18.46 2.9,0 5.79,0 8.69,0 z"
   id="path37" />
	<path
   class="st23"
   d="m 55.25,48.38 c 0,-6.52 0,-13.03 0,-19.55 1.9,1.25 3.6,2.53 4.49,4.88 0.43,1.14 2.04,1.83 3.11,2.73 1.45,1.45 2.9,2.9 4.34,4.34 0,2.53 0,5.07 0,7.6 -3.98,0 -7.96,0 -11.94,0 z"
   id="path38" />
	<path
   class="st5"
   d="m 55.25,217.79 c 2.01,-0.36 4,-0.86 6.02,-1.05 1.96,-0.18 3.95,-0.04 5.92,-0.04 0,1.09 0,2.17 0,3.26 0,3.26 0,6.52 0,9.77 -1.46,0.27 -2.92,0.55 -4.91,0.92 -0.08,-0.07 -0.6,-0.48 -0.88,-0.7 -2.19,0.31 -4.17,0.59 -6.16,0.87 0.01,-4.34 0.01,-8.68 0.01,-13.03 z"
   id="path39" />
	<path
   class="st22"
   d="m 174.71,255.8 c -0.36,2.37 -0.86,4.73 -1.05,7.11 -0.18,2.32 -0.04,4.67 -0.04,7.01 -3.62,0 -7.24,0 -10.86,0 0,-4.71 0,-9.41 0,-14.12 0.72,0 1.45,0 2.17,0 3.26,0 6.52,0 9.78,0 z"
   id="path40" />
	<path
   class="st3"
   d="m 101.95,269.92 c 0,-4.34 0,-8.69 0,-13.03 3.98,0 7.96,0 11.95,0 0,4.34 0,8.69 0,13.03 -3.99,0 -7.97,0 -11.95,0 z"
   id="path41" />
	<path
   class="st15"
   d="m 67.2,71.18 c -3.98,0 -7.96,0 -11.95,0 0,-4.34 0,-8.69 0,-13.03 3.98,0 7.96,0 11.95,0 0,2.17 0,4.34 0,6.52 0,2.17 0,4.34 0,6.51 z"
   id="path42" />
	<path
   class="st7"
   d="m 55.25,116.8 c 2.16,0 4.32,-0.14 6.46,0.04 1.84,0.16 3.66,0.68 5.48,1.04 0,2.9 0,5.79 0,8.69 0,1.45 0,2.9 0,4.34 -1.47,-0.36 -2.92,-0.88 -4.41,-1.04 -1.6,-0.18 -3.23,-0.04 -4.85,-0.04 -0.9,0 -1.8,0 -2.69,0 0.01,-4.35 0.01,-8.69 0.01,-13.03 z"
   id="path43" />
	<path
   class="st10"
   d="m 55.25,129.83 c 0.9,0 1.8,0 2.69,0 1.62,0 3.25,-0.14 4.85,0.04 1.49,0.17 2.94,0.68 4.41,1.04 0,3.98 0,7.96 0,11.95 -3.98,0 -7.96,0 -11.95,0 0,-4.34 0,-8.69 0,-13.03 z"
   id="path44" />
	<path
   class="st12"
   d="m 162.76,255.8 c 0,4.71 0,9.41 0,14.12 -3.62,0 -7.24,0 -10.86,0 0,-4.71 0,-9.41 0,-14.12 3.62,0 7.24,0 10.86,0 z"
   id="path45" />
	<path
   class="st14"
   d="m 233.35,222.14 c -0.46,0.36 -0.92,1.02 -1.39,1.04 -2.67,0.1 -5.35,0.05 -8.38,0.05 0,1.91 0,3.67 0,5.43 -3.98,0 -7.96,0 -11.95,0 0,-1.45 0,-2.9 0,-4.34 0.51,-2.09 2.19,-0.67 3.26,-1.09 1.74,0 3.47,0 5.43,0 0,-3.46 0,-6.62 0,-9.77 1.45,0 2.9,0 4.34,0 0.36,0.36 0.72,0.72 1.09,1.09 2.54,2.52 5.07,5.05 7.6,7.59 z"
   id="path46" />
	<path
   class="st14"
   d="m 121.5,213.45 c -1.82,1.64 -3.63,3.28 -5.46,4.91 -1.43,1.27 -2.88,2.52 -4.32,3.78 0,-6.52 0,-13.03 0,-19.55 3.26,0 6.52,0 9.77,0 0,3.26 0,6.52 0,9.77 0.01,0.37 0.01,0.73 0.01,1.09 z"
   id="path47" />
	<path
   class="st5"
   d="m 184.48,269.92 c 0,-4.25 0,-8.5 0,-13.03 3.79,0 7.32,0 10.86,0 0,4.34 0,8.69 0,13.03 -3.62,0 -7.24,0 -10.86,0 z"
   id="path48" />
	<path
   class="st2"
   d="m 111.72,135.26 c 2.9,0 5.79,0 8.69,0 0,5.43 0,10.86 0,16.29 -2.9,0 -5.79,0 -8.69,0 0,-5.43 0,-10.86 0,-16.29 z"
   id="path49" />
	<path
   class="st19"
   d="m 120.41,116.8 c -2.9,0 -5.79,0 -8.69,0 0,-5.43 0,-10.86 0,-16.29 2.9,0 5.79,0 8.69,0 0,2.53 0,5.07 0,7.6 0,2.89 0,5.79 0,8.69 z"
   id="path50" />
	<path
   class="st14"
   d="m 154.08,36.43 c 0,-0.36 0,-0.72 0,-1.09 0,-2.53 0,-5.07 0,-7.6 1.26,-1.44 2.51,-2.89 3.78,-4.32 1.63,-1.83 3.27,-3.64 4.91,-5.46 1.46,0.01 1.07,1.12 1.07,1.9 0.03,5.52 0.01,11.04 0.01,16.56 -3.26,0.01 -6.52,0.01 -9.77,0.01 z"
   id="path51" />
	<path
   class="st12"
   d="m 67.2,188.47 c -1.47,0.27 -2.94,0.55 -4.65,0.86 -2.04,-1.6 -4.75,-0.64 -7.3,-0.86 0,-3.62 0,-7.24 0,-10.86 2.19,-0.1 4.3,0.07 6.51,-0.91 1.35,-0.6 3.46,0.53 5.43,0.93 0,2.71 0,5.15 0,7.59 0.01,1.08 0.01,2.17 0.01,3.25 z"
   id="path52" />
	<path
   class="st9"
   d="m 121.5,202.59 c -3.26,0 -6.52,0 -9.77,0 0,-4.71 0,-9.41 0,-14.12 3.38,-0.74 6.49,0.98 9.77,1.09 0,2.53 0,5.07 0,7.6 0,1.81 0,3.62 0,5.43 z"
   id="path53" />
	<path
   class="st22"
   d="m 111.72,151.55 c 2.9,0 5.79,0 8.69,0 0,3.62 0,7.24 0,10.86 0,1.45 0,2.9 0,4.34 -2.9,0 -5.79,0 -8.69,0 0,-5.07 0,-10.13 0,-15.2 z"
   id="path54" />
	<path
   class="st24"
   d="m 120.41,58.15 c 0,3.98 0,7.96 0,11.95 0,1.09 0,2.17 0,3.26 -2.9,0 -5.79,0 -8.69,0 0,-5.07 0,-10.14 0,-15.2 2.9,-0.01 5.79,-0.01 8.69,-0.01 z"
   id="path55" />
	<path
   class="st20"
   d="m 111.72,73.36 c 2.9,0 5.79,0 8.69,0 0,3.26 0,6.52 0,9.77 0,1.81 0,3.62 0,5.43 -2.9,0 -5.79,0 -8.69,0 0,-5.07 0,-10.14 0,-15.2 z"
   id="path56" />
	<path
   class="st24"
   d="m 163.85,168.92 c 0,2.9 0,5.79 0,8.69 -1.9,1.25 -3.49,2.61 -4.52,4.85 -0.61,1.34 -1.88,3.22 -4.17,2.75 -0.36,-0.45 -1.02,-0.89 -1.04,-1.35 -0.09,-3.17 -0.05,-6.34 -0.05,-9.51 0,-1.81 0,-3.62 0,-5.43 3.26,0 6.52,0 9.78,0 z"
   id="path57" />
	<path
   class="st11"
   d="m 195.34,269.92 c 0,-4.34 0,-8.69 0,-13.03 0.72,0 1.45,0 2.17,0 2.53,0 5.07,0 7.6,0 0,4.34 0,8.69 0,13.03 -3.25,0 -6.51,0 -9.77,0 z"
   id="path58" />
	<path
   class="st25"
   d="m 106.29,40.78 c -3.26,0 -6.52,0 -9.77,0 0,-4.34 0,-8.69 0,-13.03 3.26,0 6.52,0 9.77,0 0,4.34 0,8.68 0,13.03 z"
   id="path59" />
	<path
   class="st19"
   d="m 163.85,124.4 c 0,4.34 0,8.69 0,13.03 -3.26,0 -6.52,0 -9.77,0 0,-3.24 -0.09,-6.48 0.05,-9.7 0.05,-1.12 0.67,-2.22 1.04,-3.33 2.89,0 5.78,0 8.68,0 z"
   id="path60" />
	<path
   class="st15"
   d="m 120.41,58.15 c -2.9,0 -5.79,0 -8.69,0 0,-4.71 0,-9.41 0,-14.12 2.9,0 5.79,0 8.69,0 0,4.71 0,9.42 0,14.12 z"
   id="path61" />
	<path
   class="st21"
   d="m 55.25,158.06 c 3.98,0 7.96,0 11.95,0 0,3.26 0,6.52 0,9.77 -3.98,0 -7.96,0 -11.95,0 0,-3.25 0,-6.51 0,-9.77 z"
   id="path62" />
	<path
   class="st26"
   d="m 67.2,58.15 c -3.98,0 -7.96,0 -11.95,0 0,-3.26 0,-6.52 0,-9.77 3.98,0 7.96,0 11.95,0 0,3.26 0,6.51 0,9.77 z"
   id="path63" />
	<path
   class="st21"
   d="m 155.16,109.19 c 0,-3.17 0,-6.34 0,-9.77 3.07,0 5.88,0 8.69,0 0,4.34 0,8.69 0,13.03 -2.9,0 -5.79,0 -8.69,0 0,-1.08 0,-2.17 0,-3.26 z"
   id="path64" />
	<path
   class="st3"
   d="m 154.08,137.43 c 3.26,0 6.52,0 9.77,0 0,3.98 0,7.96 0,11.95 -3.26,0 -6.52,0 -9.77,0 0.36,-1.46 1.47,-3.32 0.94,-4.29 -1.39,-2.55 -0.72,-5.11 -0.94,-7.66 z"
   id="path65" />
	<path
   class="st6"
   d="m 111.72,166.75 c 2.9,0 5.79,0 8.69,0 0.36,0.36 0.72,0.72 1.09,1.09 0,1.45 0,2.9 0,4.34 0,1.81 0,3.62 0,5.43 -3.29,0.1 -6.39,1.82 -9.77,1.09 -0.01,-3.98 -0.01,-7.97 -0.01,-11.95 z"
   id="path66" />
	<path
   class="st8"
   d="m 188.83,177.61 c 2.53,0 5.07,0 7.6,0 0,3.62 0,7.24 0,10.86 -3.98,0 -7.96,0 -11.95,0 -6.15,0 -12.31,0 -18.46,0 -0.36,-0.36 -0.72,-0.72 -1.09,-1.09 1.09,0 2.17,0 3.26,0 2.17,0 4.34,0 6.52,0 2.17,0 4.34,0 6.52,0 2.45,0 4.9,0 7.6,0 0,-3.44 0,-6.6 0,-9.77 z"
   id="path67" />
	<path
   class="st3"
   d="m 111.72,88.56 c 2.9,0 5.79,0 8.69,0 0,2.53 0,5.07 0,7.6 0,1.45 0,2.9 0,4.34 -2.9,0 -5.79,0 -8.69,0 0,-3.98 0,-7.96 0,-11.94 z"
   id="path68" />
	<path
   class="st1"
   d="m 155.16,112.45 c 2.9,0 5.79,0 8.69,0 0,3.98 0,7.96 0,11.95 -2.9,0 -5.79,0 -8.69,0 0,-1.09 0,-2.17 0,-3.26 0,-2.9 0,-5.79 0,-8.69 z"
   id="path69" />
	<path
   class="st5"
   d="m 111.72,178.7 c 3.38,0.74 6.49,-0.98 9.77,-1.09 0,2.17 0,4.34 0,6.52 0,1.81 0,3.62 0,5.43 -3.29,-0.1 -6.39,-1.82 -9.77,-1.09 0,-3.26 0,-6.51 0,-9.77 z"
   id="path70" />
	<path
   class="st23"
   d="m 111.72,34.26 c 0,-5.07 0,-10.14 0,-15.2 2.53,2.17 5.07,4.34 7.6,6.52 0.36,0.72 0.72,1.45 1.09,2.17 0,2.17 0,4.34 0,6.52 -2.9,-0.01 -5.79,-0.01 -8.69,-0.01 z"
   id="path71" />
	<path
   class="st19"
   d="m 211.63,177.61 c 2.9,0 5.79,0 8.69,0 0,3.19 0,6.38 0,9.06 1.02,0.85 1.6,1.32 2.17,1.8 -3.26,0 -6.52,0 -9.77,0 -0.36,0 -0.72,0 -1.09,0 0,-3.62 0,-7.24 0,-10.86 z"
   id="path72" />
	<path
   class="st20"
   d="m 154.08,149.38 c 3.26,0 6.52,0 9.77,0 0,3.26 0,6.52 0,9.77 -3.26,0 -6.52,0 -9.77,0 0,-2.9 0,-5.79 0,-8.69 0,-0.36 0,-0.72 0,-1.08 z"
   id="path73" />
	<path
   class="st16"
   d="m 154.08,159.15 c 3.26,0 6.52,0 9.77,0 0,3.26 0,6.52 0,9.77 -3.26,0 -6.52,0 -9.77,0 0,-2.17 0,-4.34 0,-6.52 0,-1.08 0,-2.16 0,-3.25 z"
   id="path74" />
	<path
   class="st14"
   d="m 168.19,187.39 c -1.09,0 -2.17,0 -3.26,0 -3.26,0 -6.52,0 -9.77,0 0,-0.72 0,-1.45 0,-2.17 2.29,0.48 3.56,-1.41 4.17,-2.75 1.03,-2.25 2.62,-3.61 4.52,-4.85 1.45,0 2.9,0 4.34,0 0,3.25 0,6.51 0,9.77 z"
   id="path75" />
	<path
   class="st3"
   d="m 222.49,188.47 c -0.58,-0.48 -1.15,-0.96 -2.17,-1.8 0,-2.68 0,-5.87 0,-9.06 3.89,0 7.79,-0.04 11.68,0.05 0.46,0.01 0.9,0.68 1.36,1.04 -2.17,2.17 -4.34,4.34 -6.52,6.52 -1.71,0.43 -2.35,1.57 -2.17,3.26 -0.73,-0.01 -1.45,-0.01 -2.18,-0.01 z"
   id="path76" />
	<path
   class="st11"
   d="m 154.08,36.43 c 3.26,0 6.52,0 9.77,0 0,2.9 0,5.79 0,8.69 -3.17,0 -6.34,0 -9.77,0 0,-3.07 0,-5.88 0,-8.69 z"
   id="path77" />
	<path
   class="st26"
   d="m 111.72,34.26 c 2.9,0 5.79,0 8.69,0 0,0.36 0,0.72 0,1.09 0,2.9 0,5.79 0,8.69 -2.9,0 -5.79,0 -8.69,0 0,-3.26 0,-6.52 0,-9.78 z"
   id="path78" />
	<path
   class="st18"
   d="m 211.63,177.61 c 0,3.62 0,7.24 0,10.86 -2.53,0 -5.07,0 -7.6,0 0,-3.62 0,-7.24 0,-10.86 2.54,0 5.07,0 7.6,0 z"
   id="path79" />
	<path
   class="st2"
   d="m 204.03,177.61 c 0,3.62 0,7.24 0,10.86 -1.45,0 -2.9,0 -4.34,0 -1.09,0 -2.17,0 -3.26,0 0,-3.62 0,-7.24 0,-10.86 2.53,0 5.07,0 7.6,0 z"
   id="path80" />
	<path
   class="st6"
   d="m 188.83,177.61 c 0,3.17 0,6.33 0,9.77 -2.7,0 -5.15,0 -7.6,0 0,-3.26 0,-6.52 0,-9.77 2.53,0 5.06,0 7.6,0 z"
   id="path81" />
	<path
   class="st16"
   d="m 83.49,27.74 c 1.81,0 3.62,0 5.43,0 0,4.34 0,8.69 0,13.03 -1.81,0 -3.62,0 -5.43,0 0,-4.34 0,-8.68 0,-13.03 z"
   id="path82" />
	<path
   class="st7"
   d="m 83.49,27.74 c 0,4.34 0,8.69 0,13.03 -1.81,0 -3.62,0 -5.43,0 0,-4.34 0,-8.69 0,-13.03 1.81,0 3.62,0 5.43,0 z"
   id="path83" />
	<path
   class="st5"
   d="m 181.23,177.61 c 0,3.26 0,6.52 0,9.77 -2.17,0 -4.34,0 -6.52,0 0,-3.26 0,-6.52 0,-9.77 2.17,0 4.34,0 6.52,0 z"
   id="path84" />
	<path
   class="st11"
   d="m 174.71,177.61 c 0,3.26 0,6.52 0,9.77 -2.17,0 -4.34,0 -6.52,0 0,-3.26 0,-6.52 0,-9.77 2.18,0 4.35,0 6.52,0 z"
   id="path85" />
	<path
   class="st2"
   d="m 223.58,241.68 c 0,1.81 0,3.62 0,5.43 -4.01,-0.04 -8.07,0.41 -11.95,-1.09 0,-1.45 0,-2.9 0,-4.34 3.99,0 7.97,0 11.95,0 z"
   id="path86" />
	<path
   class="st27"
   d="m 106.29,40.78 c 0,-4.34 0,-8.69 0,-13.03 1.38,0 2.76,0 4.34,0 0,4.56 0,8.8 0,13.03 -1.44,0 -2.89,0 -4.34,0 z"
   id="path87" />
	<path
   class="st26"
   d="m 96.52,27.74 c 0,4.34 0,8.69 0,13.03 -0.36,0 -0.72,0 -1.09,0 -1.09,0 -2.17,0 -3.26,0 0,-4.34 0,-8.69 0,-13.03 1.45,0 2.9,0 4.35,0 z"
   id="path88" />
	<path
   class="st4"
   d="m 67.2,40.78 c -1.45,-1.45 -2.9,-2.9 -4.34,-4.34 0.36,-0.44 1.02,-0.88 1.04,-1.34 0.1,-2.45 0.05,-4.9 0.05,-7.35 1.45,0 2.9,0 4.34,0 0,4.34 0,8.69 0,13.03 -0.37,0 -0.73,0 -1.09,0 z"
   id="path89" />
	<path
   class="st18"
   d="m 211.63,246.03 c 3.88,1.5 7.93,1.05 11.95,1.09 0,1.45 0,2.9 0,4.34 -3.98,0 -7.96,0 -11.95,0 0,-1.81 0,-3.62 0,-5.43 z"
   id="path90" />
	<path
   class="st10"
   d="m 130.18,17.97 c 1.81,0 3.62,0 5.43,0 0,3.26 0,6.52 0,9.77 -1.81,0 -3.62,0 -5.43,0 0,-3.25 0,-6.51 0,-9.77 z"
   id="path91" />
	<path
   class="st15"
   d="m 143.22,17.97 c 1.81,0 3.62,0 5.43,0 0,3.26 0,6.52 0,9.77 -1.45,0 -2.9,0 -4.34,0 -0.36,0 -0.72,0 -1.09,0 0,-3.25 0,-6.51 0,-9.77 z"
   id="path92" />
	<path
   class="st2"
   d="m 130.18,17.97 c 0,3.26 0,6.52 0,9.77 -1.81,0 -3.62,0 -5.43,0 0,-3.26 0,-6.52 0,-9.77 1.81,0 3.62,0 5.43,0 z"
   id="path93" />
	<path
   class="st25"
   d="m 162.76,17.97 c -1.64,1.82 -3.28,3.63 -4.91,5.46 -1.27,1.43 -2.52,2.88 -3.78,4.32 -0.36,0 -0.72,0 -1.09,0 0,-3.26 0,-6.52 0,-9.77 3.27,-0.01 6.53,-0.01 9.78,-0.01 z"
   id="path94" />
	<path
   class="st4"
   d="m 124.75,17.97 c 0,3.26 0,6.52 0,9.77 -1.45,0 -2.9,0 -4.34,0 -0.36,-0.72 -0.72,-1.45 -1.09,-2.17 0,-2.53 0,-5.07 0,-7.6 1.81,0 3.62,0 5.43,0 z"
   id="path95" />
	<path
   class="st9"
   d="m 211.63,228.65 c 3.98,0 7.96,0 11.95,0 0,1.45 0,2.9 0,4.34 -3.98,0 -7.96,0 -11.95,0 0,-1.44 0,-2.89 0,-4.34 z"
   id="path96" />
	<path
   class="st6"
   d="m 211.63,233 c 3.98,0 7.96,0 11.95,0 0,1.45 0,2.9 0,4.34 -3.98,0 -7.96,0 -11.95,0 0,-0.72 0,-1.45 0,-2.17 0,-0.72 0,-1.45 0,-2.17 z"
   id="path97" />
	<path
   class="st19"
   d="m 211.63,251.46 c 3.98,0 7.96,0 11.95,0 0,1.45 0,2.9 0,4.34 -3.98,0 -7.96,0 -11.95,0 0,-1.45 0,-2.89 0,-4.34 z"
   id="path98" />
	<path
   class="st22"
   d="m 211.63,237.34 c 3.98,0 7.96,0 11.95,0 0,1.45 0,2.9 0,4.34 -3.98,0 -7.96,0 -11.95,0 0,-1.44 0,-2.89 0,-4.34 z"
   id="path99" />
	<path
   class="st6"
   d="m 224.67,188.47 c -0.17,-1.69 0.46,-2.83 2.17,-3.26 0.12,0.3 0.18,0.81 0.35,0.85 2.04,0.48 4.11,0.89 6.16,1.32 0,1.45 0,2.9 0,4.34 -2.9,0.36 -5.79,0.72 -8.69,1.09 0.01,-1.44 0.01,-2.89 0.01,-4.34 z"
   id="path100" />
	<path
   class="st3"
   d="m 211.63,255.8 c 3.98,0 7.96,0 11.95,0 0,1.45 0,2.9 0,4.34 -2.09,0 -4.19,-0.06 -6.27,0.05 -0.46,0.02 -0.89,0.67 -1.33,1.04 -1.45,-1.45 -2.9,-2.9 -4.34,-4.34 -0.01,-0.36 -0.01,-0.73 -0.01,-1.09 z"
   id="path101" />
	<path
   class="st9"
   d="m 63.94,27.74 c 0,2.45 0.06,4.91 -0.05,7.35 -0.02,0.46 -0.67,0.89 -1.04,1.34 -1.08,-0.89 -2.69,-1.59 -3.11,-2.73 -0.88,-2.34 -2.59,-3.63 -4.49,-4.88 0.44,-0.36 0.88,-1.02 1.34,-1.04 2.44,-0.09 4.9,-0.04 7.35,-0.04 z"
   id="path102" />
	<path
   class="st18"
   d="m 78.06,27.74 c 0,4.34 0,8.69 0,13.03 -1.09,0 -2.17,0 -3.26,0 -0.09,-4.37 0.53,-8.79 -1.09,-13.03 1.45,0 2.9,0 4.35,0 z"
   id="path103" />
	<path
   class="st3"
   d="m 135.61,27.74 c 0,-3.26 0,-6.52 0,-9.77 1.45,0 2.9,0 4.34,0 0,3.26 0,6.52 0,9.77 -1.44,0 -2.89,0 -4.34,0 z"
   id="path104" />
	<path
   class="st28"
   d="m 92.17,27.74 c 0,4.34 0,8.69 0,13.03 -1.09,0 -2.17,0 -3.26,0 0,-4.34 0,-8.69 0,-13.03 1.09,0 2.18,0 3.26,0 z"
   id="path105" />
	<path
   class="st12"
   d="m 68.28,40.78 c 0,-4.34 0,-8.69 0,-13.03 1.09,0 2.17,0 3.26,0 0,4.34 0,8.69 0,13.03 -1.09,0 -2.17,0 -3.26,0 z"
   id="path106" />
	<path
   class="st23"
   d="m 152.99,17.97 c 0,3.26 0,6.52 0,9.77 -1.45,0 -2.9,0 -4.34,0 0,-3.26 0,-6.52 0,-9.77 1.44,0 2.89,0 4.34,0 z"
   id="path107" />
	<path
   class="st16"
   d="m 233.35,222.14 c -2.53,-2.53 -5.07,-5.07 -7.6,-7.6 0.44,-0.36 0.87,-1.01 1.33,-1.04 2.09,-0.11 4.18,-0.05 6.27,-0.05 0,2.9 0,5.79 0,8.69 z"
   id="path108" />
	<path
   class="st16"
   d="m 215.98,261.23 c 0.44,-0.36 0.87,-1.01 1.33,-1.04 2.09,-0.11 4.18,-0.05 6.27,-0.05 0,2.9 0,5.79 0,8.69 -2.53,-2.53 -5.07,-5.06 -7.6,-7.6 z"
   id="path109" />
	<path
   class="st21"
   d="m 71.54,40.78 c 0,-4.34 0,-8.69 0,-13.03 0.72,0 1.45,0 2.17,0 1.62,4.24 0.99,8.67 1.09,13.03 -1.09,0 -2.17,0 -3.26,0 z"
   id="path110" />
	<path
   class="st3"
   d="m 233.35,213.45 c -2.09,0 -4.19,-0.06 -6.27,0.05 -0.46,0.02 -0.89,0.67 -1.33,1.04 -0.36,-0.36 -0.72,-0.72 -1.09,-1.09 0,-1.45 0,-2.9 0,-4.34 2.9,0 5.79,0 8.69,0 0,1.44 0,2.89 0,4.34 z"
   id="path111" />
	<path
   class="st19"
   d="m 233.35,209.11 c -2.9,0 -5.79,0 -8.69,0 0,-1.45 0,-2.9 0,-4.34 2.9,0 5.79,0 8.69,0 0,1.44 0,2.89 0,4.34 z"
   id="path112" />
	<path
   class="st2"
   d="m 233.35,196.07 c 0,1.45 0,2.9 0,4.34 -2.9,0 -5.79,0 -8.69,0 0,-1.45 0,-2.9 0,-4.34 2.9,0 5.8,0 8.69,0 z"
   id="path113" />
	<path
   class="st18"
   d="m 224.67,200.42 c 2.9,0 5.79,0 8.69,0 0,1.45 0,2.9 0,4.34 -2.9,0 -5.79,0 -8.69,0 0,-1.45 0,-2.89 0,-4.34 z"
   id="path114" />
	<path
   class="st9"
   d="m 233.35,187.39 c -2.06,-0.43 -4.12,-0.84 -6.16,-1.32 -0.17,-0.04 -0.24,-0.56 -0.35,-0.85 2.17,-2.17 4.34,-4.34 6.52,-6.52 -0.01,2.89 -0.01,5.79 -0.01,8.69 z"
   id="path115" />
	<path
   class="st9"
   d="m 119.32,17.97 c 0,2.53 0,5.07 0,7.6 -2.53,-2.17 -5.07,-4.34 -7.6,-6.52 0.44,-0.36 0.87,-1.01 1.33,-1.04 2.09,-0.1 4.18,-0.04 6.27,-0.04 z"
   id="path116" />
	<path
   class="st8"
   d="m 233.35,196.07 c -2.9,0 -5.79,0 -8.69,0 0,-1.09 0,-2.17 0,-3.26 2.9,-0.36 5.79,-0.72 8.69,-1.09 0,1.46 0,2.91 0,4.35 z"
   id="path117" />
	<path
   class="st16"
   d="m 139.96,27.74 c 0,-3.26 0,-6.52 0,-9.77 1.09,0 2.17,0 3.26,0 0,3.26 0,6.52 0,9.77 -1.09,0 -2.18,0 -3.26,0 z"
   id="path118" />
	<path
   class="st20"
   d="m 121.5,224.31 c 1.11,-0.36 2.19,-0.95 3.32,-1.04 2.14,-0.17 4.3,-0.05 6.45,-0.05 2.53,0 5.07,0 7.6,0 0.36,0.36 0.72,0.72 1.09,1.09 0,0.9 0,1.81 0,2.05 -3.88,3.35 -7.33,6.54 -11.02,9.44 -3.77,2.97 -7.55,6.06 -11.72,8.36 -4.27,2.35 -6.37,7.11 -10.93,8.93 0,0.9 0,1.81 0,2.71 -6.52,0 -13.03,0 -19.55,0 0.25,-0.8 0.27,-2.04 0.79,-2.32 6.48,-3.41 10.93,-9.38 17.16,-13.23 5.74,-3.55 10.46,-8.74 15.67,-13.15 0.94,-0.79 1.31,-1.64 1.14,-2.79 z"
   id="path119" />
	<path
   class="st0"
   d="m 86.74,255.8 c 6.52,0 13.03,0 19.55,0 6.15,0 12.31,0 18.46,0 0,0.36 0,0.72 0,1.09 -3.62,0 -7.24,0 -10.86,0 -3.98,0 -7.96,0 -11.95,0 -4.34,0 -8.69,0 -13.03,0 -4.34,0 -8.69,0 -13.03,0 -2.9,0 -5.79,0 -8.69,0 0,-0.36 0,-0.72 0,-1.09 6.52,0 13.04,0 19.55,0 z"
   id="path120" />
	<path
   class="st14"
   d="m 71.54,40.78 c 1.09,0 2.17,0 3.26,0 1.09,0 2.17,0 3.26,0 1.81,0 3.62,0 5.43,0 1.81,0 3.62,0 5.43,0 1.09,0 2.17,0 3.26,0 1.09,0 2.17,0 3.26,0 0,0.72 0,1.43 0,2.67 -2.59,2.22 -5.32,4.85 -8.36,7.05 -2.92,2.11 -5.81,4.22 -8.56,6.56 -3.24,2.75 -6.81,5.1 -10.26,7.59 -0.24,0.17 -0.7,0.02 -1.06,0.02 0,-2.17 0,-4.34 0,-6.52 0,-3.26 0,-6.52 0,-9.77 0,-2.53 0,-5.07 0,-7.6 0.36,0 0.72,0 1.09,0 1.08,0 2.16,0 3.25,0 z"
   id="path121" />
	<path
   class="st2"
   d="m 155.16,112.45 c 0,2.9 0,5.79 0,8.69 -0.54,0 -1.08,0 -1.13,0 -1.29,1.25 -2.24,2.35 -3.38,3.23 -1.33,1.03 -2.99,1.68 -4.2,2.82 -5.96,5.62 -13.11,9.76 -18.91,15.56 -1.63,1.63 -3.64,2.58 -6.05,2.28 0,-3.98 0,-7.96 0,-11.95 0.79,-0.25 1.77,-0.28 2.35,-0.78 5.62,-4.88 11.81,-9.02 17.47,-13.86 2.82,-2.41 5.5,-5.17 8.85,-7.02 1.62,-0.89 2.95,-2.32 4.99,-2.23 0.01,1.09 0.01,2.18 0.01,3.26 z"
   id="path122" />
	<path
   class="st6"
   d="m 121.5,133.09 c 0,3.98 0,7.96 0,11.95 0,4.71 0,9.41 0,14.12 0,1.09 0,2.17 0,3.26 -0.36,0 -0.72,0 -1.09,0 0,-3.62 0,-7.24 0,-10.86 0,-5.43 0,-10.86 0,-16.29 0,-3.62 0,-7.24 0,-10.86 0.36,0 0.72,0 1.09,0 0,2.88 0,5.78 0,8.68 z"
   id="path123" />
	<path
   class="st11"
   d="m 148.65,27.74 c 1.45,0 2.9,0 4.34,0 0.36,0 0.72,0 1.09,0 0,2.53 0,5.07 0,7.6 -0.54,0 -1.27,-0.23 -1.6,0.03 -4.21,3.39 -8.36,6.87 -12.55,10.3 -2.01,1.65 -3.85,3.86 -6.17,4.71 -2.66,0.97 -3.32,4.05 -6.24,4.67 -1.24,0.26 -2.11,2.29 -2.84,3.15 -1.42,-0.06 -2.12,-0.09 -3.19,-0.14 0,-4.01 0,-7.93 0,-11.86 0.54,0 1.26,0.23 1.6,-0.03 4.95,-3.78 9.86,-7.61 14.76,-11.45 1.92,-1.5 3.86,-2.98 5.64,-4.63 0.53,-0.5 0.55,-1.55 0.81,-2.35 1.45,0 2.9,0 4.35,0 z"
   id="path124" />
	<path
   class="st14"
   d="m 144.3,27.74 c -0.25,0.8 -0.27,1.85 -0.81,2.35 -1.78,1.65 -3.72,3.13 -5.64,4.63 -4.9,3.84 -9.81,7.67 -14.76,11.45 -0.34,0.26 -1.06,0.03 -1.6,0.03 0,-3.17 0.04,-6.34 -0.05,-9.51 -0.01,-0.46 -0.68,-0.9 -1.04,-1.35 0,-0.36 0,-0.72 0,-1.09 0,-2.17 0,-4.34 0,-6.52 1.45,0 2.9,0 4.34,0 1.81,0 3.62,0 5.43,0 1.81,0 3.62,0 5.43,0 1.45,0 2.9,0 4.34,0 1.09,0 2.17,0 3.26,0 0.38,0.01 0.74,0.01 1.1,0.01 z"
   id="path125" />
	<path
   class="st16"
   d="m 124.75,255.8 c -6.15,0 -12.31,0 -18.46,0 0,-0.9 0,-1.81 0,-2.71 4.56,-1.82 6.66,-6.58 10.93,-8.93 4.18,-2.3 7.95,-5.39 11.72,-8.36 3.68,-2.9 7.14,-6.1 11.02,-9.44 0,-0.24 0,-1.15 0,-2.05 2.17,0 4.34,0 6.52,0 0.72,0 1.45,0 2.17,0 1.45,0 2.9,0 4.34,0 2.53,0 5.07,0 7.6,0 0.36,0 0.72,0 1.09,0 0.02,3.21 -2.7,4.71 -4.67,6.08 -4.68,3.26 -8.8,7.25 -13.54,10.33 -4.2,2.72 -6.93,7.36 -11.97,8.88 -1.44,2.13 -4.6,3 -4.58,6.21 -0.72,-0.01 -1.44,-0.01 -2.17,-0.01 z"
   id="path126" />
	<path
   class="st24"
   d="m 126.93,255.8 c -0.02,-3.21 3.14,-4.07 4.58,-6.21 5.04,-1.52 7.77,-6.15 11.97,-8.88 4.74,-3.08 8.86,-7.07 13.54,-10.33 1.97,-1.37 4.68,-2.87 4.67,-6.08 1.81,0 3.62,0 5.43,0 2.17,0 4.34,0 6.52,0 2.17,0 4.34,0 6.52,0 -0.13,0.67 -0.01,1.6 -0.41,1.96 -3.39,3.03 -6.82,6.03 -10.36,8.87 -3.89,3.13 -7.79,6.27 -11.93,9.04 -2.87,1.92 -5.13,4.54 -8.14,6.33 -1.73,1.03 -4.16,2.4 -3.91,5.29 -1.81,0 -3.62,0 -5.43,0 -4.37,0.01 -8.71,0.01 -13.05,0.01 z"
   id="path127" />
	<path
   class="st28"
   d="m 145.39,255.8 c -0.25,-2.88 2.17,-4.26 3.91,-5.29 3.02,-1.79 5.27,-4.41 8.14,-6.33 4.14,-2.77 8.04,-5.92 11.93,-9.04 3.54,-2.85 6.97,-5.85 10.36,-8.87 0.4,-0.36 0.29,-1.29 0.41,-1.96 0.36,0 0.72,0 1.09,0 6.15,0 12.31,0 18.46,0 0.17,1.15 -0.14,2.06 -1.13,2.78 -1.67,1.22 -3.3,2.5 -4.91,3.81 -2.3,1.88 -4.53,3.84 -6.83,5.71 -1.47,1.19 -2.96,2.36 -4.52,3.43 -4.25,2.92 -7.96,6.51 -12.29,9.37 -2.17,1.43 -4.94,3.05 -5.07,6.39 -0.72,0 -1.45,0 -2.17,0 -3.62,0 -7.24,0 -10.86,0 -2.18,0 -4.35,0 -6.52,0 z"
   id="path128" />
	<path
   class="st15"
   d="m 164.94,255.8 c 0.14,-3.34 2.9,-4.96 5.07,-6.39 4.33,-2.85 8.05,-6.45 12.29,-9.37 1.56,-1.07 3.05,-2.24 4.52,-3.43 2.3,-1.87 4.53,-3.83 6.83,-5.71 1.6,-1.31 3.24,-2.59 4.91,-3.81 0.99,-0.72 1.3,-1.63 1.13,-2.78 2.17,0 4.34,0 6.52,0 1.81,0 3.62,0 5.43,0 0,1.45 0,2.9 0,4.34 0,1.44 0,2.9 0,4.34 0,0.72 0,1.45 0,2.17 -1.26,0 -2.52,0 -3.31,0 -1.99,1.41 -3.69,2.59 -5.36,3.79 -1.39,1 -2.9,1.88 -4.1,3.07 -3.36,3.29 -6.83,6.35 -10.88,8.85 -1.57,0.97 -3.87,2.22 -3.5,4.93 -3.26,0 -6.52,0 -9.77,0 -3.25,0 -6.53,0 -9.78,0 z"
   id="path129" />
	<path
   class="st26"
   d="m 184.48,255.8 c -0.37,-2.71 1.93,-3.96 3.5,-4.93 4.05,-2.5 7.52,-5.55 10.88,-8.85 1.21,-1.19 2.72,-2.07 4.1,-3.07 1.67,-1.2 3.37,-2.38 5.36,-3.79 0.79,0 2.05,0 3.31,0 0,0.72 0,1.45 0,2.17 0,1.45 0,2.9 0,4.34 0,1.44 0,2.9 0,4.34 0,1.81 0,3.62 0,5.43 0,1.45 0,2.9 0,4.34 0,0.36 0,0.72 0,1.09 -2.17,0 -4.34,0 -6.52,0 -2.53,0 -5.07,0 -7.6,0 -0.45,-0.36 -0.9,-1.03 -1.36,-1.04 -3.88,-0.06 -7.77,-0.03 -11.67,-0.03 z"
   id="path130" />
	<path
   class="st16"
   d="m 138.87,223.22 c -2.53,0 -5.07,0 -7.6,0 0,-3.26 0,-6.52 0,-9.77 3.98,0 7.96,0 11.95,0 0,3.15 0,6.31 0,9.77 -1.6,0 -2.97,0 -4.35,0 z"
   id="path131" />
	<path
   class="st10"
   d="m 143.22,213.45 c -3.98,0 -7.96,0 -11.95,0 -3.26,0 -6.52,0 -9.77,0 0,-0.36 0,-0.72 0,-1.09 1.09,0 2.17,0 3.26,0 5.07,0 10.14,0 15.2,0 5.79,0 11.58,0 17.38,0 -0.51,2.09 -2.19,0.67 -3.26,1.09 -3.62,0 -7.24,0 -10.86,0 z"
   id="path132" />
	<path
   class="st26"
   d="m 224.67,200.42 c 0,1.45 0,2.9 0,4.34 0,1.45 0,2.9 0,4.34 0,1.44 0,2.9 0,4.34 -1.45,0 -2.9,0 -4.34,0 -1.09,0 -2.17,0 -3.26,0 -0.45,-0.36 -0.9,-1.03 -1.36,-1.04 -4.25,-0.08 -8.51,-0.05 -12.76,-0.05 0.12,-0.66 0,-1.59 0.4,-1.95 2.57,-2.32 4.97,-5.02 7.95,-6.61 3.77,-2.01 6.64,-4.89 9.57,-7.73 1.3,0 2.55,0 3.79,0 0.01,1.46 0.01,2.91 0.01,4.36 z"
   id="path133" />
	<path
   class="st9"
   d="m 211.63,224.31 c -1.81,0 -3.62,0 -5.43,0 0,-0.36 0,-0.72 0,-1.09 0,-3.26 0,-6.52 0,-9.77 2.53,0 5.07,0 7.6,0 0.36,3.26 0.72,6.52 1.09,9.77 -1.07,0.42 -2.75,-1 -3.26,1.09 z"
   id="path134" />
	<path
   class="st11"
   d="m 214.89,223.22 c -0.36,-3.26 -0.72,-6.52 -1.09,-9.77 1.09,0 2.17,0 3.26,0 1.09,0 2.17,0 3.26,0 0,3.16 0,6.32 0,9.77 -1.96,0 -3.69,0 -5.43,0 z"
   id="path135" />
	<path
   class="st3"
   d="m 124.75,212.36 c -1.09,0 -2.17,0 -3.26,0 0,-3.26 0,-6.52 0,-9.77 0,-1.81 0,-3.62 0,-5.43 1.84,0.12 3.27,-0.9 4.58,-1.92 3.83,-2.97 7.57,-6.05 11.32,-9.11 4.03,-3.28 8.01,-6.64 12.09,-9.86 1.3,-1.03 2.74,-2.04 4.58,-1.92 0,3.17 -0.04,6.34 0.05,9.51 0.01,0.46 0.68,0.9 1.04,1.35 0,0.72 0,1.45 0,2.17 -0.53,2.19 -2.87,0.81 -4.21,2.3 -2.48,2.76 -5.7,4.96 -8.91,6.92 -4.42,2.7 -7.4,7.12 -12.23,9.43 -2.19,1.06 -4.92,2.99 -5.05,6.33 z"
   id="path136" />
	<path
   class="st7"
   d="m 154.08,174.35 c -1.84,-0.12 -3.28,0.89 -4.58,1.92 -4.08,3.22 -8.06,6.58 -12.09,9.86 -3.76,3.06 -7.49,6.14 -11.32,9.11 -1.31,1.02 -2.74,2.04 -4.58,1.92 0,-2.53 0,-5.07 0,-7.6 0,-1.81 0,-3.62 0,-5.43 1.85,0.12 3.28,-0.9 4.59,-1.92 7.08,-5.54 14.01,-11.28 21.21,-16.68 1.93,-1.45 3.73,-3.83 6.78,-3.12 0,2.17 0,4.34 0,6.52 -0.01,1.8 -0.01,3.61 -0.01,5.42 z"
   id="path137" />
	<path
   class="st5"
   d="m 120.41,162.41 c 0.36,0 0.72,0 1.09,0 0,1.81 0,3.62 0,5.43 -0.36,-0.36 -0.72,-0.72 -1.09,-1.09 0,-1.45 0,-2.89 0,-4.34 z"
   id="path138" />
	<path
   class="st0"
   d="m 121.5,159.15 c 0,-4.71 0,-9.41 0,-14.12 2.42,0.3 4.42,-0.65 6.05,-2.28 5.8,-5.8 12.96,-9.95 18.91,-15.56 1.21,-1.14 2.87,-1.78 4.2,-2.82 1.13,-0.88 2.09,-1.98 3.38,-3.23 0.05,0 0.59,0 1.13,0 0,1.09 0,2.17 0,3.26 -0.36,1.11 -0.99,2.21 -1.04,3.33 -0.14,3.23 -0.05,6.47 -0.05,9.7 -0.9,0 -1.8,0 -2.69,0 -3.31,2.9 -6.47,5.98 -9.95,8.64 -4.22,3.24 -8.89,5.84 -12.81,9.56 -1.85,1.76 -3.92,4.07 -7.13,3.52 z"
   id="path139" />
	<path
   class="st1"
   d="m 121.5,159.15 c 3.21,0.55 5.28,-1.76 7.13,-3.52 3.92,-3.72 8.59,-6.32 12.81,-9.56 3.48,-2.67 6.64,-5.74 9.95,-8.64 0.89,0 1.79,0 2.69,0 0.23,2.55 -0.44,5.11 0.94,7.66 0.53,0.97 -0.58,2.83 -0.94,4.29 0,0.36 0,0.72 0,1.09 -2.87,0.08 -4.47,2.24 -6.57,3.74 -6.59,4.73 -12.89,9.81 -19.24,14.85 -1.87,1.49 -3.72,3.84 -6.77,3.13 0,-1.45 0,-2.9 0,-4.34 0,-1.81 0,-3.62 0,-5.43 0,-1.1 0,-2.18 0,-3.27 z"
   id="path140" />
	<path
   class="st10"
   d="m 121.5,172.18 c 3.05,0.71 4.9,-1.64 6.77,-3.13 6.35,-5.04 12.65,-10.12 19.24,-14.85 2.09,-1.5 3.7,-3.66 6.57,-3.74 0,2.9 0,5.79 0,8.69 0,1.09 0,2.17 0,3.26 -3.05,-0.71 -4.85,1.67 -6.78,3.12 -7.19,5.4 -14.12,11.14 -21.21,16.68 -1.31,1.02 -2.75,2.04 -4.59,1.92 0,-2.17 0,-4.34 0,-6.52 0,-1.81 0,-3.62 0,-5.43 z"
   id="path141" />
	<path
   class="st16"
   d="m 157.33,212.36 c -5.79,0 -11.58,0 -17.38,0 -0.17,-1.15 0.15,-2.05 1.13,-2.79 4.68,-3.54 9.32,-7.11 13.97,-10.69 3.28,-2.53 6.53,-5.12 9.83,-7.63 0.98,-0.74 1.3,-1.63 1.13,-2.79 6.15,0 12.31,0 18.46,0 0.17,1.15 -0.06,2.19 -1.15,2.76 -6.81,3.58 -11.73,9.61 -18.07,13.81 -2.17,1.43 -4.13,3.21 -6.04,4.98 -0.53,0.5 -0.55,1.55 -0.8,2.34 -0.35,0.01 -0.71,0.01 -1.08,0.01 z"
   id="path142" />
	<path
   class="st20"
   d="m 166.02,188.47 c 0.17,1.15 -0.16,2.04 -1.13,2.79 -3.3,2.51 -6.55,5.1 -9.83,7.63 -4.64,3.58 -9.29,7.15 -13.97,10.69 -0.98,0.74 -1.3,1.63 -1.13,2.79 -5.07,0 -10.14,0 -15.2,0 0.12,-3.34 2.86,-5.27 5.06,-6.33 4.83,-2.32 7.81,-6.73 12.23,-9.43 3.2,-1.96 6.43,-4.16 8.91,-6.92 1.34,-1.49 3.68,-0.11 4.21,-2.3 3.26,0 6.52,0 9.77,0 0.36,0.36 0.72,0.72 1.08,1.08 z"
   id="path143" />
	<path
   class="st24"
   d="m 158.42,212.36 c 0.25,-0.8 0.27,-1.85 0.8,-2.34 1.91,-1.77 3.87,-3.55 6.04,-4.98 6.34,-4.19 11.27,-10.23 18.07,-13.81 1.09,-0.57 1.32,-1.61 1.15,-2.76 3.98,0 7.96,0 11.95,0 1.09,0 2.17,0 3.26,0 0.17,1.15 -0.04,2.24 -1.15,2.75 -5.12,2.38 -8.45,7.16 -13.23,9.87 -3.55,2.01 -5.61,5.68 -9.34,7.44 -1.25,0.59 -2.82,1.79 -2.34,3.83 -2.53,0 -5.07,0 -7.6,0 -2.17,0 -4.34,0 -6.52,0 -0.37,0 -0.73,0 -1.09,0 z"
   id="path144" />
	<path
   class="st15"
   d="m 224.67,196.07 c -1.25,0 -2.5,0 -3.79,0 -2.94,2.85 -5.8,5.72 -9.57,7.73 -2.98,1.59 -5.39,4.3 -7.95,6.61 -0.4,0.36 -0.28,1.28 -0.4,1.95 -4.71,0 -9.41,0 -14.12,0 -0.36,0 -0.72,0 -1.09,0 -0.39,-2.73 1.99,-3.81 3.52,-4.96 2.73,-2.07 5.65,-3.87 8.25,-6.17 2.83,-2.5 6.2,-4.41 8.93,-7.01 1.69,-1.6 4.48,-2.66 4.28,-5.75 3.26,0 6.52,0 9.77,0 0.72,0 1.45,0 2.17,0 0,1.45 0,2.9 0,4.34 0,1.09 0,2.18 0,3.26 z"
   id="path145" />
	<path
   class="st28"
   d="m 212.72,188.47 c 0.2,3.1 -2.59,4.15 -4.28,5.75 -2.73,2.59 -6.1,4.51 -8.93,7.01 -2.6,2.3 -5.52,4.1 -8.25,6.17 -1.52,1.16 -3.91,2.23 -3.52,4.96 -2.17,0 -4.34,0 -6.52,0 -2.53,0 -5.07,0 -7.6,0 -0.49,-2.04 1.09,-3.23 2.34,-3.83 3.73,-1.77 5.79,-5.43 9.34,-7.44 4.79,-2.71 8.12,-7.49 13.23,-9.87 1.11,-0.52 1.32,-1.6 1.15,-2.75 1.45,0 2.9,0 4.34,0 2.53,0 5.07,0 7.6,0 0.38,0 0.74,0 1.1,0 z"
   id="path146" />
	<path
   class="st3"
   d="m 143.22,213.45 c 3.62,0 7.24,0 10.86,0 0,1.8 0.14,3.6 -0.04,5.38 -0.19,1.84 -0.68,3.65 -1.05,5.48 -1.45,0 -2.9,0 -4.34,0 -0.27,-0.36 -0.55,-0.72 -0.82,-1.09 -0.45,0.36 -0.9,0.72 -1.35,1.09 -2.17,0 -4.34,0 -6.52,0 -0.36,-0.36 -0.72,-0.72 -1.09,-1.09 1.37,0 2.75,0 4.34,0 0.01,-3.46 0.01,-6.62 0.01,-9.77 z"
   id="path147" />
	<path
   class="st10"
   d="m 159.51,212.36 c 2.17,0 4.34,0 6.52,0 0,0.35 0.14,0.8 -0.02,1.05 -1.94,2.95 -1.14,5.74 0.36,8.55 0.38,0.71 0.51,1.56 0.75,2.35 -1.81,0 -3.62,0 -5.43,0 -0.36,0 -0.72,0 -1.09,0 -0.36,-1.47 -0.88,-2.92 -1.04,-4.41 -0.18,-1.6 -0.04,-3.23 -0.04,-4.85 -0.01,-0.89 -0.01,-1.79 -0.01,-2.69 z"
   id="path148" />
	<path
   class="st7"
   d="m 159.51,212.36 c 0,0.9 0,1.8 0,2.69 0,1.62 -0.14,3.25 0.04,4.85 0.17,1.49 0.68,2.94 1.04,4.41 -2.53,0 -5.07,0 -7.6,0 0.36,-1.82 0.86,-3.64 1.05,-5.48 0.18,-1.78 0.04,-3.59 0.04,-5.38 1.07,-0.41 2.75,1.01 3.26,-1.09 0.36,0 0.72,0 1.09,0 0.35,0 0.71,0 1.08,0 z"
   id="path149" />
	<path
   class="st7"
   d="m 146.47,224.31 c 0.45,-0.36 0.9,-0.72 1.35,-1.09 0.27,0.36 0.55,0.72 0.82,1.09 -0.72,0 -1.44,0 -2.17,0 z"
   id="path150" />
	<path
   class="st18"
   d="m 167.11,224.31 c -0.24,-0.79 -0.37,-1.63 -0.75,-2.35 -1.5,-2.81 -2.3,-5.6 -0.36,-8.55 0.16,-0.25 0.02,-0.69 0.02,-1.05 2.53,0 5.07,0 7.6,0 0,3.98 0,7.96 0,11.95 -2.17,0 -4.34,0 -6.51,0 z"
   id="path151" />
	<path
   class="st21"
   d="m 173.62,224.31 c 0,-3.98 0,-7.96 0,-11.95 2.53,0 5.07,0 7.6,0 0,3.98 0,7.96 0,11.95 -0.36,0 -0.72,0 -1.09,0 -2.16,0 -4.33,0 -6.51,0 z"
   id="path152" />
	<path
   class="st12"
   d="m 181.23,224.31 c 0,-3.98 0,-7.96 0,-11.95 2.17,0 4.34,0 6.52,0 0.36,0 0.72,0 1.09,0 0.27,3.67 -0.98,7.59 1.75,10.86 2.34,0 4.64,0 6.94,0 2.9,0 5.79,0 8.69,0 0,0.36 0,0.72 0,1.09 -2.17,0 -4.34,0 -6.52,0 -6.17,0 -12.32,0 -18.47,0 z"
   id="path153" />
	<path
   class="st22"
   d="m 197.52,223.22 c -2.3,0 -4.6,0 -6.94,0 -2.72,-3.27 -1.48,-7.19 -1.75,-10.86 4.71,0 9.41,0 14.12,0 4.25,0 8.51,-0.03 12.76,0.05 0.46,0.01 0.91,0.68 1.36,1.04 -1.09,0 -2.17,0 -3.26,0 -2.53,0 -5.07,0 -7.6,0 -2.81,0 -5.62,0 -8.69,0 0,3.44 0,6.61 0,9.77 z"
   id="path154" />
	<path
   class="st6"
   d="m 197.52,223.22 c 0,-3.17 0,-6.34 0,-9.77 3.07,0 5.88,0 8.69,0 0,3.26 0,6.52 0,9.77 -2.9,0 -5.8,0 -8.69,0 z"
   id="path155" />
</g>
</svg>
