<?xml version="1.0" encoding="utf-8"?>
<!-- Generator: Adobe Illustrator 28.3.0, SVG Export Plug-In . SVG Version: 6.00 Build 0)  -->
<svg version="1.1" id="Calque_1" xmlns="http://www.w3.org/2000/svg" xmlns:xlink="http://www.w3.org/1999/xlink" x="0px" y="0px"
	 viewBox="0 0 288 288" style="enable-background:new 0 0 288 288;" xml:space="preserve">
<style type="text/css">
	.st0{fill:#FFFFFF;}
	.st1{fill:#239854;}
	.st2{fill:#71B52B;}
</style>
<g>
	<path class="st0" d="M241.97,146.69c-1.14,2.89-2.04,5.78-4.06,8.1c-0.49,0.57-0.94,1.21-1.53,1.65c-1.53,1.14-2.95,0.68-3.51-1.13
		c-0.26-0.84-0.35-1.75-0.42-2.63c-0.07-0.82-0.01-1.64-0.31-2.57c-0.75,1.85-1.42,3.73-2.25,5.54c-1,2.18-1.49,4.47-4.98,4.62
		c-3.19,0.14-6.31,1.73-9.45,2.7c-2.43,0.75-2.47,0.74-2.45-1.89c0.02-3.16-0.04-6.32,0.15-9.47c0.09-1.55-0.45-1.78-1.83-1.76
		c-5.78,0.07-11.56-0.01-17.34,0.06c-1.34,0.02-1.78-0.32-1.73-1.71c0.11-3.29,0.12-6.59,0-9.88c-0.06-1.47,0.53-1.63,1.77-1.62
		c6.12,0.05,12.25-0.07,18.37,0.08c2.09,0.05,3.36-0.55,4.02-2.78c-4.43,0-8.8-0.03-13.16,0.01c-2.17,0.02-4.27-0.19-6.13-1.4
		c-3.02-1.96-4.79-4.66-4.82-8.35c-0.02-2.27-0.05-4.53,0.01-6.8c0.14-5.31,4.29-9.53,9.61-9.58c9.22-0.08,18.44,0.01,27.66-0.06
		c1.36-0.01,1.57,0.47,1.54,1.66c-0.08,3.16-0.11,6.32,0.01,9.47c0.06,1.58-0.33,2.11-2.02,2.08c-7.29-0.1-14.59-0.06-21.88-0.02
		c-0.61,0-1.63-0.54-1.71,0.78c-0.07,1.08-0.15,1.91,1.51,1.86c4.47-0.14,8.94-0.05,13.42-0.05c6.37,0.01,10.6,4.2,10.65,10.55
		c0.02,2.2-0.04,4.39-0.05,6.59c0,0.49-0.55,1.16,0.16,1.44c0.45,0.18,1.13,0.17,1.54-0.27c0.51-0.56,1.1-0.95,1.8-0.58
		c0.83,0.44,0.3,1.23,0.24,1.85c-0.32,3.43-0.38,6.85-0.17,10.28c0.04,0.57-0.01,1.41,0.69,1.57c0.66,0.15,1.04-0.54,1.39-1.04
		c2.28-3.26,3.37-7.02,4.36-10.79c0.19-0.72-0.21-1.61-0.4-2.4c-0.22-0.9-0.43-1.81,0.57-2.36c0.99-0.55,2.06-0.39,2.95,0.17
		c1.29,0.81,1.24,4-0.16,4.6c-0.97,0.42-0.59,0.8-0.46,1.34c0.6,2.53,1.55,4.98,1.76,7.59c0.09,1.1,0.12,2.2-0.46,3.21
		c-0.54,0.93-1.36,1.31-2.41,1.27c-0.94-0.03-1.49-0.61-1.93-1.35c-0.37-0.62-0.35-1.22,0.31-1.59c0.62-0.35,1.22-0.28,1.46,0.53
		c0.14,0.47,0.2,1.05,0.88,0.81c0.53-0.19,0.52-0.78,0.52-1.25C243.66,151.32,243.01,148.98,241.97,146.69z M220.06,132.71
		c-1.53,0.76-1.46,2.05-1.39,3.36c0.03,0.71,0.01,1.52-0.99,1.43c-1.39-0.12-1.56,0.82-1.73,1.78c-0.27,1.48-0.46,2.97-0.45,4.49
		c0.03,5.65,0.01,5.67,5.71,5.3c2.02-0.13,4.16-0.45,5.44-2.1c2.12-2.72,4.41-5.46,3.69-9.38c-0.21-1.13-0.02-2.33-0.04-3.49
		c-0.09-5.79-3.98-9.65-9.77-9.67c-4.68-0.01-9.36,0.01-14.04-0.02c-0.57,0-1.5,0.31-1.64-0.4c-0.21-1.12-0.27-2.37,0.03-3.45
		c0.23-0.82,1.34-0.39,2.04-0.39c7.09-0.03,14.17-0.08,21.26,0.02c1.76,0.02,2.24-0.54,2.16-2.22c-0.13-2.53-0.08-5.08-0.01-7.62
		c0.03-1.17-0.21-1.73-1.56-1.72c-8.94,0.06-17.89-0.03-26.83,0.06c-4.92,0.05-8.67,3.9-8.81,8.8c-0.06,1.99-0.03,3.98-0.01,5.97
		c0.03,6.01,3.73,9.78,9.81,9.68C208.56,133.05,214.24,133.77,220.06,132.71z M203.09,149.09c2.75,0,5.49-0.05,8.23,0.02
		c1.24,0.03,1.8-0.21,1.86-1.65c0.12-2.86,0.16-5.75,1.01-8.54c0.43-1.41-0.44-1.4-1.42-1.4c-5.97,0.01-11.94,0.04-17.91-0.02
		c-1.29-0.01-1.84,0.29-1.79,1.7c0.1,2.74,0.1,5.48,0,8.21c-0.05,1.42,0.5,1.73,1.79,1.7C197.59,149.04,200.34,149.09,203.09,149.09
		z M226.08,148.59c-3.1,1.54-6.13,1.33-9.12,1.26c-1.15-0.03-1.54,0.28-1.51,1.47c0.07,2.74,0.04,5.49-0.03,8.24
		c-0.02,0.99,0.19,1.38,1.25,1.08c2.31-0.65,4.64-1.22,6.96-1.85c0.35-0.09,0.84-0.03,0.82-0.67
		C224.36,154.96,225.21,151.93,226.08,148.59z M232.36,144.29c-3.76,1.8-6.37,8.4-4.92,12.28
		C229.21,152.52,230.89,148.52,232.36,144.29z"/>
	<path class="st1" d="M76.72,150.81c-0.16-0.01-0.32-0.02-0.48-0.03c-0.5-0.47-1.04-0.75-1.78-0.81c-2.4-0.19-4.79-0.46-7.17-0.78
		c-1.02-0.14-1.65,0.16-2.22,1.02c-1.49,2.27-3.07,4.47-4.8,6.96c-0.79-2.82-0.1-5.43-1.02-8.07c-8.88,6.55-17.69,13.04-26.49,19.54
		c-0.15-0.19-0.29-0.38-0.44-0.56c2.14-1.91,4.27-3.83,6.41-5.73c5.65-5.02,11.29-10.05,16.99-15.02c1.07-0.93,1.09-1.48-0.09-2.29
		c-1.5-1.05-2.9-2.25-4.34-3.39c2.14,0.06,4.14,0.37,6.12,0.8c1.29,0.28,1.77-0.05,1.59-1.41c-0.39-2.92-0.71-5.85-1.04-8.78
		c-0.51-4.48-1.01-8.95-1.51-13.43c0.52,0.41,0.75,0.89,0.94,1.38c2.18,5.7,4.36,11.4,6.53,17.1c1.35,3.54,1.34,3.55,4.28,1.31
		c1.2-0.91,2.39-1.85,3.6-2.76c0.71-0.54,1.44-1.05,2.15-1.57c-1.13,2.7-2.44,5.12-4.08,7.28c-1.34,1.76-0.87,2.59,0.83,3.6
		c2.24,1.33,4.33,2.92,6.48,4.4C78.55,150.53,77.44,150.6,76.72,150.81z"/>
	<path class="st0" d="M175.94,134.37c-3.01,5.16-6.02,10.32-9.22,15.82c-3.16-5.42-6.19-10.6-9.22-15.79
		c-0.15,0.02-0.3,0.04-0.44,0.07c0,1.66,0,3.32,0,4.98c0,2.95-0.06,5.9,0.03,8.85c0.04,1.28-0.38,1.64-1.64,1.6
		c-3.37-0.08-6.74-0.06-10.11-0.01c-1.02,0.02-1.47-0.18-1.47-1.33c0.03-13.17,0.03-26.35,0-39.52c0-1.06,0.42-1.23,1.33-1.21
		c3.51,0.04,7.02,0.07,10.52-0.02c1.13-0.03,1.54,0.55,2,1.37c2.92,5.08,5.89,10.14,8.98,15.46c2.99-5.14,5.89-10.01,8.67-14.95
		c0.75-1.33,1.51-1.98,3.16-1.89c3.15,0.17,6.33,0.09,9.49,0.03c1.1-0.02,1.54,0.19,1.54,1.43c-0.05,13.04-0.04,26.07-0.01,39.11
		c0,1.12-0.24,1.57-1.47,1.54c-3.44-0.08-6.88-0.08-10.31,0c-1.2,0.03-1.5-0.39-1.49-1.54c0.06-4.63,0.02-9.26,0.02-13.89
		C176.18,134.44,176.06,134.41,175.94,134.37z M176.75,131.39c0.12,0.05,0.24,0.1,0.37,0.15c0,5.28,0,10.56,0,15.84
		c0,0.9-0.17,1.78,1.28,1.74c3.02-0.08,6.05-0.06,9.08-0.01c1.04,0.02,1.27-0.44,1.27-1.36c-0.02-12.55-0.03-25.11,0.01-37.66
		c0-1.27-0.57-1.46-1.63-1.44c-2.82,0.04-5.64,0.08-8.46-0.01c-1.26-0.04-1.96,0.38-2.59,1.49c-2.76,4.9-5.62,9.74-8.47,14.59
		c-0.25,0.43-0.32,1.08-1.14,1.13c-3.01-5.18-6.04-10.4-9.06-15.62c-0.49-0.84-0.88-1.63-2.12-1.6c-3.02,0.08-6.05,0.05-9.08,0.01
		c-1-0.01-1.51,0.25-1.5,1.38c0.02,12.55,0.02,25.11,0,37.66c0,1.07,0.38,1.44,1.44,1.42c2.82-0.05,5.64-0.07,8.46,0.01
		c1.27,0.03,1.67-0.4,1.65-1.65c-0.06-4.8-0.03-9.6-0.01-14.41c0-0.56-0.28-1.21,0.37-1.8c3.33,5.71,6.62,11.37,10.1,17.33
		C170.17,142.67,173.46,137.03,176.75,131.39z"/>
	<path class="st0" d="M118.36,124.58c2.7-4.65,5.49-9.12,7.93-13.78c1.21-2.31,2.59-3.29,5.24-3.01c2.65,0.28,5.36,0.11,8.04,0.04
		c1.17-0.03,1.66,0.16,1.65,1.53c-0.06,12.97-0.05,25.94-0.01,38.9c0,1.19-0.21,1.7-1.56,1.65c-3.37-0.1-6.74-0.09-10.11,0
		c-1.28,0.03-1.63-0.35-1.61-1.61c0.07-4.59,0.03-9.19-0.33-13.99c-3.06,5.24-6.12,10.48-9.28,15.9
		c-3.12-5.36-6.11-10.48-9.11-15.63c-0.9,0.38-0.54,1.1-0.54,1.61c-0.04,4.05-0.07,8.1,0.01,12.14c0.03,1.3-0.38,1.61-1.63,1.58
		c-3.37-0.09-6.74-0.07-10.11-0.01c-1.14,0.02-1.55-0.29-1.54-1.49c0.04-13.04,0.04-26.07,0-39.11c0-1.21,0.39-1.49,1.52-1.47
		c3.44,0.06,6.88,0.07,10.32-0.01c0.99-0.02,1.38,0.39,1.84,1.17C112.09,114.15,115.18,119.26,118.36,124.58z M118.29,126.3
		c-3.16-5.51-6.13-10.6-9-15.74c-0.74-1.32-1.56-2.03-3.2-1.94c-2.74,0.14-5.5,0.09-8.25,0.02c-1.25-0.03-1.66,0.36-1.65,1.63
		c0.04,12.42,0.04,24.84,0,37.25c0,1.32,0.5,1.63,1.7,1.59c2.34-0.07,4.68,0,7.01-0.02c3.34-0.03,2.92,0.46,2.93-2.97
		c0.02-4.89,0.01-9.79,0.01-14.68c0.14-0.03,0.28-0.07,0.42-0.1c3.3,5.65,6.6,11.31,10.07,17.25c3.45-5.92,6.76-11.61,10.08-17.29
		c0.37,5.49,0.4,10.83,0.35,16.17c-0.01,1.21,0.28,1.7,1.59,1.66c2.82-0.09,5.64-0.07,8.46-0.01c1.09,0.02,1.59-0.2,1.59-1.45
		c-0.04-12.49-0.04-24.97,0-37.46c0-1.35-0.54-1.6-1.71-1.56c-2.27,0.07-4.56,0.23-6.8-0.04c-2.6-0.31-3.91,0.77-5.09,2.96
		C124.17,116.45,121.27,121.18,118.29,126.3z"/>
	<path class="st0" d="M76.72,150.81c0.72-0.21,1.83-0.28,0.45-1.24c-2.15-1.48-4.24-3.07-6.48-4.4c-1.7-1.01-2.17-1.84-0.83-3.6
		c1.65-2.16,2.96-4.58,4.08-7.28c-0.72,0.52-1.45,1.03-2.15,1.57c-1.21,0.91-2.4,1.84-3.6,2.76c-2.94,2.23-2.93,2.23-4.28-1.31
		c-2.17-5.7-4.35-11.4-6.53-17.1c-0.19-0.49-0.42-0.97-0.94-1.38c0.5,4.48,1,8.95,1.51,13.43c0.33,2.93,0.66,5.86,1.04,8.78
		c0.18,1.35-0.29,1.69-1.59,1.41c-1.98-0.43-3.98-0.74-6.12-0.8c1.44,1.14,2.83,2.35,4.34,3.39c1.17,0.82,1.15,1.36,0.09,2.29
		c-5.69,4.97-11.33,10-16.99,15.02c-2.14,1.9-4.28,3.82-6.41,5.73c0.15,0.19,0.29,0.38,0.44,0.56c8.81-6.49,17.61-12.99,26.49-19.54
		c0.92,2.64,0.24,5.25,1.02,8.07c1.73-2.49,3.32-4.7,4.8-6.96c0.57-0.86,1.2-1.16,2.22-1.02c2.38,0.32,4.77,0.59,7.17,0.78
		c0.74,0.06,1.28,0.34,1.78,0.81c-2.69,0.22-5.33-0.29-7.96-0.67c-1.53-0.22-2.36,0.16-3.17,1.44c-1.68,2.66-3.54,5.2-5.63,8.24
		c-0.25-3.27-0.47-6.06-0.72-9.32c-13.57,10.02-26.9,19.86-40.61,29.98c0.13-1.44,0.89-1.75,1.39-2.19
		c11.51-10.22,23.01-20.46,34.6-30.6c1.47-1.29,1.37-1.85-0.14-2.88c-1.97-1.34-3.78-2.92-5.56-4.76c3.17,0.54,6.34,1.08,9.76,1.66
		c-1.09-9.56-2.18-19.03-3.26-28.51c0.19-0.04,0.38-0.08,0.57-0.11c1.41,3.67,2.83,7.34,4.23,11.02c1.76,4.6,3.54,9.2,5.22,13.83
		c0.48,1.32,0.79,1.61,2.02,0.63c3.25-2.62,6.62-5.1,9.95-7.64c0.52,0.74-0.02,1.15-0.28,1.57c-1.68,2.67-3.39,5.32-5.08,7.99
		c-1.9,2.98-1.9,2.98,0.94,4.94c2.63,1.81,5.27,3.62,7.84,5.61C79.1,151.12,77.87,151.64,76.72,150.81z M31.39,169.24
		c0.1-0.06,0.2-0.11,0.3-0.17c-0.1-0.05-0.19-0.15-0.29-0.14c-0.11,0-0.21,0.1-0.31,0.15C31.19,169.14,31.29,169.19,31.39,169.24z"
		/>
	<path class="st0" d="M269.89,137.98c0.58,1.58,0.12,2.95-0.27,4.31c-0.63,2.18-1.48,4.27-2.88,6.1c-0.82,1.08-1.84,1.91-3.33,1.59
		c-1.5-0.32-2.07-1.55-2.35-2.84c-0.25-1.13-0.2-2.32-0.29-3.48c-0.04-0.54,0-1.15-0.79-1.2c-0.84-0.05-0.77,0.64-0.85,1.14
		c-0.35,2.1-0.63,4.2-1.01,6.29c-0.16,0.85,0.06,2.2-1.37,2.06c-1.43-0.14-0.5-1.45-0.88-2.33c-0.93,1.01-1.73,2.07-2.71,2.92
		c-2.45,2.11-5.16,1.56-6.27-1.47c-1.86-5.09-0.87-9.99,1.71-14.61c0.68-1.23,1.94-1.29,3.09-0.79c1.16,0.5,1.22,1.58,0.86,2.65
		c-0.81,2.41-1.88,4.7-3.4,6.76c-1.17,1.59-1.27,5.01-0.23,6.59c0.41,0.62,0.92,0.7,1.59,0.5c0.9-0.27,1.59-0.82,2.16-1.51
		c2.71-3.26,4.88-6.72,4.95-11.19c0.04-2.53,0.56-5.04,0.72-7.57c0.07-1.19,0.68-1.68,1.65-1.56c1.11,0.14,0.67,1.1,0.68,1.82
		c0.03,1.67-0.95,3.26-0.44,4.95c0.21,0,0.4,0.06,0.47-0.01c0.55-0.59,0.73-1.87,1.92-1.33c1.02,0.46,0.71,1.53,0.61,2.39
		c-0.23,1.97-0.55,3.94-0.73,5.92c-0.08,0.87-0.01,1.8,0.19,2.65c0.16,0.69,0.39,1.55,1.32,1.65c0.8,0.08,1.25-0.53,1.63-1.09
		c1.58-2.34,2.85-4.84,3.48-7.61C269.24,139.14,269.13,138.55,269.89,137.98z M250.45,137.66c-1.02,1.44-1.41,2.67-1.54,3.99
		C249.9,140.66,250.32,139.44,250.45,137.66z"/>
	<path class="st0" d="M82.53,134.41c-2.78,2.48-5.58,4.98-8.43,7.54c-0.48-0.96-0.23-1.58,0.34-2.16c2.6-2.65,5.22-5.26,8.06-7.68
		c0.99-0.84,1.69-0.87,2.61,0.06c2.62,2.63,5.28,5.21,7.96,7.78c0.64,0.61,0.73,1.26,0.5,2.39c-2.96-2.74-5.77-5.36-8.9-8.25
		c0,1.58-0.02,2.83,0,4.09c0.09,4.32,0.18,8.64,0.3,12.97c0.03,0.99-0.18,1.97-1.25,2c-1.2,0.04-1.19-1.04-1.19-1.97
		C82.53,145.63,82.53,140.08,82.53,134.41z"/>
	<path class="st0" d="M66.4,165.94c3.58,1.12,7.14,2.25,10.79,3.39c-0.52,1.03-1.31,0.96-2.08,0.77c-3.6-0.87-7.18-1.78-10.7-2.96
		c-1.29-0.43-1.53-1.15-1.23-2.31c0.89-3.52,1.79-7.03,2.62-10.56c0.23-0.99,0.76-1.52,1.87-1.78c-0.86,3.89-1.7,7.66-2.63,11.82
		c4.8-2.93,9.24-5.64,13.68-8.35c0.41-0.25,0.83-0.49,1.23-0.75c0.8-0.51,1.65-0.61,2.12,0.3c0.42,0.83-0.22,1.39-0.93,1.79
		c-4.49,2.52-8.97,5.03-13.45,7.56C67.25,165.13,66.65,165.24,66.4,165.94z"/>
	<path class="st0" d="M90.15,169.4c3.83-1.2,7.41-2.33,11.13-3.5c-1.32-1.21-2.85-1.81-4.25-2.62c-3.44-1.99-6.91-3.91-10.38-5.85
		c-0.81-0.45-1.74-0.97-1.11-2.01c0.6-0.99,1.53-0.54,2.34-0.04c4.72,2.9,9.45,5.79,14.62,8.95c-0.82-3.69-1.54-6.97-2.27-10.23
		c-0.09-0.41-0.74-0.92-0.08-1.2c0.59-0.25,1.23,0.05,1.41,0.81c0.97,3.91,1.93,7.83,2.88,11.75c0.16,0.65,0.05,1.16-0.72,1.45
		c-3.79,1.43-7.72,2.38-11.65,3.28C91.38,170.33,90.85,170.07,90.15,169.4z"/>
	<path class="st1" d="M220.06,132.71c-5.82,1.06-11.5,0.34-17.15,0.44c-6.08,0.1-9.78-3.67-9.81-9.68
		c-0.01-1.99-0.04-3.98,0.01-5.97c0.14-4.9,3.89-8.75,8.81-8.8c8.94-0.09,17.89-0.01,26.83-0.06c1.36-0.01,1.59,0.55,1.56,1.72
		c-0.07,2.54-0.12,5.08,0.01,7.62c0.09,1.68-0.39,2.25-2.16,2.22c-7.09-0.1-14.17-0.05-21.26-0.02c-0.7,0-1.81-0.43-2.04,0.39
		c-0.3,1.08-0.24,2.33-0.03,3.45c0.13,0.72,1.06,0.4,1.64,0.4c4.68,0.02,9.36,0,14.04,0.02c5.79,0.02,9.69,3.88,9.77,9.67
		c0.02,1.17-0.17,2.37,0.04,3.49c0.72,3.92-1.58,6.66-3.69,9.38c-1.28,1.64-3.41,1.97-5.44,2.1c-5.71,0.37-5.68,0.35-5.71-5.3
		c-0.01-1.52,0.19-3.01,0.45-4.49c0.17-0.96,0.34-1.9,1.73-1.78c1,0.09,1.02-0.72,0.99-1.43
		C218.6,134.76,218.53,133.46,220.06,132.71z M221.92,144.62c-1.01,0.05-1.71,0.57-1.8,1.58c-0.09,1.01,0.47,1.74,1.51,1.84
		c1.12,0.11,1.89-0.53,1.93-1.63C223.59,145.43,222.97,144.77,221.92,144.62z M203.06,111.31c-0.13-0.98-0.61-1.66-1.66-1.71
		c-1.18-0.07-1.81,0.65-1.82,1.72c-0.01,1,0.64,1.62,1.7,1.62C202.34,112.93,202.86,112.3,203.06,111.31z M228.76,111.11
		c-0.15-0.8-0.59-1.52-1.68-1.52c-1.05,0.01-1.68,0.6-1.69,1.65c-0.01,1.05,0.61,1.65,1.66,1.67
		C228.12,112.95,228.67,112.35,228.76,111.11z"/>
	<path class="st1" d="M203.09,149.09c-2.75,0-5.49-0.05-8.23,0.02c-1.29,0.04-1.84-0.28-1.79-1.7c0.11-2.73,0.1-5.48,0-8.21
		c-0.05-1.4,0.5-1.71,1.79-1.7c5.97,0.05,11.94,0.03,17.91,0.02c0.98,0,1.85-0.01,1.42,1.4c-0.84,2.78-0.89,5.68-1.01,8.54
		c-0.06,1.44-0.62,1.68-1.86,1.65C208.58,149.04,205.83,149.09,203.09,149.09z M196.03,144.62c-0.99,0.18-1.64,0.69-1.64,1.74
		c0,1.18,0.73,1.75,1.82,1.68c1-0.07,1.6-0.72,1.53-1.78C197.68,145.22,197.01,144.74,196.03,144.62z"/>
	<path class="st1" d="M176.75,131.39c-3.29,5.64-6.58,11.28-10.04,17.21c-3.48-5.97-6.77-11.62-10.1-17.33
		c-0.65,0.59-0.36,1.24-0.37,1.8c-0.03,4.8-0.05,9.6,0.01,14.41c0.01,1.25-0.39,1.68-1.65,1.65c-2.82-0.08-5.64-0.06-8.46-0.01
		c-1.06,0.02-1.45-0.35-1.44-1.42c0.02-12.55,0.03-25.11,0-37.66c0-1.13,0.5-1.39,1.5-1.38c3.03,0.04,6.05,0.07,9.08-0.01
		c1.24-0.03,1.63,0.76,2.12,1.6c3.02,5.22,6.05,10.43,9.06,15.62c0.81-0.05,0.88-0.7,1.14-1.13c2.84-4.85,5.71-9.69,8.47-14.59
		c0.63-1.11,1.33-1.53,2.59-1.49c2.82,0.09,5.64,0.06,8.46,0.01c1.06-0.02,1.63,0.17,1.63,1.44c-0.04,12.55-0.03,25.11-0.01,37.66
		c0,0.92-0.23,1.38-1.27,1.36c-3.02-0.05-6.05-0.07-9.08,0.01c-1.44,0.04-1.28-0.84-1.28-1.74c0-5.28,0-10.56,0-15.84
		C176.99,131.48,176.87,131.44,176.75,131.39z M186.08,144.62c-1,0.18-1.63,0.7-1.62,1.75c0.01,1.18,0.74,1.75,1.83,1.67
		c1-0.08,1.6-0.73,1.52-1.79C187.73,145.22,187.07,144.72,186.08,144.62z M149.07,146.42c-0.03-1.03-0.57-1.71-1.58-1.76
		c-1.12-0.06-1.79,0.6-1.79,1.74c0,1.05,0.65,1.64,1.67,1.65C148.38,148.05,149,147.49,149.07,146.42z M187.84,111.28
		c-0.11-1.01-0.63-1.66-1.7-1.69c-1.07-0.02-1.67,0.57-1.68,1.64c-0.02,1.06,0.53,1.69,1.62,1.69
		C187.14,112.93,187.7,112.32,187.84,111.28z M149.07,111.31c-0.06-1.01-0.58-1.68-1.63-1.71c-1.05-0.03-1.69,0.57-1.73,1.61
		c-0.04,1.05,0.58,1.66,1.63,1.71C148.41,112.97,148.98,112.39,149.07,111.31z"/>
	<path class="st1" d="M118.29,126.3c2.98-5.12,5.88-9.85,8.5-14.74c1.18-2.19,2.49-3.27,5.09-2.96c2.24,0.26,4.53,0.1,6.8,0.04
		c1.17-0.03,1.71,0.22,1.71,1.56c-0.05,12.49-0.04,24.97,0,37.46c0,1.25-0.5,1.47-1.59,1.45c-2.82-0.06-5.64-0.08-8.46,0.01
		c-1.32,0.04-1.61-0.45-1.59-1.66c0.06-5.34,0.02-10.67-0.35-16.17c-3.31,5.68-6.62,11.37-10.08,17.29
		c-3.47-5.94-6.77-11.6-10.07-17.25c-0.14,0.03-0.28,0.07-0.42,0.1c0,4.89,0.02,9.79-0.01,14.68c-0.02,3.43,0.41,2.94-2.93,2.97
		c-2.34,0.02-4.68-0.05-7.01,0.02c-1.2,0.04-1.7-0.27-1.7-1.59c0.04-12.42,0.04-24.84,0-37.25c0-1.27,0.41-1.66,1.65-1.63
		c2.75,0.07,5.51,0.13,8.25-0.02c1.64-0.09,2.46,0.62,3.2,1.94C112.17,115.7,115.13,120.79,118.29,126.3z M139.54,146.32
		c-0.09-0.88-0.57-1.6-1.59-1.66c-1.12-0.06-1.78,0.58-1.8,1.73c-0.02,1.08,0.64,1.64,1.64,1.66
		C138.81,148.07,139.4,147.47,139.54,146.32z M99.11,148.07c0.93-0.17,1.57-0.74,1.53-1.77c-0.03-1.02-0.68-1.67-1.7-1.65
		c-1.1,0.02-1.79,0.69-1.7,1.84C97.33,147.53,98.02,148.03,99.11,148.07z M100.68,111.25c-0.15-0.99-0.66-1.64-1.71-1.66
		c-1.17-0.02-1.78,0.68-1.73,1.78c0.05,1.01,0.68,1.6,1.75,1.56C100.04,112.88,100.54,112.24,100.68,111.25z M137.7,112.94
		c1.04-0.02,1.73-0.53,1.79-1.58c0.07-1.05-0.54-1.69-1.58-1.77c-1.06-0.08-1.7,0.49-1.76,1.56
		C136.09,112.21,136.61,112.83,137.7,112.94z"/>
	<path class="st2" d="M31.39,169.24c-0.1-0.05-0.2-0.11-0.3-0.16c0.1-0.05,0.21-0.15,0.31-0.15c0.09,0,0.19,0.09,0.29,0.14
		C31.59,169.13,31.49,169.19,31.39,169.24z"/>
	<path class="st0" d="M221.92,144.62c1.06,0.15,1.67,0.8,1.63,1.78c-0.04,1.11-0.81,1.74-1.93,1.63c-1.03-0.1-1.6-0.83-1.51-1.84
		C220.21,145.19,220.91,144.67,221.92,144.62z M221.8,147.27c0.55-0.06,0.94-0.37,0.94-0.9c0-0.51-0.33-0.91-0.9-0.91
		c-0.55,0-0.91,0.32-0.94,0.87C220.88,146.92,221.31,147.14,221.8,147.27z"/>
	<path class="st0" d="M203.06,111.31c-0.2,0.99-0.71,1.63-1.77,1.62c-1.06,0-1.71-0.62-1.7-1.62c0.01-1.07,0.64-1.79,1.82-1.72
		C202.45,109.65,202.93,110.33,203.06,111.31z M202.23,111.29c-0.05-0.54-0.34-0.86-0.89-0.9c-0.57-0.04-0.91,0.31-0.95,0.83
		c-0.04,0.55,0.32,0.88,0.87,0.91C201.79,112.15,202.13,111.86,202.23,111.29z"/>
	<path class="st0" d="M228.76,111.11c-0.09,1.24-0.63,1.84-1.71,1.81c-1.05-0.03-1.67-0.62-1.66-1.67c0.01-1.05,0.64-1.64,1.69-1.65
		C228.17,109.58,228.61,110.31,228.76,111.11z M227.13,110.39c-0.55-0.01-0.89,0.24-0.94,0.8c-0.05,0.56,0.24,0.89,0.79,0.93
		c0.54,0.04,0.91-0.21,0.94-0.78C227.95,110.81,227.7,110.46,227.13,110.39z"/>
	<path class="st0" d="M196.03,144.62c0.98,0.12,1.65,0.6,1.72,1.65c0.07,1.06-0.53,1.71-1.53,1.78c-1.09,0.07-1.82-0.5-1.82-1.68
		C194.39,145.31,195.04,144.8,196.03,144.62z M196.11,145.45c-0.54,0.01-0.88,0.29-0.92,0.84c-0.04,0.56,0.26,0.91,0.81,0.94
		c0.53,0.03,0.9-0.24,0.93-0.82C196.96,145.86,196.68,145.55,196.11,145.45z"/>
	<path class="st0" d="M186.08,144.62c0.99,0.1,1.65,0.6,1.73,1.63c0.08,1.05-0.52,1.71-1.52,1.79c-1.09,0.08-1.82-0.48-1.83-1.67
		C184.45,145.32,185.08,144.8,186.08,144.62z M186.12,147.24c0.53-0.11,0.92-0.32,0.87-0.92c-0.05-0.55-0.35-0.87-0.9-0.86
		c-0.58,0.01-0.83,0.39-0.83,0.92C185.26,146.95,185.6,147.21,186.12,147.24z"/>
	<path class="st0" d="M149.07,146.42c-0.07,1.07-0.69,1.63-1.7,1.63c-1.02,0-1.67-0.6-1.67-1.65c0-1.13,0.67-1.79,1.79-1.74
		C148.5,144.71,149.04,145.39,149.07,146.42z M147.36,145.45c-0.56,0.08-0.86,0.39-0.85,0.95c0.01,0.59,0.39,0.85,0.92,0.84
		c0.55-0.01,0.86-0.37,0.83-0.92C148.22,145.77,147.91,145.46,147.36,145.45z"/>
	<path class="st0" d="M187.84,111.28c-0.14,1.04-0.7,1.64-1.76,1.64c-1.09,0-1.64-0.63-1.62-1.69c0.02-1.07,0.61-1.66,1.68-1.64
		C187.2,109.62,187.73,110.27,187.84,111.28z M186.14,112.13c0.54-0.07,0.89-0.31,0.86-0.89c-0.03-0.56-0.36-0.84-0.91-0.84
		c-0.57,0.01-0.85,0.36-0.84,0.9C185.27,111.84,185.58,112.14,186.14,112.13z"/>
	<path class="st0" d="M149.07,111.31c-0.09,1.08-0.66,1.66-1.73,1.61c-1.05-0.05-1.66-0.66-1.63-1.71c0.04-1.04,0.68-1.65,1.73-1.61
		C148.49,109.63,149.01,110.29,149.07,111.31z M148.26,111.34c-0.02-0.52-0.21-0.91-0.8-0.94c-0.55-0.03-0.9,0.23-0.95,0.79
		c-0.05,0.56,0.25,0.88,0.8,0.93C147.87,112.17,148.19,111.9,148.26,111.34z"/>
	<path class="st0" d="M139.54,146.32c-0.14,1.15-0.73,1.75-1.75,1.73c-1-0.02-1.66-0.58-1.64-1.66c0.02-1.14,0.68-1.79,1.8-1.73
		C138.97,144.72,139.45,145.45,139.54,146.32z M138.7,146.4c-0.02-0.55-0.29-0.9-0.84-0.93c-0.58-0.04-0.88,0.32-0.91,0.85
		c-0.04,0.55,0.28,0.91,0.82,0.93C138.28,147.25,138.67,146.99,138.7,146.4z"/>
	<path class="st0" d="M99.11,148.07c-1.09-0.05-1.78-0.54-1.86-1.58c-0.09-1.15,0.59-1.81,1.7-1.84c1.02-0.02,1.67,0.63,1.7,1.65
		C100.68,147.33,100.04,147.9,99.11,148.07z M99.83,146.19c-0.11-0.46-0.42-0.77-0.99-0.72c-0.59,0.05-0.83,0.46-0.79,0.98
		c0.05,0.54,0.42,0.87,0.98,0.79C99.56,147.16,99.89,146.84,99.83,146.19z"/>
	<path class="st0" d="M100.68,111.25c-0.14,0.99-0.64,1.63-1.69,1.67c-1.07,0.04-1.7-0.55-1.75-1.56c-0.05-1.1,0.57-1.8,1.73-1.78
		C100.02,109.61,100.53,110.26,100.68,111.25z M99.84,111.2c-0.1-0.55-0.42-0.83-0.98-0.81c-0.59,0.03-0.84,0.42-0.81,0.94
		c0.03,0.54,0.39,0.84,0.95,0.79C99.57,112.08,99.84,111.75,99.84,111.2z"/>
	<path class="st0" d="M137.7,112.94c-1.09-0.11-1.6-0.73-1.55-1.78c0.06-1.07,0.7-1.64,1.76-1.56c1.04,0.08,1.65,0.72,1.58,1.77
		C139.42,112.41,138.74,112.92,137.7,112.94z M137.74,112.13c0.53-0.01,0.91-0.22,0.95-0.79c0.04-0.55-0.26-0.88-0.8-0.94
		c-0.57-0.06-0.89,0.25-0.94,0.79C136.9,111.74,137.17,112.07,137.74,112.13z"/>
</g>
</svg>
