<?xml version="1.0" encoding="utf-8"?>
<!-- Generator: Adobe Illustrator 28.3.0, SVG Export Plug-In . SVG Version: 6.00 Build 0)  -->
<svg version="1.1" id="Calque_1" xmlns="http://www.w3.org/2000/svg" xmlns:xlink="http://www.w3.org/1999/xlink" x="0px" y="0px"
	 viewBox="0 0 288 288" style="enable-background:new 0 0 288 288;" xml:space="preserve">
<style type="text/css">
	.st0{fill:#E52F2A;}
	.st1{fill:#FFFFFF;}
	.st2{fill:#7F8080;}
</style>
<g>
	<path class="st0" d="M143.08,136.53h-9.1l1.56-4.35l-5.3,4.35h-8.07l-2.16-4.35l-1.57,4.35h-9.04l4.79-13.23h9.71l4.5,7.25
		l9.72-7.25h9.77L143.08,136.53z M177.56,133.42c-0.32,0.93-0.98,1.7-1.86,2.14c-1.25,0.55-2.6,0.86-3.97,0.91
		c-1.01,0.06-2.43,0.08-4.3,0.08h-12.1c-1.85,0-3.18-0.03-3.99-0.08c-1.73-0.14-2.9-0.45-3.51-0.91c-0.62-0.46-0.74-1.18-0.38-2.16
		l2.48-6.91c0.33-0.95,1.02-1.73,1.93-2.16c1.34-0.54,2.77-0.84,4.21-0.88c1.07-0.08,2.43-0.12,4.06-0.12h12.08
		c1.87,0,3.28,0.04,4.23,0.12c1.63,0.14,2.73,0.45,3.31,0.91c0.58,0.46,0.69,1.18,0.34,2.14L177.56,133.42z M169,132.3l1.72-4.73
		c0.14-0.39-0.06-0.62-0.62-0.78c-0.57-0.09-1.15-0.12-1.73-0.11h-6.83c-0.61-0.01-1.22,0.02-1.82,0.11
		c-0.49,0.04-0.93,0.33-1.14,0.78l-1.72,4.75c-0.14,0.39,0.05,0.65,0.58,0.78c0.57,0.07,1.15,0.1,1.72,0.06h6.87
		c0.61,0.01,1.21-0.02,1.81-0.11C168.33,133.04,168.78,132.75,169,132.3L169,132.3z M208.39,126.63h-8.94l-3.59,9.94h-9.03
		l3.59-9.94h-8.23l1.24-3.4h26.2L208.39,126.63z M237.77,133.42c-0.32,0.94-1,1.7-1.89,2.14c-1.25,0.55-2.6,0.86-3.97,0.91
		c-1,0.06-2.44,0.08-4.3,0.08h-12.07c-1.85,0-3.18-0.03-3.99-0.08c-1.73-0.14-2.91-0.45-3.52-0.91c-0.62-0.46-0.74-1.18-0.38-2.16
		l2.48-6.91c0.32-0.95,1.02-1.74,1.93-2.16c1.34-0.54,2.77-0.84,4.22-0.88c1.08-0.08,2.43-0.12,4.06-0.12h12.08
		c1.87,0,3.28,0.04,4.23,0.12c1.63,0.14,2.73,0.45,3.31,0.91c0.58,0.47,0.7,1.18,0.35,2.14L237.77,133.42z M229.22,132.3l1.72-4.73
		c0.14-0.39-0.06-0.62-0.62-0.78c-0.57-0.09-1.15-0.12-1.73-0.11h-6.84c-0.61-0.01-1.22,0.02-1.82,0.11
		c-0.5,0.03-0.95,0.33-1.17,0.78l-1.71,4.75c-0.15,0.39,0.04,0.65,0.58,0.78c0.58,0.08,1.17,0.1,1.76,0.06h6.86
		c0.61,0.01,1.21-0.02,1.81-0.11C228.56,133.03,229,132.74,229.22,132.3L229.22,132.3z M269.33,133.4c-0.32,0.93-0.99,1.7-1.86,2.15
		c-1.26,0.55-2.62,0.86-3.99,0.91c-1.01,0.06-2.47,0.08-4.38,0.08h-19.7l1.24-3.36h18.63c0.8,0,1.27-0.24,1.42-0.62
		c0.15-0.38,0.19-0.62,0.12-0.73c-0.06-0.11-0.41-0.24-1.01-0.24h-9.89c-1.78,0.03-3.57-0.15-5.31-0.53
		c-1.96-0.48-2.76-1.23-2.4-2.23l0.86-2.39c0.32-0.93,0.98-1.71,1.86-2.16c1.26-0.55,2.61-0.86,3.98-0.92
		c1.24-0.09,2.68-0.12,4.4-0.12h16.65l-1.24,3.4h-15.52c-0.76,0-1.24,0.2-1.37,0.62c-0.19,0.54-0.13,0.85,0.19,0.94h11.47
		c1.68-0.06,3.37,0.18,4.97,0.7c1.48,0.56,2.03,1.38,1.64,2.48L269.33,133.4z M105.89,164.69h-6.04l8.07-22.71h6.03L105.89,164.69z
		 M124.8,158.92l-2.05,5.77h-14.24l8.12-22.83h6.07l-6.07,17.04L124.8,158.92z M140.47,158.92l-2.05,5.77h-14.24l8.12-22.83h6.07
		l-6.07,17.04L140.47,158.92z M145.85,164.69h-6.04l8.07-22.71h6.03L145.85,164.69z M170.91,164.69h-6.07l2.65-7.45l-5.13,7.45h-5.4
		l0.16-7.45l-2.65,7.45h-6.03l8.07-22.71l6.46,0.04l0.33,12.42l9.15-12.42l6.53-0.04L170.91,164.69z M179.52,164.69h-6.04
		l8.07-22.71h6.03L179.52,164.69z M204.98,147.7h-5.97l-6.05,16.99h-6.03l6.05-16.99h-5.49l2.09-5.84h17.49L204.98,147.7z
		 M227.4,141.98l-2.05,5.77h-12.89l-0.96,2.7h5.84l-2.05,5.76h-5.84l-0.96,2.7h12.9l-2.06,5.77h-18.97l8.07-22.71H227.4z
		 M247.61,141.98l-2.05,5.77h-12.9l-0.96,2.7h5.84l-2.06,5.76h-5.84l-0.95,2.7h12.89l-2.05,5.77h-18.98l8.07-22.71H247.61z
		 M261.85,159.3c-0.42,1.35-1.11,2.6-2.04,3.67c-0.81,0.81-1.85,1.36-2.99,1.56c-0.98,0.12-1.97,0.17-2.96,0.16h-13.15l2.06-5.77
		h12.42c0.54,0,0.94-0.4,1.19-1.1c0.17-0.4,0.29-0.81,0.35-1.24c0-0.29-0.19-0.42-0.59-0.42h-6.58c-1.18,0.06-2.35-0.27-3.34-0.93
		c-1.13-0.83-1.39-2.1-0.78-3.82l1.45-4.09c0.42-1.37,1.11-2.64,2.04-3.73c0.81-0.81,1.86-1.35,2.99-1.54
		c0.99-0.15,1.98-0.22,2.98-0.2h11.1l-2.07,5.82h-10.37c-0.51,0-0.89,0.35-1.14,1.07c-0.34,0.93-0.41,1.48-0.24,1.63
		c0.46,0.05,0.93,0.07,1.39,0.05h6.25c1.15-0.1,2.28,0.34,3.06,1.19c0.79,0.95,0.85,2.35,0.19,4.21L261.85,159.3z M227.49,140
		h-18.17l-0.31,0.86h18.18L227.49,140z"/>
	<path class="st1" d="M39.25,141.86l4.35,14.12c0.39,1.24,1,1.86,1.81,1.86c0.91,0,2.01-0.64,3.3-1.91l14.83-14.08H39.25z
		 M18.2,164.81h11.18l8.44-22.99H26.64L18.2,164.81z"/>
	<path class="st2" d="M83.01,123.23h-13.7c-3.64-0.08-7.18,1.26-9.86,3.73l-4.07,3.82l-1.06-3.82c-0.89-2.48-3.27-3.73-7.13-3.73
		h-13.7l-4.91,13.42h49.52L83.01,123.23z"/>
	<path class="st1" d="M56.54,164.81h11.18l8.44-22.99H64.98L56.54,164.81z"/>
	<path class="st2" d="M88.21,123.25l-4.91,13.41h19.47l4.91-13.41H88.21z"/>
	<path class="st1" d="M72.93,164.81H92.4l8.44-22.99H81.37L72.93,164.81z"/>
</g>
</svg>
