<?xml version="1.0" encoding="utf-8"?>
<!-- Generator: Adobe Illustrator 28.3.0, SVG Export Plug-In . SVG Version: 6.00 Build 0)  -->
<svg version="1.1" id="Calque_1" xmlns="http://www.w3.org/2000/svg" xmlns:xlink="http://www.w3.org/1999/xlink" x="0px" y="0px"
	 viewBox="0 0 288 288" style="enable-background:new 0 0 288 288;" xml:space="preserve">
<style type="text/css">
	.st0{fill:#FAFAFA;}
	.st1{fill:#E42529;}
</style>
<g>
	<path class="st0" d="M104.19,101.46c-3.21,7.89-6.41,15.79-9.63,23.68c-8.23,20.24-16.49,40.47-24.67,60.74
		c-0.59,1.46-1.26,2-2.86,1.93c-3.31-0.14-3.33-0.04-4.68-3.36c-9.59-23.62-19.18-47.25-28.77-70.87c-1.69-4.16-3.4-8.31-5.15-12.59
		c-0.54,0.54-0.34,1.08-0.34,1.54c-0.01,27.72-0.03,55.44,0.04,83.16c0,1.79-0.46,2.25-2.17,2.11c-2.04-0.16-4.11-0.12-6.16-0.01
		c-1.33,0.07-1.94-0.2-1.77-1.68c0.13-1.18,0.02-2.38,0.02-3.58c0-31.03,0.02-62.07-0.05-93.1c0-1.95,0.51-2.42,2.4-2.34
		c3.84,0.16,7.69,0.09,11.54,0.01c1.12-0.02,1.61,0.36,2.01,1.38c8.1,20.22,16.24,40.43,24.38,60.65c2.62,6.5,5.25,12.99,8.04,19.9
		c0.48-1.07,0.83-1.8,1.13-2.54c10.44-25.92,20.88-51.84,31.28-77.78c0.46-1.15,0.99-1.62,2.28-1.59c3.98,0.09,7.96,0.1,11.93-0.01
		c1.51-0.04,1.87,0.4,1.87,1.89c-0.06,16.31-0.04,32.63-0.04,48.94c0,15.98-0.03,31.96,0.04,47.94c0.01,1.64-0.48,2-2,1.92
		c-2.31-0.13-4.64-0.06-6.96-0.02c-0.92,0.02-1.33-0.22-1.26-1.22c0.08-1.19,0.01-2.39,0.01-3.58c0.01-26.79,0.02-53.58,0.02-80.37
		c0-0.38-0.05-0.76-0.08-1.14C104.45,101.47,104.32,101.46,104.19,101.46z"/>
	<path class="st0" d="M238.9,187.77c-5.58,0.1-13.16,0.08-20.62-2.06c-20.2-5.8-34.88-24.66-35.94-45.69
		c-1.43-28.38,21.02-52.64,49.89-52.84c12.33-0.09,23.24,3.97,32.78,11.78c0.73,0.6,0.83,1.01,0.11,1.7
		c-1.63,1.56-3.27,3.11-4.76,4.8c-0.96,1.09-1.57,0.64-2.44-0.04c-6.71-5.27-14.33-8.12-22.84-8.77
		c-21.27-1.63-41.07,14.98-43.15,36.26c-2.43,24.85,16.16,45.38,41.15,45.43c6.7,0.01,13.39,0.04,20.09-0.03
		c1.35-0.01,1.88,0.29,1.79,1.73c-0.12,2.05-0.13,4.11,0,6.16c0.08,1.39-0.46,1.62-1.7,1.6
		C249.17,187.72,245.06,187.77,238.9,187.77z"/>
	<path class="st0" d="M143.88,200.87c-41.24,0-82.49-0.01-123.73,0.04c-1.77,0-2.23-0.43-2.14-2.16c0.16-2.97,0.04-2.97,2.71-2.97
		c82.36,0,164.71,0.01,247.07-0.04c1.8,0,2.25,0.46,2.16,2.2c-0.16,2.93-0.05,2.93-2.93,2.93
		C225.98,200.87,184.93,200.87,143.88,200.87z"/>
	<path class="st0" d="M139.66,87.24c4.44,0,8.89-0.19,13.32,0.04c13.97,0.71,24.51,12.32,24.47,26.78
		c-0.04,13.44-11.15,25.12-24.68,25.57c-9.14,0.3-18.29,0.09-27.43,0.18c-1.29,0.01-1.56-0.42-1.5-1.61
		c0.1-1.98,0.11-3.98-0.01-5.96c-0.08-1.32,0.36-1.65,1.65-1.64c8.48,0.06,16.97,0.07,25.45,0.02c9-0.06,16.09-6.26,17.27-15
		c1.25-9.24-5.45-17.97-14.74-19.12c-3.83-0.47-7.68-0.16-11.52-0.19c-5.5-0.05-11-0.06-16.5,0.02c-1.34,0.02-1.68-0.38-1.61-1.66
		c0.11-1.85,0.12-3.72,0-5.56c-0.09-1.49,0.28-2.05,1.92-2c4.64,0.12,9.28,0.04,13.92,0.04C139.66,87.18,139.66,87.21,139.66,87.24z
		"/>
	<path class="st1" d="M269.96,152.06c0,6.63-0.05,13.26,0.04,19.89c0.02,1.47-0.42,1.81-1.79,1.74c-2.25-0.11-4.51-0.14-6.76,0.01
		c-1.58,0.1-1.84-0.5-1.84-1.93c0.05-9.75,0.01-19.5,0.02-29.24c0-2.81,0.02-2.86-2.87-2.87c-6.17-0.02-12.33-0.05-18.5,0.03
		c-1.38,0.02-1.9-0.31-1.81-1.75c0.12-1.98,0.09-3.98,0.03-5.97c-0.03-1.06,0.23-1.55,1.42-1.54c10.21,0.04,20.42,0.05,30.64,0.01
		c1.38-0.01,1.45,0.67,1.44,1.73c-0.03,6.63-0.02,13.26-0.02,19.9C269.97,152.06,269.96,152.06,269.96,152.06z"/>
</g>
</svg>
