<?xml version="1.0" encoding="UTF-8" standalone="no"?>
<!-- Created with Inkscape (http://www.inkscape.org/) -->

<svg
   width="210.54852mm"
   height="232.21275mm"
   viewBox="0 0 210.54853 232.21276"
   version="1.1"
   id="svg1"
   xml:space="preserve"
   inkscape:version="1.3.2 (091e20e, 2023-11-25, custom)"
   sodipodi:docname="NovaSteel2.svg"
   xmlns:inkscape="http://www.inkscape.org/namespaces/inkscape"
   xmlns:sodipodi="http://sodipodi.sourceforge.net/DTD/sodipodi-0.dtd"
   xmlns="http://www.w3.org/2000/svg"
   xmlns:svg="http://www.w3.org/2000/svg"><sodipodi:namedview
     id="namedview1"
     pagecolor="#505050"
     bordercolor="#ffffff"
     borderopacity="1"
     inkscape:showpageshadow="0"
     inkscape:pageopacity="0"
     inkscape:pagecheckerboard="1"
     inkscape:deskcolor="#505050"
     inkscape:document-units="mm"
     inkscape:zoom="0.69219276"
     inkscape:cx="173.36211"
     inkscape:cy="443.51807"
     inkscape:window-width="1920"
     inkscape:window-height="991"
     inkscape:window-x="-9"
     inkscape:window-y="-9"
     inkscape:window-maximized="1"
     inkscape:current-layer="svg1"><inkscape:page
       x="0"
       y="0"
       width="210.54854"
       height="232.21277"
       id="page16"
       margin="0"
       bleed="0" /></sodipodi:namedview><defs
     id="defs1" /><path
     style="fill:#df0101;fill-opacity:1;stroke-width:0.270285"
     d="m 154.96559,185.75764 v -6.55602 l 21.42001,0.0643 21.42001,0.0643 v 6.42252 6.42253 l -21.42001,0.0692 -21.42001,0.0692 z"
     id="path1" /><path
     style="fill:#df0101;fill-opacity:1;stroke-width:0.270285"
     d="m 18.863907,191.9667 c -0.07254,-0.18904 -0.09913,-3.11105 -0.05909,-6.49336 l 0.0728,-6.14964 21.531399,-0.061 21.5314,-0.061 0.139925,0.946 c 0.207063,1.39986 0.225989,10.66066 0.02344,11.46769 l -0.174458,0.69509 h -21.46676 c -17.118914,0 -21.493477,-0.0696 -21.598656,-0.3437 z"
     id="path2" /><path
     style="fill:#ffffff;fill-opacity:1;stroke-width:0.270285"
     d="m 45.604664,119.90676 c -3.462097,-0.63183 -9.974247,-2.75651 -12.266845,-4.00224 -4.671603,-2.5384 -11.29124,-8.56567 -14.274541,-12.99716 -1.116084,-1.65787 -3.319912,-6.295716 -4.459967,-9.38578 -1.508779,-4.089474 -2.139635,-7.862416 -2.142376,-12.812829 -0.0038,-6.826781 1.354211,-12.468137 4.365397,-18.134697 0.276481,-0.520295 0.593727,-1.250064 0.70499,-1.621703 0.111263,-0.371641 0.932886,-1.745493 1.825831,-3.053008 2.888629,-4.229725 9.38793,-10.017167 14.110859,-12.565317 3.260045,-1.758883 7.26395,-3.240627 9.682009,-3.583064 1.069835,-0.151508 2.431666,-0.409601 3.026291,-0.573537 0.594624,-0.163939 3.027182,-0.312282 5.405681,-0.329652 7.32056,-0.05346 12.516977,1.020048 17.833043,3.684079 9.283102,4.652026 15.751664,11.539768 19.853243,21.139793 2.230462,5.220544 3.166506,10.613361 2.905516,16.739454 -0.240747,5.651151 -1.305191,9.845085 -3.848909,15.164742 -1.89734,3.967889 -3.00305,5.607979 -6.39042,9.478859 -4.848281,5.5403 -9.203881,8.53165 -15.932012,10.94182 -4.655897,1.66785 -7.482367,2.17005 -12.9339,2.29809 -3.794318,0.0891 -5.270775,0.0124 -7.46389,-0.38785 z m 9.529998,-24.762461 c 5.152998,-0.98593 9.365223,-4.434827 11.205916,-9.1752 1.880092,-4.841838 1.062567,-10.333736 -2.17701,-14.624523 -3.368419,-4.461436 -9.854777,-6.513468 -15.79027,-4.995423 -3.196847,0.817615 -4.312637,1.430181 -6.391195,3.508737 -2.181249,2.181249 -3.833093,5.215234 -4.348613,7.987213 -0.404151,2.173149 -0.145939,5.559377 0.584674,7.667458 0.648242,1.870416 2.623047,5.020746 3.55763,5.675355 0.321045,0.224869 0.811276,0.63641 1.0894,0.914535 1.478807,1.478803 4.378847,2.782681 7.064608,3.176293 2.170642,0.318119 2.943916,0.298146 5.20486,-0.134445 z"
     id="path3" /><path
     style="fill:#ffffff;fill-opacity:1;stroke-width:0.270285"
     d="m 135.23485,120.85832 c -1.89575,-0.41073 -4.42482,-1.43613 -5.81111,-2.35609 -0.59462,-0.3946 -1.54568,-0.93414 -2.11346,-1.19897 -1.80758,-0.84312 -9.64389,-8.78233 -9.64389,-9.77054 0,-0.13955 -0.62346,-1.02743 -1.38546,-1.97307 -1.39976,-1.73708 -4.78665,-6.981358 -7.07627,-10.956935 -0.68492,-1.189249 -1.36061,-2.296821 -1.50154,-2.461273 -0.36407,-0.424817 -2.31234,-4.139052 -2.67867,-5.10668 -0.16884,-0.445969 -0.74901,-1.601433 -1.28927,-2.5677 -0.54026,-0.966263 -1.32169,-2.364986 -1.73651,-3.108266 -0.41482,-0.743281 -1.51179,-2.689326 -2.437697,-4.324543 -0.925914,-1.635221 -2.542135,-4.493475 -3.591599,-6.351678 -1.049474,-1.8582 -1.981798,-3.439363 -2.071848,-3.51369 -0.319467,-0.263695 -1.097234,-1.607156 -1.097234,-1.895285 0,-0.333065 -3.322346,-5.487299 -5.199496,-8.066397 -0.687734,-0.944909 -2.018898,-2.577814 -2.95814,-3.628681 -0.939242,-1.050866 -2.417381,-2.710315 -3.284757,-3.687664 -3.265493,-3.679531 -7.9619,-6.883218 -11.742909,-8.010501 l -2.086237,-0.621999 8.378806,-0.0098 c 12.464664,-0.01458 14.038898,0.312825 19.151921,3.983172 3.243212,2.328111 9.73438,8.900462 10.93504,11.071815 0.2503,0.452641 2.05616,3.19972 4.01304,6.10462 3.19713,4.745995 6.65901,10.52521 8.88285,14.828885 1.42013,2.748309 7.75128,14.10843 8.09648,14.527686 0.46322,0.56261 3.5764,5.960356 3.81923,6.621957 0.21857,0.595448 3.30487,5.595127 3.58721,5.811107 0.0972,0.0743 1.17751,1.53386 2.40078,3.24341 5.14232,7.18656 10.52988,11.9928 15.01554,13.39537 0.98332,0.30747 0.0838,0.35237 -6.97971,0.34838 -5.246,-0.003 -8.63332,-0.11827 -9.59509,-0.32664 z"
     id="path4" /><path
     style="fill:#ffffff;fill-opacity:1;stroke-width:0.270285"
     d="m 157.99747,120.81396 c -1.62929,-0.35382 -4.05009,-1.44674 -7.4697,-3.37233 -1.50306,-0.84638 -7.45468,-6.27397 -7.45468,-6.7983 0,-0.23798 -3.91565,-5.51383 -4.48206,-6.03903 -0.82098,-0.76123 -6.87068,-10.837504 -8.43899,-14.055845 -1.04283,-2.139979 -3.63818,-6.941945 -6.13547,-11.351932 -0.92599,-1.635218 -2.81269,-5.040797 -4.19267,-7.567951 -4.9312,-9.030523 -7.69959,-13.262308 -12.29317,-18.791402 -5.01411,-6.035286 -9.769005,-9.607589 -14.865578,-11.168348 -1.282381,-0.392715 -0.930374,-0.414607 6.892211,-0.428619 10.088157,-0.01807 12.321277,0.24579 15.520287,1.833848 1.20082,0.596114 2.42657,1.30498 2.72388,1.575263 0.29731,0.27028 1.55383,1.339707 2.79225,2.376501 3.10211,2.597049 10.31653,10.826144 10.31653,11.767499 0,0.179078 2.07451,3.447637 4.50249,7.094024 1.12329,1.686997 6.51731,11.180607 8.40654,14.795749 2.28218,4.367083 5.16441,9.579054 6.98298,12.627448 0.72891,1.22183 2.48075,4.186656 3.89298,6.588496 6.70275,11.399619 13.24358,18.465969 19.19017,20.732019 l 1.48656,0.56648 -7.83823,-0.007 c -5.58624,-0.005 -8.32612,-0.11335 -9.53633,-0.37617 z"
     id="path5" /><path
     style="fill:#ffffff;fill-opacity:1;stroke-width:0.270285"
     d="m 181.18314,120.94364 c -1.53543,-0.2758 -4.21201,-1.34068 -6.18211,-2.45956 -0.83654,-0.4751 -1.82457,-1.02366 -2.19562,-1.21904 -0.91774,-0.48322 -4.5959,-3.63393 -4.5959,-3.93684 0,-0.13386 -0.59101,-0.87465 -1.31336,-1.6462 -3.70086,-3.95293 -10.63487,-14.052224 -11.61704,-16.920082 -0.17365,-0.507066 -0.59645,-1.297647 -0.93954,-1.756847 -0.7122,-0.953238 -1.92759,-3.160675 -4.92414,-8.943435 -1.15547,-2.229842 -2.2475,-4.236701 -2.42673,-4.459687 -0.49288,-0.613211 -3.91561,-7.015062 -3.91561,-7.32373 0,-0.268753 -2.39982,-4.582641 -2.69197,-4.839052 -0.0847,-0.07433 -0.81185,-1.229791 -1.61592,-2.567699 -2.17552,-3.619889 -5.60097,-8.595389 -7.0858,-10.292194 -0.72032,-0.82314 -1.30966,-1.603086 -1.30966,-1.733214 0,-0.130127 -0.98936,-1.281781 -2.19857,-2.559229 -4.0091,-4.235337 -8.22565,-7.208949 -11.91736,-8.404405 l -1.96597,-0.636627 8.10852,-0.01244 c 4.6319,-0.0071 9.09356,0.119851 10.40593,0.296103 5.18854,0.696815 9.43589,3.622977 15.93484,10.978121 2.43744,2.758567 6.32347,8.046902 6.99991,9.525899 0.23797,0.520298 1.17684,2.101459 2.08638,3.513693 0.90955,1.412235 2.78252,4.574559 4.16216,7.027387 1.37965,2.452827 3.14754,5.554337 3.92865,6.892242 0.78112,1.337905 2.15578,3.952904 3.05482,5.811107 1.74773,3.61237 7.77063,14.053891 10.28481,17.830139 0.83812,1.25884 1.6009,2.4778 1.69507,2.7088 0.40884,1.00293 4.55733,6.27379 6.56056,8.33552 2.46117,2.53304 6.67314,5.66084 8.60684,6.39142 0.70612,0.26678 1.28386,0.52935 1.28386,0.58348 0,0.1983 -15.03881,0.028 -16.21705,-0.18363 z"
     id="path6" /><path
     style="fill:#ffffff;fill-opacity:1;stroke-width:0.270285"
     d="m 149.87099,172.64723 c 0.43838,-1.15208 1.08319,-2.82446 1.43292,-3.7164 3.44058,-8.77477 4.20225,-10.79093 4.20225,-11.12359 0,-0.212 0.52963,-1.68802 1.17697,-3.28003 0.64734,-1.59201 1.68992,-4.23247 2.31684,-5.86769 2.3988,-6.25677 6.07715,-15.42073 6.31957,-15.74404 0.36625,-0.48848 15.94959,-0.48848 16.33262,0 0.1457,0.18582 0.84689,1.8582 1.5582,3.7164 0.71131,1.85821 1.74339,4.47321 2.29353,5.81111 0.55013,1.33791 1.34392,3.34477 1.76397,4.45969 0.42006,1.11492 1.42203,3.6691 2.22662,5.67596 2.37595,5.92629 4.02782,10.34784 4.20067,11.24388 0.0889,0.46087 0.45854,1.4947 0.82142,2.29741 0.78803,1.74317 3.1539,8.02639 3.1539,8.37606 0,0.14177 -3.14323,0.24594 -7.42029,0.24594 h -7.42029 l -0.73004,-2.43255 -0.73004,-2.43256 h -7.88073 -7.88073 l -0.77739,2.43256 -0.7774,2.43255 h -7.48981 -7.4898 z m 27.78425,-14.32505 c -0.0252,-0.83794 -3.92865,-12.32836 -4.22127,-12.4259 -0.15546,-0.0518 -0.48598,0.63044 -0.7345,1.51614 -0.24851,0.8857 -1.11716,3.61999 -1.93033,6.07622 -0.81318,2.45622 -1.4785,4.65501 -1.4785,4.88619 0,0.36219 0.5796,0.42035 4.18941,0.42035 3.81513,0 4.18813,-0.0423 4.17519,-0.473 z"
     id="path7" /><path
     style="fill:#ffffff;fill-opacity:1;stroke-width:0.270285"
     d="m 126.18422,174.40794 c -0.32825,-0.9566 -2.38566,-6.30204 -3.20041,-8.31509 -0.51141,-1.26358 -1.68161,-4.24346 -2.60043,-6.62196 -0.91882,-2.3785 -1.84521,-4.70781 -2.05864,-5.17625 -0.21344,-0.46843 -0.38807,-1.04698 -0.38807,-1.28565 0,-0.23868 -0.43803,-1.5582 -0.97341,-2.93228 -1.41278,-3.62599 -5.44816,-13.89771 -6.06597,-15.44043 -0.29071,-0.72594 -0.52857,-1.48611 -0.52857,-1.68927 0,-0.51853 14.39069,-0.54921 14.78928,-0.0315 0.14307,0.18582 1.50736,4.10832 3.03175,8.71666 1.52438,4.60834 3.53356,10.68402 4.46483,13.5015 0.93128,2.81749 1.80266,5.15918 1.9364,5.20376 0.29912,0.0997 6.44468,-17.79424 8.97695,-26.13807 l 0.45115,-1.48657 7.50038,-0.0718 c 4.12522,-0.0395 7.50039,-0.005 7.50039,0.0763 0,0.0814 -0.19074,0.6003 -0.42386,1.15298 -1.16618,2.76484 -2.81955,7.34181 -2.81955,7.8053 0,0.28836 -0.10503,0.63983 -0.2334,0.78106 -0.12836,0.14122 -0.36212,0.62165 -0.51945,1.06762 -0.6217,1.76228 -3.60812,9.50762 -3.96016,10.27079 -0.55373,1.2004 -4.02877,10.16696 -4.34712,11.21679 -0.1127,0.37164 -0.48529,1.28385 -0.82799,2.02713 -0.95942,2.08092 -2.48213,6.13845 -2.58652,6.89224 l -0.0936,0.67571 -8.45338,0.0714 c -6.62276,0.056 -8.47877,-0.003 -8.57063,-0.27028 z"
     id="path8" /><path
     style="fill:#ffffff;fill-opacity:1;stroke-width:0.270285"
     d="m 83.161955,174.99425 c -3.040086,-0.6387 -6.098238,-1.90321 -8.755488,-3.62029 -2.117897,-1.36855 -5.862646,-4.94451 -6.379528,-6.09197 -0.167407,-0.37164 -0.696542,-1.5271 -1.175856,-2.5677 -1.356418,-2.94478 -1.978323,-6.41454 -1.792454,-10.0005 0.08476,-1.63522 0.350198,-3.7029 0.589868,-4.59483 0.543123,-2.02125 2.153951,-5.64411 2.923405,-6.57495 3.44974,-4.1733 6.401638,-6.26647 11.475683,-8.13733 2.622841,-0.96707 5.202081,-1.37018 8.750239,-1.36758 3.467501,0.003 5.616789,0.34164 8.732421,1.37775 4.435585,1.47507 7.596765,3.70732 11.059835,7.80986 3.02315,3.5814 4.68472,9.87787 3.98786,15.11187 -0.39955,3.00099 -1.62382,6.48006 -3.06488,8.70966 -1.23589,1.91217 -4.11776,4.88904 -5.90144,6.09598 -2.78691,1.88579 -6.785932,3.43267 -10.658248,4.12276 -2.475358,0.44113 -6.992435,0.31532 -9.791417,-0.27273 z m 10.077114,-11.59253 c 2.149438,-0.9898 3.604779,-2.3287 4.637666,-4.26662 2.212955,-4.15194 1.659878,-9.2914 -1.360704,-12.64422 -3.628219,-4.0273 -10.178401,-4.46898 -14.742382,-0.99408 -0.563869,0.42931 -1.308147,1.52806 -2.027131,2.99258 -1.126562,2.29472 -1.136118,2.33932 -1.136118,5.30211 0,2.84915 0.04248,3.07422 0.914796,4.84614 1.221971,2.48217 2.39354,3.7149 4.376264,4.60469 3.188335,1.43084 6.455467,1.48661 9.337609,0.1594 z"
     id="path9" /><path
     style="fill:#ffffff;fill-opacity:1;stroke-width:0.270285"
     d="m 18.734922,174.40408 c -0.0084,-0.37612 -0.0062,-41.30281 0.0021,-41.62374 0.0029,-0.1115 3.038271,-0.20272 6.745187,-0.20272 h 6.739847 l 3.43058,4.52726 c 1.88682,2.48999 3.56838,4.64889 3.736803,4.79754 0.46958,0.41448 3.175666,3.9321 3.515831,4.57021 0.534738,1.0031 4.275111,5.83573 4.51676,5.83573 0.128691,0 0.265906,-4.40901 0.304924,-9.7978 l 0.07094,-9.7978 h 6.486816 6.486819 l 0.06923,21.01459 0.06923,21.01458 h -6.329301 -6.329307 l -0.632169,-0.77416 c -0.74382,-0.91089 -2.833428,-3.67442 -8.100436,-10.71291 -4.69383,-6.27252 -6.750108,-8.84138 -7.194637,-8.98807 -0.266321,-0.0879 -0.337857,2.0679 -0.337857,10.18183 v 10.29331 h -6.62196 c -5.113345,0 -6.623679,-0.077 -6.629516,-0.33785 z"
     id="path10" /><path
     style="fill:#ffffff;fill-opacity:1;stroke-width:0.270285"
     d="m 72.664149,191.75291 c -0.743281,-0.29112 -1.629238,-0.74455 -1.968794,-1.00761 l -0.617376,-0.47829 0.94797,-1.10749 0.947973,-1.10749 1.291109,0.65407 c 0.962247,0.48746 1.635328,0.63393 2.642528,0.57505 1.227101,-0.0718 1.35142,-0.1391 1.35142,-0.7322 0,-0.69441 0.02929,-0.67944 -2.961031,-1.51312 -1.161214,-0.32374 -1.904847,-0.74399 -2.669429,-1.50857 -1.011065,-1.01107 -1.053743,-1.12308 -0.927708,-2.43476 0.108561,-1.12981 0.307863,-1.55068 1.117917,-2.36074 0.945245,-0.94524 1.074918,-0.98985 3.151727,-1.08416 2.583971,-0.11734 3.610322,0.0484 4.802325,0.77543 l 0.892099,0.54413 -0.852017,1.18641 -0.852016,1.18641 -1.121217,-0.50911 c -1.445467,-0.65634 -3.295288,-0.6917 -3.534789,-0.0676 -0.260201,0.67807 0.299432,1.04244 2.656541,1.72964 1.174229,0.34234 2.481729,0.91422 2.905554,1.27085 0.711282,0.5985 0.770594,0.79313 0.770594,2.52866 0,1.64713 -0.0841,1.96434 -0.678297,2.55855 -0.373062,0.37306 -1.098923,0.85404 -1.613024,1.06885 -1.318842,0.55104 -4.054131,0.47068 -5.682059,-0.16694 z"
     id="path11" /><path
     style="fill:#ffffff;fill-opacity:1;stroke-width:0.270285"
     d="m 90.547944,192.13021 c -0.0991,-0.0991 -0.180187,-2.2884 -0.180187,-4.86511 v -4.68493 h -1.89199 -1.891987 v -1.48656 -1.48656 h 5.419798 5.419767 l -0.0817,1.41899 -0.0817,1.41899 -1.824411,0.0799 c -1.498361,0.0656 -1.827788,0.16224 -1.843318,0.54057 -0.0104,0.25336 -0.002,2.26304 0.0176,4.46595 0.0251,2.74402 -0.0645,4.12712 -0.28446,4.39212 -0.324887,0.39148 -2.435595,0.54849 -2.777465,0.20662 z"
     id="path12" /><path
     style="fill:#ffffff;fill-opacity:1;stroke-width:0.270285"
     d="m 104.06812,192.13624 c -0.10242,-0.10242 -0.18622,-2.96339 -0.18622,-6.35771 v -6.17148 h 5.01438 5.01438 l -0.0817,1.41899 -0.0817,1.41899 -3.31098,0.0759 -3.31098,0.0759 v 0.93768 0.93767 h 2.97312 2.97313 v 1.35142 1.35142 h -2.97313 -2.97312 v 0.93768 0.93767 l 3.31098,0.0759 3.31098,0.0759 v 1.48656 1.48657 l -4.74647,0.0736 c -2.61055,0.0405 -4.83026,-0.0102 -4.93268,-0.11262 z"
     id="path13" /><path
     style="fill:#ffffff;fill-opacity:1;stroke-width:0.270285"
     d="m 120.70708,192.13453 c -0.25639,-0.10584 -0.33785,-1.63283 -0.33785,-6.33347 v -6.19401 h 5.14952 5.14952 l -0.0817,1.41899 -0.0817,1.41899 -3.24341,0.13514 -3.24341,0.13514 v 0.81086 0.81085 l 3.05514,0.0766 3.05514,0.0766 -0.082,1.27486 -0.082,1.27486 -2.90555,0.0767 c -2.05653,0.0543 -2.90663,0.17276 -2.90924,0.40542 -0.002,0.18079 -0.076,0.59852 -0.16444,0.9283 -0.1589,0.59274 -0.1226,0.60045 3.17953,0.67571 l 3.34027,0.0761 v 1.48656 1.48657 l -4.72997,0.0494 c -2.60149,0.0272 -4.88201,-0.0134 -5.06783,-0.0901 z"
     id="path14" /><path
     style="fill:#ffffff;fill-opacity:1;stroke-width:0.270285"
     d="m 137.57731,192.13021 c -0.0991,-0.0991 -0.18019,-2.95736 -0.18019,-6.35168 v -6.17148 h 1.75685 1.75685 v 4.72083 4.72082 l 2.90555,0.0767 2.90555,0.0767 0.0808,0.82606 c 0.0444,0.45433 -0.0438,1.15369 -0.19602,1.55414 l -0.27681,0.72807 h -4.28619 c -2.3574,0 -4.36727,-0.0811 -4.46638,-0.18019 z"
     id="path15" /></svg>
