<?xml version="1.0" encoding="UTF-8" standalone="no"?>
<!-- Created with Inkscape (http://www.inkscape.org/) -->

<svg
   width="210mm"
   height="297mm"
   viewBox="0 0 210 297"
   version="1.1"
   id="svg1"
   xml:space="preserve"
   inkscape:version="1.3.2 (091e20e, 2023-11-25, custom)"
   sodipodi:docname="nova steel(24po^2).svg"
   xmlns:inkscape="http://www.inkscape.org/namespaces/inkscape"
   xmlns:sodipodi="http://sodipodi.sourceforge.net/DTD/sodipodi-0.dtd"
   xmlns="http://www.w3.org/2000/svg"
   xmlns:svg="http://www.w3.org/2000/svg"><sodipodi:namedview
     id="namedview1"
     pagecolor="#505050"
     bordercolor="#ffffff"
     borderopacity="1"
     inkscape:showpageshadow="0"
     inkscape:pageopacity="0"
     inkscape:pagecheckerboard="1"
     inkscape:deskcolor="#505050"
     inkscape:document-units="mm"
     inkscape:zoom="1"
     inkscape:cx="428"
     inkscape:cy="402.5"
     inkscape:window-width="1920"
     inkscape:window-height="991"
     inkscape:window-x="-9"
     inkscape:window-y="-9"
     inkscape:window-maximized="1"
     inkscape:current-layer="svg1" /><defs
     id="defs1" /><path
     style="display:inline;fill:#27235c;fill-opacity:1;stroke-width:1.02155"
     d="m 212.36411,411.29508 c -13.08509,-2.38803 -37.69794,-10.41833 -46.36288,-15.12659 -17.65645,-9.59396 -42.67555,-32.37418 -53.95102,-49.12313 -4.21827,-6.26595 -12.547701,-23.79483 -16.856569,-35.47381 -5.70247,-15.45628 -8.086809,-29.71622 -8.097169,-48.42644 -0.01429,-25.80201 5.118277,-47.12367 16.499138,-68.54059 1.04497,-1.96647 2.24401,-4.72465 2.66453,-6.12927 0.42052,-1.40463 3.52587,-6.59714 6.90078,-11.53893 10.91765,-15.98636 35.48194,-37.86016 53.33238,-47.49096 12.32143,-6.64775 27.4543,-12.24804 36.59342,-13.54229 4.04347,-0.57263 9.19055,-1.5481 11.43795,-2.1677 2.2474,-0.61961 11.44132,-1.18028 20.43092,-1.24593 27.66826,-0.20207 47.30826,3.8553 67.40048,13.92408 35.08574,17.58246 59.53385,43.61487 75.03588,79.89843 8.4301,19.73119 11.96793,40.11349 10.98152,63.26723 -0.90993,21.35868 -4.93305,37.20977 -14.5471,57.31556 -7.17105,14.99676 -11.35011,21.19552 -24.15277,35.82559 -18.32421,20.93974 -34.78632,32.24562 -60.21548,41.35494 -17.59709,6.30367 -28.27981,8.20178 -48.88403,8.68569 -14.34073,0.33681 -19.92104,0.0468 -28.20998,-1.46588 z M 248.383,317.70466 c 19.4759,-3.72635 35.39612,-16.76155 42.35307,-34.67792 7.10586,-18.29986 4.016,-39.05664 -8.22807,-55.27379 -12.73103,-16.86212 -37.2464,-24.61783 -59.67976,-18.88034 -12.08257,3.0902 -16.29973,5.40541 -24.1557,13.26137 -8.24409,8.24409 -14.48728,19.71112 -16.4357,30.18789 -1.5275,8.21348 -0.55158,21.01182 2.20979,28.97937 2.45005,7.06929 9.91388,18.97605 13.44616,21.45016 1.2134,0.8499 3.06624,2.40533 4.11742,3.45651 5.58919,5.58918 16.54997,10.51722 26.70088,12.00489 8.204,1.20234 11.12661,1.12685 19.67191,-0.50814 z"
     id="path1"
     transform="scale(0.26458333)" /><path
     style="display:inline;fill:#27235c;fill-opacity:1;stroke-width:1.02155"
     d="m 551.12409,414.89151 c -7.16505,-1.55236 -16.72373,-5.42787 -21.96324,-8.9049 -2.2474,-1.4914 -5.84194,-3.53059 -7.98788,-4.53154 -6.83182,-3.18658 -36.44937,-33.19307 -36.44937,-36.92802 0,-0.52745 -2.35637,-3.88323 -5.23638,-7.45729 -5.29041,-6.56533 -18.09126,-26.38623 -26.74496,-41.41203 -2.58866,-4.4948 -5.14247,-8.6809 -5.67512,-9.30245 -1.37601,-1.60561 -8.73954,-15.64366 -10.12409,-19.30084 -0.63812,-1.68555 -2.8309,-6.05266 -4.87282,-9.70469 -2.04194,-3.65202 -4.99538,-8.93853 -6.5632,-11.74778 -1.56782,-2.80925 -5.71384,-10.16438 -9.21337,-16.34473 -3.49953,-6.18036 -9.60811,-16.98321 -13.57462,-24.00634 -3.96652,-7.02312 -7.49031,-12.99917 -7.83065,-13.28009 -1.20743,-0.99664 -4.14703,-6.07429 -4.14703,-7.16328 0,-1.25883 -12.55697,-20.7394 -19.65171,-30.48717 -2.59931,-3.57131 -7.63048,-9.74292 -11.18037,-13.7147 -3.54989,-3.97178 -9.13656,-10.24371 -12.41483,-13.93763 -12.34202,-13.90689 -30.09222,-26.01531 -44.38265,-30.27591 l -7.88499,-2.35086 31.66793,-0.037 c 47.11054,-0.0551 53.06039,1.18233 72.38533,15.05451 12.25787,8.79916 36.79144,33.63954 41.32939,41.84623 0.946,1.71077 7.77131,12.09343 15.16739,23.07258 12.08364,17.93762 25.16793,39.78032 33.57298,56.04618 5.36742,10.38731 29.29619,53.3232 30.60086,54.90779 1.75077,2.1264 13.51709,22.52733 14.43491,25.02787 0.82606,2.25051 12.49084,21.14694 13.55794,21.96324 0.36724,0.28093 4.45045,5.79728 9.0738,12.25856 19.43557,27.16181 39.79797,45.32711 56.75167,50.62817 3.71649,1.16208 0.31659,1.33178 -26.38003,1.31673 -19.82737,-0.0112 -32.62987,-0.44702 -36.26489,-1.23456 z"
     id="path2"
     transform="scale(0.26458333)" /><path
     style="display:inline;fill:#27235c;fill-opacity:1;stroke-width:1.02155"
     d="m 637.15605,414.72385 c -6.15795,-1.33727 -15.30745,-5.46797 -28.23193,-12.7458 -5.68088,-3.19893 -28.17519,-23.71263 -28.17519,-25.69439 0,-0.89944 -14.79931,-20.83967 -16.94008,-22.82465 -3.10291,-2.87709 -25.9679,-40.96066 -31.8954,-53.12447 -3.94139,-8.08811 -13.7506,-26.23727 -23.18917,-42.90494 -3.4998,-6.18035 -10.63063,-19.05183 -15.84629,-28.60328 -18.63761,-34.13111 -29.10084,-50.12526 -46.46237,-71.02262 -18.95098,-22.81053 -36.92231,-36.31215 -56.18503,-42.21108 -4.84685,-1.48428 -3.5164,-1.56702 26.04943,-1.61998 38.12848,-0.0683 46.56861,0.92897 58.65936,6.93108 4.53855,2.25303 9.17129,4.93221 10.29499,5.95375 1.1237,1.02153 5.87273,5.06346 10.55338,8.98205 11.72451,9.81562 38.99161,40.91771 38.99161,44.47559 0,0.67683 7.84068,13.03044 17.01728,26.81206 4.24554,6.37605 24.63236,42.25741 31.77276,55.92094 8.62558,16.50551 19.51902,36.2043 26.39238,47.72579 2.75491,4.61794 9.37605,15.82358 14.71363,24.9014 25.33321,43.08517 50.05446,69.79266 72.52977,78.35724 l 5.6185,2.14102 -29.62483,-0.028 c -21.11333,-0.0199 -31.46878,-0.42842 -36.0428,-1.42172 z"
     id="path3"
     transform="scale(0.26458333)" /><path
     style="display:inline;fill:#27235c;fill-opacity:1;stroke-width:1.02155"
     d="m 724.78692,415.21398 c -5.8032,-1.04239 -15.91939,-5.06713 -23.36544,-9.29597 -3.16174,-1.79564 -6.89603,-3.86896 -8.29842,-4.60738 -3.46863,-1.82637 -17.37035,-13.73456 -17.37035,-14.8794 0,-0.50594 -2.23374,-3.30578 -4.96386,-6.22186 -13.98752,-14.94023 -40.19477,-53.11078 -43.90692,-63.94993 -0.65634,-1.91647 -2.2543,-4.90449 -3.55101,-6.64005 -2.69179,-3.60279 -7.28539,-11.94586 -18.61093,-33.80196 -4.36715,-8.42775 -8.49451,-16.01273 -9.17191,-16.85551 -1.86285,-2.31765 -14.79915,-26.51362 -14.79915,-27.68024 0,-1.01576 -9.0702,-17.32022 -10.17438,-18.28933 -0.32009,-0.28092 -3.06842,-4.64803 -6.10742,-9.70469 -8.22242,-13.68147 -21.169,-32.48651 -26.78098,-38.89963 -2.72244,-3.11108 -4.94988,-6.05891 -4.94988,-6.55073 0,-0.49182 -3.7393,-4.84453 -8.30955,-9.67268 -15.1525,-16.00757 -31.08907,-27.24642 -45.04198,-31.76468 l -7.43046,-2.40615 30.64638,-0.047 c 17.50638,-0.0269 34.36938,0.45298 39.32952,1.11913 19.61023,2.63363 35.66319,13.69314 60.22614,41.49211 9.21239,10.42608 23.89973,30.41349 26.45637,36.0034 0.8994,1.96648 4.4479,7.94252 7.88554,13.2801 3.43766,5.33758 10.5166,17.28967 15.73099,26.5602 5.2144,9.27053 11.8962,20.99277 14.84844,26.04942 2.95224,5.05665 8.14783,14.94011 11.54576,21.96324 6.60561,13.65305 29.36931,53.11707 38.87173,67.38949 3.1677,4.75782 6.05065,9.36491 6.40655,10.23798 1.54524,3.79062 17.22457,23.71197 24.79584,31.50435 9.30204,9.57367 25.2213,21.39528 32.5298,24.15654 2.66879,1.00831 4.85235,2.00068 4.85235,2.20528 0,0.74947 -56.83959,0.10585 -61.29277,-0.69405 z"
     id="path4"
     transform="scale(0.26458333)" /><path
     style="display:inline;fill:#27235c;fill-opacity:1;stroke-width:1.02155"
     d="m 110.80918,617.2692 c -0.0318,-1.42157 -0.0236,-156.1051 0.008,-157.31809 0.0111,-0.42139 11.48323,-0.76616 25.49362,-0.76616 h 25.47344 l 12.96597,17.1109 c 7.13129,9.41099 13.48679,17.57059 14.12335,18.13244 1.77479,1.56651 12.00252,14.86145 13.28818,17.27321 2.02106,3.79126 16.1579,22.05631 17.07122,22.05631 0.48639,0 1.005,-16.66397 1.15247,-37.03104 l 0.26813,-37.03105 h 24.5171 24.51711 l 0.26165,79.42521 0.26164,79.4252 H 246.28929 222.3675 l -2.3893,-2.92596 c -2.81129,-3.44276 -10.70902,-13.88759 -30.61582,-40.48974 -17.74046,-23.70719 -25.51222,-33.41625 -27.19233,-33.97068 -1.00657,-0.33216 -1.27694,7.8157 -1.27694,38.48251 v 38.90387 h -25.02788 c -19.32603,0 -25.03438,-0.2909 -25.05644,-1.27693 z"
     id="path5"
     transform="scale(0.26458333)" /><path
     style="display:inline;fill:#27235c;fill-opacity:1;stroke-width:1.02155"
     d="m 354.31293,619.49977 c -11.49009,-2.414 -23.04846,-7.19324 -33.09161,-13.68298 -8.00465,-5.17248 -22.15803,-18.68791 -24.1116,-23.02477 -0.63272,-1.40462 -2.6326,-5.77173 -4.44418,-9.70469 -5.12662,-11.1299 -7.47713,-24.24394 -6.77463,-37.7972 0.32034,-6.18035 1.32358,-13.99518 2.22942,-17.36628 2.05275,-7.63934 8.14092,-21.33206 11.04909,-24.8502 13.03839,-15.77309 24.19517,-23.68429 43.37266,-30.75525 9.9131,-3.65508 19.66141,-5.17865 33.07177,-5.16883 13.10556,0.01 21.22891,1.29126 33.00457,5.20727 16.7645,5.57504 28.71226,14.0119 41.80102,29.51758 11.42609,13.53599 17.70605,37.33368 15.07225,57.11574 -1.51013,11.34232 -6.13728,24.49155 -11.5838,32.9184 -4.6711,7.22709 -15.56319,18.47823 -22.30468,23.03992 -10.53319,7.12738 -25.64768,12.97385 -40.2833,15.58207 -9.35574,1.66728 -26.42815,1.19176 -37.00698,-1.03078 z m 38.08679,-43.81429 c 8.12393,-3.741 13.62443,-8.80138 17.5283,-16.1258 8.36397,-15.6924 6.27357,-35.11711 -5.14285,-47.7892 -13.71303,-15.2213 -38.46969,-16.89064 -55.71938,-3.75716 -2.13116,1.6226 -4.94418,5.77537 -7.6616,11.31054 -4.25787,8.67297 -4.29399,8.84154 -4.29399,20.03948 0,10.76846 0.16057,11.61912 3.4575,18.31613 4.61847,9.38144 9.04645,14.04055 16.54021,17.40355 12.0504,5.40789 24.39863,5.61869 35.29181,0.60246 z"
     id="path6"
     transform="scale(0.26458333)" /><path
     style="display:inline;fill:#27235c;fill-opacity:1;stroke-width:1.02155"
     d="m 516.91698,617.28379 c -1.24061,-3.6155 -9.01666,-23.81872 -12.09604,-31.42713 -1.9329,-4.77573 -6.35567,-16.03827 -9.82838,-25.02788 -3.47271,-8.9896 -6.97403,-17.7933 -7.78071,-19.56376 -0.80669,-1.77046 -1.4667,-3.95709 -1.4667,-4.85917 0,-0.90207 -1.65557,-5.88925 -3.67904,-11.08262 -5.33965,-13.70452 -20.59146,-52.52677 -22.92649,-58.35752 -1.09877,-2.74372 -1.99776,-5.61682 -1.99776,-6.38467 0,-1.95979 54.39002,-2.07573 55.8965,-0.11916 0.54075,0.70232 5.6971,15.5275 11.45856,32.94486 5.76146,17.41736 13.3552,40.38055 16.87498,51.02931 3.51978,10.64876 6.81318,19.49924 7.31868,19.66775 1.13053,0.37684 24.35782,-67.25383 33.92861,-98.78957 l 1.70515,-5.61851 28.3479,-0.27154 c 15.59135,-0.14935 28.34791,-0.0197 28.34791,0.28819 0,0.30786 -0.72089,2.26884 -1.60197,4.35773 -4.40764,10.44978 -10.65659,27.74856 -10.65659,29.50034 0,1.08985 -0.39695,2.41826 -0.88212,2.95202 -0.48517,0.53376 -1.36865,2.34955 -1.96328,4.0351 -2.34976,6.66061 -13.63699,35.93432 -14.96755,38.81875 -2.09285,4.53693 -15.22684,38.42631 -16.43005,42.39417 -0.42594,1.40462 -1.83417,4.85234 -3.1294,7.66159 -3.62617,7.8649 -9.3813,23.20046 -9.77583,26.04943 l -0.35366,2.55386 -31.94977,0.26997 c -25.03091,0.21152 -32.04575,-0.01 -32.39295,-1.02154 z"
     id="path7"
     transform="scale(0.26458333)" /><path
     style="display:inline;fill:#27235c;fill-opacity:1;stroke-width:1.02155"
     d="m 606.44179,610.62915 c 1.65685,-4.35434 4.09394,-10.67515 5.41575,-14.04626 13.00379,-33.16446 15.88251,-40.7846 15.88251,-42.0419 0,-0.80128 2.00178,-6.37992 4.44841,-12.39696 2.44662,-6.01705 6.38708,-15.99674 8.75657,-22.17709 9.0663,-23.64767 22.96874,-58.28308 23.88496,-59.50506 1.38427,-1.84622 60.28192,-1.84622 61.72959,0 0.5507,0.70232 3.20087,7.02313 5.88928,14.04626 2.6884,7.02313 6.5892,16.90659 8.66845,21.96324 2.07923,5.05665 5.07939,12.64163 6.66699,16.85551 1.58761,4.21388 5.3746,13.86749 8.41555,21.45247 8.97998,22.39858 15.22328,39.10993 15.87654,42.49654 0.33601,1.74186 1.73307,5.64927 3.10458,8.68314 2.97839,6.58833 11.92026,30.33595 11.92026,31.65755 0,0.53579 -11.8799,0.92954 -28.04519,0.92954 h -28.04519 l -2.75919,-9.19391 -2.7592,-9.19392 h -29.78544 -29.78544 l -2.93819,9.19392 -2.9382,9.19391 h -28.30792 -28.30793 z m 105.01133,-54.14194 c -0.0951,-3.16701 -14.84844,-46.59538 -15.95442,-46.96404 -0.58755,-0.19585 -1.83676,2.38279 -2.77603,5.7303 -0.93926,3.34752 -4.22236,13.68187 -7.29576,22.96523 -3.07341,9.28335 -5.58801,17.59374 -5.58801,18.46752 0,1.3689 2.19062,1.5887 15.83396,1.5887 14.4194,0 15.82916,-0.15971 15.78026,-1.78771 z"
     id="path8"
     transform="scale(0.26458333)" /><path
     style="display:inline;fill:#27235c;fill-opacity:1;stroke-width:1.02155"
     d="m 559.97749,684.2656 c -0.37456,-0.37457 -0.68103,-11.17742 -0.68103,-24.00634 v -23.3253 h 6.64005 6.64005 v 17.8425 17.84249 l 10.98162,0.28995 10.98162,0.28995 0.30535,3.12211 c 0.16794,1.71716 -0.16545,4.36041 -0.74087,5.87389 l -1.04623,2.75178 h -16.19976 c -8.90987,0 -16.50623,-0.30647 -16.8808,-0.68103 z"
     id="path9"
     transform="scale(0.26458333)" /><path
     style="display:inline;fill:#27235c;fill-opacity:1;stroke-width:1.02155"
     d="m 496.21599,684.28193 c -0.96906,-0.40002 -1.27693,-6.17135 -1.27693,-23.93754 v -23.41043 h 19.46276 19.46276 l -0.30877,5.36312 -0.30877,5.36312 -12.25855,0.51077 -12.25856,0.51077 v 3.06464 3.06464 l 11.54698,0.28935 11.54698,0.28936 -0.30997,4.81837 -0.30997,4.81838 -10.98162,0.28995 c -7.77272,0.20522 -10.9857,0.65297 -10.99557,1.53232 -0.008,0.6833 -0.28733,2.26213 -0.62147,3.50851 -0.60057,2.24028 -0.46339,2.26944 12.01712,2.55387 l 12.62463,0.28772 v 5.6185 5.6185 l -17.87706,0.1866 c -9.83238,0.10263 -18.45167,-0.0506 -19.15399,-0.34052 z"
     id="path10"
     transform="scale(0.26458333)" /><path
     style="display:inline;fill:#27235c;fill-opacity:1;stroke-width:1.02155"
     d="m 433.32857,684.28838 c -0.3871,-0.3871 -0.70382,-11.2002 -0.70382,-24.02912 v -23.3253 h 18.95199 18.95199 l -0.30877,5.36312 -0.30878,5.36312 -12.51394,0.28682 -12.51393,0.28683 v 3.54397 3.54397 h 11.237 11.23701 v 5.10773 5.10773 h -11.23701 -11.237 v 3.54397 3.54397 l 12.51393,0.28683 12.51394,0.28683 v 5.6185 5.6185 l -17.9394,0.27818 c -9.86667,0.15299 -18.25611,-0.0385 -18.64321,-0.42565 z"
     id="path11"
     transform="scale(0.26458333)" /><path
     style="display:inline;fill:#27235c;fill-opacity:1;stroke-width:1.02155"
     d="m 382.22848,684.2656 c -0.37457,-0.37457 -0.68103,-8.64909 -0.68103,-18.38783 v -17.7068 h -7.15082 -7.15082 v -5.6185 -5.61851 h 20.4843 20.48431 l -0.30877,5.36312 -0.30878,5.36312 -6.89543,0.30206 c -5.66315,0.24808 -6.90822,0.6132 -6.96695,2.04309 -0.0393,0.95757 -0.009,8.55321 0.0667,16.8792 0.0947,10.37107 -0.24389,15.59856 -1.07512,16.60013 -1.22796,1.47959 -9.20546,2.07304 -10.49758,0.78092 z"
     id="path12"
     transform="scale(0.26458333)" /><path
     style="display:inline;fill:#27235c;fill-opacity:1;stroke-width:1.02155"
     d="m 314.63618,682.83959 c -2.80925,-1.10032 -6.15775,-2.81405 -7.44111,-3.80829 l -2.33339,-1.80772 3.58288,-4.18579 3.58289,-4.1858 4.87978,2.47207 c 3.63684,1.8424 6.18077,2.39599 9.98751,2.17342 4.63786,-0.27116 5.10773,-0.52573 5.10773,-2.76737 0,-2.62451 0.11071,-2.56793 -11.1913,-5.71887 -4.38884,-1.22358 -7.19942,-2.81192 -10.08918,-5.70168 -3.82135,-3.82135 -3.98265,-4.2447 -3.5063,-9.20223 0.41031,-4.27015 1.16358,-5.86085 4.2252,-8.92248 3.57258,-3.57257 4.06268,-3.74116 11.91204,-4.09762 9.76619,-0.44351 13.64531,0.18285 18.15052,2.93076 l 3.37171,2.05654 -3.22022,4.48407 -3.22022,4.48408 -4.23767,-1.92419 c -5.46318,-2.48066 -12.45463,-2.6143 -13.35983,-0.25538 -0.98344,2.56279 1.13171,3.93994 10.04047,6.53723 4.43803,1.29388 9.37976,3.45532 10.98162,4.8032 2.68831,2.26206 2.91248,2.99767 2.91248,9.55714 0,6.22538 -0.31784,7.42429 -2.56364,9.67009 -1.41,1.41 -4.15341,3.22789 -6.09647,4.03975 -4.9846,2.0827 -15.3227,1.77898 -21.4755,-0.63093 z"
     id="path13"
     transform="scale(0.26458333)" /><path
     style="display:inline;fill:#27235c;fill-opacity:1;stroke-width:1.02155"
     d="m 209.92771,410.26407 c -11.7576,-2.59914 -32.63924,-9.52458 -41.37261,-13.7213 -14.54342,-6.98869 -40.60278,-29.46784 -52.72581,-45.48198 -8.43822,-11.14664 -21.21739,-39.68923 -24.877502,-55.56453 -2.461855,-10.67799 -3.882589,-29.10004 -3.13271,-40.62052 1.416792,-21.76635 5.12503,-36.1333 14.633682,-56.69581 7.96676,-17.22814 13.25666,-24.8259 26.74934,-38.41947 24.85894,-25.04484 48.81201,-38.51138 79.19329,-44.5229 12.65679,-2.50438 45.07473,-2.47536 58.22813,0.0521 25.35006,4.87114 49.90708,17.07385 69.93268,34.75048 25.4315,22.44842 43.87165,55.39641 49.48385,88.41546 3.48808,20.52193 1.54311,48.9944 -4.64469,67.99386 -3.72614,11.44098 -12.50945,29.88998 -18.26586,38.36666 -9.83635,14.48466 -29.11096,34.20744 -41.95251,42.92797 -8.14727,5.5327 -24.55911,13.32444 -36.16564,17.17011 -16.12659,5.34333 -22.92447,6.36527 -45.4588,6.83386 -17.83397,0.37086 -22.23026,0.15063 -29.62484,-1.48402 z m 40.77175,-92.60505 c 11.35053,-2.67549 19.2127,-7.13059 27.69736,-15.69468 11.3456,-11.45182 16.33456,-23.34747 16.30412,-38.87547 -0.0521,-26.59176 -16.428,-48.13683 -41.50497,-54.60646 -8.08931,-2.08696 -22.40981,-2.0707 -30.94444,0.0351 -10.38778,2.56309 -16.35897,5.86683 -23.24737,12.86229 -12.12962,12.31816 -17.69102,25.06853 -17.66464,40.49895 0.0298,17.43939 5.3784,30.42524 17.22306,41.81601 13.83093,13.30091 33.07936,18.45637 52.13688,13.96422 z"
     id="path14"
     transform="scale(0.26458333)" /><path
     style="display:inline;fill:#27235c;fill-opacity:1;stroke-width:1.02155"
     d="m 209.92771,410.26407 c -11.7576,-2.59914 -32.63924,-9.52458 -41.37261,-13.7213 -9.65313,-4.63871 -25.44683,-16.73447 -37.54356,-28.75309 -15.42482,-15.32523 -20.94753,-23.29288 -29.40814,-42.42726 -10.706462,-24.21358 -13.564745,-37.1884 -13.614993,-61.80354 -0.05329,-26.1038 3.289527,-41.21333 14.464353,-65.37895 7.96676,-17.22814 13.25666,-24.8259 26.74934,-38.41947 24.86291,-25.04883 48.85023,-38.53281 79.19329,-44.51687 13.08376,-2.58029 44.10352,-2.53088 58.22813,0.0928 19.1906,3.56464 35.66193,10.36617 53.21374,21.97364 28.88567,19.10284 51.01283,48.53512 61.50592,81.81164 8.54983,27.11388 8.57018,61.1736 0.0522,87.32786 -3.72614,11.44098 -12.50945,29.88998 -18.26586,38.36666 -9.83635,14.48466 -29.11096,34.20744 -41.95251,42.92797 -12.79575,8.68943 -36.72707,18.56187 -53.3875,22.02406 -4.45587,0.92597 -15.44597,1.69104 -28.23694,1.9657 -17.86678,0.38366 -22.21666,0.16785 -29.62484,-1.46981 z m 40.80782,-92.61347 c 20.46801,-4.82434 37.25623,-21.04313 42.45933,-41.01919 4.6673,-17.91896 -0.85052,-38.90505 -13.89585,-52.85056 -16.40771,-17.53988 -44.24064,-22.03658 -68.63559,-11.08877 -11.11231,4.98691 -23.65311,20.96255 -27.83999,35.46518 -2.18827,7.5798 -1.64757,25.05144 1.01407,32.7679 6.57572,19.06388 24.29297,34.39435 43.4565,37.60225 5.93249,0.99307 17.31453,0.56734 23.44153,-0.87681 z"
     id="path15"
     transform="scale(0.26458333)" /><path
     style="display:inline;fill:#27235c;fill-opacity:1;stroke-width:1.02155"
     d="m 209.92771,410.26407 c -11.7576,-2.59914 -32.63924,-9.52458 -41.37261,-13.7213 -14.64114,-7.03565 -41.05068,-29.8135 -53.04676,-45.75206 -5.91831,-7.86336 -15.38896,-27.16323 -20.377659,-41.52682 -5.652101,-16.27368 -7.137939,-25.76359 -7.15605,-45.70501 -0.02377,-26.17027 3.375681,-41.5398 14.460589,-65.37895 8.0759,-17.36798 13.31795,-24.9004 26.75146,-38.43972 24.8167,-25.0122 48.86486,-38.53202 79.20871,-44.53097 12.31741,-2.43514 44.85413,-2.4357 58.22813,-10e-4 24.28906,4.42174 49.37944,16.90384 70.06468,34.85615 25.2219,21.8896 44.32583,56.47363 49.60398,89.7986 2.00529,12.66085 1.38606,42.14071 -1.11624,53.14117 -3.71352,16.32519 -13.3671,39.0311 -21.99774,51.74027 -9.52197,14.02174 -27.34603,32.6549 -39.3481,41.13428 -14.0917,9.95568 -36.07744,19.47082 -54.14194,23.43192 -13.8977,3.04743 -47.83848,3.58893 -59.76045,0.95345 z m 40.10311,-92.52919 c 20.1698,-4.27416 37.9574,-21.226 43.06689,-41.04335 7.82458,-30.34786 -11.84335,-62.44388 -42.10305,-68.70784 -12.48994,-2.58551 -30.52546,-0.36921 -41.16471,5.05854 -9.39539,4.79317 -20.986,18.71 -25.62795,30.77144 -2.65026,6.88632 -3.53965,20.7231 -1.92719,29.9825 2.12316,12.19211 9.14168,24.02902 19.23817,32.44564 13.50512,11.25812 30.56082,15.29834 48.51784,11.49307 z"
     id="path16"
     transform="scale(0.26458333)" /><path
     style="display:inline;fill:#27235c;fill-opacity:1;stroke-width:1.02155"
     d="m 209.6886,410.23564 c -11.93454,-2.60559 -33.39904,-9.78747 -41.81913,-13.99243 -14.65164,-7.31696 -40.73086,-29.9312 -52.30135,-45.35241 -5.12048,-6.8246 -14.66382,-25.67596 -19.387887,-38.29771 -10.680877,-28.53713 -11.470778,-63.79554 -2.097972,-93.64609 3.523306,-11.22103 12.809959,-31.22693 18.647079,-40.17075 2.56886,-3.93608 9.97466,-12.5023 16.45734,-19.03604 25.05651,-25.2539 49.16847,-38.77809 79.20871,-44.42747 13.39026,-2.51818 44.56536,-2.56929 58.22813,-0.0955 45.31966,8.20572 86.81931,41.01833 107.22454,84.77944 10.79794,23.15731 14.38687,41.27167 13.50229,68.15 -0.81862,24.8741 -3.82784,36.92415 -14.92608,59.76957 -6.85151,14.10364 -11.49577,20.96358 -23.39291,34.55317 -17.81367,20.3478 -34.70113,31.88355 -60.42152,41.2737 -16.61596,6.06626 -25.58939,7.53178 -49.05729,8.01195 -17.89025,0.36604 -22.24177,0.14464 -29.86395,-1.51946 z m 46.33083,-94.30855 c 9.93686,-3.63388 15.98011,-7.49111 22.91604,-14.62661 29.93114,-30.79236 15.22019,-82.21321 -26.57284,-92.883 -11.87125,-3.03074 -29.37109,-1.3466 -40.91275,3.93734 -10.11039,4.62869 -21.4317,17.52779 -26.73317,30.45883 -3.14512,7.6714 -4.24666,21.46228 -2.47296,30.96069 3.79573,20.32674 21.25474,38.74482 41.62291,43.90937 8.73561,2.21501 23.49775,1.4085 32.15277,-1.75662 z"
     id="path17"
     transform="scale(0.26458333)" /><path
     style="display:inline;fill:#df0101;fill-opacity:1;stroke-width:1.02155"
     d="m 111.29668,683.64759 c -0.27417,-0.71447 -0.37466,-11.75828 -0.22332,-24.5418 l 0.27516,-23.24277 81.37852,-0.23069 81.37852,-0.23069 0.52885,3.57541 c 0.7826,5.29082 0.85413,40.29229 0.0886,43.34246 l -0.65937,2.62712 H 192.9294 c -64.70141,0 -81.23519,-0.26311 -81.63272,-1.29904 z"
     id="path20"
     transform="scale(0.26458333)" /><path
     style="display:inline;fill:#df0101;fill-opacity:1;stroke-width:1.02155"
     d="m 625.69695,660.18029 v -24.77865 l 80.95753,0.243 80.95753,0.243 v 24.27411 24.2741 l -80.95753,0.26154 -80.95752,0.26154 z"
     id="path21"
     transform="scale(0.26458333)" /><path
     style="display:inline;fill:#df0101;fill-opacity:1;stroke-width:0.264583"
     d="m 29.486301,168.1927 2.221397,-0.008 z"
     id="path22" /></svg>
