<?xml version="1.0" encoding="UTF-8" standalone="no"?>
<!-- Generator: Adobe Illustrator 28.3.0, SVG Export Plug-In . SVG Version: 6.00 Build 0)  -->

<svg
   version="1.1"
   id="Calque_1"
   x="0px"
   y="0px"
   viewBox="0 0 288.74134 213.86871"
   xml:space="preserve"
   sodipodi:docname="OpalRT.svg"
   width="288.74133"
   height="213.86871"
   inkscape:version="1.3.2 (091e20e, 2023-11-25, custom)"
   xmlns:inkscape="http://www.inkscape.org/namespaces/inkscape"
   xmlns:sodipodi="http://sodipodi.sourceforge.net/DTD/sodipodi-0.dtd"
   xmlns="http://www.w3.org/2000/svg"
   xmlns:svg="http://www.w3.org/2000/svg"><defs
   id="defs24" /><sodipodi:namedview
   id="namedview24"
   pagecolor="#ffffff"
   bordercolor="#000000"
   borderopacity="0.25"
   inkscape:showpageshadow="2"
   inkscape:pageopacity="0.0"
   inkscape:pagecheckerboard="0"
   inkscape:deskcolor="#d1d1d1"
   inkscape:export-bgcolor="#00000000"
   inkscape:zoom="2.6979167"
   inkscape:cx="143.81467"
   inkscape:cy="103.04247"
   inkscape:window-width="1920"
   inkscape:window-height="991"
   inkscape:window-x="-9"
   inkscape:window-y="-9"
   inkscape:window-maximized="1"
   inkscape:current-layer="Calque_1" />
<style
   type="text/css"
   id="style1">
	.st0{fill:#1A4E9D;}
	.st1{fill:#FFFFFF;}
</style>
<g
   id="g24"
   transform="translate(0,-40.772201)">
	<path
   class="st0"
   d="m 18.3,120.78 c 0.07,-0.09 0.13,-0.24 0.21,-0.25 0.3,-0.03 0.61,-0.01 0.91,-0.01 20.74,0 41.49,0 62.23,0 0.3,0 0.6,0 0.86,0 0.14,0.31 0.25,0.56 0.31,0.69 -0.08,0.7 -0.2,1.27 -0.2,1.85 -0.01,13.84 -0.01,27.69 -0.01,41.53 0,0.38 -0.12,0.88 0.07,1.13 0.33,0.43 -0.39,0.64 -0.08,1.01 0.12,0.14 0.15,0.37 0.21,0.55 -1,0.17 -10.87,0.23 -14.02,0.07 0.17,-1.55 -0.22,-3.05 -0.51,-4.56 -0.28,-1.43 -0.55,-2.87 -1.02,-4.26 -0.48,-1.41 -0.91,-2.84 -1.38,-4.3 1.41,-0.23 2.75,-0.46 4.07,-0.68 0.18,0.3 0.32,0.55 0.47,0.81 0.65,-0.25 1.26,-0.53 1.89,-0.73 0.69,-0.22 1.42,-0.34 2.11,-0.57 0.65,-0.21 1.25,-0.55 1.9,-0.74 0.7,-0.2 1.36,-0.52 2.03,-0.75 0.64,-0.21 1.35,-0.24 2.12,-0.83 -0.46,0 -0.75,-0.09 -0.93,0.02 -0.64,0.37 -1.32,0.24 -1.98,0.24 -2.52,0.01 -5.03,0.01 -7.55,0.01 -0.3,0 -0.59,0 -1,0 0.14,0.36 0.24,0.61 0.38,0.95 -1.37,0.26 -2.72,0.52 -4.2,0.79 -0.44,-0.9 -1.01,-1.85 -1.43,-2.98 0.81,-0.12 1.51,-0.17 2.18,-0.35 0.66,-0.17 1.3,-0.34 2.12,-0.18 0.07,0.09 0.22,0.3 0.39,0.52 1.7,-0.55 3.36,-1.05 4.98,-1.64 1.58,-0.57 3.18,-1.1 4.76,-1.81 -0.72,0 -1.45,-0.02 -2.17,0 -3.08,0.1 -6.16,0.22 -9.33,0.33 0.11,0.28 0.21,0.53 0.35,0.89 -0.7,0.12 -1.43,0.09 -2.03,0.37 -0.67,0.31 -1.41,0.07 -2.15,0.38 -0.57,-0.82 -1.21,-1.76 -1.86,-2.69 -0.65,-0.91 -1.3,-1.81 -1.98,-2.7 -1.63,-2.12 -3.63,-3.91 -5.54,-5.77 -1.07,-1.04 -2.27,-1.96 -3.49,-2.84 -0.94,-0.67 -1.91,-1.3 -2.82,-1.99 -0.47,-0.35 -1.01,-0.51 -1.5,-0.82 -1.19,-0.76 -2.45,-1.39 -3.72,-2.01 -0.97,-0.48 -1.97,-0.91 -2.96,-1.35 -0.94,-0.42 -1.94,-0.78 -2.93,-1.08 -1.04,-0.31 -2.05,-0.79 -3.09,-1 -1.32,-0.27 -2.59,-0.75 -3.96,-0.89 -0.51,-0.05 -1.1,-0.07 -1.58,-0.25 -0.54,-0.21 -1.08,-0.13 -1.59,-0.24 -1.22,-0.27 -2.46,-0.38 -3.7,-0.48 -1.24,-0.11 -2.5,-0.02 -3.85,-0.02 0,-1.06 0,-2.09 0,-3.12 21.13,0 42.26,0 63.39,0 0.03,0 0.07,-0.05 0.09,-0.08 0.01,-0.02 0,-0.06 0,-0.17 -21.14,0 -42.3,0 -63.47,0 z"
   id="path1" />
	<path
   class="st0"
   d="m 18.33,155.9 c 0,-9.31 0,-18.54 0,-27.83 1.75,0 3.49,-0.12 5.2,0.05 0.92,0.09 1.88,0.03 2.75,0.25 1.23,0.32 2.5,0.47 3.73,0.68 1.74,0.3 3.39,0.83 5.07,1.28 1.42,0.38 2.7,1.04 4.06,1.51 1.52,0.53 3,1.16 4.39,1.96 2.05,1.17 4.09,2.33 6.02,3.71 2.94,2.1 5.42,4.67 7.91,7.23 1.01,1.03 1.81,2.27 2.68,3.44 0.11,0.14 0.07,0.4 0.11,0.72 -1.54,-0.26 -2.87,0.65 -4.35,0.51 -0.99,0.4 -2.08,0.36 -3.08,0.73 -0.57,0.21 -1.26,-0.09 -1.82,0.31 -1.36,-0.15 -2.62,0.41 -3.94,0.58 -1.15,0.15 -2.37,0.2 -3.46,0.72 -0.78,-0.19 -1.48,0.23 -2.23,0.29 -0.68,0.05 -1.38,0.16 -2.03,0.41 -0.58,0.22 -1.27,-0.12 -1.81,0.34 -1.31,-0.1 -2.52,0.49 -3.82,0.56 -1.05,0.06 -2.12,0.31 -3.16,0.52 -1.37,0.27 -2.74,0.49 -4.11,0.75 -1.05,0.2 -2.08,0.52 -3.17,0.51 -0.44,0.53 -1.11,0.14 -1.66,0.4 -0.47,0.21 -1.12,0 -1.63,0.15 -0.52,0.18 -1.02,0.29 -1.65,0.22 z"
   id="path2" />
	<path
   class="st0"
   d="m 18.35,162.48 c 1.16,-0.08 2.24,-0.41 3.33,-0.51 1.29,-0.12 2.53,-0.46 3.8,-0.63 1.15,-0.16 2.36,-0.22 3.46,-0.72 0.78,0.2 1.49,-0.19 2.23,-0.29 1.21,-0.18 2.44,-0.29 3.61,-0.68 0.31,-0.1 0.68,-0.03 1.01,-0.08 0.32,-0.05 0.62,-0.21 0.93,-0.25 1.68,-0.18 3.34,-0.53 5,-0.83 0.49,-0.09 0.97,-0.17 1.46,-0.23 0.49,-0.05 0.99,-0.12 1.45,-0.26 1.13,-0.36 2.35,-0.29 3.47,-0.73 0.52,-0.21 1.12,-0.04 1.71,-0.26 0.72,-0.26 1.56,-0.2 2.35,-0.31 0.32,-0.04 0.62,-0.18 0.93,-0.25 0.32,-0.07 0.62,0 0.97,-0.18 0.53,-0.28 1.2,-0.06 1.82,-0.31 0.63,-0.26 1.41,-0.12 2.08,-0.31 1.66,-0.47 3.42,-0.4 5.04,-1.01 0.3,-0.11 0.68,-0.02 0.97,-0.02 0.21,0.58 0.39,1.11 0.6,1.63 0.9,2.16 1.69,4.35 2.15,6.66 0.09,0.46 0.37,0.89 0.5,1.35 0.13,0.47 -0.08,0.96 0.23,1.48 0.23,0.38 0.04,1.01 0.04,1.59 -16.38,0 -32.75,0 -49.17,0 0.03,-1.57 0.03,-3.16 0.03,-4.85 z"
   id="path3" />
	<path
   class="st1"
   d="m 95.12,129.34 c 0.24,-0.47 0.39,-0.91 0.65,-1.25 0.71,-0.91 1.7,-1.31 2.83,-1.31 5.51,-0.01 11.02,-0.01 16.53,-0.01 0.26,0 0.52,-0.01 0.78,0 0.89,0.02 1.68,0.38 2.35,0.91 0.76,0.59 1.04,1.5 1.05,2.41 0.04,4.3 0.02,8.59 0.01,12.89 0,0.55 -0.46,2.01 -0.78,2.41 -0.5,0.62 -1.28,0.71 -1.97,0.89 -0.68,0.18 -1.4,0.23 -2.1,0.27 -0.69,0.04 -1.39,0.01 -2.08,0.01 -1.74,0 -3.47,0.04 -5.21,-0.01 -3.3,-0.08 -6.61,0.29 -9.86,-0.29 -0.13,-0.09 -0.23,-0.19 -0.34,-0.22 -1.45,-0.42 -1.84,-1.61 -1.85,-2.87 -0.05,-4.64 -0.01,-9.29 -0.01,-13.83 z m 4.73,1.09 c 0,4.14 0,8.16 0,12.17 4.13,0.17 13.7,0.1 14.75,-0.09 0,-4.03 0,-8.05 0,-12.09 -4.93,0.01 -9.82,0.01 -14.75,0.01 z"
   id="path4" />
	<path
   class="st1"
   d="m 237.42,146.51 c -1.9,-1.38 -3.37,-3.27 -5.16,-4.8 -1.01,-0.86 -1.93,-1.8 -2.89,-2.67 -1.43,0 -2.85,0 -4.31,0 0,2.5 0,4.96 0,7.46 -1.46,0 -2.88,0 -4.36,0 -0.06,-0.07 -0.17,-0.19 -0.31,-0.35 0,-6.41 0,-12.86 0,-19.39 0.44,0 0.86,0 1.29,0 5.2,0 10.4,0 15.61,0 0.43,0 0.87,-0.03 1.3,0.01 0.4,0.04 0.8,0.17 1.19,0.25 0.3,0.06 1.24,0.8 1.43,1.06 0.59,0.85 0.69,1.84 0.75,2.8 0.1,1.42 0.03,2.86 0.02,4.29 -0.01,0.96 -0.35,1.85 -0.82,2.64 -0.24,0.42 -0.81,0.79 -1.29,0.88 -0.68,0.13 -1.35,0.4 -2.1,0.32 -0.9,-0.1 -1.81,-0.02 -2.94,-0.02 0.58,0.49 0.98,0.95 1.49,1.2 0.48,0.24 0.78,0.63 1.17,0.94 0.35,0.29 0.73,0.54 1.08,0.83 0.95,0.8 1.88,1.63 2.97,2.24 0.22,0.12 0.38,0.34 0.57,0.51 0.46,0.43 0.84,0.94 1.45,1.21 0.14,0.06 0.19,0.31 0.33,0.57 -2.24,0.02 -4.35,0.02 -6.47,0.02 z m -0.13,-15.8 c -0.67,-0.33 -1.26,-0.57 -1.95,-0.56 -2.78,0.02 -5.55,0.01 -8.33,0.01 -0.64,0 -1.28,0 -1.93,0 0,1.86 0,3.62 0,5.43 3.79,0 7.55,0 11.34,0 0.28,-0.18 0.59,-0.38 0.87,-0.56 0,-1.46 0,-2.85 0,-4.32 z"
   id="path5" />
	<path
   class="st1"
   d="m 147.47,127.82 c 0.21,0.33 0.63,0.74 0.73,1.22 0.14,0.66 0.03,1.38 0.03,2.07 0,0.35 -0.02,0.7 0.01,1.04 0.04,0.53 -0.16,1.09 0.24,1.6 0.13,0.16 0.13,0.59 0,0.75 -0.55,0.69 -0.11,1.52 -0.44,2.29 -0.6,1.38 -1.66,1.88 -2.96,1.92 -2.47,0.08 -4.94,0.02 -7.41,0.02 -1.99,0 -3.98,0 -6.06,0 0,2.58 0,5.16 0,7.77 -1.59,0 -3.1,0 -4.66,0 0,-6.54 0,-13.1 0,-19.75 0.4,0 0.83,0 1.25,0 5.03,0 10.05,0.01 15.08,-0.01 1.42,0.02 2.84,-0.05 4.19,1.08 z m -15.87,7.54 c 3.76,0 7.4,0 11.05,0 0.4,-0.29 0.8,-0.58 1.16,-0.84 0,-1.2 0,-2.33 0,-3.46 -0.58,-0.71 -1.35,-0.91 -2.22,-0.91 -2.6,0.01 -5.2,0 -7.8,0 -0.73,0 -1.45,0 -2.19,0 0,1.77 0,3.45 0,5.21 z"
   id="path6" />
	<path
   class="st1"
   d="m 177.26,146.49 c -1.83,0 -3.54,0 -5.34,0 -0.79,-1.4 -1.61,-2.84 -2.46,-4.33 -4.04,0 -8.15,0 -12.27,0 -0.77,1.45 -1.55,2.9 -2.32,4.36 -1.47,0 -2.98,0 -4.55,0 0.02,-0.24 -0.05,-0.52 0.06,-0.64 0.87,-0.99 1.25,-2.27 1.99,-3.35 1.07,-1.57 1.8,-3.34 2.86,-4.93 0.53,-0.8 0.88,-1.72 1.36,-2.56 0.88,-1.55 1.82,-3.06 2.7,-4.61 0.6,-1.05 1.14,-2.13 1.72,-3.19 0.08,-0.15 0.19,-0.27 0.31,-0.43 1.5,0 3.01,0 4.51,0 0.88,1.25 1.47,2.68 2.38,3.94 0.56,0.78 0.92,1.7 1.39,2.54 0.54,0.95 1.11,1.88 1.66,2.83 0.44,0.77 0.84,1.56 1.29,2.33 0.78,1.33 1.61,2.63 2.38,3.96 0.51,0.87 0.94,1.78 1.43,2.66 0.26,0.45 0.56,0.88 0.9,1.42 z m -9.68,-8.06 c -0.1,-0.22 -0.16,-0.36 -0.23,-0.49 -0.29,-0.53 -0.6,-1.05 -0.88,-1.58 -1.01,-1.88 -2,-3.77 -3.04,-5.73 -1.46,2.63 -2.87,5.19 -4.31,7.8 2.87,0 5.61,0 8.46,0 z"
   id="path7" />
	<path
   class="st1"
   d="m 256.87,130.48 c -3.1,-0.23 -6.06,-0.66 -9.09,-0.03 -0.14,-0.61 -0.05,-1.21 -0.07,-1.8 -0.02,-0.6 0,-1.2 0,-1.85 7.54,0 15.04,0 22.59,0 0,1.15 0,2.34 0,3.58 -2.89,0 -5.79,0 -8.78,0 0,5.31 0,10.58 0,15.88 -1.6,0 -3.1,0 -4.66,0 0.01,-5.24 0.01,-10.48 0.01,-15.78 z"
   id="path8" />
	<path
   class="st1"
   d="m 184.19,146.56 c 0,-6.62 0,-13.16 0,-19.74 1.52,0 3.02,0 4.58,0 -0.02,-0.02 0.01,0 0.04,0.04 0.02,0.03 0.05,0.07 0.05,0.11 0,5.2 0,10.39 0,15.68 4.95,0 9.87,0 14.82,0 0,1.24 0,2.4 0,3.63 -0.2,0.09 -0.41,0.23 -0.64,0.27 -0.3,0.05 -0.6,0.01 -0.91,0.01 -5.94,0 -11.88,0 -17.94,0 z"
   id="path9" />
	<path
   class="st0"
   d="m 61.44,150.16 c 0.45,0.77 0.82,1.45 1.24,2.09 0.26,0.41 0.2,0.7 -0.23,1.05 -1.33,0 -2.68,0.42 -4.08,0.6 -0.96,0.12 -1.97,0.19 -2.91,0.48 -1.57,0.48 -3.24,0.4 -4.79,0.99 -0.62,0.24 -1.39,0.05 -2.1,0.27 -0.73,0.23 -1.51,0.26 -2.26,0.51 -0.58,0.19 -1.22,0.06 -1.84,0.27 -0.7,0.23 -1.57,0.03 -2.2,0.34 -0.68,0.34 -1.38,0.03 -2.05,0.42 -0.44,0.26 -1.12,0.06 -1.7,0.28 -0.57,0.21 -1.22,0.25 -1.83,0.27 -0.63,0.03 -1.19,0.45 -1.84,0.27 -1.11,0.44 -2.33,0.33 -3.46,0.74 -0.76,0.28 -1.65,0.2 -2.48,0.3 -0.4,0.05 -0.82,0.11 -1.19,0.27 -0.77,0.32 -1.61,0.29 -2.4,0.45 -0.8,0.17 -1.66,0.25 -2.47,0.38 -1.02,0.17 -2.09,0.28 -3.09,0.68 -0.4,0.16 -0.92,0.03 -1.41,0.03 0,-1.05 0,-2.03 0,-3.01 0.46,-0.22 0.93,-0.29 1.42,-0.39 1.2,-0.24 2.45,-0.23 3.6,-0.71 0.15,-0.06 0.34,-0.02 0.5,-0.04 0.45,-0.06 0.89,0.12 1.35,-0.22 0.34,-0.25 0.94,0.18 1.3,-0.3 0.73,0.11 1.42,-0.1 2.1,-0.27 1.19,-0.3 2.44,-0.27 3.6,-0.72 0.3,-0.12 0.68,-0.01 1.02,-0.06 0.32,-0.05 0.62,-0.24 0.93,-0.24 1.26,0.01 2.42,-0.66 3.69,-0.53 0.66,-0.38 1.42,-0.34 2.13,-0.5 0.73,-0.17 1.54,-0.05 2.21,-0.32 0.75,-0.3 1.53,-0.22 2.29,-0.43 0.69,-0.18 1.44,-0.51 2.22,-0.32 0.48,-0.4 1.11,-0.09 1.57,-0.3 0.5,-0.22 1.01,-0.09 1.46,-0.25 1.13,-0.39 2.33,-0.34 3.47,-0.73 0.73,-0.25 1.57,-0.19 2.35,-0.3 0.32,-0.04 0.62,-0.18 0.94,-0.25 0.32,-0.07 0.63,0.05 0.97,-0.19 0.43,-0.31 1.02,-0.01 1.58,-0.25 0.69,-0.29 1.54,-0.24 2.39,-0.36 z"
   id="path10" />
	<path
   class="st1"
   d="m 218.28,160.33 c 0,-2.06 0.02,-4.18 -0.01,-6.31 -0.01,-0.92 0.18,-1.66 1.44,-1.99 2.92,0 6.12,0 9.39,0 0.25,0.28 0.53,0.6 0.89,1.01 0,0.08 -0.03,0.3 0.01,0.51 0.04,0.19 0.17,0.36 0.3,0.62 -0.09,0.1 -0.19,0.29 -0.32,0.32 -0.76,0.13 -1.47,0.58 -2.33,0.33 0,-0.3 0,-0.59 0,-0.93 -2.24,0 -4.44,0 -6.69,0 0.02,-0.02 -0.02,0.01 -0.04,0.04 -0.02,0.03 -0.04,0.07 -0.04,0.11 0,1.9 0,3.8 0,5.75 2.24,0 4.44,0 6.71,0 0,-0.5 0,-1.05 0,-1.71 -1.04,-0.67 -2.31,-0.15 -3.53,-0.37 0,-0.54 0,-1.09 0,-1.7 -0.02,0.02 0,-0.02 0.04,-0.04 0.03,-0.02 0.07,-0.04 0.11,-0.04 1.9,0 3.8,0 5.81,0 0.08,0.28 0.23,0.54 0.23,0.81 0.01,1.62 0.19,3.28 -0.69,4.73 -0.82,0.46 -1.65,0.46 -2.49,0.46 -2.08,-0.02 -4.16,-0.05 -6.24,0.01 -1.17,0.03 -2.04,-0.3 -2.55,-1.61 z"
   id="path11" />
	<path
   class="st1"
   d="m 202.74,161.92 c -0.36,-0.44 -0.76,-0.92 -1.12,-1.36 0,-2.2 0.04,-4.32 -0.02,-6.44 -0.02,-0.89 0.28,-1.54 0.87,-2.03 2.52,-0.56 5,-0.28 7.48,-0.31 0.91,-0.01 1.83,0.18 2.65,0.27 1.06,0.35 1.3,1.1 1.28,2.06 -0.04,1.9 0,3.81 -0.02,5.71 -0.01,0.48 -0.13,0.97 -0.18,1.36 -0.4,0.27 -0.7,0.48 -1.07,0.72 -3.21,0.02 -6.5,0.02 -9.87,0.02 z m 1.27,-8.05 c 0,2.05 0,3.99 0,5.97 2.46,0 4.89,0 7.31,0 0.04,0 0.08,-0.02 0.11,-0.04 0.03,-0.02 0.06,-0.06 0.05,-0.05 0,-1.98 0,-3.92 0,-5.88 -2.51,0 -4.97,0 -7.47,0 z"
   id="path12" />
	<path
   class="st1"
   d="m 183.95,161.07 c -0.96,1.02 -1.95,0.84 -2.91,0.84 -2.64,0.01 -5.29,0 -7.88,0 -0.3,-0.22 -0.56,-0.42 -0.94,-0.71 -0.11,-0.25 -0.31,-0.63 -0.31,-1.12 0.03,-2.04 0.01,-4.07 0.01,-6.11 0,-0.35 0,-0.69 0,-1.03 0.31,-0.31 0.61,-0.62 0.91,-0.93 3.39,0 6.77,0 10.27,0 0.33,0.33 0.73,0.73 1.06,1.06 0,1.68 0.01,3.24 0,4.8 -0.01,1.15 0.17,2.31 -0.21,3.2 z m -2.17,-1.25 c 0,-2.05 0,-3.99 0,-5.97 -2.46,0 -4.89,0 -7.31,0 -0.04,0 -0.08,0.02 -0.11,0.04 -0.03,0.02 -0.06,0.06 -0.04,0.04 0,1.98 0,3.92 0,5.88 2.5,0.01 4.96,0.01 7.46,0.01 z"
   id="path13" />
	<path
   class="st1"
   d="m 256.56,153.36 c 0.38,-1.12 1.12,-1.37 2.1,-1.35 2.47,0.04 4.94,0.01 7.3,0.01 0.28,0.14 0.46,0.22 0.7,0.35 0.17,0.41 0.42,0.88 0.55,1.38 0.06,0.24 -0.1,0.54 -0.15,0.76 -0.77,0.15 -1.41,0.27 -2.13,0.41 -0.03,-0.36 -0.05,-0.68 -0.07,-1.04 -2.06,0 -4.09,0 -6.17,0 0,0.58 0,1.16 0,1.74 2.67,0.23 5.33,-0.27 7.95,0.37 0.46,0.43 0.62,0.96 0.6,1.58 -0.03,0.82 -0.01,1.64 -0.01,2.43 0.2,0.07 0.35,0.13 0.5,0.18 -0.06,0.3 -0.48,0.1 -0.55,0.55 -0.08,0.53 -0.54,0.99 -1.38,1.19 -2.61,0 -5.48,0 -8.35,0 -0.4,-0.29 -0.8,-0.58 -1.06,-0.77 -0.15,-0.65 -0.26,-1.12 -0.37,-1.6 0.52,-0.54 1.18,-0.75 2.33,-0.73 0,0.32 0,0.64 0,0.99 2.21,0 4.32,0 6.42,0 0.65,-0.46 0.25,-1.12 0.38,-1.65 -0.15,-0.15 -0.27,-0.27 -0.41,-0.41 -2.12,0 -4.24,0 -6.37,-0.01 -0.28,0 -0.55,-0.04 -0.85,-0.14 -0.88,-0.29 -0.89,-1.04 -0.96,-1.68 -0.07,-0.89 0,-1.81 0,-2.56 z"
   id="path14" />
	<path
   class="st1"
   d="m 252.05,151.81 c 0.14,0.14 0.23,0.23 0.36,0.36 -0.12,0.52 0.27,1.17 -0.41,1.67 -2.4,0 -4.86,0 -7.37,0 0,0.59 0,1.14 0,1.73 0.45,0.33 1,0.39 1.6,0.37 0.9,-0.03 1.8,-0.01 2.74,-0.01 0,0.61 0,1.16 0,1.8 -1.43,0 -2.88,0 -4.36,0 0,0.73 0,1.36 0,2.09 2.57,0 5.15,0 7.75,0 0,0.73 0,1.36 0,2.05 -3.45,0 -6.89,0 -10.36,0 0,-3.27 0,-6.51 0,-9.74 0.09,-0.09 0.19,-0.19 0.32,-0.32 3.2,0 6.44,0 9.73,0 z"
   id="path15" />
	<path
   class="st1"
   d="m 155.57,152.05 c 0.64,0 1.24,0 1.88,0 1.01,0.91 1.97,1.98 3.13,2.74 0.82,0.54 1.35,1.35 2.22,1.83 0.83,0.46 1.49,1.24 2.27,1.91 0.36,-0.7 -0.28,-1.31 -0.19,-2 0.1,-0.72 0.02,-1.47 0.02,-2.21 0,-0.73 0,-1.46 0,-2.24 0.76,0 1.48,0 2.32,0 0.06,1.58 0.01,3.2 0.02,4.83 0.01,1.64 0,3.28 0,4.97 -0.59,0 -1.14,0 -1.68,0 -2.58,-2.17 -5.17,-4.35 -7.76,-6.54 -0.06,0.04 -0.12,0.08 -0.19,0.13 0.06,0.2 0.13,0.41 0.22,0.7 0,1.83 0,3.77 0,5.74 -0.76,0 -1.49,0 -2.26,0 0,-3.27 0,-6.51 0,-9.86 z"
   id="path16" />
	<path
   class="st1"
   d="m 134.18,155.36 c -0.82,0.13 -1.54,0.25 -2.33,0.38 0,-0.6 0,-1.06 0,-1.48 -0.14,-0.14 -0.23,-0.23 -0.36,-0.36 -1.81,0 -3.66,0 -5.58,0 0,1.93 0,3.9 0,5.91 1.93,0 3.87,0 5.9,0 0,-0.64 0,-1.32 0,-2.06 0.74,0.13 1.37,0.24 2.06,0.36 0.05,0.05 0.15,0.15 0.27,0.27 0,0.82 0,1.68 0,2.71 -0.13,0.08 -0.38,0.24 -0.64,0.4 -0.9,0.57 -1.96,0.43 -3.01,0.44 -1.91,0.01 -3.82,0 -5.73,0 -1.21,-0.43 -1.53,-1.39 -1.53,-2.55 0,-1.73 0.01,-3.47 0,-5.2 0,-0.83 0.23,-1.56 0.88,-2.11 3.04,-0.45 6.09,-0.44 9.18,-0.01 0.27,0.28 0.57,0.59 0.89,0.91 0,0.75 0,1.53 0,2.39 z"
   id="path17" />
	<path
   class="st1"
   d="m 109.23,152.05 c 3.37,0 6.7,0 10.07,0 0,0.57 0,1.13 0,1.77 -2.55,0 -5.12,0 -7.74,0 0,0.64 0,1.19 0,1.8 1.4,0 2.82,0 4.24,0 0.13,0.16 0.24,0.3 0.39,0.47 0,0.48 0,1.03 0,1.63 -1.53,0 -3.04,0 -4.6,0 0,0.71 0,1.38 0,2.1 2.64,0 5.28,0 7.96,0 0,0.71 0,1.38 0,2.08 -3.44,0 -6.86,0 -10.32,0 0,-3.26 0,-6.5 0,-9.85 z"
   id="path18" />
	<path
   class="st1"
   d="m 141.16,155.64 c 2.43,0 4.71,0 7.05,0 0,-1.18 0,-2.34 0,-3.56 0.8,0 1.56,0 2.34,0 0,3.25 0,6.5 0,9.79 -0.72,0 -1.45,0 -2.3,0 -0.04,-0.61 -0.01,-1.29 -0.01,-1.97 -0.01,-0.69 0,-1.38 0,-2.11 -2.33,0 -4.62,0 -7,0 0,1.33 0,2.69 0,4.09 -0.82,0 -1.54,0 -2.32,0 0,-3.26 0,-6.53 0,-9.83 0.75,0 1.47,0 2.24,0 0,1.17 0,2.33 0,3.59 z"
   id="path19" />
	<path
   class="st1"
   d="m 106.55,152.06 c 0,0.6 0,1.16 0,1.75 -1.44,0 -2.86,0 -4.36,0 0,2.7 0,5.37 0,8.07 -0.89,0 -1.71,0 -2.6,0 0,-2.63 0,-5.29 0,-7.99 -1.5,0 -2.92,0 -4.4,0 0,-0.62 0,-1.2 0,-1.82 3.74,-0.01 7.5,-0.01 11.36,-0.01 z"
   id="path20" />
	<path
   class="st1"
   d="m 188.9,152.05 c 0.76,0 1.49,0 2.3,0 0,2.59 0,5.16 0,7.78 2.46,0 4.83,0 7.15,0 0.73,0.58 0.27,1.33 0.45,2.03 -3.32,0 -6.58,0 -9.89,0 -0.01,-3.22 -0.01,-6.45 -0.01,-9.81 z"
   id="path21" />
	<path
   class="st1"
   d="m 237.25,161.89 c -0.75,0 -1.48,0 -2.2,0 -0.09,-0.09 -0.19,-0.19 -0.32,-0.32 0,-3.14 0,-6.31 0,-9.47 0.85,-0.08 1.66,-0.16 2.52,-0.25 0,3.31 0,6.66 0,10.04 z"
   id="path22" />
	<path
   class="st1"
   d="m 206.87,134.34 c 2.07,0 4.09,0 6.16,0 0,1.26 0,2.51 0,3.8 0.02,-0.02 -0.01,0.02 -0.05,0.04 -0.03,0.02 -0.07,0.04 -0.11,0.04 -1.99,0 -3.97,0 -6,0 0,-1.28 0,-2.52 0,-3.88 z"
   id="path23" />
	<path
   class="st0"
   d="m 18.3,120.78 c 21.16,0 42.33,0 63.49,0 0,0.11 0.01,0.15 0,0.17 -0.02,0.03 -0.06,0.08 -0.09,0.08 -21.13,0 -42.26,0 -63.39,0 -0.01,-0.08 -0.01,-0.17 -0.01,-0.25 z"
   id="path24" />
</g>
</svg>
