<?xml version="1.0" encoding="UTF-8" standalone="no"?>
<!-- Generator: Adobe Illustrator 28.3.0, SVG Export Plug-In . SVG Version: 6.00 Build 0)  -->

<svg
   version="1.1"
   id="Calque_1"
   x="0px"
   y="0px"
   viewBox="0 0 286.5174 169.7606"
   xml:space="preserve"
   sodipodi:docname="PMGTechnologies.svg"
   width="286.5174"
   height="169.7606"
   inkscape:version="1.3.2 (091e20e, 2023-11-25, custom)"
   xmlns:inkscape="http://www.inkscape.org/namespaces/inkscape"
   xmlns:sodipodi="http://sodipodi.sourceforge.net/DTD/sodipodi-0.dtd"
   xmlns="http://www.w3.org/2000/svg"
   xmlns:svg="http://www.w3.org/2000/svg"><defs
   id="defs18" /><sodipodi:namedview
   id="namedview18"
   pagecolor="#ffffff"
   bordercolor="#000000"
   borderopacity="0.25"
   inkscape:showpageshadow="2"
   inkscape:pageopacity="0.0"
   inkscape:pagecheckerboard="0"
   inkscape:deskcolor="#d1d1d1"
   inkscape:zoom="2.6979167"
   inkscape:cx="144"
   inkscape:cy="84.509653"
   inkscape:window-width="1920"
   inkscape:window-height="991"
   inkscape:window-x="-9"
   inkscape:window-y="-9"
   inkscape:window-maximized="1"
   inkscape:current-layer="Calque_1" />
<style
   type="text/css"
   id="style1">
	.st0{fill:#E42529;}
	.st1{fill:#FFFFFF;}
</style>
<g
   id="g18"
   transform="translate(0,-59.30502)">
	<path
   class="st0"
   d="m 40.64,121.36 c 12.55,-0.05 22.38,9.86 22.72,21.87 0.37,12.75 -9.75,23.06 -22.16,23.22 -12.51,0.17 -22.62,-9.72 -22.85,-22.11 -0.24,-12.59 9.74,-22.82 22.29,-22.98 z m 0.21,44.13 c 11.78,0 21.51,-9.67 21.52,-21.4 0.01,-12.1 -9.57,-21.72 -21.62,-21.72 -11.77,0 -21.4,9.7 -21.4,21.56 -0.01,11.85 9.68,21.56 21.5,21.56 z"
   id="path1" />
	<path
   class="st1"
   d="m 89.12,144.93 c 0.64,-1.39 1.28,-2.75 1.91,-4.12 0.6,-1.31 1.2,-2.61 1.78,-3.93 0.15,-0.34 0.33,-0.47 0.71,-0.45 0.52,0.03 1.04,0.02 1.56,0 0.3,-0.01 0.45,0.05 0.45,0.41 -0.01,3.38 -0.01,6.75 0,10.13 0,0.28 -0.07,0.39 -0.38,0.41 -1.87,0.12 -1.87,0.13 -1.87,-1.72 0,-1.17 0,-2.33 0,-3.5 0,-0.2 0.07,-0.41 -0.1,-0.64 -0.4,0.5 -0.58,1.1 -0.85,1.64 -0.61,1.25 -1.21,2.51 -1.78,3.79 -0.16,0.35 -0.35,0.45 -0.7,0.43 -0.67,-0.03 -1.48,0.21 -1.96,-0.1 -0.48,-0.3 -0.64,-1.12 -0.93,-1.72 -0.65,-1.37 -1.29,-2.74 -1.95,-4.15 -0.18,0.15 -0.11,0.33 -0.11,0.47 -0.01,1.65 -0.02,3.29 0.01,4.94 0.01,0.42 -0.07,0.61 -0.54,0.56 -0.43,-0.04 -0.88,-0.03 -1.31,0 -0.34,0.02 -0.42,-0.11 -0.42,-0.43 0.01,-3.35 0.01,-6.71 0,-10.06 0,-0.38 0.14,-0.48 0.48,-0.44 0.17,0.02 0.34,0.06 0.5,0.02 1.26,-0.27 1.8,0.37 2.25,1.48 0.87,2.16 1.91,4.25 2.89,6.37 0.07,0.19 0.11,0.43 0.36,0.61 z"
   id="path2" />
	<path
   class="st1"
   d="m 103.55,147.37 c -1.13,0 -2.25,0.01 -3.38,0 -1.32,-0.01 -2.2,-0.86 -2.21,-2.19 -0.02,-2.17 -0.02,-4.33 0,-6.5 0.01,-1.41 0.85,-2.23 2.29,-2.24 2.23,-0.01 4.46,-0.01 6.7,0 1.42,0.01 2.25,0.84 2.28,2.25 0.03,1.19 0.03,1.19 -1.15,1.19 -0.17,0 -0.34,-0.02 -0.5,0 -0.39,0.05 -0.53,-0.11 -0.49,-0.5 0.08,-0.62 -0.26,-0.79 -0.82,-0.79 -1.77,0.02 -3.55,0 -5.32,0.01 -0.75,0 -0.89,0.13 -0.89,0.86 0,1.62 0,3.25 0,4.87 0,0.71 0.14,0.86 0.82,0.87 1.81,0 3.63,0 5.44,0 0.28,0 0.59,0 0.69,-0.3 0.14,-0.39 0.11,-0.82 0.02,-1.23 -0.03,-0.15 -0.25,-0.1 -0.39,-0.1 -0.81,0 -1.63,-0.02 -2.44,0 -0.39,0.01 -0.49,-0.13 -0.49,-0.5 -0.02,-1.5 -0.03,-1.5 1.47,-1.5 1.17,0 2.34,0.01 3.5,-0.01 0.37,-0.01 0.56,0.05 0.54,0.5 -0.04,1 0,2 -0.01,3 -0.02,1.49 -0.85,2.29 -2.35,2.29 -0.02,0 -0.04,0 -0.06,0 -1.08,0.02 -2.17,0.02 -3.25,0.02 z"
   id="path3" />
	<path
   class="st1"
   d="m 264.62,136.47 c 1.19,0 2.38,0 3.57,0 1.39,0 2.33,1.11 2.13,2.48 -0.03,0.21 -0.1,0.29 -0.31,0.29 -0.46,-0.01 -0.92,-0.01 -1.38,-0.01 -0.16,0 -0.28,-0.05 -0.31,-0.23 -0.08,-0.49 -0.45,-0.53 -0.85,-0.53 -1.9,0 -3.8,0 -5.7,0 -0.7,0 -0.88,0.18 -0.87,0.9 0.02,1.77 -0.26,1.61 1.58,1.61 1.96,0 3.92,0 5.88,0 1.24,0 1.93,0.69 1.94,1.93 0.01,0.77 0.01,1.54 0,2.31 -0.03,1.22 -0.84,2.04 -2.06,2.04 -2.44,0.01 -4.88,0.01 -7.32,0 -1.27,-0.01 -2.23,-1.23 -1.99,-2.49 0.01,-0.06 0.01,-0.13 0.05,-0.18 0.2,-0.26 1.83,-0.09 1.94,0.22 0.13,0.39 0.42,0.49 0.78,0.49 1.98,-0.01 3.96,-0.02 5.95,-0.03 0.47,0 0.69,-0.26 0.69,-0.7 -0.01,-2.18 0.26,-1.79 -1.69,-1.81 -1.9,-0.02 -3.8,0 -5.7,-0.01 -1.31,0 -2.01,-0.7 -2.01,-2 0,-0.71 -0.01,-1.42 0,-2.13 0.01,-1.37 0.82,-2.18 2.18,-2.18 1.16,0.03 2.33,0.03 3.5,0.03 z"
   id="path4" />
	<path
   class="st1"
   d="m 232.24,147.27 c -1.19,0 -2.38,0 -3.57,0 -1.23,-0.01 -2.08,-0.78 -2.09,-2 -0.02,-2.27 -0.03,-4.54 0,-6.81 0.01,-1.18 0.88,-1.99 2.04,-1.99 2.42,-0.01 4.84,-0.01 7.26,0 1.19,0 2,0.8 2.05,1.98 0.05,1.27 0.05,1.25 -1.21,1.27 -0.47,0.01 -0.86,0.04 -0.77,-0.65 0.06,-0.43 -0.28,-0.64 -0.68,-0.64 -2,-0.01 -4.01,-0.01 -6.01,0 -0.51,0 -0.73,0.28 -0.73,0.8 0.01,1.75 0.02,3.5 0,5.25 -0.01,0.59 0.27,0.84 0.83,0.84 1.94,0 3.88,0 5.82,0 0.54,0 0.81,-0.25 0.78,-0.81 -0.01,-0.15 -0.02,-0.29 0,-0.44 0.06,-0.47 -0.08,-0.66 -0.6,-0.62 -0.81,0.05 -1.63,0.01 -2.44,0.02 -0.32,0.01 -0.42,-0.11 -0.44,-0.43 -0.05,-1.38 -0.07,-1.38 1.3,-1.38 1.19,0 2.38,0.01 3.57,-0.01 0.41,-0.01 0.6,0.07 0.58,0.54 -0.03,1.02 0,2.04 -0.01,3.06 -0.02,1.22 -0.83,2.02 -2.06,2.02 -1.2,0.01 -2.41,0.01 -3.62,0 z"
   id="path5" />
	<path
   class="st1"
   d="m 179.6,144.65 c 0,-0.38 0,-0.6 0,-0.82 0,-2.29 0.01,-4.58 -0.01,-6.88 0,-0.37 0.07,-0.49 0.47,-0.5 1.65,-0.01 1.65,-0.03 1.65,1.59 0,2.88 -0.01,5.75 0.01,8.63 0,0.5 -0.14,0.65 -0.63,0.61 -0.75,-0.06 -1.62,0.25 -2.21,-0.12 -0.57,-0.34 -0.85,-1.15 -1.25,-1.75 -1.29,-1.94 -2.57,-3.89 -3.86,-5.84 -0.11,-0.17 -0.24,-0.33 -0.38,-0.53 -0.22,0.2 -0.14,0.44 -0.14,0.64 -0.01,2.35 -0.01,4.71 0,7.06 0,0.39 -0.07,0.53 -0.51,0.53 -1.58,0 -1.58,0.02 -1.58,-1.57 0,-2.88 0.02,-5.75 -0.01,-8.63 -0.01,-0.54 0.16,-0.67 0.66,-0.63 0.78,0.07 1.7,-0.26 2.32,0.13 0.6,0.37 0.9,1.22 1.32,1.86 1.26,1.91 2.52,3.82 3.78,5.74 0.1,0.13 0.19,0.23 0.37,0.48 z"
   id="path6" />
	<path
   class="st1"
   d="m 217.56,147.27 c -1.17,0 -2.34,0.01 -3.5,0 -1.26,-0.01 -2.27,-0.98 -2.29,-2.25 -0.02,-2.1 -0.03,-4.21 0,-6.31 0.02,-1.28 1.01,-2.23 2.29,-2.24 2.36,-0.02 4.71,-0.02 7.07,0 1.26,0.01 2.27,0.98 2.29,2.25 0.03,2.1 0.03,4.21 0,6.31 -0.02,1.26 -1.04,2.23 -2.3,2.24 -1.19,0.01 -2.38,0 -3.56,0 z m 0,-1.95 c 0,0 0,0 0,0 0.94,-0.01 1.88,0.01 2.82,-0.01 0.74,-0.01 1.07,-0.35 1.08,-1.07 0.01,-1.58 0.01,-3.17 0,-4.75 0,-0.69 -0.34,-1.05 -1.03,-1.06 -1.9,-0.02 -3.8,-0.02 -5.7,0 -0.69,0.01 -1.03,0.37 -1.03,1.07 -0.01,1.56 -0.01,3.13 0,4.69 0.01,0.78 0.37,1.12 1.18,1.13 0.89,0.01 1.78,0 2.68,0 z"
   id="path7" />
	<path
   class="st1"
   d="m 190.7,147.27 c -1.17,0 -2.34,0.01 -3.51,0 -1.33,-0.01 -2.32,-1 -2.33,-2.34 -0.01,-2.02 -0.01,-4.04 0,-6.07 0.01,-1.42 0.98,-2.39 2.4,-2.4 2.32,-0.01 4.63,-0.01 6.95,0 1.27,0.01 2.28,0.97 2.3,2.25 0.03,2.11 0.03,4.21 0,6.32 -0.02,1.27 -1.04,2.23 -2.31,2.24 -1.16,0.01 -2.33,0 -3.5,0 z m 0.05,-8.84 c -0.92,0 -1.84,-0.01 -2.75,0 -0.85,0.01 -1.19,0.33 -1.19,1.16 -0.01,1.52 -0.01,3.04 0,4.56 0.01,0.83 0.35,1.16 1.19,1.16 1.77,0.01 3.55,0.01 5.32,0 0.94,0 1.25,-0.31 1.25,-1.23 0.01,-1.48 0,-2.96 0,-4.44 0,-0.92 -0.31,-1.22 -1.25,-1.23 -0.86,0.01 -1.72,0.02 -2.57,0.02 z"
   id="path8" />
	<path
   class="st1"
   d="m 246.35,141.85 c 0,-1.61 0.01,-3.21 -0.01,-4.82 0,-0.4 0.06,-0.59 0.54,-0.58 2.8,0.02 5.59,0.02 8.39,0 0.41,0 0.53,0.11 0.53,0.52 -0.01,1.29 0.01,1.29 -1.25,1.29 -1.86,0 -3.72,0.01 -5.57,-0.01 -0.37,0 -0.53,0.06 -0.5,0.47 0.04,0.56 0.04,1.13 0,1.69 -0.03,0.41 0.12,0.47 0.49,0.47 2.07,-0.02 4.13,0 6.2,-0.02 0.45,0 0.65,0.06 0.63,0.59 -0.04,1.41 -0.01,1.41 -1.4,1.41 -1.77,0 -3.55,0.02 -5.32,-0.01 -0.52,-0.01 -0.64,0.16 -0.6,0.63 0.04,0.48 0.04,0.96 0,1.44 -0.03,0.43 0.09,0.56 0.54,0.56 2.02,-0.03 4.05,0.01 6.07,-0.02 0.52,-0.01 0.73,0.08 0.71,0.67 -0.05,1.15 -0.02,1.15 -1.14,1.15 -2.59,0 -5.18,-0.01 -7.77,0.01 -0.44,0 -0.56,-0.11 -0.56,-0.55 0.04,-1.63 0.02,-3.26 0.02,-4.89 z"
   id="path9" />
	<path
   class="st1"
   d="m 130.68,141.84 c 0,-1.63 0.01,-3.25 -0.01,-4.88 0,-0.37 0.08,-0.51 0.48,-0.5 2.84,0.02 5.68,0.02 8.51,0 0.36,0 0.46,0.11 0.46,0.46 0.03,1.35 0.05,1.35 -1.31,1.35 -1.82,0 -3.63,0.01 -5.45,-0.01 -0.45,-0.01 -0.57,0.13 -0.55,0.56 0.03,0.54 0.03,1.08 0,1.62 -0.02,0.37 0.12,0.45 0.46,0.44 1.69,-0.02 3.38,0 5.07,-0.02 0.39,0 0.53,0.08 0.53,0.51 0,1.49 0.01,1.49 -1.5,1.49 -1.36,0 -2.71,0.01 -4.07,-0.01 -0.39,-0.01 -0.51,0.12 -0.49,0.5 0.03,0.52 0.03,1.04 0,1.56 -0.03,0.44 0.11,0.56 0.55,0.56 2.04,-0.02 4.09,0.01 6.13,-0.02 0.5,-0.01 0.63,0.14 0.62,0.63 -0.03,1.19 0,1.19 -1.17,1.19 -2.5,0 -5.01,-0.02 -7.51,0.01 -0.6,0.01 -0.82,-0.1 -0.8,-0.76 0.09,-1.56 0.04,-3.12 0.05,-4.68 z"
   id="path10" />
	<path
   class="st1"
   d="m 69.88,141.88 c 0,-1.63 0.01,-3.25 -0.01,-4.88 0,-0.41 0.06,-0.58 0.53,-0.58 2.42,0.03 4.84,0.01 7.26,0.01 1.55,0.01 2.34,0.81 2.34,2.36 0,0.94 0.01,1.88 0,2.81 -0.01,1.26 -0.87,2.11 -2.13,2.12 -1.69,0.01 -3.38,0.03 -5.07,-0.01 -0.6,-0.02 -0.72,0.19 -0.69,0.73 0.04,0.81 -0.01,1.63 0.02,2.44 0.01,0.36 -0.06,0.53 -0.47,0.5 -0.43,-0.04 -0.88,-0.04 -1.31,0 -0.41,0.03 -0.48,-0.13 -0.48,-0.5 0.02,-1.66 0.01,-3.33 0.01,-5 z m 4.94,-0.27 c 0.79,0 1.58,0 2.37,0 0.49,0 0.73,-0.23 0.71,-0.73 -0.02,-0.52 -0.02,-1.04 0,-1.56 0.02,-0.5 -0.2,-0.72 -0.7,-0.72 -1.56,0.01 -3.12,0.01 -4.68,-0.01 -0.36,0 -0.4,0.14 -0.4,0.44 0.02,0.71 0.02,1.41 0,2.12 -0.01,0.35 0.09,0.47 0.45,0.46 0.75,-0.01 1.5,0 2.25,0 z"
   id="path11" />
	<path
   class="st1"
   d="m 148.72,147.27 c -1.13,0 -2.25,0.01 -3.38,0 -1.2,-0.01 -2.04,-0.85 -2.05,-2.04 -0.01,-2.25 -0.01,-4.5 0,-6.75 0,-1.16 0.85,-2.01 2.01,-2.02 2.27,-0.01 4.55,-0.01 6.82,0 1.15,0 1.96,0.77 2.05,1.92 0.11,1.32 0.11,1.31 -1.2,1.33 -0.49,0.01 -0.86,0.01 -0.78,-0.67 0.05,-0.4 -0.26,-0.61 -0.64,-0.62 -1.88,-0.01 -3.75,-0.01 -5.63,0 -0.44,0 -0.68,0.27 -0.68,0.72 0,1.81 0,3.62 0,5.44 0,0.5 0.28,0.72 0.75,0.72 1.81,0.01 3.63,0 5.44,0 0.55,0 0.81,-0.29 0.77,-0.83 -0.03,-0.4 0.14,-0.53 0.51,-0.47 0.08,0.01 0.17,0 0.25,0 1.34,0 1.34,0 1.21,1.36 -0.11,1.16 -0.89,1.88 -2.07,1.89 -0.02,0 -0.04,0 -0.06,0 -1.11,0.02 -2.22,0.02 -3.32,0.02 z"
   id="path12" />
	<path
   class="st1"
   d="m 168.01,141.88 c 0,1.62 -0.01,3.25 0.01,4.87 0,0.39 -0.08,0.58 -0.51,0.53 -0.51,-0.06 -1.2,0.21 -1.5,-0.11 -0.26,-0.27 -0.09,-0.95 -0.09,-1.45 -0.01,-0.81 -0.01,-1.63 0,-2.44 0.01,-0.32 -0.1,-0.43 -0.43,-0.43 -1.88,0.01 -3.75,0.02 -5.63,0 -0.38,0 -0.44,0.15 -0.44,0.47 0.01,1.15 -0.01,2.29 0.01,3.44 0.01,0.35 -0.04,0.51 -0.46,0.52 -1.67,0.02 -1.67,0.04 -1.67,-1.63 0,-2.83 0.01,-5.67 -0.01,-8.5 0,-0.52 0.08,-0.73 0.68,-0.71 1.45,0.05 1.46,0.01 1.46,1.46 0,0.85 0.02,1.71 -0.01,2.56 -0.01,0.33 0.09,0.42 0.41,0.41 1.88,-0.02 3.75,-0.02 5.63,0 0.43,0.01 0.46,-0.16 0.45,-0.51 -0.02,-1.15 0.01,-2.29 -0.01,-3.44 -0.01,-0.38 0.1,-0.49 0.49,-0.49 1.62,-0.01 1.62,-0.02 1.62,1.61 0,1.3 0,2.57 0,3.84 z"
   id="path13" />
	<path
   class="st1"
   d="m 122.22,136.47 c 1.61,0 3.21,0.01 4.82,-0.01 0.38,0 0.5,0.09 0.5,0.48 0.02,1.48 0.04,1.48 -1.43,1.48 -0.79,0 -1.59,0.03 -2.38,-0.01 -0.43,-0.02 -0.51,0.12 -0.51,0.52 0.02,2.58 -0.01,5.17 0.02,7.75 0.01,0.5 -0.14,0.61 -0.62,0.61 -1.5,-0.03 -1.5,-0.01 -1.51,-1.54 0,-2.25 -0.02,-4.5 0.01,-6.75 0.01,-0.48 -0.15,-0.6 -0.6,-0.59 -1.08,0.03 -2.17,0 -3.25,0.02 -0.34,0.01 -0.46,-0.09 -0.46,-0.45 -0.03,-1.51 -0.04,-1.51 1.46,-1.51 1.32,0 2.64,0 3.95,0 z"
   id="path14" />
	<path
   class="st1"
   d="m 199.67,141.88 c 0,-1.61 0.01,-3.21 -0.01,-4.82 -0.01,-0.43 0.06,-0.61 0.57,-0.61 1.57,0.02 1.57,0 1.57,1.55 0,2.21 0.02,4.42 -0.01,6.63 -0.01,0.54 0.12,0.71 0.68,0.7 1.86,-0.04 3.72,0 5.57,-0.03 0.48,-0.01 0.59,0.13 0.58,0.59 -0.02,1.37 0,1.37 -1.36,1.37 -2.34,0 -4.68,-0.02 -7.01,0.01 -0.48,0.01 -0.59,-0.13 -0.59,-0.59 0.02,-1.59 0.01,-3.2 0.01,-4.8 z"
   id="path15" />
	<path
   class="st1"
   d="m 241.09,141.89 c 0,-1.62 0.01,-3.25 -0.01,-4.87 -0.01,-0.44 0.12,-0.56 0.56,-0.56 1.57,0.01 1.57,0 1.57,1.54 0,2.89 -0.01,5.79 0.01,8.68 0,0.51 -0.15,0.62 -0.63,0.61 -1.51,-0.02 -1.51,0 -1.51,-1.53 0.01,-1.29 0.01,-2.58 0.01,-3.87 z"
   id="path16" />
	<path
   class="st0"
   d="m 40.84,133.9 c 0,3.13 -0.01,6.25 0.01,9.38 0,0.5 -0.14,0.62 -0.63,0.62 -6.24,-0.02 -12.48,-0.02 -18.71,0 -0.53,0 -0.62,-0.18 -0.6,-0.65 0.27,-8.2 5.54,-15.45 13.27,-18.18 1.94,-0.68 3.94,-1.05 6,-1.12 0.51,-0.02 0.67,0.09 0.67,0.63 -0.02,3.11 -0.01,6.21 -0.01,9.32 z"
   id="path17" />
	<path
   class="st0"
   d="m 40.89,153.92 c 0,-3.06 0,-6.13 0,-9.19 0,-0.82 0,-0.81 0.85,-0.81 6.14,0 12.27,0.01 18.41,-0.02 0.55,0 0.73,0.12 0.69,0.69 -0.57,8.05 -4.43,13.93 -11.69,17.5 -2.44,1.2 -5.08,1.71 -7.8,1.8 -0.54,0.02 -0.45,-0.29 -0.45,-0.59 0,-3 0,-6 0,-9 -0.01,-0.13 -0.01,-0.25 -0.01,-0.38 z"
   id="path18" />
</g>
</svg>
