<?xml version="1.0" encoding="UTF-8" standalone="no"?>
<!-- Generator: Adobe Illustrator 28.3.0, SVG Export Plug-In . SVG Version: 6.00 Build 0)  -->

<svg
   version="1.1"
   id="Calque_1"
   x="0px"
   y="0px"
   viewBox="0 0 288.74134 219.79921"
   xml:space="preserve"
   sodipodi:docname="Prolab.svg"
   width="288.74133"
   height="219.79921"
   inkscape:version="1.3.2 (091e20e, 2023-11-25, custom)"
   xmlns:inkscape="http://www.inkscape.org/namespaces/inkscape"
   xmlns:sodipodi="http://sodipodi.sourceforge.net/DTD/sodipodi-0.dtd"
   xmlns="http://www.w3.org/2000/svg"
   xmlns:svg="http://www.w3.org/2000/svg"><defs
   id="defs19" /><sodipodi:namedview
   id="namedview19"
   pagecolor="#ffffff"
   bordercolor="#000000"
   borderopacity="0.25"
   inkscape:showpageshadow="2"
   inkscape:pageopacity="0.0"
   inkscape:pagecheckerboard="0"
   inkscape:deskcolor="#d1d1d1"
   showgrid="true"
   inkscape:export-bgcolor="#ffffff00"
   inkscape:zoom="2.6979167"
   inkscape:cx="140.84942"
   inkscape:cy="105.26641"
   inkscape:window-width="1920"
   inkscape:window-height="991"
   inkscape:window-x="-9"
   inkscape:window-y="-9"
   inkscape:window-maximized="1"
   inkscape:current-layer="Calque_1"><inkscape:grid
     id="grid19"
     units="px"
     originx="0"
     originy="-38.548263"
     spacingx="1"
     spacingy="1"
     empcolor="#0099e5"
     empopacity="0.30196078"
     color="#0099e5"
     opacity="0.14901961"
     empspacing="5"
     dotted="false"
     gridanglex="30"
     gridanglez="30"
     visible="true" /></sodipodi:namedview>
<style
   type="text/css"
   id="style1">
	.st0{fill:#1A4E9D;}
	.st1{fill:#FAD000;}
	.st2{fill:#FFFFFF;}
</style>
<g
   id="g19"
   transform="translate(0,-38.548262)">
	<path
   class="st0"
   d="m 224.12,116.81 c 0.1,-3.7 1.08,-7.14 3.17,-10.21 3.22,-4.73 7.68,-7.52 13.37,-8.32 0.26,-0.04 0.55,0.02 0.78,-0.17 1.02,0 2.03,0 3.05,0 0.75,0.13 1.5,0.24 2.24,0.38 7.87,1.58 13.89,7.81 14.98,15.79 0.99,7.24 -1.51,13.18 -7.2,17.78 -0.31,0.25 -0.5,0.25 -0.81,-0.01 -6.1,-4.99 -12.21,-9.97 -18.31,-14.96 -2.35,-1.91 -5.04,-1.77 -7.18,0.39 -0.05,0.05 -0.1,0.08 -0.15,0.12 -1.15,-0.32 -2.32,-0.56 -3.52,-0.65 -0.14,0.01 -0.31,0.02 -0.42,-0.14 z"
   id="path1" />
	<path
   class="st1"
   d="m 270.59,149.66 c -0.29,-0.13 -0.18,0.14 -0.2,0.23 -0.44,1.86 -1.22,3.56 -2.54,4.97 -1.38,1.48 -3.01,2.51 -4.97,3.11 -1.55,0.47 -3.1,0.49 -4.64,0.3 -1.46,-0.18 -2.82,-0.74 -4.08,-1.53 -2.06,-1.29 -3.47,-3.11 -4.32,-5.35 -0.55,-1.45 -0.75,-2.97 -0.65,-4.51 0.02,-0.32 0.15,-0.63 0.15,-0.96 0,-0.23 0.17,-0.39 0.33,-0.52 3.25,-2.65 6.51,-5.28 9.76,-7.94 0.38,-0.31 0.76,-0.43 1.23,-0.38 1.9,0.21 3.65,0.76 5.25,1.85 1.42,0.97 2.54,2.18 3.36,3.67 0.56,1.04 1,2.13 1.15,3.32 0.02,0.17 0.02,0.36 0.18,0.49 -0.01,1.09 -0.01,2.17 -0.01,3.25 z"
   id="path2" />
	<path
   class="st1"
   d="m 224.12,116.81 c 0.11,0.16 0.28,0.14 0.44,0.16 1.2,0.09 2.37,0.33 3.52,0.65 -0.36,0.61 -0.75,1.2 -0.9,1.91 -0.18,0.83 -0.2,1.67 -0.01,2.5 0.31,1.35 1.21,2.26 2.26,3.11 2.67,2.15 5.3,4.35 7.95,6.53 0.05,0.04 0.11,0.08 0.17,0.1 0.12,0.04 0.21,0.13 0.18,0.25 -0.04,0.14 -0.19,0.11 -0.3,0.11 -0.74,0 -1.47,-0.01 -2.21,-0.01 -7.68,0 -15.36,0.01 -23.03,-0.01 -1.92,0 -3.39,0.76 -4.41,2.36 -1.65,2.6 -0.47,5.95 2.15,7.15 0.57,0.26 1.15,0.42 1.78,0.42 1.88,0 3.77,0 5.65,0.01 2.03,0.01 4.06,0.03 6.1,0.03 1.34,0 2.69,-0.03 4.03,-0.03 2.57,0 5.14,0.02 7.72,0.03 0.67,0 1.34,-0.02 2.02,-0.03 0.16,0 0.37,-0.02 0.42,0.15 0.04,0.13 -0.12,0.26 -0.23,0.35 -1.8,1.46 -3.61,2.9 -5.41,4.37 -1.21,0.98 -2.45,1.95 -3.6,3 -0.87,0.79 -1.28,1.85 -1.35,3.05 -0.1,1.72 0.46,3.14 1.79,4.24 1.31,1.08 2.77,1.35 4.43,0.98 1.23,-0.27 2.08,-1.08 3,-1.82 1.97,-1.59 3.92,-3.2 5.89,-4.78 1.22,-0.97 2.41,-1.98 3.61,-2.97 0.46,-0.38 0.92,-0.75 1.38,-1.13 0.08,-0.06 0.13,-0.17 0.24,-0.1 0.09,0.06 0.05,0.18 0.03,0.28 -0.16,0.75 -0.27,1.5 -0.48,2.23 -0.37,1.29 -0.81,2.56 -1.36,3.78 -0.85,1.89 -1.88,3.67 -3.15,5.3 -2.12,2.73 -4.66,5 -7.66,6.74 -1.53,0.89 -3.13,1.65 -4.8,2.2 -1.5,0.49 -3.04,0.87 -4.63,1.09 -1.25,0.17 -2.51,0.25 -3.76,0.29 -1.2,0.04 -2.41,-0.11 -3.62,-0.26 -0.89,-0.11 -1.77,-0.28 -2.64,-0.49 -0.91,-0.22 -1.81,-0.49 -2.7,-0.81 -1.67,-0.6 -3.26,-1.38 -4.78,-2.31 -2.44,-1.5 -4.58,-3.35 -6.43,-5.53 -1.65,-1.95 -2.98,-4.11 -3.99,-6.45 -0.65,-1.5 -1.12,-3.06 -1.5,-4.66 -0.46,-1.94 -0.61,-3.89 -0.62,-5.87 -0.01,-1.39 0.05,-2.79 0.31,-4.15 0.46,-2.45 1.17,-4.81 2.26,-7.07 1.2,-2.5 2.76,-4.73 4.64,-6.73 1.94,-2.07 4.19,-3.75 6.68,-5.11 1.41,-0.77 2.91,-1.35 4.44,-1.85 3.29,-1.07 6.67,-1.34 10.1,-1.16 0.12,-0.02 0.25,-0.03 0.38,-0.04 z"
   id="path3" />
	<path
   class="st0"
   d="m 124.92,161.96 c 1.51,0 3.02,-0.01 4.53,0.01 0.36,0.01 0.55,-0.1 0.73,-0.41 3.85,-6.36 7.71,-12.72 11.55,-19.08 0.18,-0.3 0.37,-0.42 0.73,-0.41 3.1,0.02 6.2,0.01 9.3,0 0.35,0 0.46,0.09 0.51,0.45 0.84,5.67 1.69,11.33 2.55,17 0.19,1.23 0.39,2.46 0.56,3.69 0.38,2.75 -1.43,5.13 -4.17,5.52 -2.53,0.35 -4.9,-1.5 -5.28,-4.17 -0.06,-0.41 -0.2,-0.54 -0.63,-0.54 -2.76,0.02 -5.51,0.02 -8.27,0 -0.39,0 -0.59,0.13 -0.76,0.45 -0.29,0.53 -0.63,1.04 -0.94,1.56 -0.96,1.6 -2.4,2.4 -4.24,2.4 -7.38,0.02 -14.77,0 -22.15,0.02 -0.41,0 -0.45,-0.11 -0.36,-0.47 1.99,-8.5 3.98,-17.01 5.95,-25.52 0.07,-0.31 0.2,-0.38 0.49,-0.38 2.99,0.01 5.97,0.01 8.96,0 0.34,0 0.44,0.03 0.34,0.43 -1.49,6.32 -2.96,12.64 -4.45,18.96 -0.09,0.4 -0.04,0.52 0.4,0.51 1.56,-0.04 3.11,-0.02 4.65,-0.02 z m 19.45,-12.12 c -1.64,2.85 -3.23,5.6 -4.85,8.4 1.88,0 3.67,0 5.46,0 0.33,0 0.27,-0.18 0.25,-0.38 -0.12,-1.17 -0.24,-2.34 -0.37,-3.52 -0.16,-1.45 -0.32,-2.92 -0.49,-4.5 z"
   id="path4" />
	<path
   class="st0"
   d="m 179.92,154.72 c 0.31,0.19 0.63,0.17 0.92,0.26 1.85,0.53 3.34,1.46 3.85,3.46 0.34,1.32 -0.01,2.57 -0.51,3.78 -1.42,3.4 -4.06,5.23 -7.62,5.85 -1.59,0.28 -3.19,0.35 -4.8,0.36 -4.94,0.01 -9.88,0 -14.81,0.01 -0.38,0 -0.51,-0.03 -0.4,-0.47 1.99,-8.49 3.97,-16.97 5.94,-25.46 0.08,-0.34 0.21,-0.43 0.55,-0.43 5.1,0.01 10.2,0.01 15.31,0.01 1.4,0 2.79,0.07 4.14,0.44 4.17,1.13 5.62,5.39 3.02,8.86 -1.26,1.68 -2.97,2.68 -4.98,3.21 -0.19,0.02 -0.38,0.06 -0.61,0.12 z m -13.19,7.79 c 1.91,0 3.79,0.04 5.67,-0.02 0.98,-0.03 1.81,-0.53 2.47,-1.26 0.47,-0.52 0.72,-1.13 0.56,-1.85 -0.2,-0.91 -0.87,-1.33 -1.71,-1.46 -1.89,-0.29 -3.79,-0.09 -5.69,-0.14 -0.17,0 -0.23,0.09 -0.26,0.23 -0.35,1.5 -0.7,2.99 -1.04,4.5 z m 5.23,-10.36 c 0,-0.01 0,-0.02 0,-0.03 0.84,0 1.68,0.05 2.51,-0.01 1.29,-0.09 2.22,-0.77 2.7,-1.97 0.41,-1.02 -0.01,-1.82 -1.06,-2.14 -0.38,-0.12 -0.76,-0.2 -1.16,-0.2 -1.48,-0.01 -2.95,-0.01 -4.43,-0.04 -0.31,-0.01 -0.38,0.15 -0.43,0.39 -0.27,1.21 -0.54,2.42 -0.85,3.63 -0.08,0.33 0,0.39 0.31,0.39 0.8,-0.03 1.6,-0.02 2.41,-0.02 z"
   id="path5" />
	<path
   class="st0"
   d="m 71.82,156.98 c 0.94,1.33 1.86,2.64 2.79,3.95 1.46,2.08 1.39,4.49 -0.19,6.23 -2.12,2.33 -5.85,2.05 -7.54,-0.61 -1.64,-2.58 -3.24,-5.2 -4.84,-7.81 -0.17,-0.28 -0.35,-0.42 -0.7,-0.4 -0.74,0.03 -1.48,0.02 -2.21,0 -0.3,-0.01 -0.43,0.08 -0.49,0.38 -0.48,2.1 -0.98,4.2 -1.48,6.3 -0.6,2.57 -3.14,4.17 -5.69,3.59 -2.62,-0.6 -4.22,-3.19 -3.6,-5.81 1.59,-6.78 3.17,-13.56 4.74,-20.35 0.07,-0.29 0.16,-0.4 0.48,-0.4 5.56,0.01 11.12,-0.01 16.68,0.03 1.84,0.01 3.66,0.23 5.39,0.9 1.39,0.54 2.62,1.3 3.38,2.64 0.88,1.56 0.81,3.2 0.34,4.86 -0.8,2.82 -2.75,4.57 -5.32,5.75 -0.57,0.27 -1.15,0.5 -1.74,0.75 z m -7.78,-9.28 c -0.92,0 -1.69,0 -2.46,0 -0.21,0 -0.35,0 -0.41,0.28 -0.33,1.48 -0.69,2.96 -1.05,4.44 -0.04,0.18 -0.06,0.31 0.2,0.3 1.75,-0.05 3.51,0.11 5.26,-0.12 0.85,-0.11 1.68,-0.34 2.35,-0.91 0.77,-0.65 1.17,-1.49 0.89,-2.49 -0.27,-0.97 -1.08,-1.28 -1.99,-1.41 -0.97,-0.15 -1.96,-0.06 -2.79,-0.09 z"
   id="path6" />
	<path
   class="st0"
   d="m 97.23,141.69 c 2.42,0.02 4.82,0.31 7.05,1.38 3.37,1.61 5.24,4.32 5.33,8.03 0.16,6.76 -2.95,11.78 -8.69,15.18 -3.81,2.25 -8,2.88 -12.38,2.4 -2.23,-0.25 -4.34,-0.88 -6.16,-2.23 -2.71,-2 -3.93,-4.77 -3.76,-8.07 0.31,-6.23 3.26,-10.94 8.61,-14.13 3.05,-1.83 6.44,-2.51 10,-2.56 z m 2.09,10.24 c 0.01,-0.76 -0.07,-1.51 -0.33,-2.23 -0.37,-1.03 -1.06,-1.72 -2.16,-1.93 -1.94,-0.36 -3.52,0.31 -4.79,1.75 -1.17,1.31 -1.85,2.88 -2.33,4.55 -0.54,1.88 -0.98,3.77 -0.75,5.75 0.19,1.6 1.11,2.65 2.62,2.89 0.57,0.09 1.15,0.09 1.72,-0.01 1.8,-0.31 3.04,-1.41 3.92,-2.93 1.38,-2.42 1.92,-5.08 2.1,-7.84 z"
   id="path7" />
	<path
   class="st0"
   d="m 33.17,158.86 c -1.05,0 -2.1,0.03 -3.15,-0.01 -0.46,-0.02 -0.61,0.15 -0.7,0.57 -0.41,1.87 -0.86,3.73 -1.3,5.59 -0.6,2.59 -3.17,4.21 -5.72,3.6 -2.64,-0.63 -4.19,-3.18 -3.57,-5.82 1.59,-6.76 3.17,-13.53 4.73,-20.3 0.08,-0.36 0.22,-0.42 0.55,-0.42 4.58,0.01 9.15,0 13.73,0.02 2.1,0.01 4.2,0.13 6.22,0.78 2.25,0.73 3.91,2.1 4.56,4.47 0.4,1.46 0.19,2.89 -0.38,4.27 -1.34,3.23 -3.82,5.2 -7.05,6.32 -2.04,0.71 -4.15,0.91 -6.29,0.93 -0.55,0 -1.09,0 -1.63,0 z m 1.46,-10.74 c -0.89,0 -1.56,0.02 -2.24,-0.01 -0.33,-0.02 -0.46,0.1 -0.52,0.4 -0.26,1.21 -0.55,2.42 -0.82,3.64 -0.24,1.06 -0.25,1.07 0.86,1.06 1.39,-0.01 2.79,0.09 4.17,-0.2 1.29,-0.28 2.32,-0.87 2.71,-2.25 0.35,-1.24 -0.1,-2.03 -1.35,-2.38 -1,-0.28 -2.02,-0.24 -2.81,-0.26 z"
   id="path8" />
	<path
   class="st2"
   d="m 222.22,182.86 c 1.31,0.75 1.78,1.93 1.37,3.45 -0.44,1.63 -1.67,2.86 -3.6,2.79 -1.34,-0.04 -2.69,-0.02 -4.03,0 -0.33,0 -0.4,-0.06 -0.34,-0.41 0.65,-3.72 1.28,-7.45 1.92,-11.17 0.03,-0.17 -0.01,-0.42 0.3,-0.41 1.31,0.04 2.63,-0.08 3.93,0.08 1.06,0.13 1.8,0.81 2.06,1.84 0.4,1.59 -0.09,2.76 -1.61,3.83 z m -3.46,4.87 c 0,0 0,-0.01 0,-0.01 0.44,0 0.88,0.02 1.33,0 1.37,-0.08 2.26,-0.99 2.28,-2.33 0.02,-1.21 -0.47,-1.74 -1.69,-1.78 -0.83,-0.03 -1.67,0.01 -2.5,-0.02 -0.31,-0.01 -0.39,0.12 -0.43,0.38 -0.19,1.14 -0.38,2.29 -0.58,3.43 -0.04,0.24 -0.02,0.36 0.27,0.34 0.43,-0.02 0.88,-0.01 1.32,-0.01 z m 1.4,-9.25 c -0.39,0 -0.79,0.01 -1.18,0 -0.23,-0.01 -0.32,0.08 -0.36,0.29 -0.18,1.06 -0.35,2.13 -0.55,3.19 -0.04,0.19 -0.01,0.27 0.2,0.26 0.93,-0.03 1.86,0.06 2.79,-0.09 0.75,-0.12 1.25,-0.52 1.49,-1.24 0.5,-1.46 -0.14,-2.39 -1.67,-2.41 -0.23,0 -0.47,0 -0.72,0 z"
   id="path9" />
	<path
   class="st2"
   d="m 169.63,187.01 c 0.48,-3.16 1.08,-6.29 1.59,-9.44 0.06,-0.4 0.21,-0.47 0.56,-0.46 0.8,0.02 0.8,0 0.67,0.8 -0.62,3.6 -1.24,7.19 -1.84,10.79 -0.06,0.34 -0.18,0.41 -0.5,0.41 -0.88,-0.01 -0.89,0 -1.17,-0.83 -1,-2.96 -2.15,-5.87 -3.03,-8.86 -0.02,-0.07 -0.03,-0.16 -0.13,-0.19 -0.43,3.16 -1.05,6.29 -1.54,9.44 -0.05,0.32 -0.15,0.51 -0.52,0.44 -0.16,-0.03 -0.33,-0.02 -0.49,0 -0.29,0.03 -0.36,-0.06 -0.3,-0.36 0.66,-3.76 1.3,-7.51 1.94,-11.27 0.04,-0.25 0.12,-0.36 0.4,-0.36 0.95,-0.01 0.95,-0.03 1.26,0.85 1.04,2.99 2.28,5.93 3.1,9.04 z"
   id="path10" />
	<path
   class="st2"
   d="m 186.53,182.29 c -0.01,1.9 -0.47,3.67 -1.69,5.16 -1.08,1.32 -2.45,2.06 -4.22,1.77 -1.4,-0.23 -2.29,-1.13 -2.86,-2.37 -1.2,-2.59 -0.53,-6.55 1.48,-8.58 1.2,-1.22 2.66,-1.68 4.31,-1.16 1.74,0.55 2.51,1.94 2.86,3.62 0.11,0.51 0.13,1.04 0.12,1.56 z m -8.04,1.46 c -0.02,0.71 0.01,1.41 0.24,2.08 0.48,1.42 1.6,2.22 2.95,2.09 0.89,-0.09 1.58,-0.57 2.08,-1.26 1.42,-1.93 1.79,-4.09 1.14,-6.38 -0.41,-1.43 -1.61,-2.18 -2.98,-2.01 -0.79,0.1 -1.39,0.54 -1.91,1.11 -1.1,1.26 -1.45,2.77 -1.52,4.37 z"
   id="path11" />
	<path
   class="st2"
   d="m 126.19,189.1 c -1.08,0 -2.17,-0.02 -3.25,0.01 -0.36,0.01 -0.49,-0.06 -0.42,-0.45 0.55,-3.16 1.09,-6.32 1.63,-9.48 0.1,-0.58 0.21,-1.16 0.29,-1.74 0.03,-0.24 0.12,-0.32 0.37,-0.32 2.15,0.01 4.3,0.01 6.45,0 0.31,0 0.34,0.11 0.29,0.38 -0.17,0.99 -0.17,0.99 -1.17,0.99 -1.48,0 -2.95,0 -4.43,0 -0.24,0 -0.38,0.02 -0.43,0.31 -0.16,1.03 -0.34,2.07 -0.53,3.1 -0.06,0.35 0.16,0.31 0.38,0.31 1.59,0 3.18,0.01 4.77,-0.01 0.37,0 0.42,0.1 0.37,0.44 -0.15,0.95 -0.13,0.95 -1.11,0.95 -1.43,0 -2.85,0.01 -4.28,-0.01 -0.31,0 -0.41,0.07 -0.46,0.39 -0.17,1.15 -0.37,2.29 -0.6,3.43 -0.07,0.33 0.05,0.34 0.31,0.34 1.77,-0.01 3.54,0.01 5.31,-0.01 0.37,0 0.51,0.05 0.44,0.47 -0.16,0.9 -0.13,0.9 -1.07,0.9 -0.96,0 -1.91,0 -2.86,0 z"
   id="path12" />
	<path
   class="st2"
   d="m 152.43,177.16 c -0.26,1.49 -0.5,2.97 -0.78,4.45 -0.08,0.42 0.04,0.49 0.43,0.49 1.38,-0.02 2.76,-0.03 4.13,0 0.39,0.01 0.5,-0.15 0.55,-0.48 0.22,-1.36 0.48,-2.71 0.68,-4.07 0.05,-0.36 0.16,-0.46 0.52,-0.45 0.88,0.02 0.87,0 0.72,0.87 -0.61,3.53 -1.21,7.06 -1.81,10.6 -0.03,0.18 0.01,0.47 -0.2,0.5 -0.37,0.06 -0.76,0.09 -1.12,-0.02 -0.12,-0.04 -0.04,-0.24 -0.02,-0.36 0.27,-1.6 0.53,-3.2 0.83,-4.79 0.07,-0.38 -0.01,-0.48 -0.4,-0.47 -1.39,0.02 -2.79,0.02 -4.18,0 -0.35,0 -0.47,0.1 -0.52,0.45 -0.24,1.55 -0.53,3.1 -0.76,4.65 -0.07,0.43 -0.2,0.66 -0.67,0.56 -0.13,-0.03 -0.26,-0.02 -0.39,0 -0.3,0.04 -0.35,-0.1 -0.31,-0.37 0.64,-3.71 1.27,-7.42 1.89,-11.13 0.07,-0.42 0.24,-0.55 0.63,-0.49 0.24,0.05 0.51,-0.03 0.78,0.06 z"
   id="path13" />
	<path
   class="st2"
   d="m 202.55,185.63 c 0.1,-1.28 0.41,-2.71 0.65,-4.14 0.2,-1.23 0.43,-2.45 0.63,-3.67 0.12,-0.7 0.11,-0.7 0.83,-0.7 0.6,0 0.59,0 0.49,0.61 -0.42,2.5 -0.85,5 -1.25,7.5 -0.21,1.32 0.3,2.26 1.36,2.61 1.17,0.38 2.49,-0.15 3.06,-1.25 0.47,-0.91 0.65,-1.91 0.83,-2.91 0.36,-2.05 0.72,-4.09 1.05,-6.14 0.06,-0.38 0.21,-0.43 0.54,-0.42 0.85,0.02 0.85,0 0.7,0.85 -0.42,2.45 -0.78,4.91 -1.3,7.34 -0.2,0.95 -0.54,1.85 -1.17,2.62 -1.38,1.72 -4.18,1.87 -5.61,0.29 -0.6,-0.69 -0.81,-1.52 -0.81,-2.59 z"
   id="path14" />
	<path
   class="st2"
   d="m 136.04,183.79 c 0.07,-1.87 0.5,-3.64 1.68,-5.14 1.08,-1.37 2.5,-1.97 4.25,-1.65 1.58,0.29 2.64,1.67 2.81,3.42 0.02,0.19 -0.04,0.28 -0.23,0.29 -0.05,0 -0.1,0.01 -0.15,0.02 -0.78,0.09 -0.78,0.09 -0.99,-0.66 -0.55,-1.92 -2.54,-2.47 -4.1,-1.14 -0.75,0.64 -1.2,1.47 -1.5,2.38 -0.5,1.52 -0.64,3.08 -0.21,4.64 0.27,0.99 0.87,1.74 1.93,1.95 1.08,0.21 1.95,-0.2 2.63,-1.06 0.38,-0.49 0.66,-1.02 0.82,-1.61 0.09,-0.33 0.22,-0.36 0.51,-0.29 0.93,0.19 0.94,0.18 0.58,1.05 -0.31,0.76 -0.7,1.48 -1.31,2.06 -1.14,1.09 -2.47,1.55 -4.01,1.06 -1.5,-0.48 -2.21,-1.66 -2.53,-3.12 -0.16,-0.72 -0.2,-1.46 -0.18,-2.2 z"
   id="path15" />
	<path
   class="st2"
   d="m 115.77,177.11 c 1.15,0 2.3,0.01 3.44,-0.01 0.32,-0.01 0.39,0.08 0.34,0.39 -0.16,0.98 -0.14,0.98 -1.14,0.98 -0.62,0 -1.25,0.01 -1.87,0 -0.27,-0.01 -0.39,0.05 -0.44,0.36 -0.54,3.23 -1.11,6.45 -1.64,9.68 -0.08,0.46 -0.21,0.63 -0.69,0.6 -0.71,-0.05 -0.72,-0.02 -0.6,-0.73 0.53,-3.15 1.05,-6.29 1.61,-9.43 0.08,-0.45 -0.06,-0.48 -0.42,-0.47 -0.79,0.02 -1.57,-0.01 -2.36,0.01 -0.3,0.01 -0.35,-0.1 -0.31,-0.37 0.13,-1 0.12,-1.01 1.12,-1.01 1,0 1.98,0 2.96,0 z"
   id="path16" />
	<path
   class="st2"
   d="m 197.59,187.73 c -0.15,1.37 -0.15,1.37 -1.44,1.37 -1.57,0 -3.15,-0.01 -4.72,0.01 -0.34,0 -0.48,-0.02 -0.4,-0.44 0.65,-3.71 1.29,-7.42 1.91,-11.13 0.06,-0.36 0.21,-0.43 0.54,-0.43 0.86,0.02 0.86,0 0.71,0.9 -0.53,3.11 -1.05,6.23 -1.6,9.34 -0.06,0.36 0.03,0.4 0.34,0.4 1.53,-0.02 3.07,-0.02 4.66,-0.02 z"
   id="path17" />
	<path
   class="st0"
   d="m 188.71,167.81 c 0.47,-0.84 0.93,-1.67 1.4,-2.51 0.06,-0.1 0.11,-0.2 0.17,-0.3 0.1,-0.16 0.27,-0.1 0.4,-0.09 0.17,0.01 0.13,0.16 0.12,0.27 -0.02,0.97 -0.05,1.93 -0.07,2.9 0,0.2 -0.01,0.38 -0.28,0.35 -0.27,-0.03 -0.16,-0.24 -0.15,-0.38 0.03,-0.78 0.07,-1.56 0,-2.37 -0.31,0.54 -0.61,1.09 -0.92,1.63 -0.17,0.3 -0.34,0.6 -0.5,0.9 -0.09,0.16 -0.19,0.26 -0.39,0.22 -0.21,-0.04 -0.18,-0.2 -0.2,-0.34 -0.14,-0.82 -0.27,-1.64 -0.41,-2.49 -0.23,0.07 -0.2,0.28 -0.25,0.43 -0.24,0.69 -0.46,1.39 -0.68,2.1 -0.06,0.19 -0.12,0.36 -0.36,0.3 -0.29,-0.08 -0.06,-0.28 -0.03,-0.39 0.31,-0.95 0.65,-1.88 0.98,-2.82 0.06,-0.17 0.11,-0.32 0.36,-0.31 0.29,0.01 0.25,0.23 0.28,0.38 0.15,0.83 0.29,1.67 0.43,2.51 0.02,-0.01 0.06,0 0.1,0.01 z"
   id="path18" />
	<path
   class="st0"
   d="m 185.54,164.9 c 0.34,0 0.69,0 1.03,0 0.09,0 0.22,-0.04 0.22,0.11 0,0.13 -0.07,0.19 -0.21,0.21 -0.29,0.04 -0.67,-0.17 -0.85,0.14 -0.15,0.25 -0.15,0.59 -0.22,0.9 -0.13,0.61 -0.25,1.22 -0.39,1.82 -0.04,0.16 -0.04,0.4 -0.31,0.34 -0.3,-0.07 -0.13,-0.28 -0.1,-0.43 0.15,-0.79 0.3,-1.57 0.49,-2.35 0.08,-0.33 0.02,-0.43 -0.33,-0.43 -0.22,0 -0.65,0.19 -0.65,-0.13 0,-0.35 0.42,-0.13 0.65,-0.17 0.2,-0.03 0.44,-0.01 0.67,-0.01 z"
   id="path19" />
</g>
</svg>
