<?xml version="1.0" encoding="utf-8"?>
<!-- Generator: Adobe Illustrator 28.3.0, SVG Export Plug-In . SVG Version: 6.00 Build 0)  -->
<svg version="1.1" id="Calque_1" xmlns="http://www.w3.org/2000/svg" xmlns:xlink="http://www.w3.org/1999/xlink" x="0px" y="0px"
	 viewBox="0 0 288 288" style="enable-background:new 0 0 288 288;" xml:space="preserve">
<style type="text/css">
	.st0{fill:#FFFFFF;}
	.st1{fill:#E42529;}
</style>
<g>
	<path class="st0" d="M139.98,144.76c-9.93-16.61-28-27.66-48.64-27.66h-8.22v56.69h16.44c0,0,0-2.74,0-6.85V134.4
		c16.01,3.34,28.6,16.27,31.34,32.54c0.34,2.23,0.6,4.45,0.6,6.76h16.95c0-2.31,0.17-4.54,0.6-6.76
		c2.74-16.27,15.33-29.2,31.34-32.54v32.54c0,4.11,0,6.85,0,6.85h16.44v-56.69h-8.22C167.98,117.11,149.82,128.24,139.98,144.76z
		 M34.83,117.11H18.39v56.68h16.44c0-2.31,0.17-4.54,0.6-6.76c3.25-18.92,19.78-33.39,39.56-33.39v-16.53
		c-15.67,0-29.88,6.42-40.16,16.78L34.83,117.11z M269.87,166.94c-3-25.35-22.86-45.55-47.95-49.24V96.04h-16.44v77.75h16.44V134.4
		c16.01,3.34,28.6,16.27,31.34,32.54c0.34,2.23,0.6,4.45,0.6,6.76h16.44C270.3,171.39,270.13,169.17,269.87,166.94z"/>
	<g>
		<path class="st0" d="M86.03,98.01v5.91h7.54v-2.14h-3.94v-1.54h6.25v3.25c0,1.71-0.6,2.23-2.57,2.23H86.2
			c-1.97,0-2.57-0.43-2.57-2.23v-4.97c0-1.71,0.6-2.23,2.57-2.23h7.11c1.88,0,2.57,0.43,2.57,2.14c0,0.09,0,0.17,0,0.26l-2.31,0.34
			v-1.03H86.03z"/>
		<path class="st0" d="M105.04,96.3h8.82c1.54,0,2.31,0.51,2.31,1.8v2.23c0,1.28-0.77,1.8-2.31,1.8h-1.28l4.8,3.51h-3.43l-4.2-3.51
			h-2.31v3.51h-2.4V96.3z M107.44,97.93v2.57h5.39c0.77,0,1.11-0.09,1.11-0.77V98.7c0-0.6-0.34-0.77-1.11-0.77H107.44z"/>
		<path class="st0" d="M127.56,96.3h7.62c1.97,0,2.57,0.43,2.57,2.23v4.88c0,1.71-0.6,2.23-2.57,2.23h-7.62
			c-1.97,0-2.57-0.43-2.57-2.23v-4.88C124.99,96.73,125.59,96.3,127.56,96.3z M135.35,103.92v-5.91h-7.88v5.91H135.35z"/>
		<path class="st0" d="M149.31,103.92h6.85V96.3h2.4v7.11c0,1.71-0.6,2.23-2.57,2.23h-6.51c-1.97,0-2.57-0.43-2.57-2.23V96.3h2.4
			V103.92z"/>
		<path class="st0" d="M167.89,96.3h8.82c1.54,0,2.31,0.51,2.31,1.8v2.06c0,1.28-0.77,1.8-2.31,1.8h-6.51v3.6h-2.4V96.3H167.89z
			 M170.29,97.93v2.48h5.39c0.77,0,1.11-0.09,1.11-0.77V98.7c0-0.6-0.34-0.77-1.11-0.77H170.29z"/>
		<path class="st0" d="M186.9,96.3h10.53v1.63h-8.13v2.06h4.8v1.63h-4.8v2.31h8.22v1.71H186.9C186.9,105.63,186.9,96.3,186.9,96.3z"
			/>
	</g>
	<g>
		<polyline class="st1" points="18.3,186.55 111.55,186.55 116,191.94 18.3,191.94 		"/>
		<polygon class="st0" points="270.3,191.77 114.38,191.94 110.35,186.55 270.3,186.38 		"/>
	</g>
</g>
</svg>
