<?xml version="1.0" encoding="utf-8"?>
<!-- Generator: Adobe Illustrator 28.3.0, SVG Export Plug-In . SVG Version: 6.00 Build 0)  -->
<svg version="1.1" id="Calque_1" xmlns="http://www.w3.org/2000/svg" xmlns:xlink="http://www.w3.org/1999/xlink" x="0px" y="0px"
	 viewBox="0 0 288 288" style="enable-background:new 0 0 288 288;" xml:space="preserve">
<style type="text/css">
	.st0{fill:#FCFCFC;}
	.st1{fill:#3474B8;}
</style>
<g>
	<path class="st0" d="M174.07,145.05c0-3.03,0-6.06,0-9.09c0-1.1-0.17-1.26-1.25-1.27c-2.34-0.02-2.34-0.02-2.34-2.33
		c0-1.39,0.04-2.78-0.01-4.17c-0.03-0.84,0.24-1.18,1.12-1.18c5.9,0.03,11.8-0.03,17.7,0.04c1.81,0.02,3.58,0.52,5.31,1.08
		c1.86,0.6,3.51,1.53,5.11,2.64c2.16,1.51,3.77,3.45,5.06,5.71c0.85,1.5,1.51,3.1,1.79,4.81c0.32,1.9,0.41,3.8,0.25,5.76
		c-0.16,1.92-0.69,3.68-1.38,5.43c-0.5,1.27-1.28,2.36-2.01,3.49c-1.46,2.25-3.55,3.78-5.77,5.12c-1.67,1.01-3.54,1.71-5.5,2
		c-5.29,0.79-10.61,0.22-15.92,0.38c-1.61,0.05-3.23-0.02-4.84,0.02c-0.66,0.02-0.93-0.23-0.9-0.84c0.08-1.31-0.07-2.62,0.09-3.95
		c0.08-0.66-0.07-1.41-0.1-2.12c-0.03-0.68,0.26-0.99,0.95-0.95c0.38,0.02,0.76-0.03,1.14,0.01c1.14,0.12,1.53-0.15,1.52-1.5
		C174.07,151.11,174.07,148.08,174.07,145.05z M184.76,145.16c0,2.71,0.01,5.43,0,8.14c-0.01,1.3,0.46,1.47,1.39,1.55
		c2.65,0.24,5.18-0.35,7.21-2.04c2.78-2.31,4.32-5.33,3.61-9.06c-1.1-5.86-5.7-8.55-11.13-8.09c-0.69,0.06-1.11,0.51-1.1,1.36
		C184.79,139.73,184.76,142.45,184.76,145.16z"/>
	<path class="st0" d="M132.4,145.21c-0.12-10.64,8.37-19.05,18.96-19.05c10.51,0,19.06,8.23,18.99,19.29
		c-0.03,5.35-2.14,9.93-5.95,13.6c-3.64,3.51-8.2,5.21-13.22,5.14C140.83,164.06,132.33,155.79,132.4,145.21z M161,145.12
		c-0.16-5.13-4.16-9.51-9.58-9.47c-5.58,0.04-9.68,4.33-9.58,9.69c0.1,5.37,3.8,9.3,9.32,9.46
		C156.63,154.96,160.94,150.68,161,145.12z"/>
	<path class="st0" d="M222.11,163.48c-4.51,0-9.02-0.02-13.54,0.01c-0.74,0-0.99-0.26-0.98-0.97c0.02-2.02,0.02-4.04,0-6.06
		c-0.01-0.83,0.18-1.29,1.2-1.24c1.87,0.09,2.23,0.49,2.22-2.19c-0.03-5.74-0.01-11.48-0.01-17.23c0-1.16-0.14-1.29-1.31-1.3
		c-1.87-0.02-2.13,0.51-2.1-2.09c0.02-1.32,0.01-2.65,0-3.98c-0.01-0.82,0.23-1.23,1.18-1.23c8.96,0.03,17.92,0.03,26.88,0
		c0.82,0,1.01,0.32,1.01,1.04c-0.02,3.09-0.02,6.18,0,9.28c0,0.63-0.17,0.82-0.86,0.81c-2.21-0.02-4.41-0.16-6.62,0.11
		c-0.51,0.06-1.1-0.12-1.66-0.18c-0.44-0.05-0.2-0.46-0.22-0.7c-0.1-1.14-0.56-1.33-1.7-1.45c-0.98-0.1-1.9,0.09-2.85,0.09
		c-0.87,0-1.11,0.47-1.1,1.34c0.01,0.79-0.07,1.57-0.02,2.37c0.06,1,0.34,1.5,1.33,1.5c2.05,0.01,4.1,0.06,6.15-0.02
		c0.98-0.04,1.38,0.41,1.27,1.21c-0.17,1.2,0,2.39-0.13,3.58c-0.04,0.37-0.02,0.73,0.08,1.11c0.28,1-0.18,1.59-1.19,1.59
		c-2.15,0-4.29,0.05-6.44-0.02c-0.88-0.03-1.14,0.45-1.18,1.09c-0.07,1.07-0.09,2.16,0.03,3.22c0.05,0.48,0.41,0.96,1.1,0.94
		c1.07-0.04,2.15-0.05,3.22,0c0.93,0.05,1.35-0.43,1.4-1.25c0.04-0.71,0.51-0.9,0.99-0.83c2.39,0.36,4.76-0.15,7.14-0.03
		c1.23,0.06,1.25,0.03,1.25,1.31c0,3-0.05,6,0.03,8.99c0.03,1.01-0.31,1.19-1.23,1.18C231.01,163.46,226.56,163.48,222.11,163.48z"
		/>
	<path class="st0" d="M103.62,157.59c0-1.64,0.02-3.28-0.01-4.92c-0.01-0.6,0.15-0.84,0.79-0.83c2.71,0.03,5.43,0.02,8.14,0
		c0.48,0,0.72,0.11,0.63,0.62c-0.36,2.06,1.74,3.63,3.55,3.58c1.64-0.05,2.84-0.63,3.17-1.79c0.54-1.91-0.22-3.01-1.78-3.94
		c-2-1.19-4.24-1.69-6.5-2.21c-2.54-0.58-4.64-2.06-6.45-3.97c-3.6-3.79-3.15-10.42-0.34-14.04c1.75-2.25,4.17-3.38,6.99-3.84
		c2.84-0.46,5.44,0.23,8.02,1.25c0.31,0.12,0.66,0.21,0.91,0.03c0.91-0.67,1.93-0.49,2.93-0.5c1.74-0.01,3.47,0.01,5.21-0.01
		c0.7-0.01,0.99,0.22,0.98,0.97c-0.04,2.81-0.04,5.63,0,8.45c0.01,0.82-0.28,1.11-1.1,1.1c-2.4-0.04-4.8-0.03-7.19,0
		c-0.57,0.01-0.74-0.19-0.92-0.74c-0.46-1.38-1.01-2.65-2.78-2.96c-1.91-0.34-3.85,0.94-3.92,2.87c-0.04,0.97,0.56,1.65,1.25,2.18
		c1.48,1.11,3.24,1.51,5,1.99c3.11,0.85,6.33,1.59,8.54,4.22c2.56,3.06,3.11,6.55,2.22,10.42c-0.51,2.23-1.53,4.11-3.09,5.65
		c-1.57,1.55-3.55,2.5-5.77,2.88c-2.48,0.42-4.85,0.08-7.17-0.85c-0.54-0.22-1.15-0.49-1.77-0.1c-0.76,0.48-1.62,0.38-2.45,0.38
		c-1.96,0-3.91-0.03-5.87,0.02c-0.88,0.02-1.25-0.24-1.22-1.18C103.66,160.75,103.62,159.17,103.62,157.59z"/>
	<path class="st0" d="M255.74,163.48c-4.48,0-8.96-0.02-13.44,0.02c-0.78,0.01-1.03-0.21-1.01-1c0.05-2.02,0.04-4.04,0.01-6.06
		c-0.02-0.83,0.15-1.27,1.14-1.21c1.37,0.08,1.53-0.13,1.53-1.46c0-4.83,0-9.66,0-14.48c0-0.94,0.1-1.87,0.14-2.81
		c0.09-1.91-0.34-1.83-1.8-1.94c-0.76-0.06-1.04-0.21-1.01-1.01c0.06-1.77,0.04-3.53,0.01-5.3c-0.01-0.75,0.25-1.02,1.04-1.01
		c4.76,0.03,9.53,0.02,14.29,0.02c1.43,0,1.76,0.21,1.78,1.68c0.03,1.56,0.19,3.14-0.15,4.69c-0.19,0.86-0.49,1.14-1.36,0.85
		c-0.56-0.19-1.03-0.1-1.54,0.05c-0.48,0.14-0.71,0.45-0.71,0.96c0,5.9-0.01,11.8,0.01,17.7c0,1.02,0.34,1.33,1.33,1.33
		c1.2,0.01,2.4,0,3.6,0c0.82,0,1.31-0.29,1.24-1.22c-0.05-0.66,0.02-1.33-0.02-1.99c-0.03-0.56,0.15-0.79,0.74-0.78
		c1.74,0.03,3.48-0.03,5.22,0c0.99,0.02,1.95-0.35,2.96-0.03c0.44,0.14,0.64,0.22,0.64,0.7c-0.01,3.82-0.01,7.64,0,11.45
		c0,0.71-0.36,0.85-1,0.85C264.83,163.47,260.29,163.48,255.74,163.48z"/>
	<path class="st1" d="M52.65,119.48c-0.18-2,0.28-4.63,0.21-7.27c-0.02-0.53,0.21-1.03,0.22-1.57c0.01-0.44,0.49-0.5,0.86-0.46
		c1.04,0.12,2.08,0.29,3.13,0.42c2.56,0.31,4.92,1.25,7.33,2.1c2.06,0.73,3.97,1.71,5.82,2.8c1.37,0.81,2.57,1.94,3.83,2.94
		c0.5,0.4,0.67,0.79,0.16,1.41c-0.6,0.74-1.19,1.48-1.85,2.16c-0.95,0.99-1.81,2.08-2.75,3.06c-1.14,1.17-2.23,2.4-3.42,3.53
		c-1.79,1.71-3.6,3.37-5.48,4.98c-1.36,1.16-2.86,1.96-4.38,2.8c-1.09,0.61-2.25,0.24-2.54-1.67c-0.3-1.94-0.33-3.91-0.63-5.82
		C52.71,125.98,52.7,123.06,52.65,119.48z"/>
	<path class="st1" d="M51.47,167.46c-0.18,2.53-0.3,5.17-0.24,7.81c0.01,0.67-0.35,1.28-0.21,1.99c0.1,0.51-0.41,0.41-0.74,0.43
		c-2.46,0.18-4.8-0.38-7.14-1.05c-1.72-0.49-3.43-0.99-5.05-1.71c-0.93-0.42-1.91-0.8-2.7-1.5c-0.46-0.41-1.06-0.71-1.57-0.93
		c-1.66-0.69-2.65-2.23-4.21-3.03c-0.41-0.21-0.3-0.63,0.01-0.96c2.18-2.31,4.24-4.73,6.42-7.04c1.97-2.08,4.23-3.86,6.13-6.02
		c0.7-0.79,1.68-1.37,2.61-1.88c1.22-0.67,2.21-1.75,3.67-2.04c0.83-0.17,1.18,0.06,1.5,0.84c0.87,2.1,1.01,4.3,1.11,6.52
		C51.17,161.72,51.33,164.53,51.47,167.46z"/>
	<path class="st1" d="M50.86,113.88c0.27,4.09,0.18,8.18,0.19,12.26c0,2.69-0.16,5.38-0.81,7.99c-0.21,0.86-0.26,1.97-1.3,2.48
		c-0.39,0.19-0.72,0.2-1.14,0.01c-2.15-0.93-3.94-2.38-5.71-3.87c-3.01-2.54-5.64-5.48-8.44-8.24c-1.24-1.23-2.44-2.5-3.51-3.88
		c-0.11-0.14-0.28-0.23-0.43-0.34c-0.63-0.47-0.71-1.12-0.11-1.59c0.95-0.76,1.92-1.49,2.94-2.14c0.62-0.4,1.1-0.94,1.79-1.28
		c2.04-1.01,3.93-2.32,6.18-2.95c1.41-0.4,2.78-0.92,4.22-1.22c1.59-0.33,3.16-0.81,4.8-0.83c1.01-0.02,1.3,0.28,1.34,1.33
		C50.88,112.37,50.86,113.12,50.86,113.88z"/>
	<path class="st1" d="M75.92,144.85c1.59,0.09,3.73-0.14,5.87,0.14c0.93,0.12,1.9-0.06,2.85,0.04c0.71,0.08,1.15,0.21,1.1,1.16
		c-0.12,2.26-0.37,4.51-1.05,6.65c-0.81,2.54-1.69,5.06-3.06,7.42c-1.05,1.81-2.23,3.51-3.36,5.27c-0.83,1.3-1.56,1.47-2.6,0.36
		c-1.73-1.85-3.82-3.3-5.54-5.18c-1.44-1.56-3.08-2.96-4.58-4.48c-1.82-1.84-3.43-3.86-4.96-5.93c-0.46-0.63-0.75-1.4-1.02-2.14
		c-0.43-1.18,0.37-1.95,1.39-2.17C65.72,144.92,70.54,144.8,75.92,144.85z"/>
	<path class="st1" d="M20.76,145.41c4.03-0.21,8.27-0.53,12.5-0.35c3.1,0.13,6.22,0.21,9.26,0.95c0.68,0.16,1.39,0.53,1.9,1
		c0.87,0.8,0.28,1.8-0.2,2.44c-1.23,1.64-2.33,3.39-3.74,4.91c-2.49,2.68-4.96,5.38-7.61,7.9c-1.6,1.53-3.25,3-4.85,4.54
		c-0.48,0.46-0.76,0.27-1.07-0.12c-1.69-2.12-3.37-4.23-4.65-6.66c-0.91-1.74-1.42-3.62-2.23-5.37c-1.05-2.27-1.25-4.66-1.48-7.07
		c-0.02-0.18-0.07-0.37-0.11-0.55c-0.28-1.14,0.09-1.62,1.24-1.62C19.99,145.41,20.28,145.41,20.76,145.41z"/>
	<path class="st1" d="M82.29,142.81c-4.34,0.41-8.66,0.25-12.97,0.18c-2.48-0.04-4.96-0.4-7.42-0.76c-0.83-0.12-1.7-0.45-2.37-1.12
		c-0.48-0.48-0.4-1.29,0.11-2.08c2.28-3.46,4.97-6.59,7.96-9.45c2.73-2.61,5.17-5.52,8.18-7.85c1.04-0.8,1.45-0.33,2.27,0.83
		c0.7,0.98,1.52,1.86,2.24,2.82c0.38,0.5,0.4,1.09,0.74,1.55c0.88,1.22,1.54,2.57,2.15,3.94c0.43,0.97,0.64,2.04,1.02,3.03
		c0.75,1.93,1.08,3.94,1.32,5.98c0.07,0.62,0.07,1.27,0.24,1.84c0.24,0.83-0.32,0.91-0.72,0.91
		C84.1,142.63,83.2,143.04,82.29,142.81z"/>
	<path class="st1" d="M53.23,171.37c0.14-2.2-0.24-4.71-0.18-7.22c0.07-3.02,0.26-6.03,0.71-9.02c0.14-0.95,0.31-1.86,0.69-2.73
		c0.45-1.04,1.03-1.25,1.99-0.72c0.83,0.46,1.61,1.02,2.53,1.31c0.32,0.1,0.68,0.22,0.86,0.53c0.44,0.74,1.22,1.09,1.84,1.62
		c3.29,2.82,6.32,5.91,9.33,9c0.99,1.02,1.89,2.12,2.93,3.1c1.18,1.11,1.05,1.86-0.25,2.78c-1.13,0.81-2.16,1.76-3.32,2.55
		c-0.89,0.61-1.84,1.08-2.8,1.53c-1.37,0.64-2.72,1.34-4.14,1.87c-1.16,0.44-2.43,0.59-3.61,0.99c-1.83,0.62-3.7,0.77-5.6,0.78
		c-0.54,0-0.72-0.15-0.8-0.69C53.15,175.25,53.28,173.46,53.23,171.37z"/>
	<path class="st1" d="M28.75,143.3c-3.09-0.01-6.16-0.39-9.24-0.28c-0.96,0.03-1.15-0.36-0.99-1.35c0.15-0.92,0.21-1.86,0.24-2.79
		c0.06-2.44,0.86-4.67,1.86-6.85c0.27-0.58,0.45-1.21,0.67-1.81c0.83-2.29,2.23-4.22,3.65-6.16c0.49-0.66,1.08-1.25,1.51-1.97
		c0.31-0.51,0.69-0.69,1.39-0.27c1.4,0.84,2.28,2.19,3.5,3.2c1.59,1.32,3.08,2.76,4.57,4.2c1.39,1.35,2.75,2.73,3.99,4.23
		c0.98,1.18,2.15,2.23,2.87,3.6c0.5,0.95,1.5,1.57,1.65,2.74c0.21,1.62-0.02,2.15-1.59,2.47c-1.42,0.29-2.86,0.54-4.32,0.6
		C35.27,142.98,32.01,143.14,28.75,143.3z"/>
</g>
</svg>
