<?xml version="1.0" encoding="utf-8"?>
<!-- Generator: Adobe Illustrator 28.3.0, SVG Export Plug-In . SVG Version: 6.00 Build 0)  -->
<svg version="1.1" id="Calque_1" xmlns="http://www.w3.org/2000/svg" xmlns:xlink="http://www.w3.org/1999/xlink" x="0px" y="0px"
	 viewBox="0 0 288 288" style="enable-background:new 0 0 288 288;" xml:space="preserve">
<style type="text/css">
	.st0{fill:#FFFFFF;}
	.st1{fill:#EA5F1E;}
</style>
<g>
	<path class="st0" d="M18.3,173.39c1.43,0,2.85,0,4.38,0c1.13,4.41,2.23,8.75,3.34,13.09c0.09,0.02,0.18,0.05,0.27,0.07
		c1.13-4.33,2.26-8.67,3.42-13.08c1.39,0,2.81,0,4.4,0c-1.12,3.84-2.22,7.65-3.34,11.46c-0.57,1.94-1.19,3.87-1.73,5.82
		c-0.43,1.55-1.42,2.17-3.01,2.19c-1.68,0.03-2.35-0.96-2.75-2.32c-1.45-4.99-2.87-10-4.32-14.99c-0.16-0.54-0.43-1.05-0.66-1.58
		C18.3,173.83,18.3,173.61,18.3,173.39z"/>
	<path class="st0" d="M235.59,94.33c9.7,0.02,19.4,0.04,29.09,0.06c1.87,0,3.75,0.02,5.62,0.03c-0.02,0.05-0.03,0.14-0.06,0.15
		c-3.79,1.04-5.52,4.03-7.32,7.2c-11.14,19.64-22.42,39.2-33.59,58.82c-1.77,3.11-4.3,4.44-7.81,4.43c-12.75-0.04-25.5-0.04-38.26,0
		c-3.42,0.01-5.86-1.44-7.52-4.36c-6.61-11.55-13.25-23.08-19.82-34.66c-1.19-2.11-2.83-2.99-5.2-2.95
		c-4.58,0.07-9.17-0.04-13.75,0.06c-1.39,0.03-1.68-0.51-1.68-1.72c0.03-8.37,0.02-16.75,0-25.12c0-1.26,0.38-1.86,1.8-1.86
		c10.49,0.05,20.98,0,31.47,0.04c3.35,0.01,5.84,1.3,7.6,4.44c7.09,12.6,14.37,25.08,21.6,37.6c1.63,2.82,3.36,3.57,6.47,2.55
		c0.93-0.31,1.89-1.17,2.39-2.03c7.39-12.73,14.77-25.48,22-38.3C230.24,95.84,232.44,94.46,235.59,94.33z"/>
	<path class="st1" d="M229.64,94.92c-7.36,10.22-12.62,21.61-18.99,32.35c-1.76,2.98-3.48,5.98-5.09,9.04
		c-0.72,1.36-1.85,1.97-3.17,1.94c-1.32-0.03-2.4-0.71-3.14-2.03c-6.77-12.06-13.58-24.1-20.45-36.1c-1.03-1.8-2.41-3.39-3.72-5.21
		C193.35,94.92,211.53,94.92,229.64,94.92z"/>
	<path class="st0" d="M54.15,192.85c-1.37,0-2.46,0-3.71,0c0-2.56,0-5.07,0-7.59c0-3.09,0.01-6.17,0-9.26
		c-0.01-1.45,0.61-2.52,2.05-2.78c1.43-0.26,2.58,0.36,3.18,1.74c1.68,3.85,3.33,7.71,5.27,11.51c0-4.3,0-8.59,0-12.99
		c1.26,0,2.4,0,3.65,0c0.03,0.29,0.1,0.65,0.1,1.01c0.01,5.07,0,10.14,0.01,15.21c0,1.4-0.28,2.72-1.79,3.15
		c-1.79,0.52-3.03-0.22-3.79-2.01c-1.58-3.72-3.15-7.45-4.97-11.14C54.15,184.05,54.15,188.39,54.15,192.85z"/>
	<path class="st0" d="M247.72,183.29c0-2.2-0.02-4.4,0.01-6.6c0.03-2.07,1.11-3.16,3.14-3.22c2.99-0.09,5.92-0.1,8.39,2.1
		c3.11,2.76,4.28,6.95,2.86,10.9c-1.38,3.81-4.99,6.37-9.09,6.43c-4.87,0.07-5.31-0.36-5.31-5.15
		C247.72,186.26,247.72,184.78,247.72,183.29z M251.82,177.38c0,3.86,0,7.68,0,11.56c2.64,0.26,4.58-0.78,5.88-2.91
		c1.22-1.98,1.21-4.09-0.05-6.07C256.32,177.87,254.39,176.97,251.82,177.38z"/>
	<path class="st0" d="M128.25,183.19c0-2.26,0.03-4.51-0.01-6.77c-0.03-1.5,0.75-2.4,2.07-2.81c4.73-1.48,9.87,0.89,12,5.48
		c2.94,6.35-1.59,13.63-8.6,13.8c-4.39,0.11-5.78,0.13-5.47-5.25C128.33,186.16,128.25,184.67,128.25,183.19z M132.37,177.39
		c0,3.86,0,7.72,0,11.59c4.05-0.06,6.89-2.7,6.69-6.22C138.88,179.62,135.93,176.59,132.37,177.39z"/>
	<path class="st0" d="M122.5,184.16c1.62,2.86,3.22,5.69,4.95,8.74c-1.54,0-2.86,0.09-4.14-0.05c-0.45-0.05-0.97-0.61-1.22-1.06
		c-1.32-2.36-2.56-4.77-4.11-7.08c0,2.66,0,5.32,0,8.08c-1.42,0-2.71,0-4.19,0c0-2.45,0-4.91,0-7.37c0-2.81-0.01-5.62,0-8.43
		c0.01-2.52,1.01-3.52,3.48-3.53c0.94,0,1.88-0.01,2.81,0c2.71,0.02,5.12,1.68,5.83,4.03c0.76,2.5-0.16,4.51-2.81,6.2
		C122.9,183.82,122.74,183.97,122.5,184.16z M117.99,182.44c1.01-0.51,1.95-1,2.9-1.48c1.2-0.62,1.46-1.76,0.69-2.88
		c-0.93-1.36-2.23-1.06-3.59-0.96C117.99,178.96,117.99,180.71,117.99,182.44z"/>
	<path class="st0" d="M91.83,173.46c1.43,0,2.74,0,4.16,0c0,4.52,0.21,9.03-0.07,13.51c-0.2,3.16-3.09,5.7-5.74,5.96
		c-5.25,0.52-7.1-1.87-8.03-4.42c-0.11-0.31-0.23-0.63-0.23-0.95c-0.02-4.67-0.01-9.34-0.01-14.08c1.34,0,2.58,0,3.98,0
		c0,4.25-0.03,8.47,0.01,12.69c0.02,2.35,2.11,3.68,4.24,2.75c1.08-0.47,1.72-1.23,1.71-2.54C91.8,182.09,91.83,177.8,91.83,173.46z
		"/>
	<path class="st0" d="M96.89,192.85c1.48-4.89,2.91-9.64,4.35-14.4c0.27-0.89,0.59-1.77,0.82-2.67c0.4-1.54,1.26-2.66,2.92-2.61
		c1.57,0.05,2.63,1.07,3.08,2.56c1.24,4.08,2.43,8.17,3.64,12.26c0.46,1.56,0.91,3.12,1.39,4.79c-1.48,0-2.79,0-4.11,0
		c-0.06-0.05-0.17-0.11-0.2-0.19c-0.43-1.16-0.56-3.01-1.33-3.33c-1.37-0.56-3.13-0.22-4.72-0.17c-0.24,0.01-0.57,0.42-0.7,0.71
		c-0.41,0.99-0.47,2.56-1.17,2.91C99.86,193.22,98.41,192.85,96.89,192.85z M106.68,185.43c-0.53-2.56-1.03-5.03-1.54-7.5
		c-0.1,0.02-0.2,0.04-0.3,0.07c-0.51,2.44-1.02,4.88-1.56,7.43C104.48,185.43,105.5,185.43,106.68,185.43z"/>
	<path class="st0" d="M49.4,192.76c-1.32,0-2.62,0-3.97,0c-0.02-0.03-0.13-0.1-0.16-0.19c-0.38-1.13-0.48-2.99-1.17-3.24
		c-1.47-0.53-3.24-0.25-4.89-0.22c-0.24,0-0.58,0.42-0.7,0.72c-0.42,0.99-0.5,2.55-1.2,2.9c-1.02,0.5-2.47,0.13-3.94,0.13
		c0.96-3.19,1.89-6.31,2.82-9.43c0.79-2.62,1.55-5.25,2.37-7.86c0.42-1.36,1.27-2.41,2.8-2.39c1.52,0.02,2.63,0.89,3.08,2.33
		c1.7,5.55,3.34,11.12,4.99,16.68C49.47,192.33,49.42,192.5,49.4,192.76z M41.67,177.88c-0.12-0.01-0.23-0.01-0.35-0.02
		c-0.53,2.5-1.06,5-1.61,7.57c1.28,0,2.31,0,3.47,0C42.67,182.85,42.17,180.37,41.67,177.88z"/>
	<path class="st0" d="M76,188.85c0-2.64,0-5.26,0-8c1.41,0,2.71,0,4.2,0c0,3.23,0.12,6.51-0.06,9.77c-0.08,1.37-1.32,2.09-2.7,2.26
		c-5.59,0.68-10.74-3.63-11.1-9.27c-0.35-5.52,4.11-10.15,9.8-10.15c0.66,0,1.32,0,2.11,0c0,1.28,0,2.5,0,3.72
		c-5.27,0.47-7.53,2.26-7.6,5.98C70.61,186.19,72.74,188.5,76,188.85z"/>
	<path class="st0" d="M189.85,173.3c0,1.31,0,2.51,0,3.91c-1.89,0-3.74,0-5.69,0c0,1.21,0,2.23,0,3.38c1.74,0,3.48,0,5.31,0
		c0,1.31,0,2.5,0,3.88c-1.72,0-3.46,0-5.31,0c0,1.54,0,2.88,0,4.37c1.83,0,3.68,0,5.63,0c0,1.38,0,2.61,0,3.97
		c-2.33,0-4.74,0.07-7.14-0.03c-1.6-0.07-2.68-1.31-2.7-3c-0.04-4.4-0.05-8.81,0-13.21c0.02-1.78,1.31-3.17,3.08-3.25
		C185.29,173.21,187.54,173.3,189.85,173.3z"/>
	<path class="st0" d="M165.76,177.66c-1.75-0.25-3.38-0.62-5.02-0.69c-1.13-0.05-1.98,0.64-2.06,1.92c-0.07,1.23,0.7,1.75,1.74,2.06
		c0.68,0.2,1.36,0.41,2.04,0.63c2.73,0.89,4.45,3.51,4.07,6.18c-0.46,3.23-2.4,5.01-5.61,5.14c-0.61,0.02-1.21,0.01-1.82,0
		c-4.12-0.06-4.71-0.75-4.22-4.94c1.42,0.39,2.82,0.83,4.26,1.14c0.56,0.12,1.3,0.16,1.74-0.12c0.71-0.44,1.71-1.17,1.71-1.79
		c0-0.64-0.94-1.41-1.63-1.9c-0.55-0.39-1.35-0.42-2.02-0.66c-3.39-1.2-4.95-3.58-4.46-6.73c0.43-2.72,3.16-4.79,6.41-4.85
		c0.22,0,0.44-0.01,0.66,0C165.8,173.28,166.09,173.61,165.76,177.66z"/>
	<path class="st0" d="M201.7,192.82c-2.29,0-4.54,0.04-6.79-0.01c-1.91-0.04-3.04-1.21-3.05-3.14c-0.02-4.29-0.02-8.59,0-12.88
		c0.01-2.07,1.25-3.42,3.33-3.5c2.14-0.08,4.29-0.02,6.53-0.02c0,1.27,0,2.46,0,3.86c-1.85,0-3.74,0-5.75,0c0,1.23,0,2.25,0,3.43
		c1.75,0,3.54,0,5.42,0c0,1.35,0,2.54,0,3.93c-1.79,0-3.59,0-5.45,0c0,1.55,0,2.9,0,4.36c1.93,0,3.79,0,5.75,0
		C201.7,190.2,201.7,191.44,201.7,192.82z"/>
	<path class="st0" d="M170.83,177.04c-1.37,0-2.45,0-3.63,0c0-1.23,0-2.35,0-3.56c3.75,0,7.47,0,11.27,0c0,1.17,0,2.29,0,3.54
		c-1.14,0-2.22,0-3.44,0c0,5.32,0,10.52,0,15.8c-1.44,0-2.74,0-4.2,0C170.83,187.65,170.83,182.45,170.83,177.04z"/>
	<path class="st0" d="M238.7,177.06c-1.37,0-2.47,0-3.66,0c0-1.18,0-2.31,0-3.56c3.73,0,7.55,0,11.43,0c0,1.15,0,2.28,0,3.54
		c-1.18,0-2.31,0-3.57,0c0,5.33,0,10.53,0,15.79c-1.43,0-2.74,0-4.19,0C238.7,187.62,238.7,182.43,238.7,177.06z"/>
	<path class="st0" d="M225,173.51c1.47,0,2.68,0,4.04,0c0,5.12,0,10.21,0,15.43c1.95,0,3.75,0,5.68,0c0,1.35,0,2.57,0,3.94
		c-2.4,0-4.81,0.08-7.21-0.03c-1.44-0.07-2.44-1.12-2.47-2.45C224.93,184.81,225,179.21,225,173.51z"/>
	<path class="st0" d="M203.79,173.53c1.42,0,2.67,0,4.08,0c0,5.13,0,10.22,0,15.46c2.01,0,3.86,0,5.78,0c0,1.34,0,2.52,0,3.86
		c-2.49,0-5.01,0.13-7.51-0.05c-1.47-0.11-2.31-1.31-2.32-2.76C203.76,184.6,203.79,179.15,203.79,173.53z"/>
	<path class="st0" d="M266.78,192.92c-1.5,0.01-2.42-0.83-2.45-2.23c-0.03-1.42,0.93-2.43,2.3-2.42c1.39,0.01,2.42,1.1,2.34,2.59
		C268.89,192.19,268.25,193.02,266.78,192.92z"/>
</g>
</svg>
