<?xml version="1.0" encoding="utf-8"?>
<!-- Generator: Adobe Illustrator 28.3.0, SVG Export Plug-In . SVG Version: 6.00 Build 0)  -->
<svg version="1.1" id="Calque_1" xmlns="http://www.w3.org/2000/svg" xmlns:xlink="http://www.w3.org/1999/xlink" x="0px" y="0px"
	 viewBox="0 0 288 288" style="enable-background:new 0 0 288 288;" xml:space="preserve">
<style type="text/css">
	.st0{fill:#1063AD;}
	.st1{fill:#FFFFFF;}
</style>
<g>
	<path class="st0" d="M37.49,143.99c0,11.68-0.06,23.37,0.05,35.05c0.02,2.38-0.62,3.31-3.09,3.23c-4.43-0.15-8.87-0.1-13.3-0.02
		c-2.24,0.04-3.04-0.86-3.04-3.09c0.05-23.58,0.05-47.16-0.02-70.74c-0.01-2.25,0.87-2.76,2.9-2.7c4,0.12,8,0.02,12.01,0.05
		c4.53,0.02,4.49,0.11,4.46,4.49c-0.07,11.25-0.02,22.5-0.02,33.75C37.46,143.99,37.47,143.99,37.49,143.99z"/>
	<path class="st1" d="M103.95,128.98c0-6.81,0.08-13.62-0.05-20.43c-0.04-2.04,0.67-2.62,2.59-2.68c6.41-0.18,6.44-0.23,6.46,6.23
		c0.01,2.26-0.13,4.53-0.28,6.79c-0.13,1.99,0.35,3.24,2.49,1.81c8.84-5.89,18.49-1.5,22.66,5.01c5.05,7.89,3.22,18.41-4.35,24.46
		c-5.27,4.21-12.04,4.58-17.82,0.89c-1.3-0.83-1.97-1.34-3.28,0.44c-1.79,2.43-4.84,1.16-7.23,0.79c-2.03-0.31-1.13-2.45-1.14-3.86
		c-0.01-3.24,0.03-6.48,0.04-9.73c0.01-3.24,0-6.49,0-9.73C104.01,128.98,103.98,128.98,103.95,128.98z M112.39,136.12
		c0.05,5.35,4.38,9.58,9.79,9.57c5.16-0.01,9.47-4.57,9.44-9.96c-0.03-5.59-4.11-9.82-9.46-9.82
		C116.48,125.89,112.33,130.24,112.39,136.12z"/>
	<path class="st1" d="M205.11,135.52c0,4.65-0.1,9.3,0.04,13.94c0.07,2.45-0.86,3.47-3.23,3.11c-2.18-0.33-4.81,0.99-6.31-1.97
		c-0.52-1.02-1.57-0.09-2.2,0.4c-9.41,7.14-24.34-1.32-24.67-13.5c-0.25-9.5,2.99-15.51,10.66-18.47c4.65-1.8,9.39-1.63,13.65,1.21
		c1.6,1.06,2.15,1.12,3.51-0.53c1.86-2.25,4.9-1.05,7.3-0.72c1.83,0.25,1.2,2.4,1.18,3.88c-0.04,4.22-0.01,8.43-0.01,12.65
		C205.06,135.52,205.09,135.52,205.11,135.52z M187.11,145.58c5.39,0.01,9.53-4.35,9.56-10.08c0.03-5.09-4.37-9.58-9.41-9.63
		c-5.81-0.06-9.72,4.01-9.73,10.12C177.51,141.46,181.62,145.58,187.11,145.58z"/>
	<path class="st1" d="M214.36,135.43c0-4.65,0.07-9.3-0.03-13.94c-0.05-1.98,0.73-2.94,2.63-2.7c2.35,0.3,5.16-1.41,6.9,1.87
		c0.62,1.17,1.93-0.07,2.81-0.58c3.98-2.33,8.14-2.89,12.42-1.07c4.15,1.76,6.57,4.96,6.68,9.5c0.17,7.13,0.09,14.27,0.18,21.4
		c0.02,1.94-0.79,2.75-2.71,2.7c-6.93-0.17-6.39,0.68-6.23-5.88c0.12-4.75,0.04-9.51-0.14-14.26c-0.14-3.76-1.91-6.07-4.65-6.6
		c-3.15-0.61-6.24,1.2-7.71,4.59c-0.79,1.81-1.06,3.72-1.03,5.7c0.06,4.43,0,8.87,0.14,13.3c0.07,2.11-0.4,3.17-2.83,3.17
		c-6.36,0.01-6.35,0.11-6.33-6.17c0.01-3.68,0-7.35,0-11.03C214.42,135.43,214.39,135.43,214.36,135.43z"/>
	<path class="st1" d="M50.9,118.85c3.41-1.12,4.83,1.1,6.01,4.16c1.64,4.23,3.62,8.32,5.43,12.48c0.34,0.78,0.49,1.77,1.63,1.67
		c0.9-0.08,1.05-0.94,1.35-1.63c2.06-4.76,4.13-9.52,6.23-14.26c0.89-2.01,7.31-3.69,9.05-2.39c1.04,0.78,0.56,1.69,0.15,2.6
		c-4.31,9.55-8.64,19.09-12.88,28.68c-0.77,1.74-1.86,2.46-3.72,2.48c-1.85,0.01-3.36-0.21-4.23-2.18
		c-4.34-9.78-8.75-19.52-13.15-29.28c-0.72-1.59-0.46-2.53,1.48-2.48C49.03,118.73,49.78,118.79,50.9,118.85z"/>
	<path class="st1" d="M256.03,139.47c0-3.35-0.05-6.71,0.01-10.06c0.03-1.82-0.19-3.22-2.52-3.23c-2.07-0.01-2.48-1.44-2.2-3.15
		c0.25-1.6-0.94-4.02,2.16-4.12c2.17-0.07,2.68-1.35,2.58-3.25c-0.11-2.27-0.05-4.54-0.17-6.81c-0.08-1.63,0.59-2.45,2.21-2.49
		c0.11,0,0.22,0.01,0.32,0c6.6-0.49,6.62-0.47,6.57,6.23c-0.01,1.08-0.05,2.16-0.15,3.24c-0.2,2.03,0.52,3.11,2.73,2.91
		c3.09-0.27,2.48,2.06,2.45,3.77c-0.03,1.66,0.7,4.07-2.45,3.75c-2.24-0.23-2.75,0.89-2.71,2.9c0.13,6.81,0.04,13.63,0.21,20.43
		c0.05,2.28-0.75,3.18-2.98,3.06c-6.74-0.38-6.29,0.93-6.07-6.04C256.1,144.23,256.04,141.85,256.03,139.47z"/>
	<path class="st1" d="M146.25,135.88c0-4.42,0-8.85,0-13.27c0-1.34-0.71-3.14,1.15-3.59c1.9-0.46,4.41-1.3,5.76,0.45
		c1.58,2.05,2.47,1.25,3.8,0.1c1.75-1.51,3.85-1.82,6.08-1.51c1.69,0.23,2.35,1.13,1.55,2.68c-1.15,2.22-0.88,5.75-5.28,4.97
		c-1.67-0.3-2.69,1.88-3.33,3.54c-1.13,2.9-0.85,5.95-0.87,8.96c-0.02,3.88-0.04,7.77,0.06,11.65c0.06,2.11-0.71,2.79-2.85,2.74
		c-6.63-0.13-6.3,0.53-6.08-6.05C146.35,143.01,146.26,139.44,146.25,135.88z"/>
	<path class="st1" d="M86.34,135.42c0-4.64,0.06-9.28-0.03-13.92c-0.04-2.04,0.59-2.91,2.8-2.83c6.26,0.21,6.26,0.14,6.27,6.48
		c0.01,8.09-0.05,16.19,0.09,24.28c0.04,2.43-0.78,3.32-3.17,3.2c-6.28-0.34-5.96,1.17-5.86-5.88c0.05-3.78,0.01-7.55,0.01-11.33
		C86.41,135.42,86.37,135.42,86.34,135.42z"/>
	<path class="st1" d="M157.06,169.27c0-0.97,0.04-1.95-0.01-2.91c-0.22-4.19-0.23-4.08,4.03-3.94c1.44,0.05,3.31-1.38,4.29-0.85
		c3.47,1.85,6.54,0.74,9.93-0.04c2.67-0.61,5.11,1.98,5.31,4.92c0.19,2.69,0.13,5.39,0.16,8.09c0.02,1.36-0.5,2.34-2.03,2.37
		c-1.66,0.03-2.3-0.96-2.29-2.48c0.02-2.05,0.19-4.11,0.09-6.15c-0.07-1.42-0.51-2.88-2.27-3.1c-1.9-0.24-2.69,1.1-3.16,2.62
		c-0.59,1.9-0.29,3.86-0.2,5.79c0.08,1.6,0.03,3.24-2.14,3.23c-2.12-0.01-2.23-1.56-2.16-3.21c0.08-1.93,0.15-3.88,0-5.81
		c-0.1-1.35-0.79-2.59-2.34-2.67c-1.48-0.08-2.37,0.97-2.87,2.23c-0.79,1.97-0.45,4.05-0.3,6.08c0.14,1.81,0.05,3.43-2.27,3.38
		c-2.33-0.05-1.88-1.85-1.85-3.34c0.03-1.4,0.01-2.81,0.01-4.21C157.03,169.27,157.05,169.27,157.06,169.27z"/>
	<path class="st1" d="M61.86,178.9c0.19,1.6,0.37,3.11-1.77,3.16c-2.24,0.06-2.17-1.4-2.13-3.09c0.1-4.76,0.09-9.52,0.01-14.28
		c-0.04-2.36,0.47-3.72,3.15-2.55c1.06,0.46,2.05,0.28,3.13-0.08c3.49-1.18,6.25-0.21,8.43,2.82c2,2.78,1.95,6.23-0.12,9.08
		c-2.02,2.78-4.99,3.83-8.2,2.62C61.47,175.49,61.9,177.41,61.86,178.9z M70.06,169.4c0.01-2.26-2.02-4.35-4.1-4.39
		c-2.17-0.04-4.36,2.17-4.31,4.34c0.05,2.26,2.18,4.36,4.46,4.19C68.68,173.35,69.76,171.59,70.06,169.4z"/>
	<path class="st1" d="M202.22,169.45c0,0.87,0,1.73,0,2.6c0.03,4.46,0.03,4.44-4.23,4.15c-0.61-0.04-1.27,0.18-1.87,0.37
		c-3.47,1.13-6.43,0.21-8.5-2.67c-1.99-2.77-2-6.32-0.02-9.09c2.15-3,4.67-3.81,8.45-2.69c0.83,0.25,1.65,0.6,2.52,0.2
		c3.18-1.48,3.84,0.15,3.69,2.92c-0.08,1.4-0.01,2.81-0.01,4.22C202.24,169.45,202.23,169.45,202.22,169.45z M193.77,173.51
		c2.68,0.06,4.76-1.92,4.74-4.18c-0.02-2.17-2.24-4.46-4.38-4.27c-2.49,0.23-3.93,1.8-3.96,4.24
		C190.14,171.79,191.64,173.2,193.77,173.51z"/>
	<path class="st1" d="M208.69,169.33c0-1.84,0.03-3.67-0.01-5.51c-0.04-1.76,0.91-2.54,2.43-1.92c1.68,0.69,3.05,0.35,4.64-0.19
		c3.16-1.07,6.47,1.24,6.68,4.59c0.17,2.69,0.14,5.4,0.19,8.1c0.02,1.34-0.42,2.39-1.93,2.48c-1.64,0.1-2.37-0.93-2.4-2.41
		c-0.04-2.05,0.13-4.1,0.09-6.15c-0.03-1.44-0.32-2.92-2.12-3.17c-1.88-0.26-2.76,1.08-3.27,2.54c-0.7,1.98-0.35,4.07-0.19,6.11
		c0.14,1.76-0.14,3.11-2.25,3.06c-1.99-0.05-2.09-1.46-1.97-2.99c0.11-1.51,0.15-3.02,0.22-4.53
		C208.75,169.33,208.72,169.33,208.69,169.33z"/>
	<path class="st1" d="M139.35,169.51c-0.06,4.09-4.18,7.87-8.43,7.74c-4.06-0.13-8.07-4.04-8.05-7.87c0.02-3.98,4.27-8.03,8.33-7.93
		C135.49,161.55,139.41,165.43,139.35,169.51z M135.32,169.26c-0.37-2.36-1.55-4-4.14-4.12c-2.24-0.1-4.48,2.16-4.26,4.36
		c0.25,2.5,1.81,4,4.28,3.96C133.7,173.43,135.02,171.77,135.32,169.26z"/>
	<path class="st1" d="M236.99,177.25c-4.46-0.24-7.92-2.76-8.78-6.09c-0.81-3.15,0.57-6.25,3.68-8.27c2.95-1.92,7.8-1.83,10.42,0.2
		c0.68,0.53,1.48,1.12,0.97,2.12c-0.41,0.8-1.24,1.34-2.14,1.18c-1.04-0.19-2.03-0.67-3.04-1.01c-2.27-0.75-4.03,0.11-5.38,1.88
		c-1.12,1.46-1.04,3.02,0.08,4.47c1.35,1.75,3.19,2.16,5.21,1.56c1.76-0.52,4.1-2.41,4.9,0.34c0.82,2.85-2.48,2.52-4.15,3.31
		C238.1,177.25,237.29,177.21,236.99,177.25z"/>
	<path class="st1" d="M259.12,170.53c-1.18-0.08-2.36-0.16-3.54-0.25c-0.77-0.06-1.64-0.14-1.88,0.8c-0.21,0.83,0.38,1.41,1.03,1.85
		c1.71,1.16,3.42,0.98,5.22,0.16c1.31-0.6,3-1.1,3.65,0.62c0.69,1.83-1.19,2.28-2.42,2.78c-4.45,1.81-9.37-0.01-11.34-4.13
		c-1.72-3.59,0.08-8.1,4.02-10.09c3.98-2.01,8.49-0.51,10.8,3.58c1.81,3.21,1.09,4.42-2.63,4.41c-0.97,0-1.94,0-2.91,0
		C259.13,170.36,259.12,170.45,259.12,170.53z M254.63,166.9c1.94,0.75,3.87,1.09,5.81-0.01c0.84-0.56,0.63-0.95-0.19-1.26
		c-1.75-1.49-3.58-1.44-5.45-0.23C253.85,165.79,253.52,166.26,254.63,166.9z"/>
	<path class="st1" d="M88.88,170.34c-1.19,0-2.38-0.03-3.56,0.01c-0.72,0.02-1.64-0.19-1.83,0.86c-0.15,0.85,0.42,1.43,1.11,1.81
		c1.75,0.98,3.48,0.85,5.27,0c1.2-0.57,2.74-0.96,3.38,0.6c0.77,1.88-1,2.34-2.26,2.84c-4.91,1.95-10.42-0.38-11.76-4.9
		c-1.23-4.18,1.56-8.69,6.13-9.9c3.65-0.96,8.07,1.36,9.51,5c1.02,2.56,0.35,3.57-2.43,3.61c-1.19,0.02-2.37,0-3.56,0
		C88.88,170.29,88.88,170.32,88.88,170.34z M87.11,167.5c1.09-0.35,3.06,0.7,3.05-1.28c-0.01-1.49-1.76-1.7-3.06-1.64
		c-1.26,0.06-3.01,0.15-2.92,1.8C84.28,168.04,86.05,167.22,87.11,167.5z"/>
	<path class="st1" d="M112.54,171.09c-0.21-2.3,0.22-4.39-0.99-6.48c-1.25-2.16,1.74-8.31,3.99-8.78c1.28-0.27,2.69-0.39,3.4,1.06
		c0.7,1.43-0.51,1.8-1.48,2.33c-1.4,0.77-1.15,1.74,0.01,2.46c2.14,1.34,2.17,2.46-0.08,3.7c-0.97,0.53-0.95,1.62-0.92,2.6
		c0.06,2.16,0.17,4.31,0.19,6.47c0.02,1.33-0.48,2.37-2,2.42c-1.62,0.05-2.36-0.87-2.32-2.43
		C112.38,173.26,112.48,172.08,112.54,171.09z"/>
	<path class="st1" d="M143.87,173.75c0.27-3.12,0.37-6.23,0.04-9.35c-0.21-1.98,0.54-2.97,2.6-2.32c1.26,0.4,2.32,0.01,3.4-0.49
		c0.73-0.34,1.5-0.49,2.02,0.28c0.56,0.83,0.46,1.95-0.35,2.29c-4.76,2.01-3.41,6.09-3.39,9.69c0.01,1.76-0.35,3.12-2.38,2.99
		C143.93,176.72,143.83,175.2,143.87,173.75z"/>
	<path class="st1" d="M100.15,169.3c0-0.43,0-0.86,0-1.3c0.06-6.6,0.06-6.59,6.51-6.64c0.59,0,1.08,0.11,1.32,0.69
		c0.33,0.79,0.18,1.75-0.48,2.05c-4.33,1.93-3.42,5.71-3.34,9.18c0.04,1.66,0.33,3.57-2.08,3.54c-2.4-0.04-2.04-2.01-2.02-3.63
		c0.01-1.29,0-2.59,0-3.88C100.09,169.3,100.12,169.3,100.15,169.3z"/>
	<path class="st1" d="M91.23,115.13c-2.33,0.03-4.86-2.43-4.86-4.72c0-2.3,2.19-4.42,4.63-4.49c2.5-0.08,5,2.11,5.06,4.43
		C96.12,112.59,93.59,115.09,91.23,115.13z"/>
	<path class="st1" d="M254.8,165.39c0.29,0.54,0.24,1.05-0.17,1.51C253.52,166.26,253.85,165.79,254.8,165.39z"/>
	<path class="st1" d="M260.44,166.89c-0.37-0.38-0.52-0.79-0.19-1.27C261.06,165.93,261.28,166.33,260.44,166.89z"/>
</g>
</svg>
