<?xml version="1.0" encoding="UTF-8" standalone="no"?>
<!-- Generator: Adobe Illustrator 28.3.0, SVG Export Plug-In . SVG Version: 6.00 Build 0)  -->

<svg
   version="1.1"
   id="Calque_1"
   x="0px"
   y="0px"
   viewBox="0 0 289.48268 200.52508"
   xml:space="preserve"
   sodipodi:docname="Weidmuller.svg"
   width="289.48267"
   height="200.5251"
   inkscape:version="1.3.2 (091e20e, 2023-11-25, custom)"
   xmlns:inkscape="http://www.inkscape.org/namespaces/inkscape"
   xmlns:sodipodi="http://sodipodi.sourceforge.net/DTD/sodipodi-0.dtd"
   xmlns="http://www.w3.org/2000/svg"
   xmlns:svg="http://www.w3.org/2000/svg"><defs
   id="defs18" /><sodipodi:namedview
   id="namedview18"
   pagecolor="#ffffff"
   bordercolor="#000000"
   borderopacity="0.25"
   inkscape:showpageshadow="2"
   inkscape:pageopacity="0.0"
   inkscape:pagecheckerboard="0"
   inkscape:deskcolor="#d1d1d1"
   inkscape:zoom="2.6979167"
   inkscape:cx="143.81467"
   inkscape:cy="112.12355"
   inkscape:window-width="1920"
   inkscape:window-height="991"
   inkscape:window-x="-9"
   inkscape:window-y="-9"
   inkscape:window-maximized="1"
   inkscape:current-layer="Calque_1" />
<style
   type="text/css"
   id="style1">
	.st0{fill:#EA5F1E;}
	.st1{fill:#FFFFFF;}
</style>
<g
   id="g18"
   transform="translate(0,-34.185328)">
	<path
   class="st0"
   d="m 18.21,132.52 c 2.4,0 4.8,0.01 7.19,-0.01 0.42,0 0.5,0.12 0.5,0.52 0.06,4.91 0.14,9.82 0.22,14.73 0,0.19 -0.03,0.39 0.11,0.64 0.16,-0.38 0.3,-0.72 0.45,-1.06 1.97,-4.79 3.94,-9.59 5.89,-14.38 0.13,-0.32 0.28,-0.44 0.63,-0.44 1.72,0.02 3.45,0.02 5.17,0 0.42,-0.01 0.54,0.08 0.55,0.53 0.05,5.12 0.13,10.25 0.21,15.39 0.19,-0.08 0.2,-0.28 0.26,-0.43 C 41.44,143 43.48,138 45.5,133 c 0.16,-0.39 0.35,-0.5 0.75,-0.49 2.32,0.02 4.63,0.02 6.95,0 0.44,0 0.44,0.11 0.28,0.46 -4.16,8.74 -8.31,17.49 -12.45,26.23 -0.14,0.29 -0.29,0.41 -0.62,0.41 -2.22,-0.02 -4.43,-0.02 -6.65,0 -0.37,0 -0.46,-0.1 -0.46,-0.47 0.02,-4.08 0.02,-8.15 0.02,-12.23 0,-0.18 0,-0.36 -0.07,-0.56 -0.08,0.17 -0.16,0.33 -0.23,0.5 -1.71,4.1 -3.43,8.21 -5.13,12.31 -0.13,0.32 -0.28,0.45 -0.64,0.44 -2.2,-0.02 -4.4,-0.02 -6.6,0 -0.39,0 -0.51,-0.12 -0.53,-0.49 -0.2,-2.96 -0.41,-5.91 -0.62,-8.86 -0.25,-3.44 -0.5,-6.89 -0.75,-10.33 -0.14,-1.96 -0.28,-3.92 -0.42,-5.88 -0.01,-0.15 0.07,-0.33 -0.1,-0.45 -0.02,-0.35 -0.02,-0.71 -0.02,-1.07 z"
   id="path1" />
	<path
   class="st0"
   d="m 267.94,126.42 c 0.07,0.16 0.23,0.1 0.34,0.14 1.31,0.43 2.06,1.58 1.9,2.91 -0.16,1.36 -1.18,2.33 -2.59,2.36 -2.12,0.04 -4.23,0.02 -6.35,0.02 -0.85,0 -1.71,0.01 -2.56,0 -0.72,-0.01 -1.32,0.23 -1.78,0.78 -0.64,0.77 -1.27,1.54 -1.9,2.31 -1.18,1.39 -2.34,2.78 -3.44,4.23 -0.61,0.73 -1.21,1.45 -1.82,2.18 -1.09,1.32 -1.09,2.11 -0.01,3.42 0.6,0.73 1.18,1.47 1.78,2.21 -1.11,1.44 -2.26,2.84 -3.44,4.22 -1.07,-1.29 -2.14,-2.56 -3.2,-3.86 -0.89,-1.09 -2.02,-1.59 -3.44,-1.56 -1.92,0.04 -3.84,0.02 -5.76,0 -1.3,-0.01 -2.31,-0.75 -2.65,-1.88 -0.51,-1.74 0.57,-3.39 2.38,-3.53 1.75,-0.14 3.51,-0.03 5.27,-0.05 0.51,-0.01 1.02,-0.01 1.53,-0.03 0.78,-0.03 1.48,-0.31 2.03,-0.87 1.4,-1.41 2.61,-2.97 3.84,-4.53 1.15,-1.4 2.3,-2.81 3.45,-4.21 0.48,-0.57 0.99,-1.13 1.44,-1.73 0.89,-1.15 1.84,-2.2 3.35,-2.52 3.88,-0.01 7.75,-0.01 11.63,-0.01 z"
   id="path2" />
	<path
   class="st1"
   d="m 251.52,130.67 c -1.15,1.4 -2.3,2.81 -3.45,4.21 -0.55,-0.67 -1.11,-1.34 -1.64,-2.02 -0.57,-0.72 -1.29,-1.04 -2.22,-1.03 -2.82,0.03 -5.65,0.02 -8.47,0.01 -1.45,-0.01 -2.56,-0.86 -2.78,-2.09 -0.28,-1.51 0.44,-2.71 1.91,-3.21 0.09,-0.03 0.2,0 0.25,-0.12 3.88,0 7.75,0 11.63,0 0.96,0.24 1.83,0.66 2.47,1.43 0.78,0.94 1.54,1.88 2.3,2.82 z"
   id="path3" />
	<path
   class="st0"
   d="m 113.47,143.32 c 0.5,-0.5 0.87,-0.94 1.3,-1.3 1.69,-1.45 3.63,-2.13 5.87,-1.76 1.83,0.3 3.18,1.17 3.7,3.15 0.48,-0.55 0.92,-1.03 1.42,-1.44 2.04,-1.69 4.35,-2.21 6.91,-1.5 2.05,0.58 3.15,2 3.51,4.06 0.29,1.63 -0.12,3.19 -0.44,4.76 -0.66,3.29 -1.36,6.56 -2.03,9.85 -0.07,0.35 -0.18,0.48 -0.57,0.48 -2.04,-0.02 -4.07,-0.02 -6.11,0 -0.39,0 -0.46,-0.09 -0.38,-0.47 0.7,-3.39 1.39,-6.79 2.07,-10.19 0.12,-0.59 0.25,-1.19 0.08,-1.8 -0.16,-0.57 -0.52,-0.93 -1.09,-1.08 -1.48,-0.41 -2.94,0.42 -3.27,1.95 -0.62,2.78 -1.19,5.56 -1.77,8.35 -0.2,0.96 -0.41,1.92 -0.6,2.88 -0.05,0.28 -0.18,0.36 -0.46,0.36 -2.07,-0.01 -4.14,-0.02 -6.21,0 -0.41,0 -0.45,-0.13 -0.37,-0.48 0.76,-3.61 1.51,-7.23 2.27,-10.85 0.06,-0.29 0.07,-0.59 0.05,-0.88 -0.07,-0.75 -0.47,-1.19 -1.2,-1.36 -1.37,-0.31 -2.66,0.37 -3.22,1.72 -0.38,0.91 -0.48,1.9 -0.69,2.86 -0.61,2.86 -1.2,5.73 -1.79,8.59 -0.06,0.28 -0.16,0.4 -0.48,0.4 -2.07,-0.02 -4.14,-0.02 -6.21,0 -0.39,0 -0.43,-0.13 -0.36,-0.46 1.24,-6.05 2.47,-12.11 3.69,-18.17 0.07,-0.33 0.18,-0.42 0.5,-0.42 2,0.01 4.01,0.01 6.01,0 0.34,0 0.41,0.07 0.33,0.41 -0.17,0.71 -0.29,1.46 -0.46,2.34 z"
   id="path4" />
	<path
   class="st0"
   d="m 95.85,142.95 c 0.47,-2.31 0.93,-4.57 1.4,-6.83 0.22,-1.09 0.46,-2.17 0.67,-3.26 0.05,-0.26 0.15,-0.35 0.42,-0.35 2.12,0.01 4.24,0.01 6.35,0 0.35,0 0.36,0.13 0.31,0.4 -1.55,7.54 -3.1,15.08 -4.65,22.62 -0.25,1.22 -0.51,2.43 -0.74,3.65 -0.06,0.31 -0.18,0.43 -0.51,0.43 -2.02,-0.02 -4.04,-0.01 -6.06,0 -0.34,0 -0.46,-0.06 -0.38,-0.44 0.12,-0.59 0.18,-1.19 0.27,-1.8 -0.19,-0.01 -0.23,0.15 -0.29,0.24 -2.54,3.54 -8.88,2.87 -10.63,-1.56 -1.44,-3.65 -0.58,-10.28 2.69,-13.34 2.33,-2.18 5.06,-2.78 8.11,-2 1.19,0.29 1.85,0.83 3.04,2.24 z m -7.55,8.22 c 0,0.18 -0.01,0.36 0,0.54 0.14,1.97 1.45,3.03 3.27,2.6 1.1,-0.26 1.76,-1.05 2.21,-2.01 0.69,-1.49 0.92,-3.06 0.7,-4.69 -0.19,-1.4 -0.97,-2.22 -2.14,-2.32 -1.16,-0.09 -2.09,0.33 -2.77,1.27 -0.99,1.38 -1.19,2.98 -1.27,4.61 z"
   id="path5" />
	<path
   class="st0"
   d="m 149.77,156.97 c -1.12,1.21 -2.42,2.16 -4.04,2.6 -1.6,0.44 -3.19,0.4 -4.74,-0.16 -2.03,-0.73 -3.19,-2.68 -2.99,-4.95 0.19,-2.09 0.7,-4.12 1.13,-6.17 0.51,-2.45 1.05,-4.89 1.55,-7.34 0.06,-0.31 0.18,-0.39 0.48,-0.39 2.09,0.01 4.17,0.01 6.26,0 0.29,0 0.39,0.03 0.32,0.37 -0.7,3.23 -1.38,6.46 -2.07,9.69 -0.09,0.43 -0.18,0.87 -0.21,1.31 -0.11,1.49 0.86,2.35 2.36,2.18 1.15,-0.13 1.94,-0.73 2.44,-1.75 0.5,-1.01 0.68,-2.11 0.91,-3.2 0.57,-2.7 1.14,-5.41 1.7,-8.11 0.07,-0.36 0.2,-0.49 0.6,-0.49 2.02,0.03 4.04,0.03 6.06,0 0.45,-0.01 0.5,0.12 0.41,0.51 -1.14,5.52 -2.26,11.05 -3.39,16.58 -0.11,0.54 -0.24,1.09 -0.33,1.63 -0.04,0.24 -0.13,0.33 -0.38,0.33 -2.05,-0.01 -4.11,-0.01 -6.16,0 -0.32,0 -0.35,-0.14 -0.29,-0.39 0.13,-0.56 0.25,-1.12 0.36,-1.68 0.02,-0.19 0.12,-0.38 0.02,-0.57 0.02,-0.01 0.04,-0.01 0.06,-0.01 -0.01,0 -0.02,-0.01 -0.02,-0.01 -0.02,0 -0.03,0.01 -0.04,0.02 z"
   id="path6" />
	<path
   class="st0"
   d="m 201.6,153.94 c -0.79,2.31 -2.21,3.98 -4.4,4.91 -3.07,1.3 -6.25,1.47 -9.43,0.49 -2.88,-0.89 -4.51,-2.94 -4.98,-5.88 -0.43,-2.65 -0.1,-5.23 1.16,-7.63 1.67,-3.16 4.41,-4.86 7.87,-5.44 2.94,-0.5 5.69,0.05 8.08,1.93 1.78,1.4 2.67,3.28 2.8,5.52 0.07,1.11 0.03,2.22 -0.19,3.32 -0.08,0.37 -0.19,0.53 -0.63,0.52 -4.06,-0.02 -8.11,0 -12.17,-0.03 -0.48,0 -0.56,0.16 -0.49,0.56 0.04,0.24 0.05,0.49 0.11,0.73 0.24,1.07 0.75,1.95 1.91,2.19 1.27,0.26 2.46,0.11 3.4,-0.9 0.2,-0.21 0.36,-0.31 0.66,-0.31 2.07,0.02 4.16,0.02 6.3,0.02 z m -8.63,-5.92 c 0.92,0 1.84,0 2.75,0 0.18,0 0.34,0.02 0.39,-0.25 0.21,-1.09 -0.39,-2.22 -1.43,-2.63 -1.95,-0.77 -4.37,0.54 -4.79,2.58 -0.07,0.33 0.12,0.3 0.33,0.3 0.92,0 1.83,0 2.75,0 z"
   id="path7" />
	<path
   class="st0"
   d="m 62.02,151.61 c -2.04,0 -4.07,0.01 -6.11,-0.01 -0.36,0 -0.5,0.08 -0.46,0.46 0.05,0.46 0.1,0.91 0.25,1.35 0.51,1.5 1.95,2.14 3.71,1.66 0.6,-0.16 1.14,-0.44 1.52,-0.94 0.14,-0.18 0.29,-0.23 0.5,-0.23 1.99,0.01 3.97,0.01 5.96,0 0.4,0 0.43,0.1 0.29,0.45 -0.93,2.36 -2.61,3.95 -4.99,4.76 -2.72,0.93 -5.51,1.05 -8.29,0.31 -3.15,-0.85 -4.95,-2.99 -5.41,-6.18 -0.38,-2.65 -0.04,-5.24 1.28,-7.61 1.74,-3.14 4.52,-4.79 8,-5.33 2.61,-0.41 5.07,0.05 7.29,1.54 2.15,1.45 3.23,3.52 3.38,6.07 0.07,1.1 0,2.19 -0.21,3.27 -0.06,0.33 -0.19,0.45 -0.55,0.44 -2.05,-0.02 -4.1,-0.01 -6.16,-0.01 z m -2.82,-3.65 c 0.92,0 1.84,0 2.76,0 0.21,0 0.37,0 0.41,-0.28 0.18,-1.27 -0.56,-2.39 -1.82,-2.69 -1.94,-0.47 -3.84,0.67 -4.38,2.62 -0.08,0.28 -0.01,0.37 0.28,0.36 0.91,-0.02 1.83,-0.01 2.75,-0.01 z"
   id="path8" />
	<path
   class="st1"
   d="m 251.57,139.16 c 1.1,-1.44 2.27,-2.84 3.44,-4.23 1.01,1.2 2.04,2.39 3.02,3.62 0.99,1.24 2.21,1.85 3.83,1.78 1.7,-0.07 3.41,-0.02 5.12,-0.02 0.38,0 0.76,0.01 1.12,0.1 1.39,0.35 2.22,1.52 2.08,2.92 -0.14,1.41 -1.21,2.41 -2.68,2.43 -1.85,0.03 -3.71,0.07 -5.56,-0.01 -1.65,-0.06 -2.91,0.52 -3.93,1.8 -0.98,1.24 -2.05,2.42 -3.01,3.69 -1.2,1.36 -2.32,2.78 -3.46,4.19 -0.74,0.9 -1.48,1.79 -2.22,2.69 -0.84,1.02 -1.92,1.56 -3.25,1.56 -3.43,0 -6.86,0.03 -10.29,-0.01 -2.09,-0.02 -3.35,-1.74 -2.73,-3.63 0.36,-1.12 1.4,-1.8 2.82,-1.8 2.76,-0.01 5.52,-0.03 8.27,0.01 1,0.02 1.74,-0.31 2.34,-1.08 0.52,-0.67 1.06,-1.33 1.6,-1.99 1.18,-1.38 2.33,-2.78 3.44,-4.22 0.69,-0.83 1.4,-1.64 2.06,-2.49 0.81,-1.03 0.79,-1.84 -0.02,-2.88 -0.65,-0.82 -1.33,-1.62 -1.99,-2.43 z"
   id="path9" />
	<path
   class="st0"
   d="m 163.42,159.6 c -1.03,0 -2.07,-0.01 -3.1,0.01 -0.38,0.01 -0.43,-0.13 -0.36,-0.46 1.8,-8.77 3.6,-17.54 5.39,-26.31 0.06,-0.3 0.18,-0.4 0.48,-0.39 2.08,0.01 4.17,0.02 6.25,0 0.43,-0.01 0.43,0.14 0.36,0.48 -0.74,3.55 -1.48,7.1 -2.21,10.65 -1.07,5.17 -2.15,10.33 -3.2,15.5 -0.08,0.41 -0.23,0.56 -0.66,0.54 -0.98,-0.05 -1.97,-0.02 -2.95,-0.02 z"
   id="path10" />
	<path
   class="st0"
   d="m 179.96,132.44 c 1.05,0 2.1,0.01 3.15,-0.01 0.31,0 0.4,0.07 0.33,0.39 -1.33,6.45 -2.64,12.91 -3.96,19.36 -0.47,2.32 -0.96,4.64 -1.42,6.97 -0.07,0.34 -0.18,0.45 -0.54,0.45 -2.05,-0.02 -4.11,-0.01 -6.16,0 -0.35,0 -0.44,-0.05 -0.36,-0.44 1.77,-8.73 3.53,-17.46 5.28,-26.19 0.08,-0.41 0.23,-0.56 0.66,-0.54 1.02,0.04 2.02,0.01 3.02,0.01 z"
   id="path11" />
	<path
   class="st0"
   d="m 213.52,143.33 c 0.64,-0.85 1.28,-1.5 2.02,-2.05 1.63,-1.2 3.44,-1.44 5.38,-1.06 0.35,0.07 0.44,0.2 0.36,0.56 -0.4,1.89 -0.78,3.78 -1.14,5.67 -0.07,0.37 -0.19,0.42 -0.54,0.32 -1.21,-0.37 -2.46,-0.42 -3.7,-0.2 -1.56,0.29 -2.54,1.27 -3.15,2.68 -0.64,1.5 -0.85,3.12 -1.18,4.7 -0.36,1.73 -0.7,3.46 -1.03,5.19 -0.06,0.33 -0.17,0.46 -0.53,0.46 -2.07,-0.02 -4.14,-0.02 -6.21,0 -0.33,0 -0.4,-0.06 -0.33,-0.41 1.02,-5.03 2.02,-10.06 3.03,-15.09 0.21,-1.04 0.43,-2.08 0.62,-3.13 0.06,-0.32 0.16,-0.44 0.5,-0.44 2,0.02 4.01,0.01 6.01,0 0.32,0 0.42,0.05 0.34,0.41 -0.18,0.75 -0.29,1.5 -0.45,2.39 z"
   id="path12" />
	<path
   class="st0"
   d="m 73.18,159.6 c -1,0 -2,-0.02 -3,0.01 -0.42,0.01 -0.52,-0.07 -0.43,-0.5 0.75,-3.62 1.48,-7.24 2.21,-10.86 0.48,-2.37 0.97,-4.74 1.43,-7.11 0.09,-0.46 0.25,-0.59 0.72,-0.58 2,0.03 4.01,0.02 6.01,0 0.4,0 0.44,0.1 0.37,0.46 -1.21,5.88 -2.4,11.75 -3.6,17.63 -0.19,0.95 -0.2,0.95 -1.19,0.95 -0.84,0 -1.68,0 -2.52,0 z"
   id="path13" />
	<path
   class="st0"
   d="m 251.55,155.44 c 1.14,-1.41 2.25,-2.83 3.46,-4.19 0.54,0.64 1.09,1.27 1.6,1.92 0.59,0.74 1.3,1.11 2.29,1.09 2.73,-0.05 5.45,-0.01 8.18,-0.02 0.38,0 0.76,0.03 1.12,0.13 1.3,0.35 2.06,1.4 1.99,2.74 -0.06,1.3 -0.97,2.31 -2.28,2.52 -0.31,0.05 -0.62,0.06 -0.93,0.06 -3.19,0 -6.37,-0.03 -9.56,0.01 -1.64,0.02 -2.92,-0.58 -3.91,-1.87 -0.63,-0.81 -1.3,-1.59 -1.96,-2.39 z"
   id="path14" />
	<path
   class="st0"
   d="m 77.53,138.66 c -1.02,0 -2.03,-0.01 -3.05,0.01 -0.35,0.01 -0.46,-0.09 -0.38,-0.44 0.3,-1.39 0.59,-2.78 0.87,-4.17 0.05,-0.26 0.17,-0.34 0.43,-0.34 2.1,0.01 4.2,0.01 6.3,0 0.31,0 0.41,0.06 0.33,0.39 -0.31,1.39 -0.59,2.78 -0.87,4.17 -0.06,0.28 -0.16,0.4 -0.48,0.4 -1.05,-0.04 -2.1,-0.02 -3.15,-0.02 z"
   id="path15" />
	<path
   class="st0"
   d="m 156.21,133.82 c 0.9,0 1.81,0.01 2.71,-0.01 0.35,-0.01 0.4,0.09 0.33,0.42 -0.29,1.31 -0.56,2.62 -0.83,3.93 -0.06,0.3 -0.19,0.39 -0.49,0.38 -1.8,-0.01 -3.61,-0.01 -5.41,0 -0.31,0 -0.45,-0.05 -0.37,-0.4 0.3,-1.32 0.58,-2.65 0.85,-3.98 0.06,-0.3 0.2,-0.35 0.46,-0.35 0.92,0.01 1.83,0.01 2.75,0.01 z"
   id="path16" />
	<path
   class="st0"
   d="m 147.5,133.82 c 0.9,0 1.8,0.02 2.71,-0.01 0.36,-0.01 0.41,0.13 0.34,0.43 -0.29,1.31 -0.57,2.62 -0.83,3.93 -0.06,0.28 -0.16,0.37 -0.44,0.37 -1.84,-0.01 -3.67,-0.01 -5.51,0 -0.32,0 -0.37,-0.08 -0.31,-0.39 0.29,-1.32 0.56,-2.65 0.83,-3.98 0.05,-0.27 0.16,-0.37 0.46,-0.36 0.91,0.02 1.83,0.01 2.75,0.01 z"
   id="path17" />
	<path
   class="st0"
   d="m 149.77,156.97 c 0.01,-0.01 0.02,-0.02 0.04,-0.02 0,0 0.01,0.01 0.02,0.01 -0.02,0 -0.04,0 -0.06,0.01 -0.01,-0.01 0,0 0,0 z"
   id="path18" />
</g>
</svg>
